<svg xmlns="http://www.w3.org/2000/svg" viewBox="0 0 1919.64 1051.17"><defs><style>.cls-1{fill:#152322;}</style></defs><title>fond2Plan de travail 7 copie 4</title><g id="Calque_2" data-name="Calque 2"><path class="cls-1" d="M1919.35,641.91c-4.51-.59-11.46,5.25-17.72,8.71a3,3,0,0,1-1.86.34c-41.84-4.9-85.48-11.32-129.8-14.86-80.26-6.4-158.66-1.81-231.62,20.7-37.29,11.5-69,26.94-93,46.19-1.86,1.5-.62,4.21,1.92,4.21h100.5a3,3,0,0,0,2.29-1c4.72-5.65,9-10.78,13.21-15.82,1.42-1.69,4.51-1.14,5,.91,1.72,7.19.07,14.7,5.67,18.08,6.89,4.16,23,3,33.73,3.66a2.94,2.94,0,0,0,2.67-1.24l17-26.12a3.06,3.06,0,0,1,4.61-.37c7.44,7.74,12.86,13.13,17.73,18.7,8.42,9.62,33.94,17.12,57,14.55,17.65-2,10.29-12.44,14.32-19.06a7.47,7.47,0,0,1,1.6-1.49,3.16,3.16,0,0,1,2.68-.6c28.24,6.66,44.33,19.65,58.26,34.81,1.33,1.45.39,3.6-1.71,3.93l-27.86,4.32c-2.73.43-3.16,3.69-.61,4.63l.22.08c2.84,1.05,1.9,4.74-1.19,4.66-27.88-.68-31.94-.12-32.92,3.81a2.71,2.71,0,0,1-2.4,2l-28.22,3.15c-.09,4.85-.06,3.46-.15,8.32l11.13,1.55c3,.41,3.2,4.06.28,4.74l-21.2,4.95a3.15,3.15,0,0,1-2.8-.7c-9.08-8.27-21.74-11.48-36.38-8.43a3.06,3.06,0,0,1-2.76-.73c-33.4-32.72-82.94-47.45-144.22-46.69-62.48.78-117,16.26-165.36,39-4.27,2-7.69,4.63-11.84,7.67-1.85,1.36-1,4,1.43,4.26,24.16,3,46.13,10.4,64.77-3.77a3,3,0,0,1,4.51,1c7.47,17.63,9.55,17.89,40,19.85,10.43.66,20.86,1.36,32.15,2.09a2.82,2.82,0,0,0,2.94-1.81c.68-2.25,1.34-4.4,2-6.51s3.52-2.44,4.93-.82c9.39,10.82,32,11.3,46.73,17.45a2.28,2.28,0,0,1,.7,4c-11.23,9.29-13.24,19.31-6.81,29.51,5.33,8.42,12.63,16.42,19.84,24.92,1.51,1.78-.3,4.29-2.79,3.84a9.3,9.3,0,0,1-1.79-.48c-15.54-6.21-30.54-12.94-46.55-18.7-5.4-1.95-12.43-2.34-19-3.14a2.71,2.71,0,0,0-3.15,2.19c-.36,3.39-.95,6.81,0,10.08a55.14,55.14,0,0,0,4,9.56c1.12,2.22-1.77,4.34-4.1,3-23.55-13.39-44.34-27.4-66.43-40.68-3.21-1.92-8.07-2.9-13.25-3.7-8.34-1.28-16.45,4-16.49,11.48a10.42,10.42,0,0,0,.69,3.34c3.59,8.74,11.42,16.86,16.09,25.5,5.72,10.62,9,21.49,6.13,32.79-.41,1.64-2.63,2.41-4.26,1.5-6.8-3.79-11.73-7.91-17.08-11.84-11.78-8.64-23.07-17.57-36.05-25.55-14.32-8.79-26.36-7.37-34.79,3.81-4.26,5.65-6.51,11.93-8.5,18-4.12,12.72-7.63,25.5-12.07,40.83-.54,1.87-3.27,2.48-4.78,1.07-4.54-4.27-7.44-6.92-10.13-9.65-8.79-8.95-16.58-18.28-26.38-26.83-9.14-8-15-8.15-21.94-2.53a3.16,3.16,0,0,1-3.45.26c-15.47-8.75-30-18.84-47.88-25.93-21-8.33-41.13-4-54.44,8.71-3.4,3.26-6.39,6.66-8.87,9.42a3.09,3.09,0,0,1-4.07.31c-12.84-10-24.74-19.9-38.08-29.1-15.68-10.83-37.09-12.71-58.72-8.38-22.15,4.44-24.76,16.59-25.81,28.29-.64,7.11-.29,14.26-.18,21.31,0,1.71-1.91,2.91-3.76,2.33-39.61-12.39-58.16-15.4-69.14-7.39-7.62,5.55-9.12,14-11.49,20.9a3,3,0,0,1-4.58,1.07,46.32,46.32,0,0,0-40.19-9.43c-15.36,3.4-27.44,11.89-38,17.27a3,3,0,0,1-3.56-.59c-16-17.64-34.14-38.25-53.66-58.4-6-6.24-15-12.08-24.79-16.42-22.6-10-39.7-7.45-47.28,7a3,3,0,0,1-5,.23c-2-3.12-3.82-5.93-6.89-8.13-4.68-3.36-13-8.15-17.83-7.48-6.58.91-13.86,5.86-16.26,10s-2.81,8.42-3.36,13.69c-.25,2.45-4.06,3.06-5.3.85-.35-.62-.67-1.19-1-1.76-6.19-10.79-11.27-21.88-19.19-32.22-3-3.88-12.91-8.61-19-8.3-7.4.38-18,4.91-20.28,9-5.89,10.74-8.52,22.14-11.39,33.37a32,32,0,0,0-.47,10.26c.14,2-2.38,3.25-4.32,2.18-8.21-4.56-15.9-10.12-24.3-10.52-18.15-.86-24.86,9.53-31.26,18.05a80.33,80.33,0,0,0-4.42,6.75c-1.25,2.08-4.84,1.56-5.24-.77-2.47-14.2-5.16-27.23-6.08-40.31-1.53-21.46-11.57-34.07-57.5-12.16-29.16,13.92-55.9,29.58-83.33,44.74-2.14,1.19-4.8-.51-4.2-2.65a12.67,12.67,0,0,0,.43-2.42c.3-3.65-.87-7.34-1.78-11a2.81,2.81,0,0,0-3.28-1.88c-6.1,1.09-12.84,1.75-17.19,4-22.42,11.57-44,23.71-67.07,36.34a3.19,3.19,0,0,1-2.9,0c-20.82-10.49-48.67-14.1-78-15.66-14.46-.77-25.17-13.9-16-21.21,10.91-8.67,24.63-16.14,39.53-25.37a3,3,0,0,1,4.23,1l8.79,18.24a2.83,2.83,0,0,0,2.63,1.49c20.19-.35,32.93-4.07,35.33-17.08,1-5.59,7-10.87,13.16-18.27a3,3,0,0,1,4.74.24l13.52,21.37a2.78,2.78,0,0,0,2,1.21c35.53,5,32-13.21,41.79-24.74a3.11,3.11,0,0,1,3.77-.6c5.12,2.81,8.8,5.33,13.45,6.68,5.42,1.56,12.77,3.09,18.08,2.19,45.26-7.63,80.09-24.22,113.86-46a2.3,2.3,0,0,0-.57-4.19c-35-13.2-68.54-26.22-103-38.4-7.25-2.56-18.23-2.68-27.2-2.17-39.13,2.22-73.67,12.24-107.4,23.21-20.12,6.55-40,13.32-59.94,20.09a1.52,1.52,0,0,1-1.8-.62l-.69-1.3c.07-.45.14-.92.22-1.36.85-.72.28-2.11-1-2.06l-24.3.89c-2,.07-3.43-1.65-2.73-3.27l.07-.17c.74-1.72-.91-3.5-3-3.25l-12.76,1.53c-2.75.34-4.32-2.65-2.22-4.24l9.25-7c1.8-1.36.94-3.93-1.42-4.24C98.92,748.79,87,747.07,94.16,737c10.14-14.21,21.87-28,34.6-44a3.09,3.09,0,0,1,4.17-.44c14.41,11,27,21.14,40.69,30.66,4.35,3,12.52,6.25,18.53,6,27.51-1.13,54.8-4.39,82.3-5.09,22-.56,44.18,1.42,60.07-10.56,1.06-.8,3.33-1,5.74-1.36a2.77,2.77,0,0,1,3.14,1.9c2.23,9.66,15.38,8.15,27.79,9.21a2.67,2.67,0,0,0,3.06-2.41V690.7l8.64-3.19c4.84,4,9.79,8,13.73,12.3,18.11,19.77,17.9,19.86,55.27,12.7,2.2-.43,4.25-1.1,7.95-2.21a2.32,2.32,0,0,0,1.31-3.79l-24.21-27.59c-1.69-1.93.56-4.59,3.18-3.77,20.74,6.49,40.15,14.24,59.7,21.87,5.54,2.16,12.41,5.92,17.41,5.32,22.06-2.64,43.76-6.29,65.52-9.71,2.46-.39,3.16-3.17,1.1-4.39C479,626.39,331.38,591,177.4,630.52c-2.94.75-4.91-2.59-2.5-4.24,9.72-6.65-32.24-14.15-60.83-7.84-2.52.55-4.48-1.9-3-3.75l11.3-14.06c1.43-1.78-.33-4.15-2.78-3.79-46.66,6.93-85.7,20.17-119,39.45a2.38,2.38,0,0,0-1.25,2c0,105.24,1.28,412.25,1.28,412.25s1725.54,1.06,1918.72,1.2l1.28-409.66Z"/></g></svg>