<svg xmlns="http://www.w3.org/2000/svg" viewBox="0 0 1919.64 1051.17"><defs><style>.cls-1{fill:#0c0d09;}</style></defs><title>fond2Plan de travail 7 copie 5</title><g id="Calque_2" data-name="Calque 2"><rect class="cls-1" x="-1.28" y="952.11" width="1921.83" height="99.06"/><path d="M1090.12,930.4c3.85,7.09,6.89,12.71,9.75,18,30-2.61,25-16,35.14-27.39l57.54,25.42,3.78-.71-42.44-48.8c45.89,5.45,73.07,18.66,84.29,42l24.07-16.49,3.68.82v18.08l41.22-26.35c-3.68,13.49-6.57,24.06-9.46,34.63l3.91-.22c12.31-8.89,25-17.66,36.56-26.81,2-1.62-.34-4.94-1.49-7.37-1.76-3.74-4.23-7.4-7.6-13.16,38,2.67,55.83,15.4,72.35,28.52,14.87-15.21,26.38-31.85,45.8-45.47s46.66-24.12,73.41-34.85c-31.88,23.44-54,48.28-52.49,77.1.42,8.05,6.9,16,10.71,24.25l53.33-27c-1.09,9.4-1.83,15.84-2.74,23.67l38.36-21.75L1544,897.07c34.23,4.62,52.51,15.23,65.21,28.21l47.89-28.93,4.16,1.41c-11,14.38-26.53,28.45-11.14,47.35,5.29-25.9,26.33-42.45,71.72-47.23l-46.49,44.3,5.15,1.4c19.33-14.9,23.62-15.54,54.46-7.51.91-3.27,1.74-6.3,3.11-11.23l22,7.48c7.5-13.66,14.4-27,22.29-40.17,2.56-4.28,7.72-8.15,13.56-11.92-10.5,17.53-18.7,34.82-1.87,52.91l42.77-20-7.3,23.5,32.63-21.55,3.44,1.37-13.2,29.27L1892.06,913l4.94,1.32V936l33-7.14V960H1796.2q-325.93,0-651.85,0-322,0-644.1-.1-226,0-452,0c-42.37,0-42.43.18-41.49-25.58l23,13.28c-3.09-17.79,6.44-32.19,28.63-44.47-6.9,16.13-9.27,31.9,8,47.94,4.19-14.15,11.73-26,41.18-32.62-8,11.78-21.22,22-3.69,34.1,17.68-16.87,45.65-24.84,78.21-31l-20.36,29,2.63,0,61.21-38.38,5.39,2Q224.79,929,218.54,943.9c28.35-19,53.06-30.3,95.64-40.67-20.8,13.62-34.78,26.61-31.24,42.59l49.47-15.18c1.79,6.59,3.11,11.48,4.44,16.37,12-12.91,14.16-12.77,52.07,2.92-.89-5.52-1.76-11-2.88-18,26.32,3.1,33.31,14.69,49.52,23,.74-6.07,1.35-11.06,2.27-18.68l24.33,17.09c-11.06-17.52,9.36-24.86,34.45-31.41L484,947.27l4.64.94c7.4-17.44,36.87-22.51,60.84-31.12l-9.76,23,59.92-25.83,6.72,30.52c19-10.89,19-10.89,62.85,8.84l4.57-11.23,13.18.32c-11-19-21.85-37.57-32.67-56.2,44.35,13,62.29,34.65,79.45,57.21l34-12.22v14.69c9.94-4.1,20.32-7.89,29.42-12.37,3.88-1.91,7-5.26,7.15-8,.39-7.52-1-15.06-1.81-24.39,36.89,9.53,60.4,23,78.56,40.47l14.38-17.5,3.65.53v12.58l37.1-26c-2.08,13.23-3.85,24.46-5.62,35.69l6.35.64c6.75-28.7,32.53-50.87,83.49-66.3-21.9,23.67-25.66,46.67-12.81,70.55l44.89-25.78,4.17,1.74c-2.88,6.32-5.75,12.64-9.18,20.19Z"/></g></svg>