<svg xmlns="http://www.w3.org/2000/svg" xmlns:xlink="http://www.w3.org/1999/xlink" viewBox="0 0 1919.64 1051.17"><defs><style>.cls-1{fill:url(#Dégradé_sans_nom_2);}.cls-2,.cls-4{fill:#1c3f3c;}.cls-2{opacity:0.51;}.cls-3{opacity:0.75;}.cls-5,.cls-7{fill:#0c0d09;}.cls-5{opacity:0.24;}.cls-6{fill:none;}</style><linearGradient id="Dégradé_sans_nom_2" x1="959.83" y1="31.01" x2="959.71" y2="1027.27" gradientUnits="userSpaceOnUse"><stop offset="0" stop-color="#dcf8e3"/><stop offset="0.19" stop-color="#a2f0c7"/><stop offset="0.39" stop-color="#6de9ad"/><stop offset="0.58" stop-color="#44e398"/><stop offset="0.75" stop-color="#26df89"/><stop offset="0.9" stop-color="#14dd80"/><stop offset="1" stop-color="#0ddc7d"/></linearGradient></defs><title>fond2Plan de travail 7 copie 2</title><g id="Calque_2" data-name="Calque 2"><rect class="cls-1" x="-0.23" y="-5.17" width="1920" height="1055.84"/><path d="M1919.27-4.67V1050.17H.27V-4.67h1919m1-1H-.73V1051.17h1921V-5.67Z"/><path class="cls-2" d="M1903.35,451.38c-8.29-26.78-10-53.21-2.81-80.74,9-34.26,16-68.89,10.73-104.74-2.66-18.1-2.55-36.6-2.74-54.93-.7-67.73-.92-135.47-1.73-203.2,0-3.11-3.9-8.73-6.24-8.85-15.45-.8-31-.42-45-.42,2.3,32.33,7.3,61.88,5.8,91.15-2.26,44-4.09,89-15.4,131.51-10.35,38.87-53.53,91.48-71,129.21-9.83-18.42-66-31.81-77-50.24-24.3-40.52-8.12-235.94-7.62-285.41.3-11.11-2.76-16.89-16-16.1-11.71.69-23.52.6-35.26.16-10.29-.38-11.85,4.16-13.07,12.72-6.15,43.31-10.43,87.14-21.17,129.54-12.84,50.68-33.58,99.65-47.09,150.21-11.07,41.4-22.21,83.93-23.27,126.17-1.87,74.73,2.41,149.69,7.08,224.4C1544,682.06,1552.65,722,1558.57,762c1.56,10.57-3.32,118.45,9,118.4,106.45-.47,212.91-.14,319.37-.07,7.65,0,26-104.34,33.61-104.33V507.18Q1912,479.27,1903.35,451.38Z"/><g class="cls-3"><path class="cls-2" d="M898.15,340.33l37.94-4.22-28.76-49.39c2.49-1.1,29.61-27.75,32.1-28.86,12.39,6.58,19.35,20.16,34.32,28.1,74.11-94.41,110.58-171.9,73.8-283.48,12.19-.76,20-1.61,27.8-1.68,28.73-.25,57.49.24,86.19-.49,19-.49,27,3.94,26,17.69-3.57,46.48-4.36,93.09-9.34,139.49-5.69,53.07-45.06,84.83-71.32,135.25-4.37,8.39-9.17,37.29-15.07,45.21-28.15,37.8-5.32,78-1.26,119.67,6.3,64.61,21.16,128.13,48.86,189.9,18.09,40.37,40.77,79.76,61.4,119.58,1.55,3,22.6,109,24.88,113.21H1028.79c-4.66-34.94-28.31-172.47-33.35-207-8.19-56.12-13.1-112.64-26.85-168.12-7.77-31.37-18.71-61.07-32.52-91.93C925.54,389.77,906.44,365.64,898.15,340.33Z"/><path class="cls-2" d="M352.38,777.32H241.7c-.92-23.87-3.12-47.17-2.51-70.42,2.39-91.31,4.28-182.66,9.2-273.86,2.41-44.52,11.85-88.67,16.75-133.12,6.16-55.92,4.92-111.37-7.95-167-8.8-38-10.59-77.33-15.53-116.06C240.31,6.3,243.21,0,257,.34c11.37.3,17.64.86,19.69,14.48C281.3,45.48,289.3,75.73,296.49,106c4.54,19.14,17.72,26.12,25.07,44.38,3.55,8.83,4.68,28.1,12.69,35.07,6.29,5.46,14,9.5,20.6,14.7,17,13.44,25.53,29.84,21.9,51.17-11.06,65.06-24.06,130-31.53,195.38-5.28,46.15-4.64,93.08-3.31,139.59C343.72,649.72,348.7,713.05,352.38,777.32Z"/><path class="cls-2" d="M531.35,840.05c-29.11,0-57.26.46-85.27-.4-5.41-.16-14.12-5.21-14.87-8.46C411,744,373.07,596.3,394,507.69c8-34,8.16-68.47,13.89-102.63,2.81-16.73,10.67-33.18,15.4-49.83,10-35.27,21.15-70.48,28.74-105.92,7.7-35.91,15.64-72,16.29-108.11.8-45-17.55-88.61-50.86-130-1.63-2-2.31-4.3-4.85-9.17,38.07,0,73.43-.43,108.68.51,4.71.13,12.16,7.1,12.67,11.12,4.69,37.05,9.86,74.13,11.59,111.25,4.35,93.27,2.14,186.65-26.57,278.72-13.35,42.81-8.89,83.15,13.92,123.7s20.39,81.31.42,121.22C511.82,691.55,515.06,795.16,531.35,840.05Z"/><path class="cls-2" d="M78.69,774.93c-17.41,0-34.24.45-51-.4-3.23-.17-8.45-5.21-8.9-8.46C6.71,678.91-9.92,592.06,2.61,503.45c4.8-34,4.88-68.47,8.31-102.63,1.68-16.73,6.38-33.18,9.21-49.83,6-35.27,12.65-70.48,17.19-105.92,4.61-35.91,9.36-72,9.74-108.11.48-45-10.49-88.61-30.42-130-1-2-1.38-4.3-2.9-9.17,22.77,0,43.92-.43,65,.51,2.83.13,7.28,7.1,7.59,11.12,2.8,37.05,5.89,74.13,6.93,111.25,2.6,93.27,1.28,186.65-15.9,278.72-8,42.81-5.31,83.15,8.33,123.7s12.2,81.31.25,121.22C73.07,687.31,69,730,78.69,774.93Z"/></g><path class="cls-4" d="M1858.07,678.23c-37.63-13.67-76.16-26.17-119.81-28.93-10-.64-22.27-.5-30.35,2.7-40,15.82-79,32.78-119.81,50,39,28.72,78.92,50.64,131.33,60.51,5.92,1.12,14.12-.78,20.17-2.73,5.89-1.91,10.37-5.68,17.39-9.75,13.43,14.28,6.59,40.17,50,32.78l18.23-32.22c7.78,11.41,16.23,18.85,17.54,26.78,2.76,16.73,17.79,21.13,41.53,21.33l12.14-28.17c8.35,5.88,16.4,11.15,23.94,16.28l.75-85C1900.14,693.86,1879.21,685.92,1858.07,678.23Z"/><path class="cls-4" d="M1837.24,851.27c-26.37-16.1-50.91-31.57-76.43-46.3-5.6-3.23-14.74-3.83-22.24-5.65-1,5.59-3,11.21-2.6,16.76a18.57,18.57,0,0,0,7.43,13.45c-34.74-21.07-68-43.37-104.59-62.9-51.24-27.32-62.45-11.6-64.14,15.16-1.21,19.09-5.12,38.1-8.16,59.48-3.8-6.8-6.18-11.86-9.41-16.68C1550,814,1542.48,801,1522.23,802.08c-11.09.59-21.06,10.18-32.2,16,0-5.07,1.24-11.89-.25-18.44-3.2-14-6.14-28.22-12.71-41.61-2.49-5.06-14.37-10.7-22.63-11.18-6.77-.39-17.87,5.51-21.18,10.35-8.82,12.89-14.49,26.71-21.4,40.17-1.43,2.8-2.81,5.61-5.82,11.61-1.8-11.6-1.09-20.08-5-27.55-2.67-5.15-10.79-11.33-18.13-12.47-5.36-.83-14.67,5.14-19.9,9.33-5,4-7,9.6-11.07,15.66-6.91-23-27.22-28.23-54.94-14.51-10.93,5.41-20.92,12.69-27.67,20.48-22.44,25.88-43.22,52.39-61.51,74.82-12.27-6.55-26.38-18.29-44.65-22.82-23.23-5.75-40.08,6.18-48.26,15.18-3.94-9.21-4.38-22.56-14.51-30.81-12.64-10.3-34.25-6-81.36,10.71,0-10.22.67-20.62-.17-31-1.17-14.58-4.08-29.73-28.8-35.27-24.12-5.4-48-3-65.51,10.44-15.73,12.13-29.67,25.26-45,38.43-3.09-3.72-7.15-9.14-11.95-14.27-14.85-15.89-37.26-21.24-60.73-10.87-20.82,9.21-37.47,22.46-55.53,33.67-8.55-8.64-15.27-9.18-26.21,1.5S705.59,862,695.78,873.15c-3.7,4.21-7.77,8.27-15.21,16.16-5.64-21.58-9.86-39-14.89-56.36-2.21-7.64-4.73-15.46-9.48-22.5-9.4-13.94-22.84-15.72-38.8-4.76-14.49,9.95-27.09,21.09-40.22,31.86-6.89,5.65-13.15,11.62-22.72,16.92-4.94-15.54-1.25-30.41,5.75-44.91,5.29-10.94,14.22-21.22,18.13-32.31a10.39,10.39,0,0,0,.58-3.21c.28-9.33-9.62-16.34-19.8-14.49-5.24,1-10.09,2.16-13.37,4.36-27.33,18.35-52.87,37.84-82.82,56.15,3-7,6.78-14,8.6-21.12,1.3-5.11-.07-10.51-.25-15.79-8.25,1.4-17.59,1.62-24.52,4.41-17.86,7.19-34.59,15.57-51.94,23.32-2.12,1-5.24.94-9.41,1.61,9.34-12.82,19.43-24.47,26.44-36.87,7.76-13.74,4.51-27.24-10.85-39.59,18-11.09,52.45-8.95,59.64-30.39,1.57,5.8,3.15,11.61,4.9,18.07,13.61-1,26-1.92,38.49-2.81,36.11-2.59,36.48-2.8,46.29-29.1,23.3,23.7,51.57,9.94,82.88,7-7.54-5.69-12.29-10.58-18.84-14-54-28.33-114.77-47.63-184.47-48.6-69.14-1-124.87,17.83-162.15,59.58-17.81-4.73-33.12-.31-43.7,11.41l-39.58-10.33,48.14-7.49c0-2.54,0-1.86-.08-4.39l-55.27-6.88c-.74-7.79-2.17-8-53.6-6.41l25.12-10.38-46.52-8.08c16.59-21,35.14-39.13,69.95-47.84,1.66,1.63,2.62,2.28,3,3,4.5,8.26-3.71,21.31,16,23.77,25.68,3.21,54.16-6.15,63.55-18.15,6-7.72,12.85-15.18,22.69-26.7l22.12,38.13c11.85-1.1,31.5.75,39.62-4.73,7.66-5.17,3.17-18,8.33-28.45l19.27,25.77H488.29C461,591.62,423.5,570.61,378.92,555.24c-81.4-28.07-168.87-33.8-258.41-25.81-40.88,3.65-81.25,9.75-120.4,15.21V930.33q299.43-.15,598.85.16,316.29,0,632.58-.41,283.62,0,567.24.43l120.27,0,.88-99.35C1888.65,833.39,1859.23,838.28,1837.24,851.27Z"/><path class="cls-4" d="M1913.3,527.36c-180.64-57.86-354.83-10.87-475.78,71.25,26.78,4.61,53.43,9.78,80.56,13.41,5.58.74,13.25-3.94,19.43-6.64,24.86-10.85,49.52-21.9,76.41-30.56L1578,620.59c6.92,2.21,9.82,3.42,13,4.1,41.7,8.93,41.46,8.82,61.66-15.83,5.79-7.07,13.57-13.45,20.39-20.17l4.56,1.6v48.23c15.76-2.27,34.05,1.63,34.77-14.79,3.66.8,7.92.85,9.56,2.23,17.73,14.94,42.43,12.47,67,13.17,30.68.87,61.13,4.93,91.82,6.35,6.71.31,15.81-3.72,20.67-7.48,6.95-5.4,13.64-10.94,20.38-16.67l.8-90.74Z"/><polygon class="cls-5" points="1919.46 1053.97 -0.18 1056.3 -0.18 -1.71 1919.46 -4.04 1919.46 1053.97"/><path class="cls-6" d="M993.66,199.17l.15.28a24.81,24.81,0,0,1,3.68-.28Z"/><rect class="cls-7" x="-1.28" y="899.89" width="1921.83" height="151.27"/></g></svg>