<svg xmlns="http://www.w3.org/2000/svg" viewBox="0 0 49.12 45.38"><defs><style>.cls-1{fill:#fff;}</style></defs><title>fond2Plan de travail 65</title><g id="Calque_2" data-name="Calque 2"><path class="cls-1" d="M25.67,4A19.27,19.27,0,0,0,6.24,23.13,19.13,19.13,0,0,0,19.53,41.25c1,.18,1.33-.41,1.33-.92s0-1.65,0-3.24c-5.41,1.15-6.55-2.57-6.55-2.57a5.07,5.07,0,0,0-2.16-2.79c-1.76-1.18.14-1.16.14-1.16a4.07,4.07,0,0,1,3,2c1.73,2.92,4.55,2.07,5.66,1.59a4,4,0,0,1,1.23-2.56c-4.32-.48-8.86-2.12-8.86-9.44a7.33,7.33,0,0,1,2-5.12A6.76,6.76,0,0,1,15.44,12s1.63-.51,5.35,2a18.77,18.77,0,0,1,9.72,0c3.69-2.47,5.32-2,5.32-2A6.86,6.86,0,0,1,36,17a7.33,7.33,0,0,1,2,5.12c0,7.34-4.55,9-8.87,9.43a4.52,4.52,0,0,1,1.31,3.53c0,2.56,0,4.61,0,5.23s.34,1.1,1.34.91a19.07,19.07,0,0,0,13.34-18.1A19.27,19.27,0,0,0,25.67,4Z"/></g></svg>