<svg xmlns="http://www.w3.org/2000/svg" viewBox="0 0 44.65 50.28"><defs><style>.cls-1{fill:#fff;}</style></defs><title>fond2Plan de travail 67</title><g id="Calque_2" data-name="Calque 2"><path id="LinkedIn" class="cls-1" d="M36.9,28.5V40.93H29.69V29.34c0-2.92-1-4.9-3.64-4.9a3.94,3.94,0,0,0-3.7,2.63,4.93,4.93,0,0,0-.24,1.76v12.1H14.9s.1-19.64,0-21.67h7.21v3.07l-.05.07h.05v-.07a7.17,7.17,0,0,1,6.49-3.58C33.34,18.75,36.9,21.85,36.9,28.5ZM7.36,8.81a3.75,3.75,0,1,0-.09,7.49h.05a3.76,3.76,0,1,0,0-7.49ZM3.71,40.93h7.21V19.26H3.71Z"/></g></svg>