<svg xmlns="http://www.w3.org/2000/svg" viewBox="0 0 44.65 52.75"><defs><style>.cls-1{fill:#fff;}</style></defs><title>fond2Plan de travail 63</title><g id="Calque_2" data-name="Calque 2"><path class="cls-1" d="M30.13,4.2H12.29A3.83,3.83,0,0,0,8.46,8V41.16A3.83,3.83,0,0,0,12.29,45H30.13A3.82,3.82,0,0,0,34,41.16V8A3.82,3.82,0,0,0,30.13,4.2ZM25,40.2a1,1,0,0,1-1,1H18.34a1,1,0,0,1-.95-1v-.64a1,1,0,0,1,.95-1h5.74a1,1,0,0,1,1,1Zm5.1-6.37a1,1,0,0,1-1,1H13.24a1,1,0,0,1-1-1V9a1,1,0,0,1,1-1H29.17a1,1,0,0,1,1,1Z"/></g></svg>