<svg xmlns="http://www.w3.org/2000/svg" viewBox="0 0 100.9 111.91"><title>fond2Plan de travail 39</title><g id="Calque_2" data-name="Calque 2"><path d="M78.73,31.79H65.1V76A11.09,11.09,0,0,1,54,87.05H33.93v13.43a6.13,6.13,0,0,0,6.13,6.13H78.73a6.13,6.13,0,0,0,6.13-6.13V37.92A6.13,6.13,0,0,0,78.73,31.79Z"/><path d="M42.17,42c-.13-1.47-1-3-2.52-3a2.49,2.49,0,0,0-2.28,1.59,3,3,0,0,1-5.47,0A2.41,2.41,0,0,0,29.74,39c-1.49,0-2.39,1.49-2.52,3a.9.9,0,0,1,0,.23,4.38,4.38,0,0,0,.14,1,6.44,6.44,0,0,0,2,3.3l5.33,4.84,5.43-4.85a6.46,6.46,0,0,0,2-3.29,4.14,4.14,0,0,0,.13-1c0-.1,0-.06,0-.23Z"/><path d="M60.16,76V11.43A6.13,6.13,0,0,0,54,5.3H15.36a6.13,6.13,0,0,0-6.13,6.13V76a6.13,6.13,0,0,0,6.13,6.12H54A6.13,6.13,0,0,0,60.16,76ZM16.75,24.34v-9a3,3,0,1,1,5.93,0v9a3,3,0,0,1-5.93,0ZM44.06,50.88l0,0-7.43,6.63a3,3,0,0,1-4,0l-7.31-6.63a12.43,12.43,0,0,1-3.78-6.33,8.91,8.91,0,0,1-.24-3.18c.46-4.73,4.07-8.29,8.43-8.29a8,8,0,0,1,4.92,1.67,8.34,8.34,0,0,1,5-1.67c4.36,0,8,3.56,8.43,8.29a9.17,9.17,0,0,1-.24,3.18,12.43,12.43,0,0,1-3.78,6.33ZM52.64,72.1a3,3,0,1,1-5.93,0v-9a3,3,0,1,1,5.93,0Z"/></g></svg>