<svg xmlns="http://www.w3.org/2000/svg" viewBox="0 0 104.6 105.17"><title>fond2Plan de travail 31</title><g id="Calque_2" data-name="Calque 2"><path d="M88,34.82l-1-5.74a1.65,1.65,0,0,0-1.63-1.36h0a1.67,1.67,0,0,0-1.62,1.38L74.19,83.53H26a4.06,4.06,0,0,1-3-1.34,5.17,5.17,0,0,1-1.28-3.75c.35-3.07,2.57-5.29,5.26-5.29H67.19a1.66,1.66,0,0,0,1.64-1.38l9.4-55.62a1.66,1.66,0,0,0-1.63-1.93H36.45c-9.16,0-18.1,7.45-19.94,16.6l-8.57,42a15.92,15.92,0,0,0,3.37,13,15.31,15.31,0,0,0,12,5.3H76.15A3.81,3.81,0,0,0,79.91,88l8-52.59A1.69,1.69,0,0,0,88,34.82Z"/></g></svg>