<svg xmlns="http://www.w3.org/2000/svg" viewBox="0 0 1920 1071.63"><defs><style>.cls-1{fill:#1c3f3c;}.cls-2{fill:#0b0c06;}.cls-3{fill:#fff;}.cls-4{fill:#142a2a;}</style></defs><title>fond2Plan de travail 4 copie 6</title><g id="Calque_6" data-name="Calque 6"><path class="cls-1" d="M1482.13,91.53C1376,53.7,1273.57,84.42,1202.48,138.12c15.74,3,31.41,6.39,47.36,8.76,3.27.49,7.78-2.57,11.41-4.33,14.62-7.1,29.11-14.32,44.92-20l-21.12,29.93c4.07,1.44,5.77,2.24,7.63,2.68,24.5,5.84,24.36,5.77,36.24-10.35,3.4-4.62,8-8.8,12-13.19l2.69,1.05v31.54c9.26-1.49,20,1.06,20.43-9.68,2.15.53,4.65.56,5.62,1.46,10.42,9.77,24.94,8.15,39.39,8.61,18,.57,35.93,3.23,54,4.16,4,.2,9.3-2.43,12.16-4.9,9.48-8.19,18.13-16.89,28.23-26.48,8.81,13.8,16.91,25.59,23.87,37.72,5.44,9.48-5.78,9.9-15.68,11.67l13.72,12.86L1507.76,197c.78,2.28,1.32,3.83,2.08,6l-22.62-1,16.42,9.61-.45.9c-17.83-7.46-35.54-15.08-53.52-22.35-22.12-8.94-44.77-17.11-70.42-18.92-5.89-.42-13.09-.32-17.84,1.77-23.52,10.34-46.43,21.43-70.42,32.66,22.94,18.79,46.39,33.12,77.19,39.58,3.48.72,8.3-.52,11.86-1.8s6.09-3.71,10.22-6.37c7.89,9.34,3.87,26.27,29.36,21.43l10.71-21.06c4.57,7.46,9.55,12.32,10.31,17.51,1.62,10.94,10.46,13.82,24.41,13.94l7.14-18.41c10.49,8.21,20.19,14.62,27.8,22.15,6,5.95-1,16.66-10.48,17.29-19.67,1.3-38.34,4.35-52.08,13.37-15.5-10.52-29.92-20.64-44.93-30.27-3.29-2.11-8.66-2.5-13.07-3.69-.57,3.65-1.76,7.33-1.52,11a12.49,12.49,0,0,0,4.36,8.79c-20.42-13.78-39.94-28.36-61.48-41.13-30.11-17.86-36.7-7.59-37.7,9.91-.71,12.48-3,24.92-4.79,38.9-2.23-4.45-3.63-7.76-5.53-10.91-4.2-6.95-8.6-15.42-20.5-14.72-6.51.39-12.38,6.66-18.92,10.5,0-3.32.73-7.78-.15-12.06-1.88-9.16-3.61-18.45-7.47-27.21-1.46-3.31-8.45-7-13.3-7.31-4-.25-10.5,3.6-12.45,6.77-5.19,8.43-8.52,17.47-12.58,26.26-.84,1.83-1.65,3.67-3.42,7.6-1.06-7.59-.64-13.13-2.92-18-1.57-3.38-6.34-7.42-10.65-8.16-3.15-.54-8.63,3.36-11.7,6.1s-4.1,6.28-6.5,10.24c-4.07-15-16-18.46-32.3-9.49a54.16,54.16,0,0,0-16.26,13.39c-13.19,16.93-25.4,34.26-36.16,48.93-7.21-4.29-15.5-12-26.24-14.92-13.66-3.77-23.56,4-28.37,9.92-2.31-6-2.57-14.75-8.52-20.15-7.43-6.73-20.14-3.9-47.83,7,0-6.68.4-13.48-.09-20.24-.69-9.54-2.4-19.44-16.93-23.06-14.18-3.53-28.23-2-38.51,6.82-9.24,7.93-17.44,16.52-26.43,25.13-1.81-2.43-4.2-6-7-9.33-8.73-10.39-21.9-13.89-35.7-7.11-12.23,6-22,14.69-32.64,22-5-5.65-9-6-15.4,1s-11.54,14.57-17.3,21.86c-2.18,2.75-4.57,5.41-8.94,10.57-3.32-14.11-5.8-25.52-8.75-36.85-1.31-5-2.78-10.11-5.58-14.72-5.52-9.11-13.42-10.27-22.81-3.1-8.51,6.5-15.91,13.78-23.64,20.83-4,3.69-7.72,7.6-13.35,11.06-2.9-10.16-.73-19.89,3.38-29.36,3.11-7.16,8.36-13.88,10.66-21.13a7.56,7.56,0,0,0,.34-2.1,9.66,9.66,0,0,0-11.64-9.48c-3.08.62-5.93,1.41-7.86,2.85-16.06,12-31.08,24.75-48.68,36.72,1.74-4.6,4-9.13,5.05-13.81.77-3.34,0-6.87-.14-10.32-4.85.91-10.34,1.06-14.41,2.88-10.5,4.7-20.33,10.18-30.53,15.25-1.25.62-3.08.61-5.53,1.05,5.49-8.38,11.42-16,15.54-24.11,4.56-9,2.65-17.81-6.38-25.89,10.57-7.24,30.83-5.85,35-19.87.93,3.8,1.86,7.59,2.89,11.81,8-.64,15.3-1.25,22.62-1.83,21.23-1.69,21.44-1.83,27.21-19,13.69,15.49,30.31,6.49,48.71,4.58-4.43-3.72-7.22-6.92-11.07-9.16C686.91,176,651.19,163.33,610.22,162.7c-40.64-.63-73.39,11.66-95.31,39-10.46-3.1-19.47-.21-25.68,7.45L466,202.36l28.3-4.9-.05-2.87-32.48-4.5c-.44-5.09-1.28-5.24-31.51-4.18l14.77-6.8-27.35-5.27c9.76-13.7,20.66-25.6,41.12-31.29a13.85,13.85,0,0,1,1.79,2c2.64,5.4-2.18,13.93,9.39,15.54,15.09,2.1,31.83-4,37.35-11.86,3.55-5.05,7.56-9.93,13.34-17.46l13,24.92c7-.71,18.51.5,23.29-3.09,4.5-3.37,1.86-11.8,4.89-18.6l11.33,16.85h71.41c-16.06-17.29-38.08-31-64.29-41.08C532.42,91.41,481,87.66,428.38,92.88c-29.29,2.91-58.14,8.2-85.78,12.21-4.23-2.74-9.08-8-12.18-7.47-7.76,1.25-12.37,5.75-12.34,12.68.22,50.89,0,101.78-.07,152.67,0,28,.33,56-.14,84-.11,6.51,2.53,8.07,11.21,8.06q190.26-.16,380.52.1,185.89,0,371.81-.27,166.71,0,333.41.28,80,.06,159.89,0c4.9,0,9.79-.79,14.69-1.2V133.08"/><ellipse class="cls-2" cx="1126.27" cy="285.83" rx="14.9" ry="8.54" transform="translate(-35.34 256.7) rotate(-12.8)"/><ellipse class="cls-2" cx="1157.9" cy="285.83" rx="8.54" ry="14.9" transform="translate(655.75 1367.61) rotate(-78.97)"/><ellipse class="cls-2" cx="1131.1" cy="291.81" rx="5.85" ry="10.61"/><ellipse class="cls-2" cx="1143" cy="291.57" rx="5.85" ry="10.61"/><ellipse class="cls-2" cx="1154.12" cy="291.01" rx="5.85" ry="10.61"/><path class="cls-2" d="M1142.24,261.76a32,32,0,0,1-26.76-14.43,33.26,33.26,0,0,0-5.32,18.13c0,18.09,14.24,32.76,31.8,32.76s31.79-14.67,31.79-32.76a33.3,33.3,0,0,0-5.1-17.78A31.76,31.76,0,0,1,1142.24,261.76Z"/><path class="cls-2" d="M1142.24,261.76a31.76,31.76,0,0,0,26.41-14.08,31.27,31.27,0,0,0-53.17-.35A32,32,0,0,0,1142.24,261.76Z"/><ellipse class="cls-3" cx="1140.81" cy="284.16" rx="3.82" ry="2.21" transform="translate(158.06 929.46) rotate(-47.28)"/><ellipse class="cls-3" cx="1143.82" cy="284.03" rx="2.21" ry="3.82" transform="translate(159.13 931.63) rotate(-47.28)"/><ellipse class="cls-4" cx="1126.46" cy="276.1" rx="8.12" ry="8.98" transform="translate(523.44 1266.81) rotate(-72.44)"/><ellipse class="cls-4" cx="1158.83" cy="276.1" rx="8.98" ry="8.12" transform="translate(-21.87 434.41) rotate(-21.04)"/><ellipse class="cls-3" cx="1126.53" cy="276.24" rx="5.49" ry="6.07" transform="translate(523.36 1266.98) rotate(-72.44)"/><ellipse class="cls-3" cx="1158.8" cy="276.25" rx="6.07" ry="5.49" transform="translate(-17 84.89) rotate(-4.17)"/><path class="cls-1" d="M1912.12,298.26c-3.95-5.33-7-5.66-12.1.92s-9.06,13.74-13.58,20.61c-1.71,2.59-3.59,5.1-7,10-2.61-13.3-4.55-24.05-6.87-34.73a57.7,57.7,0,0,0-4.38-13.87c-4.34-8.59-10.54-9.69-17.91-2.93-6.68,6.13-12.5,13-18.56,19.63-3.18,3.48-6.07,7.17-10.48,10.43-2.28-9.57-.58-18.74,2.65-27.67,2.44-6.75,6.56-13.08,8.37-19.92a8.67,8.67,0,0,0,.27-2c.13-5.75-4.45-10.07-9.14-8.93a14.27,14.27,0,0,0-6.17,2.69c-12.61,11.31-24.4,23.32-38.22,34.6,1.36-4.33,3.12-8.6,4-13,.61-3.15,0-6.48-.11-9.73-3.8.86-8.12,1-11.32,2.72-8.24,4.43-16,9.59-24,14.37-1,.58-2.42.57-4.35,1,4.31-7.9,9-15.08,12.2-22.72,3.59-8.47,2.09-16.79-5-24.4,8.3-6.83,24.2-5.52,27.52-18.73.73,3.58,1.45,7.15,2.26,11.13l17.76-1.73c16.67-1.59,16.84-1.72,21.37-17.93,10.75,14.61,23.8,6.13,38.24,4.33-3.47-3.51-5.67-6.52-8.69-8.64-24.92-17.46-53-29.36-85.13-29.95-31.91-.6-57.63,11-74.83,36.72-8.22-2.92-15.29-.2-20.17,7l-18.26-6.37,22.21-4.62c0-1.56,0-1.14,0-2.7l-25.51-4.24c-.34-4.8-1-5-24.74-4l11.59-6.4-21.47-5c7.66-12.91,16.22-24.11,32.29-29.48a12.27,12.27,0,0,1,1.4,1.88c2.08,5.09-1.71,13.13,7.38,14.64,11.85,2,25-3.79,29.32-11.18,2.79-4.76,5.93-9.36,10.47-16.46l10.21,23.5c5.47-.68,14.54.46,18.29-2.91,3.53-3.19,1.46-11.13,3.84-17.54l8.89,15.89h56.07c-12.61-16.31-29.9-29.26-50.47-38.73-37.57-17.29-77.93-20.82-119.26-15.9-23,2.74-45.64,7.73-67.34,11.51-3.33-2.59-7.13-7.52-9.56-7-6.1,1.19-9.72,5.42-9.7,12,.18,48,0,95.92,0,143.88,0,26.39.26,52.79-.11,79.17-.09,6.14,2,7.61,8.8,7.6,99.59-.11,199.18.1,298.76.09q40.62,0,81.24-.05V288.71C1919.34,291.92,1915.79,295.21,1912.12,298.26Z"/><path class="cls-1" d="M273.94,110.69C190.58,75,110.19,104,54.38,154.6c12.35,2.84,24.65,6,37.17,8.26,2.58.46,6.12-2.42,9-4.08,11.47-6.69,22.85-13.5,35.26-18.84L119.2,168.15c3.2,1.36,4.53,2.11,6,2.52,19.24,5.51,19.13,5.44,28.45-9.75,2.68-4.36,6.27-8.29,9.42-12.43l2.1,1V179.2c7.27-1.4,15.72,1,16.05-9.12,1.69.5,3.65.53,4.41,1.38,8.18,9.2,19.58,7.68,30.92,8.11,14.16.54,28.22,3,42.38,3.92,3.09.19,7.3-2.29,9.54-4.62,7.44-7.71,14.23-15.92,22.17-25,6.91,13,13.27,24.11,18.74,35.54,4.27,8.94-4.54,9.34-12.31,11l10.77,12.13-13.77-2.48,1.64,5.69-17.76-1,12.89,9.06-.35.85c-14-7-27.91-14.22-42-21.07-17.36-8.43-35.14-16.13-55.29-17.83-4.62-.39-10.27-.31-14,1.66-18.47,9.75-36.46,20.21-55.29,30.79,18,17.7,36.42,31.21,60.61,37.3,2.73.68,6.51-.49,9.3-1.69s4.79-3.5,8-6c6.2,8.8,3,24.76,23.05,20.2l8.41-19.85c3.59,7,7.49,11.61,8.1,16.5,1.27,10.31,8.2,13,19.16,13.14l5.61-17.35c8.23,7.74,15.85,13.78,21.83,20.87,4.72,5.61-.79,15.71-8.23,16.3-15.45,1.23-30.11,4.1-40.9,12.61-12.17-9.93-23.49-19.46-35.27-28.53-2.59-2-6.8-2.37-10.26-3.49-.45,3.45-1.39,6.91-1.2,10.33a12.74,12.74,0,0,0,3.43,8.29c-16-13-31.36-26.73-48.27-38.77-23.65-16.83-28.82-7.14-29.6,9.35-.56,11.76-2.37,23.48-3.77,36.65-1.75-4.18-2.85-7.31-4.34-10.27-3.29-6.56-6.75-14.54-16.09-13.88-5.12.37-9.72,6.28-14.86,9.9,0-3.13.57-7.33-.12-11.37-1.48-8.63-2.83-17.39-5.86-25.64-1.15-3.12-6.64-6.6-10.45-6.89-3.12-.24-8.24,3.39-9.77,6.37-4.07,7.95-6.69,16.47-9.88,24.76-.66,1.73-1.3,3.46-2.68,7.16-.83-7.15-.51-12.38-2.29-17-1.23-3.18-5-7-8.37-7.69-2.47-.51-6.77,3.17-9.18,5.75s-3.22,5.92-5.11,9.66C12.46,264.18,6.41,259.75-2,262v96.85q111.55.06,223.11.25,62.78.06,125.54,0c3.85,0,7.69-.74,11.53-1.13V149.85Z"/></g></svg>