<svg xmlns="http://www.w3.org/2000/svg" xmlns:xlink="http://www.w3.org/1999/xlink" viewBox="0 0 1920 1071.63"><defs><style>.cls-1{fill:url(#Dégradé_sans_nom_10);}.cls-2{fill:url(#Dégradé_sans_nom_13);}.cls-3{fill:#327976;}.cls-4{opacity:0.45;}.cls-5{fill:#2d6d68;}.cls-6{fill:#2a635e;}.cls-7{fill:#3f5256;}.cls-8{fill:#34464c;}</style><linearGradient id="Dégradé_sans_nom_10" x1="497.68" y1="529.15" x2="948.69" y2="529.15" gradientUnits="userSpaceOnUse"><stop offset="0" stop-color="#587372"/><stop offset="1" stop-color="#3c4d53"/></linearGradient><linearGradient id="Dégradé_sans_nom_13" x1="941.96" y1="529.36" x2="1392.97" y2="529.36" gradientUnits="userSpaceOnUse"><stop offset="0" stop-color="#5a6a70"/><stop offset="1" stop-color="#34464c"/></linearGradient></defs><title>fond2Plan de travail 4 copie 2</title><g id="Calque_6" data-name="Calque 6"><polygon class="cls-1" points="948.69 358.67 497.68 357.45 497.68 700.85 948.38 444.7 948.69 358.67"/><polygon class="cls-2" points="941.96 358.67 1392.97 357.45 1386.06 701.28 948.38 444.7 941.96 358.67"/><path class="cls-3" d="M948.69,358.67l-451,251.76v90.42L948,1066.32l438.1-365,2.44-90.44Z"/><g class="cls-4"><path class="cls-5" d="M870.27,558.71,834.05,536l11.47-7.29-7.79-4.9,35.09-22.9,8.75,7.18L891.63,503l33.42,23.23-9.22,5.54,8.74,5.84-36.9,20.93-7.77-5.76Zm-30.6-22.77,30.61,19.23,9.77-6,7.84,5.81,31-17.57-8.62-5.76,9.29-5.59-28.15-19.57-10.2,5.16-8.56-7-29.33,19.14,7.84,4.93Z"/><path class="cls-6" d="M870.27,559.3,833.11,536l11.47-7.29-7.77-4.89,36-23.53,8.79,7.21,10-5.07L926,526.23l-9.2,5.53,8.75,5.85-37.89,21.5-7.75-5.76ZM835,536l35.28,22.16,9.66-6,7.78,5.77,35.91-20.38-8.72-5.82,9.23-5.55-32.54-22.62-10.08,5.1-8.72-7.17-34.13,22.28,7.79,4.9Zm35.29,19.8L838.73,536l11.47-7.29-7.83-4.93L872.65,504l8.6,7.06,10.17-5.15,29,20.18-9.28,5.58,8.64,5.77-32,18.13-7.82-5.8ZM840.6,535.94l29.68,18.64,9.8-6.05,7.84,5.81,30-17-8.6-5.75,9.31-5.6L891.34,507l-10.22,5.17-8.54-7-28.36,18.52,7.85,4.93Z"/><polygon class="cls-6" points="857.21 529.94 880.42 516.24 902.41 530.23 879.48 543.93 857.21 529.94"/><path class="cls-5" d="M879.46,545.69,854.32,529.9l26.13-15.42,24.82,15.79ZM860.09,530l19.41,12.19,20-12L880.39,518Z"/></g><g class="cls-4"><path class="cls-5" d="M799.05,603.65,762.83,580.9l11.46-7.29-7.78-4.9,35.09-22.9,8.75,7.18,10-5.08,33.43,23.23-9.22,5.54,8.73,5.84-36.9,20.93-7.76-5.76Zm-30.61-22.77,30.62,19.23,9.77-6,7.83,5.81,31-17.57L839,576.55l9.3-5.59L820.16,551.4,810,556.55l-8.57-7-29.32,19.15,7.84,4.92Z"/><path class="cls-6" d="M799,604.24,761.89,580.9l11.47-7.29-7.78-4.89,36-23.53,8.78,7.21,10-5.07,34.31,23.84-9.21,5.54,8.75,5.84-37.88,21.5-7.76-5.76ZM763.76,580.9l35.29,22.16,9.65-6,7.78,5.77,35.91-20.38-8.71-5.82,9.23-5.55-32.55-22.62-10.08,5.1-8.72-7.16-34.12,22.28,7.79,4.9Zm35.3,19.8L767.5,580.89,779,573.6l-7.83-4.93,30.29-19.77L810,556l10.18-5.14,29,20.17-9.29,5.58,8.64,5.77-32,18.14-7.83-5.81Zm-29.68-19.82,29.68,18.65,9.79-6.06,7.85,5.82,30-17-8.6-5.75,9.31-5.6L820.12,552l-10.23,5.17-8.53-7L773,568.66l7.84,4.93Z"/><polygon class="cls-6" points="785.98 574.88 809.2 561.18 831.18 575.17 808.26 588.88 785.98 574.88"/><path class="cls-5" d="M808.24,590.63,783.1,574.84l26.13-15.42L834,575.21Zm-19.38-15.71,19.42,12.2,20.05-12-19.16-12.19Z"/></g><g class="cls-4"><path class="cls-5" d="M863.42,647.56,827.2,624.81l11.47-7.29-7.79-4.9L866,589.71l8.75,7.19,10-5.08,33.43,23.23L909,620.59l8.73,5.83-36.89,20.94-7.77-5.76Zm-30.61-22.77L863.43,644l9.77-6,7.84,5.81,31-17.57-8.62-5.76,9.3-5.6L884.53,595.3l-10.2,5.16-8.57-7-29.32,19.14,7.84,4.93Z"/><path class="cls-6" d="M863.42,648.15l-37.16-23.34,11.47-7.29L830,612.63l36-23.53,8.79,7.21,10-5.07,34.31,23.84-9.2,5.53,8.75,5.85L880.78,648,873,642.2ZM828.13,624.8,863.42,647l9.65-6,7.78,5.77,35.91-20.38-8.71-5.82,9.23-5.55L884.73,592.4l-10.07,5.09-8.73-7.16-34.12,22.28,7.79,4.9Zm35.3,19.81-31.55-19.82,11.46-7.29-7.83-4.92,30.29-19.77,8.59,7.06,10.18-5.15,29,20.17-9.28,5.59,8.63,5.77-32,18.13-7.82-5.8Zm-29.68-19.82,29.68,18.64,9.8-6.06,7.84,5.82,30-17-8.6-5.75,9.31-5.6-27.27-19-10.23,5.17-8.53-7-28.36,18.52,7.85,4.93Z"/><polygon class="cls-6" points="850.35 618.79 873.57 605.09 895.56 619.08 872.63 632.78 850.35 618.79"/><path class="cls-5" d="M872.61,634.54l-25.14-15.79,26.13-15.42,24.81,15.78Zm-19.37-15.71L872.65,631l20.05-12-19.16-12.19Z"/></g><g class="cls-4"><path class="cls-5" d="M1011.51,651.65,975.29,628.9l11.47-7.29-7.79-4.9,35.09-22.9,8.75,7.18,10.06-5.08,33.42,23.23-9.22,5.54,8.74,5.84-36.9,20.93-7.77-5.76Zm-30.6-22.77,30.61,19.23,9.77-6,7.84,5.81,31-17.57-8.62-5.76,9.29-5.59-28.15-19.56-10.2,5.15-8.56-7-29.33,19.15,7.84,4.92Z"/><path class="cls-6" d="M1011.51,652.24,974.35,628.9l11.47-7.29-7.77-4.89,36-23.53,8.79,7.21,10-5.07,34.3,23.84-9.2,5.54,8.75,5.84-37.89,21.5-7.75-5.76ZM976.23,628.9l35.28,22.16,9.66-6,7.78,5.77,35.91-20.38-8.72-5.82,9.23-5.55-32.54-22.62-10.08,5.1-8.72-7.16L979.9,616.71l7.79,4.9Zm35.29,19.8L980,628.89l11.47-7.29-7.83-4.93,30.28-19.77,8.6,7.06,10.17-5.14,29,20.17-9.28,5.58,8.64,5.77-32,18.14-7.82-5.81Zm-29.68-19.82,29.68,18.65,9.8-6.06,7.84,5.82,30-17-8.6-5.75,9.31-5.6L1032.58,600l-10.22,5.17-8.54-7-28.36,18.52,7.85,4.93Z"/><polygon class="cls-6" points="998.45 622.88 1021.66 609.18 1043.65 623.17 1020.72 636.88 998.45 622.88"/><path class="cls-5" d="M1020.7,638.63l-25.14-15.79,26.13-15.42,24.82,15.79Zm-19.37-15.71,19.41,12.2,20-12-19.16-12.19Z"/></g><g class="cls-4"><path class="cls-5" d="M936.74,603.65,900.52,580.9,912,573.61l-7.79-4.9,35.09-22.9L948,553l10.06-5.08,33.42,23.23-9.21,5.54,8.73,5.84-36.9,20.93-7.77-5.76Zm-30.6-22.77,30.61,19.23,9.78-6,7.83,5.81,31-17.57-8.62-5.76L986,571,957.85,551.4l-10.2,5.15-8.56-7-29.33,19.15,7.84,4.92Z"/><path class="cls-6" d="M936.74,604.24,899.58,580.9l11.47-7.29-7.77-4.89,36-23.53,8.79,7.21,10-5.07,34.3,23.84-9.2,5.54,8.75,5.84-37.89,21.5-7.75-5.76ZM901.46,580.9l35.28,22.16,9.66-6,7.78,5.77,35.91-20.38-8.72-5.82,9.23-5.55-32.54-22.62L948,553.59l-8.72-7.16-34.13,22.28,7.8,4.9Zm35.29,19.8L905.2,580.89l11.47-7.29-7.83-4.93,30.28-19.77,8.6,7.06,10.18-5.14,29,20.17-9.28,5.58,8.64,5.77-32,18.14-7.82-5.81Zm-29.68-19.82,29.69,18.65,9.79-6.06,7.85,5.82,30-17-8.6-5.75,9.32-5.6L957.81,552l-10.22,5.17-8.54-7-28.36,18.52,7.85,4.93Z"/><polygon class="cls-6" points="923.68 574.88 946.89 561.18 968.88 575.17 945.96 588.88 923.68 574.88"/><path class="cls-5" d="M945.94,590.63l-25.15-15.79,26.13-15.42,24.82,15.79Zm-19.38-15.71L946,587.12l20-12-19.16-12.19Z"/></g><g class="cls-4"><path class="cls-5" d="M1016.35,558.25l-36.22-22.74,11.47-7.3-7.79-4.89,35.09-22.91,8.75,7.19,10-5.08,33.43,23.22-9.22,5.55,8.73,5.83-36.89,20.94L1026,552.3Zm-30.61-22.76,30.62,19.23,9.77-6,7.84,5.81,31-17.58-8.62-5.76,9.3-5.59L1037.46,506l-10.2,5.16-8.57-7-29.32,19.14,7.84,4.93Z"/><path class="cls-6" d="M1016.35,558.84l-37.16-23.33,11.47-7.29-7.78-4.89,36-23.54,8.79,7.22,10-5.07,34.31,23.83-9.2,5.54,8.75,5.85-37.89,21.49L1026,552.9ZM981.06,535.5l35.29,22.17,9.65-6,7.78,5.77,35.91-20.37-8.71-5.82,9.23-5.56-32.55-22.61-10.07,5.09-8.73-7.16-34.12,22.28,7.79,4.9Zm35.3,19.81-31.55-19.82,11.46-7.29-7.83-4.92,30.29-19.77,8.59,7.06,10.18-5.15,29,20.17-9.28,5.59,8.63,5.77-32,18.13-7.82-5.8Zm-29.68-19.82,29.68,18.64,9.8-6.06,7.84,5.82,30-17-8.6-5.75,9.31-5.6-27.27-18.95-10.23,5.17-8.53-7L990.3,523.26l7.85,4.94Z"/><polygon class="cls-6" points="1003.28 529.49 1026.5 515.78 1048.49 529.77 1025.56 543.48 1003.28 529.49"/><path class="cls-5" d="M1025.54,545.24l-25.14-15.79L1026.53,514l24.81,15.79Zm-19.37-15.71,19.41,12.19,20.05-12-19.16-12.19Z"/></g><g class="cls-4"><path class="cls-5" d="M1083.7,608.86l-36.22-22.75,11.46-7.29-7.78-4.9,35.09-22.9,8.75,7.18,10-5.08,33.43,23.23-9.22,5.54,8.73,5.84-36.89,20.93-7.77-5.76Zm-30.61-22.77,30.62,19.23,9.77-6,7.83,5.81,31-17.57-8.62-5.76,9.3-5.59-28.15-19.56-10.2,5.15-8.57-7-29.32,19.15,7.84,4.92Z"/><path class="cls-6" d="M1083.69,609.45l-37.15-23.34,11.47-7.29-7.78-4.89,36-23.53,8.78,7.21,10-5.07,34.31,23.84-9.21,5.54,8.75,5.84-37.88,21.5-7.76-5.76Zm-35.28-23.34,35.29,22.16,9.65-6,7.78,5.77L1137,587.69l-8.71-5.82,9.23-5.55L1105,553.7l-10.08,5.1-8.72-7.16-34.12,22.28,7.79,4.9Zm35.3,19.8-31.55-19.81,11.46-7.29-7.83-4.93,30.29-19.77,8.59,7.06,10.18-5.15,29,20.18-9.29,5.58,8.64,5.77-32,18.14-7.83-5.81ZM1054,586.09l29.68,18.64,9.8-6.05,7.84,5.81,30-17-8.6-5.74,9.31-5.6-27.27-18.95-10.23,5.17-8.53-7-28.36,18.52,7.84,4.93Z"/><polygon class="cls-6" points="1070.63 580.09 1093.85 566.39 1115.83 580.38 1092.91 594.08 1070.63 580.09"/><path class="cls-5" d="M1092.89,595.84l-25.14-15.79,26.13-15.42,24.81,15.79Zm-19.38-15.71,19.42,12.19,20-12-19.16-12.19Z"/></g><g class="cls-4"><path class="cls-5" d="M863.05,738l-36.22-22.74,11.46-7.3L830.51,703l35.09-22.91,8.75,7.19,10-5.08,33.43,23.22L908.61,711l8.73,5.83-36.9,20.94L872.68,732Zm-30.61-22.76,30.62,19.23,9.77-6,7.83,5.81,31-17.57L903,710.87l9.3-5.59-28.15-19.56L874,690.88l-8.57-7L836.07,703l7.84,4.93Z"/><path class="cls-6" d="M863,738.56l-37.15-23.33,11.47-7.29-7.78-4.89,36-23.54,8.78,7.22,10-5.07,34.31,23.83L909.54,711l8.75,5.85-37.88,21.5-7.76-5.76Zm-35.28-23.34,35.29,22.17,9.65-6,7.78,5.77,35.91-20.37L907.68,711l9.23-5.56-32.55-22.61-10.08,5.09-8.72-7.16L831.44,703l7.79,4.9ZM863.06,735,831.5,715.21,843,707.92,835.14,703l30.29-19.77,8.59,7.06,10.18-5.15,29,20.17-9.29,5.59,8.64,5.77-32,18.13L872.8,729Zm-29.68-19.82,29.68,18.64,9.79-6.06,7.85,5.82,30-17-8.6-5.75,9.31-5.6-27.27-19-10.23,5.17-8.53-7L837,703l7.84,4.94Z"/><polygon class="cls-6" points="849.98 709.21 873.2 695.5 895.18 709.49 872.26 723.2 849.98 709.21"/><path class="cls-5" d="M872.24,725,847.1,709.17l26.13-15.43L898,709.53Zm-19.38-15.71,19.42,12.19,20.05-12-19.16-12.19Z"/></g><g class="cls-4"><path class="cls-5" d="M935.23,695.18,899,672.44l11.47-7.3-7.79-4.89,35.09-22.91,8.75,7.19,10.06-5.08L990,662.67l-9.21,5.55,8.73,5.83L952.63,695l-7.77-5.76Zm-30.6-22.76,30.61,19.23,9.78-6,7.83,5.81,31-17.58-8.62-5.76,9.3-5.59-28.15-19.56-10.21,5.16-8.56-7L908.25,660.2l7.84,4.93Z"/><path class="cls-6" d="M935.23,695.77l-37.16-23.33,11.47-7.29-7.77-4.89,36.05-23.54,8.78,7.22,10-5.07,34.3,23.83-9.2,5.54,8.75,5.85-37.89,21.49-7.75-5.75ZM900,672.43l35.28,22.17,9.66-6,7.78,5.77L988.58,674l-8.72-5.82,9.23-5.56L956.55,640l-10.08,5.09L937.75,638l-34.13,22.28,7.8,4.9Zm35.29,19.81-31.55-19.82,11.47-7.29-7.83-4.92,30.28-19.77,8.6,7.06,10.18-5.15,29,20.17-9.29,5.59,8.64,5.77-32,18.13-7.82-5.8Zm-29.68-19.82,29.69,18.64L945,685l7.85,5.82,30-17-8.6-5.75,9.32-5.6-27.28-19-10.22,5.17-8.54-7-28.36,18.52,7.85,4.94Z"/><polygon class="cls-6" points="922.17 666.42 945.38 652.71 967.37 666.7 944.45 680.41 922.17 666.42"/><path class="cls-5" d="M944.43,682.17l-25.15-15.79L945.41,651l24.82,15.79Zm-19.38-15.71,19.41,12.19,20-12-19.16-12.19Z"/></g><g class="cls-4"><path class="cls-5" d="M930.77,790.07l-36.22-22.75L906,760l-7.78-4.9,35.09-22.9,8.75,7.18,10-5.08,33.43,23.23-9.22,5.54,8.73,5.84-36.89,20.93-7.77-5.76ZM900.16,767.3l30.62,19.23,9.77-6,7.83,5.81,31-17.57L970.73,763l9.3-5.6-28.15-19.56L941.68,743l-8.57-7-29.32,19.14,7.84,4.93Z"/><path class="cls-6" d="M930.76,790.66l-37.15-23.34L905.08,760l-7.78-4.89,36.05-23.53,8.78,7.21,10-5.07,34.31,23.84-9.21,5.53L986,769l-37.88,21.5-7.76-5.76Zm-35.28-23.34,35.29,22.16,9.65-6,7.78,5.77,35.91-20.38-8.71-5.82,9.23-5.55-32.55-22.62L942,740l-8.72-7.17-34.12,22.28L907,760Zm35.3,19.8-31.55-19.81L910.69,760l-7.83-4.93,30.29-19.77,8.59,7.06,10.18-5.15,29,20.18L971.67,763l8.63,5.77-31.95,18.13-7.82-5.8ZM901.1,767.3l29.68,18.64,9.8-6.05,7.84,5.81,30-17-8.6-5.75,9.31-5.6-27.27-19-10.23,5.18-8.53-7-28.36,18.52,7.84,4.93Z"/><polygon class="cls-6" points="917.7 761.3 940.92 747.6 962.9 761.59 939.98 775.29 917.7 761.3"/><path class="cls-5" d="M940,777.05l-25.14-15.79L941,745.84l24.81,15.79Zm-19.38-15.71L940,773.53l20-12-19.16-12.19Z"/></g><g class="cls-4"><path class="cls-5" d="M726.24,646.32,690,623.57l11.47-7.29-7.78-4.89,35.08-22.91,8.76,7.19,10.05-5.09L781,613.81l-9.22,5.55,8.73,5.83-36.9,20.94-7.76-5.77Zm-30.6-22.76,30.62,19.23,9.77-6,7.83,5.81,31-17.57-8.62-5.76,9.3-5.59-28.15-19.56-10.2,5.16-8.57-7-29.32,19.15,7.84,4.93Z"/><path class="cls-6" d="M726.24,646.91l-37.15-23.33,11.47-7.3-7.78-4.89,36.05-23.53,8.78,7.21,10-5.07L782,613.84l-9.21,5.54,8.75,5.84-37.88,21.5L735.85,641ZM691,623.57l35.29,22.16,9.65-6,7.78,5.77,35.91-20.37-8.72-5.83,9.24-5.55-32.55-22.61-10.08,5.09-8.72-7.16-34.13,22.28,7.8,4.9Zm35.29,19.81L694.7,623.56l11.47-7.29-7.83-4.92,30.28-19.77,8.6,7,10.18-5.14,29,20.17-9.29,5.58,8.64,5.78-31.95,18.13-7.83-5.8Zm-29.67-19.83,29.68,18.65,9.79-6.06L743.9,642l30-17-8.6-5.75,9.31-5.6-27.27-19-10.23,5.17-8.53-7-28.37,18.52,7.85,4.93Z"/><polygon class="cls-6" points="713.18 617.55 736.39 603.85 758.38 617.84 735.46 631.55 713.18 617.55"/><path class="cls-5" d="M735.44,633.31l-25.15-15.8,26.13-15.42,24.82,15.79Zm-19.38-15.72,19.42,12.2,20-12-19.16-12.19Z"/></g><g class="cls-4"><path class="cls-5" d="M797.92,693.45,761.7,670.7l11.46-7.29-7.78-4.89,35.09-22.91,8.75,7.19,10-5.08,33.43,23.22-9.22,5.55,8.73,5.83-36.89,20.94-7.77-5.76Zm-30.61-22.76,30.62,19.23,9.77-6,7.83,5.81,31-17.57-8.62-5.76,9.3-5.59L819,641.2l-10.2,5.16-8.57-7-29.32,19.14,7.84,4.93Z"/><path class="cls-6" d="M797.91,694l-37.15-23.33,11.47-7.29-7.78-4.89,36-23.54,8.78,7.22,10-5.07L853.62,661l-9.21,5.54,8.75,5.85-37.88,21.49-7.76-5.75ZM762.63,670.7l35.29,22.16,9.65-6,7.78,5.77,35.91-20.37-8.71-5.83,9.23-5.55L819.23,638.3l-10.08,5.09-8.72-7.16-34.12,22.28,7.79,4.9Zm35.3,19.81-31.55-19.82,11.46-7.29L770,658.48l30.29-19.77,8.59,7.06,10.18-5.15,29,20.17-9.29,5.59,8.64,5.77-32,18.13-7.83-5.8Zm-29.68-19.82,29.68,18.64,9.8-6.06,7.84,5.82,30-17-8.6-5.75,9.31-5.6-27.27-19L808.76,647l-8.53-7-28.36,18.52,7.84,4.94Z"/><polygon class="cls-6" points="784.85 664.69 808.07 650.98 830.05 664.97 807.13 678.68 784.85 664.69"/><path class="cls-5" d="M807.11,680.44,782,664.65l26.13-15.43L832.91,665Zm-19.38-15.71,19.42,12.19,20.05-12L808,652.74Z"/></g><g class="cls-4"><path class="cls-5" d="M780.79,780.94l-36.22-22.75L756,750.9,748.26,746l35.08-22.91,8.76,7.19,10-5.09,33.43,23.23L826.36,754l8.73,5.83-36.9,20.94L790.42,775Zm-30.6-22.76,30.62,19.23,9.77-6,7.83,5.81,31-17.57-8.62-5.76,9.3-5.59-28.15-19.56-10.21,5.16-8.56-7L753.82,746l7.84,4.93Z"/><path class="cls-6" d="M780.79,781.53,743.64,758.2l11.47-7.3L747.33,746l36-23.53,8.78,7.21,10-5.07,34.31,23.84L827.29,754l8.75,5.84-37.88,21.5-7.76-5.75Zm-35.28-23.34,35.29,22.16,9.65-6,7.78,5.77,35.91-20.37L825.42,754l9.24-5.55-32.55-22.61L792,730.88l-8.72-7.16L749.18,746l7.8,4.9ZM780.8,778l-31.55-19.81,11.47-7.29L752.89,746l30.28-19.78,8.6,7.06L802,728.11l29,20.17-9.29,5.58,8.64,5.78-32,18.13-7.82-5.8Zm-29.68-19.82,29.69,18.65,9.79-6.06,7.85,5.82,30-17-8.6-5.75,9.31-5.6-27.27-19-10.23,5.17-8.53-7L754.74,746l7.85,4.93Z"/><polygon class="cls-6" points="767.73 752.17 790.94 738.47 812.93 752.46 790.01 766.17 767.73 752.17"/><path class="cls-5" d="M790,767.93l-25.15-15.8L791,736.71l24.82,15.79Zm-19.38-15.72L790,764.41l20-12-19.16-12.19Z"/></g><g class="cls-4"><path class="cls-5" d="M848.51,833l-36.22-22.74,11.47-7.3L816,798.1l35.08-22.91,8.76,7.19,10-5.08,33.43,23.22-9.22,5.55,8.73,5.83-36.9,20.94-7.77-5.76Zm-30.6-22.76,30.62,19.23,9.77-6,7.83,5.81,31-17.57-8.62-5.77,9.3-5.59-28.15-19.56-10.21,5.16-8.56-7-29.32,19.14,7.84,4.93Z"/><path class="cls-6" d="M848.51,833.62l-37.15-23.33L822.83,803l-7.78-4.89,36.05-23.54,8.78,7.22,10-5.07,34.31,23.83L895,806.09l8.75,5.85-37.88,21.49-7.76-5.75Zm-35.28-23.34,35.29,22.17,9.65-6,7.78,5.77,35.91-20.37-8.72-5.82,9.24-5.56-32.55-22.61L859.75,783,851,775.81,816.9,798.09l7.8,4.9Zm35.29,19.81L817,810.27,828.44,803l-7.83-4.92,30.28-19.77,8.6,7.06,10.18-5.15,29,20.17L889.41,806l8.64,5.77-32,18.13-7.82-5.8Zm-29.67-19.82,29.68,18.64,9.79-6.06,7.85,5.82,30-17-8.6-5.75,9.31-5.6-27.27-18.95-10.23,5.17-8.53-7L822.46,798l7.85,4.94Z"/><polygon class="cls-6" points="835.45 804.27 858.66 790.56 880.65 804.55 857.73 818.26 835.45 804.27"/><path class="cls-5" d="M857.71,820l-25.15-15.79,26.13-15.43,24.82,15.79Zm-19.38-15.71,19.42,12.19,20-12-19.16-12.19Z"/></g><g class="cls-4"><path class="cls-5" d="M644,689.29l-36.22-22.75,11.47-7.29-7.79-4.9,35.09-22.9,8.75,7.18,10.06-5.08,33.42,23.23-9.21,5.54,8.73,5.84-36.9,20.93-7.77-5.76Zm-30.6-22.77L644,685.75l9.78-6,7.83,5.81,31-17.57L684,662.19l9.3-5.59L665.11,637l-10.21,5.15-8.56-7L617,654.31l7.84,4.92Z"/><path class="cls-6" d="M644,689.88l-37.16-23.34,11.47-7.29-7.77-4.89,36-23.53,8.79,7.21,10-5.07,34.3,23.84-9.2,5.53,8.75,5.85-37.89,21.5-7.75-5.76Zm-35.28-23.34L644,688.7l9.66-6,7.78,5.77,35.91-20.38-8.72-5.82,9.23-5.55-32.54-22.62-10.08,5.1-8.72-7.17-34.13,22.29,7.8,4.9ZM644,686.34l-31.55-19.81,11.47-7.29-7.83-4.93,30.28-19.77,8.6,7.06,10.18-5.15,29,20.18-9.29,5.58,8.64,5.77-32,18.14-7.82-5.81Zm-29.68-19.82L644,685.16l9.79-6,7.85,5.81,30-17-8.6-5.74,9.32-5.6-27.28-19-10.22,5.17-8.54-7L617.94,654.3l7.85,4.93Z"/><polygon class="cls-6" points="630.93 660.52 654.14 646.82 676.13 660.81 653.21 674.51 630.93 660.52"/><path class="cls-5" d="M653.19,676.27,628,660.48l26.13-15.42L679,660.85Zm-19.38-15.71,19.41,12.19,20-12-19.16-12.19Z"/></g><g class="cls-4"><path class="cls-5" d="M715.66,736.42l-36.22-22.75,11.47-7.29-7.78-4.9,35.08-22.9,8.76,7.19,10-5.09,33.43,23.23-9.22,5.54,8.73,5.84-36.9,20.93-7.77-5.76Zm-30.6-22.77,30.62,19.23,9.77-6,7.83,5.81,31-17.57-8.62-5.76,9.3-5.59-28.15-19.56-10.21,5.15-8.56-7-29.32,19.15,7.84,4.93Z"/><path class="cls-6" d="M715.66,737l-37.15-23.34L690,706.38l-7.78-4.89,36-23.53,8.78,7.21,10-5.07,34.31,23.84-9.21,5.54,8.75,5.84L733,736.82l-7.76-5.75Zm-35.28-23.34,35.29,22.16,9.65-6,7.78,5.77L769,715.25l-8.72-5.82,9.24-5.55L737,681.26l-10.08,5.1-8.72-7.16-34.13,22.28,7.8,4.9Zm35.29,19.8-31.55-19.81,11.47-7.29-7.83-4.93L718,681.67l8.6,7.06,10.18-5.14,29,20.17-9.29,5.58,8.64,5.78-32,18.13-7.82-5.81ZM686,713.65l29.68,18.65,9.79-6.06,7.85,5.82,30-17-8.6-5.75,9.31-5.6-27.27-19-10.23,5.17-8.53-7-28.37,18.52,7.85,4.93Z"/><polygon class="cls-6" points="702.6 707.65 725.81 693.95 747.8 707.94 724.88 721.64 702.6 707.65"/><path class="cls-5" d="M724.86,723.41l-25.15-15.8,26.13-15.42L750.66,708Zm-19.38-15.72,19.42,12.2,20.05-12-19.16-12.19Z"/></g><g class="cls-4"><path class="cls-5" d="M705.65,827.62l-36.22-22.75,11.47-7.29-7.79-4.89,35.09-22.91L717,777l10-5.08,33.43,23.22-9.22,5.55,8.73,5.83-36.89,20.94-7.77-5.76ZM675,804.86l30.62,19.23,9.77-6.05,7.83,5.81,31-17.57-8.62-5.76,9.3-5.59-28.15-19.56-10.2,5.16-8.57-7-29.32,19.15,7.84,4.93Z"/><path class="cls-6" d="M705.64,828.21l-37.15-23.33,11.47-7.3-7.78-4.88,36.05-23.54,8.79,7.21,10-5.06,34.31,23.83-9.21,5.54,8.76,5.85L723,828l-7.76-5.75Zm-35.28-23.34L705.65,827l9.65-6,7.78,5.77L759,806.46l-8.71-5.83,9.23-5.55L727,772.47l-10.07,5.09-8.73-7.16L674,792.68l7.79,4.9Zm35.3,19.81-31.55-19.82,11.46-7.29-7.83-4.92L708,772.88l8.59,7,10.18-5.14,29,20.17-9.28,5.59,8.63,5.77-31.95,18.13-7.82-5.8ZM676,804.86l29.68,18.64,9.8-6.06,7.84,5.82,30-17-8.6-5.75,9.31-5.6L726.72,776l-10.23,5.17-8.53-7L679.6,792.63l7.84,4.94Z"/><polygon class="cls-6" points="692.58 798.86 715.8 785.15 737.78 799.14 714.86 812.85 692.58 798.86"/><path class="cls-5" d="M714.84,814.61,689.7,798.82l26.13-15.43,24.81,15.79ZM695.46,798.9l19.42,12.19,20-12-19.16-12.19Z"/></g><g class="cls-4"><path class="cls-5" d="M773.37,879.72,737.15,857l11.47-7.29-7.79-4.9,35.09-22.91,8.75,7.19L794.72,824l33.43,23.22-9.22,5.55,8.73,5.83-36.89,20.94L783,873.76ZM742.76,857l30.62,19.23,9.77-6L791,876l31-17.57-8.62-5.76,9.3-5.6-28.15-19.56-10.2,5.16-8.57-7-29.32,19.14,7.84,4.93Z"/><path class="cls-6" d="M773.37,880.3,736.21,857l11.47-7.29-7.78-4.89L776,821.25l8.79,7.22,10-5.07,34.31,23.84-9.2,5.53,8.75,5.85-37.89,21.5L783,874.36ZM738.08,857l35.29,22.17,9.65-6,7.78,5.78,35.91-20.38L818,852.73l9.23-5.56-32.55-22.61-10.07,5.09-8.73-7.16-34.12,22.28,7.79,4.9Zm35.3,19.81L741.83,857l11.46-7.29-7.83-4.92L775.75,825l8.59,7.06,10.18-5.15,29,20.17-9.28,5.59,8.63,5.77L791,876.54l-7.82-5.8ZM743.7,857l29.68,18.64,9.8-6.06,7.84,5.82,30-17-8.6-5.75,9.31-5.6-27.27-19-10.23,5.17-8.53-7-28.36,18.51,7.85,4.94Z"/><polygon class="cls-6" points="760.3 850.95 783.52 837.25 805.51 851.23 782.58 864.94 760.3 850.95"/><path class="cls-5" d="M782.56,866.7l-25.14-15.79,26.13-15.42,24.81,15.78ZM763.19,851l19.41,12.19,20-12L783.49,839Z"/></g><g class="cls-4"><path class="cls-5" d="M568.85,736l-36.23-22.75,11.47-7.29-7.78-4.9,35.09-22.9,8.75,7.18,10.05-5.08,33.43,23.23L614.41,709l8.73,5.84-36.9,20.93L578.48,730ZM538.24,713.2l30.62,19.23,9.77-6,7.83,5.81,31-17.57-8.62-5.76,9.3-5.59L590,683.72l-10.2,5.15-8.57-7L541.87,701l7.84,4.93Z"/><path class="cls-6" d="M568.84,736.56l-37.15-23.34,11.47-7.29L535.38,701l36-23.53,8.78,7.21,10-5.07,34.31,23.84L615.34,709l8.75,5.84-37.88,21.5-7.76-5.75Zm-35.28-23.34,35.29,22.16,9.65-6,7.78,5.77,35.91-20.38L613.48,709l9.23-5.55-32.55-22.62-10.08,5.1-8.72-7.16L537.24,701l7.79,4.9Zm35.3,19.8L537.3,713.21l11.47-7.29L540.94,701l30.29-19.77,8.59,7.06L590,683.14l29,20.17-9.29,5.58,8.64,5.78-32,18.13L578.6,727ZM539.18,713.2l29.68,18.65,9.79-6.06,7.85,5.82,30-17-8.6-5.75,9.31-5.6-27.27-19-10.23,5.17-8.53-7L542.8,701l7.84,4.93Z"/><polygon class="cls-6" points="555.78 707.2 579 693.5 600.98 707.49 578.06 721.2 555.78 707.2"/><path class="cls-5" d="M578,723l-25.14-15.8L579,691.74l24.81,15.79Zm-19.38-15.72,19.42,12.2,20-12L579,695.26Z"/></g><g class="cls-4"><path class="cls-5" d="M640.52,783.1,604.3,760.35l11.47-7.29L608,748.17l35.09-22.91,8.75,7.19,10-5.09,33.43,23.23-9.22,5.54,8.73,5.84-36.89,20.94-7.77-5.77Zm-30.61-22.76,30.62,19.23,9.77-6.05,7.84,5.81,31-17.57L680.48,756l9.3-5.59-28.15-19.56L651.43,736l-8.57-7-29.32,19.15,7.84,4.93Z"/><path class="cls-6" d="M640.52,783.69l-37.16-23.34,11.47-7.29-7.78-4.89,36.05-23.53,8.79,7.21,10-5.07,34.31,23.84-9.2,5.54,8.75,5.84-37.89,21.5-7.76-5.75Zm-35.29-23.34,35.29,22.16,9.65-6,7.78,5.77,35.91-20.37-8.71-5.83,9.23-5.55-32.55-22.62L651.76,733,643,725.88l-34.12,22.28,7.79,4.9Zm35.3,19.8L609,760.34l11.46-7.29-7.83-4.92,30.29-19.78,8.59,7.06,10.18-5.14,29,20.17L681.42,756l8.63,5.78L658.1,779.93l-7.82-5.8Zm-29.68-19.82L640.53,779l9.8-6.06,7.84,5.82,30-17-8.6-5.75,9.31-5.6-27.27-19-10.23,5.17-8.53-7-28.36,18.52,7.85,4.93Z"/><polygon class="cls-6" points="627.45 754.33 650.67 740.63 672.66 754.62 649.73 768.33 627.45 754.33"/><path class="cls-5" d="M649.71,770.09l-25.14-15.8,26.13-15.42,24.81,15.79Zm-19.37-15.72,19.41,12.2,20-12-19.16-12.19Z"/></g><g class="cls-4"><path class="cls-5" d="M1003,747.28l-36.22-22.75,11.47-7.29-7.78-4.9,35.08-22.91,8.76,7.19,10-5.08,33.42,23.23-9.21,5.54,8.73,5.84-36.9,20.93-7.77-5.76Zm-30.6-22.77L1003,743.74l9.78-6,7.83,5.81,31-17.57-8.62-5.76,9.3-5.6L1024.07,695l-10.21,5.16-8.56-7L976,712.29l7.83,4.93Z"/><path class="cls-6" d="M1003,747.87,965.8,724.53l11.47-7.29-7.78-4.89,36-23.53,8.78,7.21,10-5.07,34.3,23.84-9.2,5.53,8.75,5.85-37.89,21.5-7.75-5.76Zm-35.28-23.34L1003,746.69l9.66-6,7.78,5.77,35.91-20.38-8.72-5.82,9.24-5.55-32.55-22.62-10.08,5.1-8.72-7.17-34.13,22.28,7.8,4.9Zm35.29,19.8-31.55-19.82,11.47-7.28-7.83-4.93,30.28-19.77,8.6,7.06,10.18-5.15,29,20.17-9.29,5.59,8.64,5.77-32,18.13-7.82-5.8Zm-29.68-19.82L1003,743.15l9.79-6.06,7.85,5.82,30-17-8.6-5.75,9.31-5.6L1024,695.6l-10.23,5.17-8.53-7L976.9,712.29l7.85,4.93Z"/><polygon class="cls-6" points="989.89 718.51 1013.1 704.81 1035.09 718.8 1012.17 732.5 989.89 718.51"/><path class="cls-5" d="M1012.15,734.26,987,718.47l26.13-15.42L1038,718.83Zm-19.38-15.71,19.41,12.19,20.05-12-19.16-12.19Z"/></g><g class="cls-4"><path class="cls-5" d="M941.09,516.36l-36.22-22.75,11.47-7.29-7.78-4.89,35.08-22.91,8.76,7.19,10.05-5.09,33.43,23.23-9.22,5.54,8.73,5.84-36.9,20.94-7.76-5.77Zm-30.6-22.76,30.62,19.23,9.77-6.05,7.83,5.81,31-17.57-8.62-5.76,9.3-5.59-28.15-19.56L952,469.27l-8.57-7-29.32,19.15,7.84,4.93Z"/><path class="cls-6" d="M941.09,517l-37.15-23.34,11.47-7.29-7.78-4.89,36-23.53,8.78,7.21,10-5.07,34.31,23.84-9.21,5.54,8.75,5.84-37.88,21.5L950.7,511Zm-35.28-23.34,35.29,22.16,9.65-6,7.78,5.77,35.91-20.37-8.71-5.83,9.23-5.55L962.41,461.2l-10.08,5.1-8.72-7.16-34.13,22.28,7.8,4.9Zm35.29,19.8L909.55,493.6,921,486.31l-7.83-4.92,30.29-19.78,8.59,7.06,10.18-5.14,29,20.17L982,489.28l8.64,5.78-32,18.13-7.83-5.8Zm-29.67-19.82,29.68,18.65,9.79-6.06,7.85,5.82,30-17-8.6-5.75,9.31-5.6-27.27-18.95-10.23,5.17-8.53-7L915,481.37l7.85,4.93Z"/><polygon class="cls-6" points="928.03 487.59 951.25 473.89 973.23 487.88 950.31 501.59 928.03 487.59"/><path class="cls-5" d="M950.29,503.35l-25.14-15.8,26.12-15.42,24.82,15.79Zm-19.38-15.72,19.42,12.2,20-12-19.16-12.19Z"/></g><g class="cls-4"><path class="cls-5" d="M1077.83,696.92l-36.22-22.75,11.47-7.29-7.79-4.9,35.09-22.91,8.75,7.19,10-5.08,33.43,23.23-9.22,5.54,8.73,5.84-36.89,20.93-7.77-5.76Zm-30.61-22.77,30.62,19.23,9.77-6,7.84,5.81,31-17.57-8.62-5.76,9.3-5.6-28.15-19.56-10.2,5.16-8.56-7-29.33,19.14,7.84,4.93Z"/><path class="cls-6" d="M1077.83,697.51l-37.16-23.34,11.47-7.29-7.78-4.89,36.05-23.53,8.79,7.21,10-5.07,34.3,23.84-9.2,5.53,8.75,5.85-37.89,21.5-7.76-5.76Zm-35.29-23.34,35.29,22.16,9.65-6,7.78,5.77,35.91-20.38-8.71-5.82,9.23-5.55-32.55-22.62-10.07,5.1-8.73-7.17L1046.22,662l7.79,4.9Zm35.3,19.8-31.55-19.82,11.46-7.29-7.83-4.92,30.29-19.77,8.59,7.06,10.18-5.15,29,20.17-9.28,5.59,8.63,5.77-31.95,18.13-7.82-5.8Zm-29.68-19.82,29.68,18.64,9.8-6.06,7.84,5.82,30-17-8.6-5.75,9.31-5.6-27.27-19-10.23,5.17-8.53-7-28.36,18.52,7.85,4.93Z"/><polygon class="cls-6" points="1064.76 668.15 1087.98 654.45 1109.97 668.43 1087.04 682.14 1064.76 668.15"/><path class="cls-5" d="M1087,683.9l-25.14-15.79L1088,652.69l24.81,15.78Zm-19.37-15.71,19.41,12.19,20-12L1088,656.21Z"/></g><g class="cls-4"><path class="cls-5" d="M1151,653.29l-36.22-22.75,11.47-7.29-7.78-4.89,35.08-22.91,8.76,7.19,10-5.09,33.43,23.23-9.22,5.54,8.73,5.84-36.9,20.94-7.76-5.77Zm-30.6-22.76L1151,649.76l9.77-6,7.83,5.81,31-17.57-8.62-5.76,9.3-5.59L1172.07,601l-10.2,5.16-8.57-7L1124,618.31l7.84,4.93Z"/><path class="cls-6" d="M1151,653.88l-37.15-23.34,11.47-7.29-7.78-4.89,36-23.53,8.78,7.21,10-5.07,34.31,23.84-9.21,5.54,8.75,5.84-37.88,21.5-7.76-5.75Zm-35.28-23.34L1151,652.7l9.65-6,7.78,5.77,35.91-20.37-8.71-5.83,9.23-5.55-32.55-22.62-10.08,5.1-8.72-7.16-34.13,22.28,7.8,4.9Zm35.29,19.8-31.55-19.81,11.47-7.29-7.83-4.92,30.29-19.78,8.59,7.06,10.18-5.14,29,20.17-9.29,5.58,8.64,5.78-32,18.13-7.83-5.8Zm-29.67-19.82L1151,649.17l9.79-6.06,7.85,5.82,30-17-8.6-5.75,9.31-5.6-27.27-19-10.23,5.17-8.53-7L1124.9,618.3l7.85,4.93Z"/><polygon class="cls-6" points="1137.89 624.52 1161.11 610.82 1183.09 624.81 1160.17 638.52 1137.89 624.52"/><path class="cls-5" d="M1160.15,640.28,1135,624.48l26.12-15.42L1186,624.85Zm-19.38-15.72,19.42,12.2,20-12-19.16-12.19Z"/></g><g class="cls-4"><path class="cls-5" d="M1003.29,842l-36.22-22.75,11.47-7.29-7.79-4.9,35.09-22.9,8.75,7.18,10.05-5.08,33.43,23.23-9.22,5.54,8.73,5.84-36.89,20.93-7.77-5.76Zm-30.61-22.77,30.62,19.23,9.77-6,7.84,5.81,31-17.57-8.62-5.76,9.3-5.59-28.15-19.56-10.2,5.15-8.56-7L976.31,807l7.84,4.92Z"/><path class="cls-6" d="M1003.29,842.57l-37.16-23.34,11.47-7.29-7.78-4.89,36-23.53,8.79,7.21,10-5.07L1059,809.5l-9.2,5.54,8.75,5.84-37.89,21.5-7.76-5.76ZM968,819.23l35.29,22.16,9.65-6,7.78,5.77,35.91-20.38-8.71-5.82,9.23-5.55-32.55-22.62-10.07,5.1-8.73-7.16L971.68,807l7.79,4.9Zm35.3,19.8-31.55-19.81,11.47-7.29L975.38,807l30.29-19.77,8.59,7.06,10.18-5.14,29,20.17-9.28,5.58,8.63,5.77-31.95,18.14-7.82-5.81Zm-29.68-19.82,29.68,18.64,9.8-6.05,7.84,5.82,30-17-8.6-5.75,9.31-5.6-27.27-19-10.23,5.17-8.53-7L977.24,807l7.85,4.93Z"/><polygon class="cls-6" points="990.22 813.21 1013.44 799.51 1035.43 813.5 1012.5 827.2 990.22 813.21"/><path class="cls-5" d="M1012.48,829l-25.14-15.79,26.13-15.42,24.81,15.79Zm-19.37-15.71,19.41,12.2,20-12-19.16-12.19Z"/></g><g class="cls-4"><path class="cls-5" d="M921,885,884.82,862.2l11.46-7.29L888.5,850l35.09-22.91,8.75,7.19,10-5.08,33.43,23.22L966.6,858l8.73,5.83-36.9,20.94L930.67,879Zm-30.61-22.77,30.62,19.23,9.77-6,7.83,5.81,31-17.57L961,857.85l9.3-5.6-28.15-19.56L932,837.85l-8.57-7L894.06,850l7.84,4.93Z"/><path class="cls-6" d="M921,885.53,883.88,862.2l11.47-7.29L887.57,850l36-23.54,8.78,7.22,10-5.07,34.31,23.84L967.53,858l8.75,5.85-37.88,21.5-7.76-5.76Zm-35.28-23.34L921,884.36l9.65-6,7.78,5.78,35.91-20.38L965.67,858l9.23-5.56-32.55-22.61-10.08,5.09-8.72-7.16L889.43,850l7.79,4.9ZM921.05,882,889.5,862.18,901,854.89,893.13,850l30.29-19.77,8.59,7.06,10.18-5.15,29,20.17-9.29,5.59,8.64,5.77-32,18.13-7.83-5.8Zm-29.68-19.82,29.68,18.64,9.79-6.06,7.85,5.82,30-17-8.6-5.75,9.31-5.6-27.27-19-10.23,5.17-8.53-7L895,850l7.84,4.94Z"/><polygon class="cls-6" points="907.97 856.18 931.19 842.48 953.17 856.46 930.25 870.17 907.97 856.18"/><path class="cls-5" d="M930.23,871.93l-25.14-15.79,26.13-15.42L956,856.5Zm-19.38-15.71,19.42,12.19,20.05-12-19.16-12.19Z"/></g><g class="cls-4"><path class="cls-5" d="M845.89,931.63l-36.22-22.75,11.47-7.29-7.79-4.9,35.09-22.91,8.75,7.19,10.06-5.08,33.42,23.23-9.22,5.54,8.74,5.84-36.9,20.93-7.77-5.76Zm-30.6-22.77,30.61,19.23,9.77-6,7.84,5.81,31-17.57-8.61-5.76,9.29-5.6L867,879.37l-10.2,5.16-8.56-7-29.33,19.14,7.84,4.93Z"/><path class="cls-6" d="M845.89,932.22l-37.16-23.34,11.47-7.29-7.77-4.89,36-23.53,8.79,7.21,10-5.07,34.3,23.84-9.2,5.53,8.75,5.85L863.25,932l-7.75-5.76Zm-35.28-23.34L845.89,931l9.66-6,7.78,5.77,35.9-20.38-8.71-5.82,9.23-5.55-32.54-22.62-10.08,5.1-8.72-7.17-34.13,22.28,7.79,4.9Zm35.29,19.8-31.55-19.82,11.47-7.28L818,896.65l30.28-19.77,8.6,7.06L867,878.79l29,20.17-9.28,5.59,8.64,5.77-32,18.13-7.82-5.8Zm-29.68-19.82L845.9,927.5l9.8-6.06,7.84,5.82,30-17-8.6-5.75,9.31-5.6L867,880l-10.22,5.18-8.54-7-28.36,18.52,7.85,4.93Z"/><polygon class="cls-6" points="832.82 902.86 856.04 889.16 878.03 903.15 855.1 916.85 832.82 902.86"/><path class="cls-5" d="M855.08,918.61l-25.14-15.79,26.13-15.42,24.81,15.78ZM835.71,902.9l19.41,12.19,20-12L856,890.92Z"/></g><g class="cls-4"><path class="cls-5" d="M1075.47,799.19l-36.22-22.75,11.47-7.29-7.78-4.9,35.08-22.9,8.76,7.18,10-5.08,33.43,23.23-9.22,5.54,8.73,5.84L1092.87,799l-7.76-5.76Zm-30.6-22.77,30.62,19.23,9.77-6,7.83,5.81,31-17.57-8.62-5.76,9.3-5.59-28.15-19.56-10.2,5.15-8.57-7-29.32,19.15,7.84,4.92Z"/><path class="cls-6" d="M1075.47,799.78l-37.15-23.34,11.47-7.29-7.78-4.89,36-23.53,8.78,7.21,10-5.07,34.31,23.84-9.21,5.53,8.75,5.85-37.88,21.5-7.76-5.76Zm-35.28-23.34,35.29,22.16,9.65-6,7.78,5.77L1128.82,778l-8.71-5.82,9.23-5.55L1096.79,744l-10.08,5.1L1078,742l-34.13,22.29,7.8,4.9Zm35.29,19.8-31.55-19.81,11.47-7.29-7.83-4.93,30.29-19.77,8.59,7.06,10.18-5.15,29,20.18-9.29,5.58,8.64,5.77-32,18.14-7.83-5.81Zm-29.67-19.82,29.68,18.64,9.79-6,7.85,5.81,30-17-8.6-5.74,9.31-5.6-27.27-19-10.23,5.17-8.53-7-28.37,18.52,7.85,4.93Z"/><polygon class="cls-6" points="1062.41 770.42 1085.63 756.72 1107.61 770.71 1084.69 784.41 1062.41 770.42"/><path class="cls-5" d="M1084.67,786.17l-25.14-15.79L1085.65,755l24.82,15.79Zm-19.38-15.71,19.42,12.19,20-12-19.16-12.19Z"/></g><g class="cls-4"><path class="cls-5" d="M1150.35,748.83l-36.22-22.75,11.47-7.29-7.79-4.9L1152.9,691l8.75,7.18,10.06-5.08,33.42,23.23-9.22,5.54,8.74,5.84-36.9,20.93-7.77-5.76Zm-30.6-22.77,30.61,19.23,9.77-6,7.84,5.81,31-17.57-8.61-5.76,9.29-5.59-28.15-19.56-10.2,5.15-8.56-7-29.33,19.14,7.84,4.93Z"/><path class="cls-6" d="M1150.35,749.42l-37.16-23.34,11.47-7.29-7.77-4.89,36-23.53,8.79,7.21,10-5.07,34.3,23.84-9.2,5.53,8.75,5.85-37.89,21.5-7.75-5.76Zm-35.28-23.34,35.28,22.16,9.66-6,7.78,5.77,35.9-20.38-8.71-5.82,9.23-5.55-32.54-22.62-10.08,5.1-8.72-7.17-34.13,22.29,7.79,4.9Zm35.29,19.8-31.55-19.81,11.47-7.29-7.83-4.93,30.28-19.77,8.6,7.06L1171.5,696l29,20.18-9.28,5.58,8.64,5.77-32,18.14-7.82-5.81Zm-29.68-19.82,29.68,18.64,9.8-6.05,7.84,5.81,30-17-8.6-5.74,9.31-5.6-27.27-19-10.22,5.17-8.54-7-28.36,18.52,7.85,4.93Z"/><polygon class="cls-6" points="1137.29 720.06 1160.5 706.36 1182.49 720.35 1159.56 734.05 1137.29 720.06"/><path class="cls-5" d="M1159.54,735.81,1134.4,720l26.13-15.42,24.81,15.79Zm-19.37-15.71,19.41,12.19,20.05-12-19.16-12.19Z"/></g><g class="cls-4"><path class="cls-5" d="M1223.48,705.2l-36.22-22.75,11.47-7.29-7.79-4.89L1226,647.36l8.75,7.19,10-5.08,33.43,23.22-9.22,5.55,8.73,5.83L1240.88,705l-7.77-5.77Zm-30.61-22.76,30.62,19.23,9.77-6,7.83,5.81,31-17.57-8.62-5.76,9.3-5.59L1244.59,653l-10.2,5.16-8.57-7-29.32,19.15,7.84,4.93Z"/><path class="cls-6" d="M1223.47,705.79l-37.15-23.33,11.47-7.3-7.78-4.89,36-23.53,8.79,7.21,10-5.06,34.31,23.83-9.21,5.54,8.75,5.85-37.88,21.49-7.76-5.75Zm-35.28-23.34,35.29,22.16,9.65-6,7.78,5.77L1276.82,684l-8.71-5.83,9.23-5.55-32.55-22.61-10.08,5.09L1226,648l-34.12,22.28,7.79,4.9Zm35.3,19.81-31.55-19.82,11.46-7.29-7.83-4.92,30.29-19.77,8.59,7,10.18-5.14,29,20.17-9.28,5.59,8.63,5.77-32,18.13-7.82-5.8Zm-29.68-19.83,29.68,18.65,9.8-6.06,7.84,5.82,30-17-8.6-5.75,9.31-5.6-27.27-19-10.23,5.17-8.53-7-28.36,18.52,7.84,4.94Z"/><polygon class="cls-6" points="1210.41 676.43 1233.63 662.73 1255.62 676.72 1232.69 690.43 1210.41 676.43"/><path class="cls-5" d="M1232.67,692.19l-25.14-15.79L1233.66,661l24.81,15.79Zm-19.38-15.71,19.42,12.19,20-12-19.16-12.19Z"/></g><g class="cls-4"><path class="cls-5" d="M1075,891.53l-36.22-22.75,11.47-7.29-7.78-4.89,35.08-22.91,8.76,7.19,10-5.08L1129.79,859l-9.22,5.55,8.73,5.83-36.9,20.94-7.77-5.76Zm-30.6-22.76L1075,888l9.78-6,7.83,5.81,31-17.57-8.62-5.76,9.3-5.59-28.15-19.56-10.21,5.16-8.56-7L1048,856.55l7.84,4.93Z"/><path class="cls-6" d="M1075,892.12l-37.15-23.33,11.47-7.29-7.78-4.89,36-23.54,8.78,7.22,10-5.07,34.3,23.83-9.2,5.54,8.75,5.85-37.88,21.49-7.76-5.75Zm-35.28-23.34L1075,890.94l9.66-6,7.78,5.77,35.91-20.37-8.72-5.83,9.24-5.55-32.55-22.61-10.08,5.09-8.72-7.16-34.13,22.28,7.8,4.9ZM1075,888.59l-31.55-19.82,11.47-7.29-7.83-4.92,30.28-19.77,8.6,7.05,10.18-5.14,29,20.17-9.29,5.59,8.64,5.77-32,18.13-7.82-5.8Zm-29.68-19.82L1075,887.41l9.79-6.06,7.85,5.82,30-17-8.6-5.75,9.31-5.6-27.27-18.95L1085.85,845l-8.53-7L1049,856.54l7.85,4.94Z"/><polygon class="cls-6" points="1061.94 862.77 1085.15 849.06 1107.14 863.05 1084.22 876.76 1061.94 862.77"/><path class="cls-5" d="M1084.2,878.52l-25.15-15.79,26.13-15.43L1110,863.09Zm-19.38-15.71L1084.24,875l20-12-19.16-12.19Z"/></g><g class="cls-4"><path class="cls-5" d="M992.75,934.5l-36.22-22.75L968,904.46l-7.79-4.9,35.09-22.9,8.75,7.18,10.06-5.08L1047.53,902l-9.22,5.54,8.74,5.84-36.9,20.93-7.77-5.76Zm-30.6-22.77L992.76,931l9.77-6,7.84,5.81,31-17.57-8.61-5.76,9.29-5.59-28.15-19.56-10.2,5.15-8.56-7-29.33,19.15,7.84,4.93Z"/><path class="cls-6" d="M992.75,935.09l-37.16-23.34,11.47-7.29-7.77-4.89,36-23.53,8.79,7.21,10-5.07,34.3,23.84-9.2,5.54,8.75,5.84-37.89,21.5-7.75-5.75Zm-35.28-23.34,35.28,22.16,9.66-6,7.78,5.77,35.9-20.38-8.71-5.82,9.23-5.55-32.54-22.62-10.08,5.1-8.72-7.16-34.13,22.28,7.79,4.9Zm35.29,19.8-31.55-19.81,11.47-7.29-7.83-4.93,30.28-19.77,8.6,7.06,10.17-5.14,29,20.17-9.28,5.58,8.64,5.78-32,18.13-7.82-5.81Zm-29.68-19.82,29.68,18.65,9.8-6.06,7.84,5.82,30-17-8.6-5.75,9.31-5.6-27.27-18.95L1003.6,888l-8.54-7L966.7,899.51l7.85,4.93Z"/><polygon class="cls-6" points="979.68 905.73 1002.9 892.03 1024.89 906.02 1001.96 919.73 979.68 905.73"/><path class="cls-5" d="M1001.94,921.49l-25.14-15.8,26.13-15.42,24.81,15.79Zm-19.37-15.72L1002,918l20-12-19.16-12.19Z"/></g><g class="cls-4"><path class="cls-5" d="M917.6,981.18l-36.22-22.75,11.47-7.29-7.78-4.89,35.08-22.91,8.76,7.19L939,925.44l33.43,23.23-9.22,5.54,8.73,5.84L935,981l-7.76-5.77ZM887,958.42l30.62,19.23,9.77-6,7.83,5.81,31-17.57-8.62-5.76,9.3-5.59-28.15-19.56-10.2,5.16-8.57-7L890.63,946.2l7.84,4.93Z"/><path class="cls-6" d="M917.6,981.77l-37.15-23.34,11.47-7.29-7.78-4.89,36.05-23.53,8.78,7.21,10-5.07,34.31,23.84-9.21,5.54,8.75,5.84L935,981.58l-7.76-5.75Zm-35.28-23.34,35.29,22.16,9.65-6,7.78,5.77L971,960l-8.72-5.82,9.24-5.55L938.92,926l-10.08,5.1L920.12,924,886,946.24l7.8,4.9Zm35.29,19.8-31.55-19.81,11.47-7.29-7.83-4.92L920,926.43l8.6,7.06,10.18-5.14,29,20.17-9.29,5.58,8.64,5.78L935.19,978l-7.83-5.8Zm-29.67-19.82,29.68,18.65,9.79-6.06,7.85,5.82,30-17-8.6-5.75,9.31-5.6-27.27-19-10.23,5.17-8.53-7-28.37,18.52,7.85,4.93Z"/><polygon class="cls-6" points="904.54 952.41 927.75 938.71 949.74 952.7 926.82 966.41 904.54 952.41"/><path class="cls-5" d="M926.8,968.17l-25.15-15.8L927.78,937l24.82,15.79Zm-19.38-15.72,19.42,12.2,20-12-19.16-12.19Z"/></g><g class="cls-4"><path class="cls-5" d="M1147.19,848.74,1111,826l11.47-7.29-7.79-4.89,35.09-22.91,8.75,7.19,10-5.08L1202,816.23l-9.22,5.55,8.73,5.83-36.89,20.94-7.77-5.77ZM1116.58,826l30.62,19.23,9.77-6.05,7.84,5.81,31-17.57-8.62-5.76,9.3-5.59-28.15-19.56-10.2,5.16-8.56-7-29.33,19.15,7.84,4.93Z"/><path class="cls-6" d="M1147.19,849.33,1110,826l11.47-7.3-7.78-4.89,36-23.53,8.79,7.21,10-5.06,34.3,23.83-9.2,5.54,8.75,5.85-37.89,21.49-7.76-5.75ZM1111.9,826l35.29,22.16,9.65-6,7.78,5.77,35.91-20.37-8.71-5.83,9.23-5.55-32.55-22.61-10.07,5.09-8.73-7.16-34.12,22.28,7.79,4.9Zm35.3,19.81L1115.65,826l11.47-7.29-7.84-4.92L1149.57,794l8.59,7,10.18-5.14,29,20.17-9.28,5.58,8.64,5.78-32,18.13-7.82-5.8ZM1117.52,826l29.68,18.65,9.8-6.06,7.84,5.82,30-17-8.6-5.75,9.31-5.6-27.27-18.95L1158,802.24l-8.53-7-28.36,18.52,7.85,4.93Z"/><polygon class="cls-6" points="1134.12 819.98 1157.34 806.27 1179.33 820.26 1156.4 833.97 1134.12 819.98"/><path class="cls-5" d="M1156.38,835.73l-25.14-15.79,26.13-15.43,24.81,15.79ZM1137,820l19.41,12.19,20-12L1157.31,808Z"/></g><g class="cls-4"><path class="cls-5" d="M1222.06,798.38l-36.22-22.75,11.47-7.29-7.78-4.89,35.08-22.91,8.76,7.19,10.05-5.08,33.43,23.22-9.22,5.55,8.73,5.83-36.9,20.94-7.76-5.77Zm-30.6-22.76,30.62,19.23,9.77-6.05,7.83,5.81,31-17.57-8.62-5.76,9.3-5.59-28.15-19.56-10.2,5.16-8.57-7-29.32,19.15,7.84,4.93Z"/><path class="cls-6" d="M1222.06,799l-37.15-23.33,11.47-7.3-7.78-4.89,36.05-23.53,8.78,7.21,10-5.07,34.31,23.84-9.21,5.54,8.75,5.85-37.88,21.49-7.76-5.75Zm-35.28-23.34,35.29,22.16,9.65-6,7.78,5.77,35.91-20.37-8.71-5.83,9.23-5.55-32.55-22.61-10.08,5.09-8.72-7.16-34.13,22.28,7.8,4.9Zm35.29,19.81-31.55-19.82,11.47-7.29-7.83-4.92,30.29-19.77,8.59,7.05,10.18-5.14,29,20.17L1263,771.3l8.64,5.78-31.95,18.13-7.83-5.8Zm-29.67-19.83,29.68,18.65,9.79-6.06,7.85,5.82,30-17-8.6-5.75,9.31-5.6-27.27-18.95-10.23,5.17-8.53-7L1196,763.39l7.85,4.93Z"/><polygon class="cls-6" points="1209 769.62 1232.21 755.91 1254.2 769.9 1231.28 783.61 1209 769.62"/><path class="cls-5" d="M1231.26,785.37l-25.14-15.79,26.12-15.43,24.82,15.79Zm-19.38-15.72,19.42,12.2,20-12-19.16-12.19Z"/></g><g class="cls-4"><path class="cls-5" d="M1295.19,754.76,1259,732l11.47-7.29-7.79-4.9,35.09-22.91,8.75,7.19,10.06-5.08L1350,722.25l-9.22,5.54,8.74,5.83-36.9,20.94-7.77-5.76ZM1264.59,732l30.61,19.23,9.77-6,7.84,5.81,31-17.57-8.62-5.76,9.29-5.6L1316.3,702.5l-10.2,5.16-8.56-7-29.33,19.14,7.84,4.93Z"/><path class="cls-6" d="M1295.19,755.35,1258,732l11.47-7.29-7.77-4.89,36-23.53,8.79,7.21,10-5.07,34.3,23.84-9.2,5.53,8.75,5.85-37.89,21.5-7.75-5.76ZM1259.91,732l35.28,22.17,9.66-6,7.78,5.77,35.91-20.38-8.72-5.82,9.23-5.55-32.54-22.62-10.08,5.09-8.72-7.16-34.13,22.28,7.79,4.9Zm35.29,19.81L1263.65,732l11.47-7.29-7.83-4.92L1297.57,700l8.6,7.06,10.18-5.15,29,20.17-9.28,5.59,8.64,5.77-32,18.13-7.82-5.8ZM1265.52,732l29.68,18.64,9.8-6.06,7.84,5.82,30-17-8.6-5.75,9.32-5.6-27.28-18.95L1306,708.25l-8.54-7-28.36,18.52,7.85,4.93Z"/><polygon class="cls-6" points="1282.13 725.99 1305.34 712.29 1327.33 726.27 1304.4 739.98 1282.13 725.99"/><path class="cls-5" d="M1304.39,741.74,1279.24,726l26.13-15.42,24.82,15.78ZM1285,726l19.41,12.19,20-12-19.16-12.19Z"/></g><polygon class="cls-7" points="948.38 444.7 1386.06 701.28 1388.5 610.84 948.49 358.8 948.38 444.7"/><polygon class="cls-8" points="948.38 444.7 497.68 700.85 497.68 610.43 948.69 358.67 948.38 444.7"/></g></svg>