<?xml version="1.0" encoding="utf-8"?>
<!-- Generator: Adobe Illustrator 24.0.1, SVG Export Plug-In . SVG Version: 6.00 Build 0)  -->
<svg version="1.1" id="Calque_1" xmlns="http://www.w3.org/2000/svg" xmlns:xlink="http://www.w3.org/1999/xlink" x="0px" y="0px"
	 viewBox="0 0 2681.3 231.2" style="enable-background:new 0 0 2681.3 231.2;" xml:space="preserve">
<style type="text/css">
	.st0{fill:#0B0D0B;}
	.st1{fill:#151610;}
	.st2{fill:#202121;}
	.st3{fill:#A8722E;}
	.st4{fill:#0A0B0B;}
	.st5{fill:#C39049;}
	.st6{fill:#CE9850;}
	.st7{fill:#B4823C;}
	.st8{fill:#4D4D4D;}
	.st9{fill:#434342;}
	.st10{fill:#CD9A51;}
	.st11{fill:#4F361B;}
	.st12{fill:#DFAD6B;}
	.st13{fill:#222526;}
	.st14{fill:#293635;}
	.st15{fill:#080505;}
	.st16{fill:none;}
</style>
<g>
	<g>
		<polygon class="st0" points="89,127.6 89,211.8 17,170.3 		"/>
		<polygon class="st1" points="89,127.6 88.4,212.1 159.6,170.8 		"/>
	</g>
	<g>
		<ellipse transform="matrix(0.7831 -0.6219 0.6219 0.7831 -67.6445 98.0105)" class="st2" cx="106.7" cy="146" rx="3.7" ry="8.8"/>
		<path class="st3" d="M120.7,136.9c0,0-8.3-2.5-12.3-1.1c-4.5,1.6-7.8,3.9-8.7,8.1c-0.8,4.2-4.2,14.2-4.2,14.2s-1,3.1,0.2,4
			c1.4,1.1,3,1.4,4,1.8c1.4,0.6,4.2,1.4,6.1-0.3c2-1.7,4.2-8.7,4.5-10.9c0.3-2.2,7.7,3,14.1,1.3c6.4-1.7,8.5-12.5,8.5-12.5
			L120.7,136.9z"/>
		<path class="st4" d="M101.3,139.4c3.1-0.9,10.5,6.5,10.9,13.5l10.5,1.8l-2.3-18.7c0,0-8.1-2.1-10.4-1.3
			C107.8,135.4,98.5,140.2,101.3,139.4z"/>
		<path class="st4" d="M110.8,109.1c4.5,0,18.2-0.3,20.8-3.6s19.7,17.8,17.6,30.9c-2.4,15.2-12.8,17.4-12.8,17.4
			c-4.1,1.1-7.5,1.9-12-0.7c-4.5-2.6-7.8-6.6-8.5-20.3C115.2,118.8,110.8,109.1,110.8,109.1z"/>
		<polyline class="st5" points="115.8,109.8 121.9,126.5 127,109.8 		"/>
		<g>
			<path class="st5" d="M134.7,138c0,0-10.9-0.9-13.9,2.1c-3,3.1-4.9,5.6-4.7,9.8c0.2,4.3-0.5,14.8-0.5,14.8s-0.2,3.2,1.2,3.9
				c1.6,0.7,3.2,0.6,4.3,0.8c1.5,0.2,4.4,0.3,5.9-1.8s1.9-9.4,1.6-11.7c-0.3-2.2,7.6,2.7,13.4-0.5c5.8-3.2,5.7-15.9,5.7-15.9
				L134.7,138z"/>
			<path class="st4" d="M116.8,144.7c0,0,4.6-2.8,9.1,1.3c3.9,3.5,4.9,8.2,4.7,9.7c-0.2,1.5,7.2,2.1,9.3,0.9
				c2.1-1.2,5.6-2.6,6.7-6.7c1.1-4.1,1.9-8.9,2.2-11.2c0.4-2.3-12.1-2.2-12.1-2.2l-15.7,0.6L116.8,144.7z"/>
		</g>
		<g>
			<path class="st6" d="M139,110.3c-1.1-0.5-0.7-2.5-5.2-2.9c-4.6-0.4-5.8,8-5.8,8s-3.8,24.9-3.3,26.1c0.4,1.2,1.7,3.5,3.1,2.7
				c1.4-0.8,5-4.9,5.3-6.2s6.8-15.3,6.8-15.3"/>
			<path class="st4" d="M125.3,122.6l15.6,5.6l-0.4-16.9c0,0-1.1-4.7-4.5-4.7c-0.8,0-1.7,0.2-2.6,0.5c-3.6,1.3-6.1,4.4-6.8,8.1
				L125.3,122.6z"/>
		</g>
		<g>
			<path class="st7" d="M111.7,110.3c-0.3-0.8-1.2-1.1-1.9-0.7c-2.1,1.3-3.2,3.8-3.1,4.3c0.1,0.6,0.3,18.1,0.6,19.7
				s3.5,11.3,4.7,11.3c1.3,0,4.3-0.1,4.5-2c0.1-1.7-1.9-23.3-2.1-25.5c0-0.1,0-0.2-0.1-0.3L111.7,110.3z"/>
			<path class="st4" d="M107.6,111.2c-1.3,1.1-2.3,4-2.3,6.9s0,6,0,7.4c0,1.5,8.2,0.4,9.5,1.5s2.2-6.3,2.2-6.3l-2.6-9.7
				c0,0-1-1-2.7-1.7C109.5,108.4,107.6,111.2,107.6,111.2z"/>
		</g>
		<polygon class="st8" points="110.8,109.1 115.5,108.9 121.4,125.1 120.8,128.6 		"/>
		<path class="st9" d="M130.6,108.8c0,0-5.7,16.6-7.6,22.1c-0.5,1.3-6.6,4.5-6.6,4.5l-0.3-2.4c0,0,2.7-2.6,3.5-3.9
			c2.7-4.4,7.4-19.5,7.4-19.5L130.6,108.8z"/>
		<path class="st10" d="M97.7,46.8c0,0,17.5-8.2,31.3-2.2c1.7,0.7,3.3,1.6,4.7,2.6c8.6,5.9,13,16.2,11.9,26.6
			c-0.7,6.9-1.3,15.8-1.3,17c-0.1,2.1,0.4,5.6,0.4,8.2s-14.9,13.4-25.7,11.5c-10.8-1.9-17.1-4.9-23-12c-5-6.2-9-18.2-10.2-27.1
			c-1-7.5,1.1-14.9,6.3-20.4C93.7,49.2,95.6,47.7,97.7,46.8z"/>
		<g>
			<ellipse class="st4" cx="135.7" cy="85.5" rx="3" ry="6.6"/>
			<ellipse class="st4" cx="115.1" cy="86.6" rx="3" ry="6.6"/>
			<path class="st11" d="M127.9,98.4c-1.1,0-3.7,0.7-4.1,2.6c-0.4,1.9,2.6,2.2,3.7,1.1C128.7,101,127.9,98.4,127.9,98.4z"/>
		</g>
		<ellipse class="st12" cx="110.8" cy="96.1" rx="3.9" ry="2.4"/>
		<ellipse class="st12" cx="139.9" cy="94.3" rx="3.4" ry="2.1"/>
		<path class="st13" d="M89.1,70.8c-0.6,2-3.7,5-3.2,6.1c0.5,1.1,3.9,9.2,5.6,15.3c1,3.6,7,8.8,7,8.8l2-14.6l4.7,1.2l-0.2-3.6
			l-1.5-0.9l0.9-0.2c0,0-1.7-1.8-1.7-2.8s2.7-5.4,3.5-5.8s-3.6-0.4-3.6-0.4l3.5-2.8l-6.2,0l6-4.1l-3.3,0.5L86.9,71"/>
		
			<ellipse transform="matrix(0.9363 -0.3513 0.3513 0.9363 -24.9978 39.8547)" class="st10" cx="97.4" cy="88.8" rx="5.2" ry="8.7"/>
		<g>
			<path class="st14" d="M80.1,76.1c-0.1,0-0.2-0.1-0.2,0C79.8,76.1,79.9,76.1,80.1,76.1z"/>
			<path class="st14" d="M127.4,63.2c0,0,0,0.1,0.1,0.1C127.4,63.2,127.3,63.1,127.4,63.2z"/>
			<path class="st15" d="M156.4,58.8c-3.1,0.7-7.8-5.4-7.8-5.4l4.1-1.6c0,0-4.2-0.9-3.7-1.3c2.3-2.1,6.6-0.4,6.3-0.7
				c-1.5-1.2-7.2-3.1-7.2-3.1c-0.8-2.2,4.7-2,4.5-2.2c-2.1-1.9-9.7-1.5-9-2.4c0.7-1-0.1-6.9-0.2-5.9c-0.3,2.6-2.7,6.3-2.9,5.8
				c-0.1-0.2,0.9-4.5,0.4-3.8c-0.9,1.3-5.9,1.1-5.7,0.9c1.8-1.6,1.6-11.7,1.6-11.7s-1.1,5-7,9c-3.6,2.4-3.9,1.3-3.9,1.3
				c4.2-3.6,2.5-7.5,2.3-7.2c-1.6,4.1-3.8,4.4-3.3,4c1.3-1,2.9-11.3,2.7-10.5c-0.3,1.3-2,2.5-3.3,3.6c-1.4,1.1-7,4-8.8,4.3
				c-1.8,0.2-7.4,1.3-8.6,1.6s-6.8,3.6-6.8,3.6s5.2-6.1,4.3-5.6c-2.1,1.1-4.9,2.6-7,3.8c-2.2,1.3-3.1,2.6-4.5,4.1
				c-1.4,1.6-1.6,5.3-0.6,8.9c0,0-8.3-2-8.3-1.8c0.2,3.2,4.4,6.4,4.3,6.6c-0.8,0.8-3.3-1.4-3.2-1.2c0.5,3,3.6,3.9,1.9,3.6
				c-1.7-0.3-7.3,2.1-6.2,2.5c1.1,0.4,3.5,3.9,3.5,3.9s-3.1-0.9-2.3-0.4c0.7,0.4,3.1,6.4,2.2,6.1c-0.5-0.2-3.3-1.1-4.8-1.8
				c1.6,2.3,4.1,7.7,4.1,7.7s-2.1,2.8-2.8,2.8c1.1,0.3,4.7,0.2,4,0.4c-0.7,0.3-2.6,6.1-2.1,4.9c0.5-1.2,5.1-2.8,5.6-2.5
				c0.5,0.3-1.6,4.9-1.2,4.3c0.4-0.6,6.2-4.5,6.2-4.5s-1.9,3.7-1.4,3.4c0.5-0.3,5.3-6.1,5.3-6.1l3.8,1.6l8.9-8.1
				c0,0-6.9-0.5-6.1-0.8c1.7-0.7,13.6-6,13.6-6s6.2,4.3,10,5.6c3.8,1.3,4.7-0.2,4.6-0.3c-0.4-0.2-2.7-0.8-3.9-4.8
				c2.7,0.9,12.4,5.6,12.6,5.5l-2.9-3.6c2-0.4,6,3.8,6,3.8c1.5-2.2-0.9-5.9,0.3-4.5c0.5,0.5,1.1,2.1,1.7,3.9c1,2.9,0.3,7.8,0.3,7.8
				l1.8-5.8l-0.1-0.5c0.2,0.1,0.4,0.3,0.5,0.3c3.7,1.8,4.9,0.9,4.5,0.7c-2.6-1.5-3.8-7.5-3.8-7.5l4,3.3c0.4-2.2-0.6-1.7,1.2-1.7
				c1.8,0,3.9-2,2.9-1.8c-1,0.2-5.1-1.8-2.5-2.2c2.5-0.4,4.3-2.7,4.3-2.7S159.5,58.1,156.4,58.8z"/>
		</g>
	</g>
</g>
<g>
	<g>
		<polygon class="st0" points="422.9,127.6 422.9,211.8 350.9,170.3 		"/>
		<polygon class="st1" points="422.9,127.6 422.3,212.1 493.5,170.8 		"/>
	</g>
	<g>
		<ellipse transform="matrix(0.7831 -0.6219 0.6219 0.7831 4.7654 305.6394)" class="st2" cx="440.6" cy="146" rx="3.7" ry="8.8"/>
		<path class="st3" d="M454.5,136.9c0,0-8.3-2.5-12.3-1.1c-4.5,1.6-7.8,3.9-8.7,8.1c-0.8,4.2-4.2,14.2-4.2,14.2s-1,3.1,0.2,4
			c1.4,1.1,3,1.4,4,1.8c1.4,0.6,4.2,1.4,6.1-0.3c2-1.7,4.2-8.7,4.5-10.9c0.3-2.2,7.7,3,14.1,1.3c6.4-1.7,8.5-12.5,8.5-12.5
			L454.5,136.9z"/>
		<path class="st4" d="M435.2,139.4c3.1-0.9,10.5,6.5,10.9,13.5l10.5,1.8l-2.3-18.7c0,0-8.1-2.1-10.4-1.3
			C441.6,135.4,432.4,140.2,435.2,139.4z"/>
		<path class="st4" d="M444.7,109.1c4.5,0,18.2-0.3,20.8-3.6s19.7,17.8,17.6,30.9c-2.4,15.2-12.8,17.4-12.8,17.4
			c-4.1,1.1-7.5,1.9-12-0.7c-4.5-2.6-7.8-6.6-8.5-20.3C449.1,118.8,444.7,109.1,444.7,109.1z"/>
		<polyline class="st5" points="449.7,109.8 455.8,126.5 461.6,107.4 		"/>
		<g>
			<path class="st5" d="M468.6,138c0,0-10.9-0.9-13.9,2.1s-4.9,5.6-4.7,9.8c0.2,4.3-0.5,14.8-0.5,14.8s-0.2,3.2,1.2,3.9
				c1.6,0.7,3.2,0.6,4.3,0.8c1.5,0.2,4.4,0.3,5.9-1.8s1.9-9.4,1.6-11.7s7.6,2.7,13.4-0.5c5.8-3.2,5.7-15.9,5.7-15.9L468.6,138z"/>
			<path class="st4" d="M450.7,144.7c0,0,4.6-2.8,9.1,1.3c3.9,3.5,4.9,8.2,4.7,9.7c-0.2,1.5,7.2,2.1,9.3,0.9
				c2.1-1.2,5.6-2.6,6.7-6.7c1.1-4.1,1.9-8.9,2.2-11.2c0.4-2.3-12.1-2.2-12.1-2.2l-15.7,0.6L450.7,144.7z"/>
		</g>
		<g>
			<path class="st6" d="M472.9,110.3c-1.1-0.5-0.7-2.5-5.2-2.9s-5.8,8-5.8,8s-3.8,24.9-3.3,26.1c0.4,1.2,1.7,3.5,3.1,2.7
				c1.4-0.8,5-4.9,5.3-6.2c0.3-1.4,6.8-15.3,6.8-15.3"/>
			<path class="st4" d="M459.2,122.6l15.6,5.6l-0.4-16.9c0,0-1.1-4.7-4.5-4.7c-0.8,0-1.5-1.4-2.4-1.1c-3.6,1.3-6.4,6-7,9.7
				L459.2,122.6z"/>
		</g>
		<g>
			<path class="st7" d="M445.6,110.3c-0.3-0.8-1.2-1.1-1.9-0.7c-2.1,1.3-3.2,3.8-3.1,4.3c0.1,0.6,0.3,18.1,0.6,19.7
				s3.5,11.3,4.7,11.3c1.3,0,4.3-0.1,4.5-2c0.1-1.7-1.9-23.3-2.1-25.5c0-0.1,0-0.2-0.1-0.3L445.6,110.3z"/>
			<path class="st4" d="M441.5,111.2c-1.3,1.1-2.3,4-2.3,6.9s0,6,0,7.4c0,1.5,8.2,0.4,9.5,1.5c1.3,1.1,2.2-6.3,2.2-6.3l-2.6-9.7
				c0,0-1-1-2.7-1.7C443.4,108.4,441.5,111.2,441.5,111.2z"/>
		</g>
		<polygon class="st8" points="444.7,109.1 449.4,108.9 455.3,125.1 454.7,128.6 		"/>
		<path class="st9" d="M465.3,106.4c0,0-6.4,19-8.4,24.5c-0.5,1.3-6.6,4.5-6.6,4.5l-0.3-2.4c0,0,2.7-2.6,3.5-3.9
			c2.7-4.4,8.1-21.8,8.1-21.8L465.3,106.4z"/>
		<path class="st10" d="M473.9,46.8c0,0-17.5-8.2-31.3-2.2c-1.7,0.7-3.3,1.6-4.7,2.6c-8.6,5.9-13,16.2-11.9,26.6
			c0.7,6.9,1.3,15.8,1.3,17c0.1,2.1-0.4,5.6-0.4,8.2s14.9,13.4,25.7,11.5c10.8-1.9,17.1-4.9,23-12c5-6.2,9-18.2,10.2-27.1
			c1-7.5-1.1-14.9-6.3-20.4C477.9,49.2,476.1,47.7,473.9,46.8z"/>
		<g>
			<path class="st4" d="M432.9,85.5c0,3.6,1.3,6.6,3,6.6c1.6,0,3-3,3-6.6c0,0-1.7-0.7-3.3-0.7C434,84.8,432.9,85.5,432.9,85.5z"/>
			<path class="st4" d="M453.5,86.6c0,3.6,1.3,6.6,3,6.6s3-3,3-6.6c0,0-1.3-1.2-3-1.2S453.5,86.6,453.5,86.6z"/>
			<path class="st11" d="M443.7,98.4c1.1,0,3.7,0.7,4.1,2.6c0.4,1.9-2.6,2.2-3.7,1.1C443,101,443.7,98.4,443.7,98.4z"/>
		</g>
		<ellipse class="st12" cx="460.8" cy="96.1" rx="3.9" ry="2.4"/>
		<ellipse class="st12" cx="431.7" cy="94.3" rx="3.4" ry="2.1"/>
		<path class="st13" d="M482.5,70.8c0.6,2,3.7,5,3.2,6.1c-0.5,1.1-3.9,9.2-5.6,15.3c-1,3.6-7,8.8-7,8.8l-2-14.6l-4.7,1.2l0.2-3.6
			l1.5-0.9l-0.9-0.2c0,0,1.7-1.8,1.7-2.8s-2.7-5.4-3.5-5.8c-0.9-0.5,3.6-0.4,3.6-0.4l-3.5-2.8l6.2,0l-6-4.1l3.3,0.5l15.8,3.8"/>
		
			<ellipse transform="matrix(0.3513 -0.9363 0.9363 0.3513 224.5291 501.6985)" class="st10" cx="474.3" cy="88.8" rx="8.7" ry="5.2"/>
		<g>
			<path class="st14" d="M491.5,76.1c0.1,0,0.2-0.1,0.2,0C491.9,76.1,491.8,76.1,491.5,76.1z"/>
			<path class="st14" d="M444.3,63.2c0,0,0,0.1-0.1,0.1C444.3,63.2,444.3,63.1,444.3,63.2z"/>
			<path class="st15" d="M415.3,58.8c3.1,0.7,7.8-5.4,7.8-5.4l-4.1-1.6c0,0,4.2-0.9,3.7-1.3c-2.3-2.1-6.6-0.4-6.3-0.7
				c1.5-1.2,7.2-3.1,7.2-3.1c0.8-2.2-4.7-2-4.5-2.2c2.1-1.9,9.7-1.5,9-2.4c-0.7-1,0.1-6.9,0.2-5.9c0.3,2.6,2.7,6.3,2.9,5.8
				c0.1-0.2-0.9-4.5-0.4-3.8c0.9,1.3,5.9,1.1,5.7,0.9c-1.8-1.6-1.6-11.7-1.6-11.7s1.1,5,7,9c3.6,2.4,3.9,1.3,3.9,1.3
				c-4.2-3.6-2.5-7.5-2.3-7.2c1.6,4.1,3.8,4.4,3.3,4c-1.3-1-2.9-11.3-2.7-10.5c0.3,1.3,2,2.5,3.3,3.6c1.4,1.1,7,4,8.8,4.3
				c1.8,0.2,7.4,1.3,8.6,1.6c1.2,0.2,6.8,3.6,6.8,3.6s-5.2-6.1-4.3-5.6c2.1,1.1,4.9,2.6,7,3.8c2.2,1.3,3.1,2.6,4.5,4.1
				c1.4,1.6,1.6,5.3,0.6,8.9c0,0,8.3-2,8.3-1.8c-0.2,3.2-4.4,6.4-4.3,6.6c0.8,0.8,3.3-1.4,3.2-1.2c-0.5,3-3.6,3.9-1.9,3.6
				c1.7-0.3,7.3,2.1,6.2,2.5c-1.1,0.4-3.5,3.9-3.5,3.9s3.1-0.9,2.3-0.4c-0.7,0.4-3.1,6.4-2.2,6.1c0.5-0.2,3.3-1.1,4.8-1.8
				c-1.6,2.3-4.1,7.7-4.1,7.7s2.1,2.8,2.8,2.8c-1.1,0.3-4.7,0.2-4,0.4c0.7,0.3,2.6,6.1,2.1,4.9c-0.5-1.2-5.1-2.8-5.6-2.5
				c-0.5,0.3,1.6,4.9,1.2,4.3c-0.4-0.6-6.2-4.5-6.2-4.5s1.9,3.7,1.4,3.4c-0.5-0.3-5.3-6.1-5.3-6.1l-3.8,1.6l-8.9-8.1
				c0,0,6.9-0.5,6.1-0.8c-1.7-0.7-13.6-6-13.6-6s-6.2,4.3-10,5.6c-3.8,1.3-4.7-0.2-4.6-0.3c0.4-0.2,2.7-0.8,3.9-4.8
				c-2.7,0.9-12.4,5.6-12.6,5.5l2.9-3.6c-2-0.4-6,3.8-6,3.8c-1.5-2.2,0.9-5.9-0.3-4.5c-0.5,0.5-1.1,2.1-1.7,3.9
				c-1,2.9-0.3,7.8-0.3,7.8l-1.8-5.8l0.1-0.5c-0.2,0.1-0.4,0.3-0.5,0.3c-3.7,1.8-4.9,0.9-4.5,0.7c2.6-1.5,3.8-7.5,3.8-7.5l-4,3.3
				c-0.4-2.2,0.6-1.7-1.2-1.7c-1.8,0-3.9-2-2.9-1.8c1,0.2,5.1-1.8,2.5-2.2c-2.5-0.4-4.3-2.7-4.3-2.7S412.1,58.1,415.3,58.8z"/>
		</g>
	</g>
</g>
<g>
	<g>
		<polygon class="st0" points="756.8,127.6 756.8,211.8 684.8,170.3 		"/>
		<polygon class="st1" points="756.8,127.6 756.2,212.1 827.4,170.8 		"/>
	</g>
	<g>
		<ellipse transform="matrix(0.7831 -0.6219 0.6219 0.7831 77.1753 513.2682)" class="st2" cx="774.5" cy="146" rx="3.7" ry="8.8"/>
		<path class="st3" d="M788.4,136.9c0,0-8.3-2.5-12.3-1.1c-4.5,1.6-7.8,3.9-8.7,8.1s-4.2,14.2-4.2,14.2s-1,3.1,0.2,4
			c1.4,1.1,3,1.4,4,1.8c1.4,0.6,4.2,1.4,6.1-0.3c2-1.7,4.2-8.7,4.5-10.9c0.3-2.2,7.7,3,14.1,1.3c6.4-1.7,8.5-12.5,8.5-12.5
			L788.4,136.9z"/>
		<path class="st4" d="M769,139.4c3.1-0.9,10.5,6.5,10.9,13.5l10.5,1.8l-2.3-18.7c0,0-8.1-2.1-10.4-1.3
			C775.5,135.4,766.3,140.2,769,139.4z"/>
		<path class="st4" d="M778.6,109.1c4.5,0,18.2-0.3,20.8-3.6c2.6-3.3,19.7,17.8,17.6,30.9c-2.4,15.2-12.8,17.4-12.8,17.4
			c-4.1,1.1-7.5,1.9-12-0.7c-4.5-2.6-7.8-6.6-8.5-20.3C783,118.8,778.6,109.1,778.6,109.1z"/>
		<polyline class="st5" points="783.6,109.8 789.7,126.5 795.5,107.4 		"/>
		<g>
			<path class="st5" d="M802.5,138c0,0-10.9-0.9-13.9,2.1c-3,3.1-4.9,5.6-4.7,9.8c0.2,4.3-0.5,14.8-0.5,14.8s-0.2,3.2,1.2,3.9
				c1.6,0.7,3.2,0.6,4.3,0.8c1.5,0.2,4.4,0.3,5.9-1.8c1.5-2.1,1.9-9.4,1.6-11.7s7.6,2.7,13.4-0.5c5.8-3.2,5.7-15.9,5.7-15.9
				L802.5,138z"/>
			<path class="st4" d="M784.6,144.7c0,0,4.6-2.8,9.1,1.3c3.9,3.5,4.9,8.2,4.7,9.7s7.2,2.1,9.3,0.9c2.1-1.2,5.6-2.6,6.7-6.7
				c1.1-4.1,1.9-8.9,2.2-11.2c0.4-2.3-12.1-2.2-12.1-2.2l-15.7,0.6L784.6,144.7z"/>
		</g>
		<g>
			<path class="st6" d="M806.7,110.3c-1.1-0.5-0.7-2.5-5.2-2.9c-4.6-0.4-5.8,8-5.8,8s-3.8,24.9-3.3,26.1c0.4,1.2,1.7,3.5,3.1,2.7
				c1.4-0.8,5-4.9,5.3-6.2c0.3-1.4,6.8-15.3,6.8-15.3"/>
			<path class="st4" d="M793,122.6l15.6,5.6l-0.4-16.9c0,0-1.1-4.7-4.5-4.7c-0.8,0-1.5-1.4-2.4-1.1c-3.6,1.3-6.4,6-7,9.7L793,122.6z
				"/>
		</g>
		<g>
			<path class="st7" d="M779.5,110.3c-0.3-0.8-1.2-1.1-1.9-0.7c-2.1,1.3-3.2,3.8-3.1,4.3c0.1,0.6,0.3,18.1,0.6,19.7
				c0.3,1.5,3.5,11.3,4.7,11.3s4.3-0.1,4.5-2c0.1-1.7-1.9-23.3-2.1-25.5c0-0.1,0-0.2-0.1-0.3L779.5,110.3z"/>
			<path class="st4" d="M775.4,111.2c-1.3,1.1-2.3,4-2.3,6.9s0,6,0,7.4c0,1.5,8.2,0.4,9.5,1.5s2.2-6.3,2.2-6.3l-2.6-9.7
				c0,0-1-1-2.7-1.7C777.2,108.4,775.4,111.2,775.4,111.2z"/>
		</g>
		<polygon class="st8" points="778.6,109.1 783.3,108.9 789.2,125.1 788.6,128.6 		"/>
		<path class="st9" d="M799.1,106.4c0,0-6.4,19-8.4,24.5c-0.5,1.3-6.6,4.5-6.6,4.5l-0.3-2.4c0,0,2.7-2.6,3.5-3.9
			c2.7-4.4,8.1-21.8,8.1-21.8L799.1,106.4z"/>
		<path class="st10" d="M807.8,46.8c0,0-17.5-8.2-31.3-2.2c-1.7,0.7-3.3,1.6-4.7,2.6c-8.6,5.9-13,16.2-11.9,26.6
			c0.7,6.9,1.3,15.8,1.3,17c0.1,2.1-0.4,5.6-0.4,8.2s14.9,13.4,25.7,11.5c10.8-1.9,17.1-4.9,23-12c5-6.2,9-18.2,10.2-27.1
			c1-7.5-1.1-14.9-6.3-20.4C811.8,49.2,809.9,47.7,807.8,46.8z"/>
		<g>
			<ellipse class="st4" cx="769.8" cy="85.5" rx="3" ry="6.6"/>
			<ellipse class="st4" cx="790.4" cy="86.6" rx="3" ry="6.6"/>
			<path class="st11" d="M778.1,100.6c1.1,0,3.6,0.4,3.6,0.4c0.4,1.9-2.6,2.2-3.7,1.1C776.9,101,778.1,100.6,778.1,100.6z"/>
		</g>
		<ellipse class="st12" cx="794.7" cy="96.1" rx="3.9" ry="2.4"/>
		<ellipse class="st12" cx="765.6" cy="94.3" rx="3.4" ry="2.1"/>
		<path class="st13" d="M816.4,70.8c0.6,2,3.7,5,3.2,6.1c-0.5,1.1-3.9,9.2-5.6,15.3c-1,3.6-7,8.8-7,8.8l-2-14.6l-4.7,1.2l0.2-3.6
			l1.5-0.9l-0.9-0.2c0,0,1.7-1.8,1.7-2.8s-2.7-5.4-3.5-5.8s3.6-0.4,3.6-0.4l-3.5-2.8l6.2,0l-6-4.1l3.3,0.5l15.8,3.8"/>
		
			<ellipse transform="matrix(0.3513 -0.9363 0.9363 0.3513 441.1349 814.307)" class="st10" cx="808.2" cy="88.8" rx="8.7" ry="5.2"/>
		<g>
			<path class="st14" d="M825.4,76.1c0.1,0,0.2-0.1,0.2,0C825.8,76.1,825.6,76.1,825.4,76.1z"/>
			<path class="st14" d="M778.2,63.2c0,0,0,0.1-0.1,0.1C778.1,63.2,778.2,63.1,778.2,63.2z"/>
			<path class="st15" d="M749.1,58.8c3.1,0.7,7.8-5.4,7.8-5.4l-4.1-1.6c0,0,4.2-0.9,3.7-1.3c-2.3-2.1-6.6-0.4-6.3-0.7
				c1.5-1.2,7.2-3.1,7.2-3.1c0.8-2.2-4.7-2-4.5-2.2c2.1-1.9,9.7-1.5,9-2.4c-0.7-1,0.1-6.9,0.2-5.9c0.3,2.6,2.7,6.3,2.9,5.8
				c0.1-0.2-0.9-4.5-0.4-3.8c0.9,1.3,5.9,1.1,5.7,0.9c-1.8-1.6-1.6-11.7-1.6-11.7s1.1,5,7,9c3.6,2.4,3.9,1.3,3.9,1.3
				c-4.2-3.6-2.5-7.5-2.3-7.2c1.6,4.1,3.8,4.4,3.3,4c-1.3-1-2.9-11.3-2.7-10.5c0.3,1.3,2,2.5,3.3,3.6c1.4,1.1,7,4,8.8,4.3
				c1.8,0.2,7.4,1.3,8.6,1.6s6.8,3.6,6.8,3.6s-5.2-6.1-4.3-5.6c2.1,1.1,4.9,2.6,7,3.8c2.2,1.3,3.1,2.6,4.5,4.1
				c1.4,1.6,1.6,5.3,0.6,8.9c0,0,8.3-2,8.3-1.8c-0.2,3.2-4.4,6.4-4.3,6.6c0.8,0.8,3.3-1.4,3.2-1.2c-0.5,3-3.6,3.9-1.9,3.6
				c1.7-0.3,7.3,2.1,6.2,2.5s-3.5,3.9-3.5,3.9s3.1-0.9,2.3-0.4c-0.7,0.4-3.1,6.4-2.2,6.1c0.5-0.2,3.3-1.1,4.8-1.8
				c-1.6,2.3-4.1,7.7-4.1,7.7s2.1,2.8,2.8,2.8c-1.1,0.3-4.7,0.2-4,0.4c0.7,0.3,2.6,6.1,2.1,4.9c-0.5-1.2-5.1-2.8-5.6-2.5
				c-0.5,0.3,1.6,4.9,1.2,4.3c-0.4-0.6-6.2-4.5-6.2-4.5s1.9,3.7,1.4,3.4c-0.5-0.3-5.3-6.1-5.3-6.1l-3.8,1.6l-8.9-8.1
				c0,0,6.9-0.5,6.1-0.8c-1.7-0.7-13.6-6-13.6-6s-6.2,4.3-10,5.6c-3.8,1.3-4.7-0.2-4.6-0.3c0.4-0.2,2.7-0.8,3.9-4.8
				c-2.7,0.9-12.4,5.6-12.6,5.5l2.9-3.6c-2-0.4-6,3.8-6,3.8c-1.5-2.2,0.9-5.9-0.3-4.5c-0.5,0.5-1.1,2.1-1.7,3.9
				c-1,2.9-0.3,7.8-0.3,7.8l-1.8-5.8l0.1-0.5c-0.2,0.1-0.4,0.3-0.5,0.3c-3.7,1.8-4.9,0.9-4.5,0.7c2.6-1.5,3.8-7.5,3.8-7.5l-4,3.3
				c-0.4-2.2,0.6-1.7-1.2-1.7c-1.8,0-3.9-2-2.9-1.8c1,0.2,5.1-1.8,2.5-2.2c-2.5-0.4-4.3-2.7-4.3-2.7S746,58.1,749.1,58.8z"/>
		</g>
	</g>
</g>
<g>
	<g>
		<polygon class="st0" points="923.7,127.6 923.7,211.8 851.7,170.3 		"/>
		<polygon class="st1" points="923.7,127.6 923.1,212.1 994.4,170.8 		"/>
	</g>
	<g>
		<g>
			<path class="st7" d="M946.4,110.3c-0.3-0.8-1.2-1.1-1.9-0.7c-2.1,1.3-3.2,3.8-3.1,4.3c0.1,0.6,0.3,18.1,0.6,19.7
				c0.3,1.5,3.5,11.3,4.7,11.3s4.3-0.1,4.5-2c0.1-1.7-1.9-23.3-2.1-25.5c0-0.1,0-0.2-0.1-0.3L946.4,110.3z"/>
			<path class="st4" d="M942.4,111.2c-1.3,1.1-2.3,4-2.3,6.9s0,6,0,7.4c0,1.5,8.2,0.4,9.5,1.5c1.3,1.1,2.2-6.3,2.2-6.3l-2.6-9.7
				c0,0-1-1-2.7-1.7C944.2,108.4,942.3,111.2,942.4,111.2z"/>
		</g>
		
			<ellipse transform="matrix(0.7831 -0.6219 0.6219 0.7831 113.3803 617.0827)" class="st2" cx="941.4" cy="146" rx="3.7" ry="8.8"/>
		<path class="st3" d="M955.4,136.9c0,0-8.3-2.5-12.3-1.1c-4.5,1.6-7.8,3.9-8.7,8.1s-4.2,14.2-4.2,14.2s-1,3.1,0.2,4
			c1.4,1.1,3,1.4,4,1.8c1.4,0.6,4.2,1.4,6.1-0.3c2-1.7,4.2-8.7,4.5-10.9c0.3-2.2,7.7,3,14.1,1.3c6.4-1.7,8.5-12.5,8.5-12.5
			L955.4,136.9z"/>
		<path class="st4" d="M936,139.4c3.1-0.9,10.5,6.5,10.9,13.5l10.5,1.8l-2.3-18.7c0,0-8.1-2.1-10.4-1.3
			C942.5,135.4,933.2,140.2,936,139.4z"/>
		<path class="st4" d="M945.5,109.1c4.5,0,18.2-0.3,20.8-3.6c2.6-3.3,19.7,17.8,17.6,30.9c-2.4,15.2-12.8,17.4-12.8,17.4
			c-4.1,1.1-7.5,1.9-12-0.7s-7.8-6.6-8.5-20.3C949.9,118.8,945.5,109.1,945.5,109.1z"/>
		<polyline class="st5" points="950.5,109.8 956.6,126.5 962.4,107.4 		"/>
		<g>
			<path class="st5" d="M969.4,138c0,0-10.9-0.9-13.9,2.1c-3,3.1-4.9,5.6-4.7,9.8c0.2,4.3-0.5,14.8-0.5,14.8s-0.2,3.2,1.2,3.9
				c1.6,0.7,3.2,0.6,4.3,0.8c1.5,0.2,4.4,0.3,5.9-1.8s1.9-9.4,1.6-11.7s7.6,2.7,13.4-0.5c5.8-3.2,5.7-15.9,5.7-15.9L969.4,138z"/>
			<path class="st4" d="M951.5,144.7c0,0,4.6-2.8,9.1,1.3c3.9,3.5,4.9,8.2,4.7,9.7s7.2,2.1,9.3,0.9c2.1-1.2,5.6-2.6,6.7-6.7
				c1.1-4.1,1.9-8.9,2.2-11.2c0.4-2.3-12.1-2.2-12.1-2.2l-15.7,0.6L951.5,144.7z"/>
		</g>
		<g>
			<path class="st6" d="M970.9,109.2c-1.2,0.2-2-1.6-5.9,0.8c-3.9,2.4,0.1,9.9,0.1,9.9s11.9,22.2,12.9,22.9s3.4,1.8,4.1,0.3
				c0.6-1.5,1.1-6.9,0.5-8.2c-0.6-1.3-3.7-16.3-3.7-16.3"/>
			<path class="st4" d="M967.3,127.3l15.9-4.9l-10.4-13.3c0,0-3.7-3.1-6.4-1.1c-0.6,0.5-2-0.2-2.6,0.6c-2.1,3.1-1.5,8.6,0.2,12
				L967.3,127.3z"/>
		</g>
		<polygon class="st8" points="945.5,109.1 950.2,108.9 956.1,125.1 955.5,128.6 		"/>
		<path class="st9" d="M966.1,106.4c0,0-6.4,19-8.4,24.5c-0.5,1.3-6.6,4.5-6.6,4.5l-0.3-2.4c0,0,2.7-2.6,3.5-3.9
			c2.7-4.4,8.1-21.8,8.1-21.8L966.1,106.4z"/>
		<path class="st10" d="M974.7,46.8c0,0-17.5-8.2-31.3-2.2c-1.7,0.7-3.3,1.6-4.7,2.6c-8.6,5.9-13,16.2-11.9,26.6
			c0.7,6.9,1.3,15.8,1.3,17c0.1,2.1-0.4,5.6-0.4,8.2s14.9,13.4,25.7,11.5c10.8-1.9,17.1-4.9,23-12c5-6.2,9-18.2,10.2-27.1
			c1-7.5-1.1-14.9-6.3-20.4C978.8,49.2,976.9,47.7,974.7,46.8z"/>
		<g>
			<ellipse class="st4" cx="936.7" cy="85.5" rx="3" ry="6.6"/>
			<ellipse class="st4" cx="957.3" cy="86.6" rx="3" ry="6.6"/>
			<path class="st11" d="M945,100.6c1.1,0,3.6,0.4,3.6,0.4c0.4,1.9-2.6,2.2-3.7,1.1C943.8,101,945,100.6,945,100.6z"/>
		</g>
		<ellipse class="st12" cx="961.6" cy="96.1" rx="3.9" ry="2.4"/>
		<ellipse class="st12" cx="932.5" cy="94.3" rx="3.4" ry="2.1"/>
		<path class="st13" d="M983.3,70.8c0.6,2,3.7,5,3.2,6.1c-0.5,1.1-3.9,9.2-5.6,15.3c-1,3.6-7,8.8-7,8.8l-2-14.6l-4.7,1.2l0.2-3.6
			l1.5-0.9l-0.9-0.2c0,0,1.7-1.8,1.7-2.8s-2.7-5.4-3.5-5.8s3.6-0.4,3.6-0.4l-3.5-2.8l6.2,0l-6-4.1l3.3,0.5l15.8,3.8"/>
		
			<ellipse transform="matrix(0.3513 -0.9363 0.9363 0.3513 549.4378 970.6113)" class="st10" cx="975.1" cy="88.8" rx="8.7" ry="5.2"/>
		<g>
			<path class="st14" d="M992.3,76.1c0.1,0,0.2-0.1,0.2,0C992.7,76.1,992.6,76.1,992.3,76.1z"/>
			<path class="st14" d="M945.1,63.2c0,0,0,0.1-0.1,0.1C945.1,63.2,945.1,63.1,945.1,63.2z"/>
			<path class="st15" d="M916.1,58.8c3.1,0.7,7.8-5.4,7.8-5.4l-4.1-1.6c0,0,4.2-0.9,3.7-1.3c-2.3-2.1-6.6-0.4-6.3-0.7
				c1.5-1.2,7.2-3.1,7.2-3.1c0.8-2.2-4.7-2-4.5-2.2c2.1-1.9,9.7-1.5,9-2.4c-0.7-1,0.1-6.9,0.2-5.9c0.3,2.6,2.7,6.3,2.9,5.8
				c0.1-0.2-0.9-4.5-0.4-3.8c0.9,1.3,5.9,1.1,5.7,0.9c-1.8-1.6-1.6-11.7-1.6-11.7s1.1,5,7,9c3.6,2.4,3.9,1.3,3.9,1.3
				c-4.2-3.6-2.5-7.5-2.3-7.2c1.6,4.1,3.8,4.4,3.3,4c-1.3-1-2.9-11.3-2.7-10.5c0.3,1.3,2,2.5,3.3,3.6c1.4,1.1,7,4,8.8,4.3
				c1.8,0.2,7.4,1.3,8.6,1.6s6.8,3.6,6.8,3.6s-5.2-6.1-4.3-5.6c2.1,1.1,4.9,2.6,7,3.8c2.2,1.3,3.1,2.6,4.5,4.1
				c1.4,1.6,1.6,5.3,0.6,8.9c0,0,8.3-2,8.3-1.8c-0.2,3.2-4.4,6.4-4.3,6.6c0.8,0.8,3.3-1.4,3.2-1.2c-0.5,3-3.6,3.9-1.9,3.6
				c1.7-0.3,7.3,2.1,6.2,2.5s-3.5,3.9-3.5,3.9s3.1-0.9,2.3-0.4c-0.7,0.4-3.1,6.4-2.2,6.1c0.5-0.2,3.3-1.1,4.8-1.8
				c-1.6,2.3-4.1,7.7-4.1,7.7s2.1,2.8,2.8,2.8c-1.1,0.3-4.7,0.2-4,0.4c0.7,0.3,2.6,6.1,2.1,4.9c-0.5-1.2-5.1-2.8-5.6-2.5
				c-0.5,0.3,1.6,4.9,1.2,4.3c-0.4-0.6-6.2-4.5-6.2-4.5s1.9,3.7,1.4,3.4c-0.5-0.3-5.3-6.1-5.3-6.1l-3.8,1.6l-8.9-8.1
				c0,0,6.9-0.5,6.1-0.8c-1.7-0.7-13.6-6-13.6-6s-6.2,4.3-10,5.6c-3.8,1.3-4.7-0.2-4.6-0.3c0.4-0.2,2.7-0.8,3.9-4.8
				c-2.7,0.9-12.4,5.6-12.6,5.5l2.9-3.6c-2-0.4-6,3.8-6,3.8c-1.5-2.2,0.9-5.9-0.3-4.5c-0.5,0.5-1.1,2.1-1.7,3.9
				c-1,2.9-0.3,7.8-0.3,7.8l-1.8-5.8l0.1-0.5c-0.2,0.1-0.4,0.3-0.5,0.3c-3.7,1.8-4.9,0.9-4.5,0.7c2.6-1.5,3.8-7.5,3.8-7.5l-4,3.3
				c-0.4-2.2,0.6-1.7-1.2-1.7c-1.8,0-3.9-2-2.9-1.8c1,0.2,5.1-1.8,2.5-2.2c-2.5-0.4-4.3-2.7-4.3-2.7S913,58.1,916.1,58.8z"/>
		</g>
	</g>
</g>
<g>
	<g>
		<polygon class="st0" points="1090.6,127.6 1090.6,211.8 1018.6,170.3 		"/>
		<polygon class="st1" points="1090.6,127.6 1090.1,212.1 1161.3,170.8 		"/>
	</g>
	<g>
		<g>
			<path class="st7" d="M1114.5,108.2c-0.1-0.8-1-1.3-1.7-1c-2.4,0.8-3.9,3.1-3.9,3.5c0,0.6-3.5,17.8-3.5,19.4s1.1,11.8,2.3,12
				c1.2,0.3,4.3,0.8,4.8-1c0.5-1.7,3-23.2,3.3-25.4c0-0.1,0-0.2,0-0.4L1114.5,108.2z"/>
			<path class="st4" d="M1110.4,108.3c-1.5,0.8-3,3.4-3.7,6.3c-0.6,2.9-1.2,5.8-1.5,7.3c-0.3,1.5,7.9,2.1,9,3.4
				c1,1.4,3.5-5.7,3.5-5.7l-0.5-10c0,0-0.7-1.2-2.3-2.2C1112.7,105.9,1110.4,108.2,1110.4,108.3z"/>
		</g>
		
			<ellipse transform="matrix(0.7831 -0.6219 0.6219 0.7831 149.5853 720.8972)" class="st2" cx="1108.3" cy="146" rx="3.7" ry="8.8"/>
		<path class="st3" d="M1122.3,136.9c0,0-8.3-2.5-12.3-1.1c-4.5,1.6-7.8,3.9-8.7,8.1c-0.8,4.2-4.2,14.2-4.2,14.2s-1,3.1,0.2,4
			c1.4,1.1,3,1.4,4,1.8c1.4,0.6,4.2,1.4,6.1-0.3c2-1.7,4.2-8.7,4.5-10.9c0.3-2.2,7.7,3,14.1,1.3c6.4-1.7,8.5-12.5,8.5-12.5
			L1122.3,136.9z"/>
		<path class="st4" d="M1102.9,139.4c3.1-0.9,10.5,6.5,10.9,13.5l10.5,1.8L1122,136c0,0-8.1-2.1-10.4-1.3
			C1109.4,135.4,1100.1,140.2,1102.9,139.4z"/>
		<path class="st4" d="M1112.5,115.1c4.3,0,17.4-0.2,19.9-3.1s18.9,15.5,16.9,26.8C1147.1,152,1137,154,1137,154
			c-3.9,1-7.2,1.6-11.5-0.6c-4.3-2.3-7.5-5.7-8.2-17.7C1116.7,123.6,1112.5,115.1,1112.5,115.1z"/>
		<polyline class="st5" points="1117.5,115.7 1123.6,130.3 1129.4,113.6 		"/>
		<g>
			<path class="st5" d="M1136.4,138c0,0-10.9-0.9-13.9,2.1s-4.9,5.6-4.7,9.8c0.2,4.3-0.5,14.8-0.5,14.8s-0.2,3.2,1.2,3.9
				c1.6,0.7,3.2,0.6,4.3,0.8c1.5,0.2,4.4,0.3,5.9-1.8c1.5-2.1,1.9-9.4,1.6-11.7c-0.3-2.2,7.6,2.7,13.4-0.5
				c5.8-3.2,5.7-15.9,5.7-15.9L1136.4,138z"/>
			<path class="st4" d="M1118.5,144.7c0,0,4.6-2.8,9.1,1.3c3.9,3.5,4.9,8.2,4.7,9.7s7.2,2.1,9.3,0.9c2.1-1.2,5.3-2.1,6.4-6.2
				c1.1-4.1,1.5-9,1.5-11.6c0-2.3-11-2.3-11-2.3l-15.7,0.6L1118.5,144.7z"/>
		</g>
		<g>
			<path class="st6" d="M1142.9,121.9c-1.2-0.2-1.3-2.3-5.8-1.4c-4.5,0.9-3.5,9.3-3.5,9.3s3,25,3.7,26.1c0.7,1.1,2.6,2.9,3.7,1.8
				c1.1-1.2,3.5-6,3.5-7.4s2.5-16.5,2.5-16.5"/>
			<path class="st4" d="M1132.9,137.4l16.5,1.2l-4.2-14c-0.7-2.3-2.3-4.2-4.5-5c-0.5-0.2-1.1-0.4-1.7-0.5c-1-0.1-2.8-0.1-3.6,0.5
				c-3.1,2.2-3.5,6.6-3.2,10.4L1132.9,137.4z"/>
		</g>
		<polygon class="st8" points="1112.5,115.1 1117.2,114.9 1123.1,129 1122.5,132.1 		"/>
		<path class="st9" d="M1133,112.8c0,0-6.4,16.5-8.4,21.3c-0.5,1.2-6.6,3.9-6.6,3.9l-0.3-2.1c0,0,2.7-2.3,3.5-3.4
			c2.7-3.9,8.1-19,8.1-19L1133,112.8z"/>
		<path class="st10" d="M1142.4,53.4c0,0-17.5-8.2-31.3-2.2c-1.7,0.7-3.3,1.6-4.7,2.6c-8.6,5.9-13,16.2-11.9,26.6
			c0.7,6.9,1.3,15.8,1.3,17c0.1,2.1-0.4,5.6-0.4,8.2c0,2.6,14.9,13.4,25.7,11.5c10.8-1.9,17.1-4.9,23-12c5-6.2,9-18.2,10.2-27.1
			c1-7.5-1.1-14.9-6.3-20.4C1146.5,55.8,1144.6,54.3,1142.4,53.4z"/>
		<g>
			<ellipse class="st4" cx="1104.4" cy="92.1" rx="3" ry="6.6"/>
			<ellipse class="st4" cx="1125" cy="93.3" rx="3" ry="6.6"/>
			<path class="st11" d="M1112.7,107.2c1.1,0,3.6,0.4,3.6,0.4c0.4,1.9-2.6,2.2-3.7,1.1C1111.5,107.6,1112.7,107.2,1112.7,107.2z"/>
		</g>
		<ellipse class="st12" cx="1129.3" cy="102.7" rx="3.9" ry="2.4"/>
		<ellipse class="st12" cx="1100.2" cy="100.9" rx="3.4" ry="2.1"/>
		<path class="st13" d="M1151.1,77.4c0.6,2,3.7,5,3.2,6.1s-3.9,9.2-5.6,15.3c-1,3.6-7,8.8-7,8.8l-2-14.6l-4.7,1.2l0.2-3.6l1.5-0.9
			l-0.9-0.2c0,0,1.7-1.8,1.7-2.8s-2.7-5.4-3.5-5.8c-0.9-0.5,3.6-0.4,3.6-0.4l-3.5-2.8l6.2,0l-6-4.1l3.3,0.5l15.8,3.8"/>
		
			<ellipse transform="matrix(0.3513 -0.9363 0.9363 0.3513 652.04 1131.9276)" class="st10" cx="1142.8" cy="95.4" rx="8.7" ry="5.2"/>
		<g>
			<path class="st14" d="M1160,82.7c0.1,0,0.2-0.1,0.2,0C1160.4,82.7,1160.3,82.7,1160,82.7z"/>
			<path class="st14" d="M1112.8,69.8c0,0,0,0.1-0.1,0.1C1112.8,69.8,1112.8,69.7,1112.8,69.8z"/>
			<path class="st15" d="M1083.8,65.4c3.1,0.7,7.8-5.4,7.8-5.4l-4.1-1.6c0,0,4.2-0.9,3.7-1.3c-2.3-2.1-6.6-0.4-6.3-0.7
				c1.5-1.2,7.2-3.1,7.2-3.1c0.8-2.2-4.7-2-4.5-2.2c2.1-1.9,9.7-1.5,9-2.4c-0.7-1,0.1-6.9,0.2-5.9c0.3,2.6,2.7,6.3,2.9,5.8
				c0.1-0.2-0.9-4.5-0.4-3.8c0.9,1.3,5.9,1.1,5.7,0.9c-1.8-1.6-1.6-11.7-1.6-11.7s1.1,5,7,9c3.6,2.4,3.9,1.3,3.9,1.3
				c-4.2-3.6-2.5-7.5-2.3-7.2c1.6,4.1,3.8,4.4,3.3,4c-1.3-1-2.9-11.3-2.7-10.5c0.3,1.3,2,2.5,3.3,3.6c1.4,1.1,7,4,8.8,4.3
				c1.8,0.2,7.4,1.3,8.6,1.6s6.8,3.6,6.8,3.6s-5.2-6.1-4.3-5.6c2.1,1.1,4.9,2.6,7,3.8c2.2,1.3,3.1,2.6,4.5,4.1
				c1.4,1.6,1.6,5.3,0.6,8.9c0,0,8.3-2,8.3-1.8c-0.2,3.2-4.4,6.4-4.3,6.6c0.8,0.8,3.3-1.4,3.2-1.2c-0.5,3-3.6,3.9-1.9,3.6
				c1.7-0.3,7.3,2.1,6.2,2.5s-3.5,3.9-3.5,3.9s3.1-0.9,2.3-0.4c-0.7,0.4-3.1,6.4-2.2,6.1c0.5-0.2,3.3-1.1,4.8-1.8
				c-1.6,2.3-4.1,7.7-4.1,7.7s2.1,2.8,2.8,2.8c-1.1,0.3-4.7,0.2-4,0.4c0.7,0.3,2.6,6.1,2.1,4.9c-0.5-1.2-5.1-2.8-5.6-2.5
				c-0.5,0.3,1.6,4.9,1.2,4.3c-0.4-0.6-6.2-4.5-6.2-4.5s1.9,3.7,1.4,3.4c-0.5-0.3-5.3-6.1-5.3-6.1l-3.8,1.6l-8.9-8.1
				c0,0,6.9-0.5,6.1-0.8c-1.7-0.7-13.6-6-13.6-6s-6.2,4.3-10,5.6c-3.8,1.3-4.7-0.2-4.6-0.3c0.4-0.2,2.7-0.8,3.9-4.8
				c-2.7,0.9-12.4,5.6-12.6,5.5l2.9-3.6c-2-0.4-6,3.8-6,3.8c-1.5-2.2,0.9-5.9-0.3-4.5c-0.5,0.5-1.1,2.1-1.7,3.9
				c-1,2.9-0.3,7.8-0.3,7.8l-1.8-5.8l0.1-0.5c-0.2,0.1-0.4,0.3-0.5,0.3c-3.7,1.8-4.9,0.9-4.5,0.7c2.6-1.5,3.8-7.5,3.8-7.5l-4,3.3
				c-0.4-2.2,0.6-1.7-1.2-1.7c-1.8,0-3.9-2-2.9-1.8c1,0.2,5.1-1.8,2.5-2.2c-2.5-0.4-4.3-2.7-4.3-2.7S1080.7,64.8,1083.8,65.4z"/>
		</g>
	</g>
</g>
<g>
	<g>
		<polygon class="st0" points="1257.6,127.6 1257.6,211.8 1185.6,170.3 		"/>
		<polygon class="st1" points="1257.6,127.6 1257,212.1 1328.2,170.8 		"/>
	</g>
	<g>
		<g>
			<path class="st3" d="M1283.7,144.5c-0.9-0.7-0.2-2.6-4.2-3.7c-3.9-1.1-6.2,7-6.2,7s-8.3,25.9-7.5,27.3c1.9,3.2,8.7,3.8,9.1,2.5
				c0.4-1.3,7.8-20.7,7.8-20.7"/>
			<path class="st4" d="M1268.3,160.7l10.8,4.3c0.8,0.3,1.6-0.1,1.8-0.9l4.5-16.9c0-0.1,0-0.2,0-0.4c0-2.6-1.1-5.1-3.1-6.7
				c-0.5-0.4-1.1-0.8-1.8-1.1c-1.1-0.5-3.1-1.1-4.1-0.8c-4.1,1.2-6.1,5.8-7,9.8l-1.9,11C1267.3,159.8,1267.7,160.4,1268.3,160.7z"/>
		</g>
		<g>
			<path class="st7" d="M1276.4,115.3c0.4-0.7,0.2-1.6-0.6-1.9c-2.3-1-4.9-0.4-5.3,0c-0.4,0.4-14.6,10.7-15.7,11.8
				c-1.1,1.1-7.2,9.4-6.5,10.4c0.7,1,2.6,3.4,4.2,2.5c1.5-0.9,17.9-15,19.6-16.4c0.1-0.1,0.2-0.2,0.2-0.3L1276.4,115.3z"/>
			<path class="st4" d="M1273.3,112.5c-1.7-0.4-4.5,0.4-7,2.1s-4.9,3.4-6.1,4.3s4.4,6.9,4.3,8.6c-0.2,1.7,6.5-1.8,6.5-1.8l6.4-7.7
				c0,0,0.3-1.4-0.2-3.2C1276.6,112.4,1273.3,112.5,1273.3,112.5z"/>
		</g>
		<path class="st4" d="M1266.3,117.8c4.3,0,23.1-2.3,25.6-5.2s8.5,21.1,6.6,32.5c-2.3,13.2-7.6,11.5-7.6,11.5
			c-3.9,1-7.2,1.6-11.5-0.6c-4.3-2.3-7.5-5.7-8.2-17.7C1270.5,126.3,1266.3,117.8,1266.3,117.8z"/>
		<polyline class="st5" points="1271.3,118.4 1277.4,133 1283.2,116.3 		"/>
		<polygon class="st8" points="1266.3,117.8 1271,117.6 1276.9,131.7 1276.3,134.8 		"/>
		<path class="st9" d="M1286.8,115.5c0,0-6.4,16.5-8.4,21.3c-0.5,1.2-6.6,3.9-6.6,3.9l-0.3-2.1c0,0,2.7-2.3,3.5-3.4
			c2.7-3.9,8.1-19,8.1-19L1286.8,115.5z"/>
		<path class="st10" d="M1296.3,56.1c0,0-17.5-8.2-31.3-2.2c-1.7,0.7-3.3,1.6-4.7,2.6c-8.6,5.9-13,16.2-11.9,26.6
			c0.7,6.9,1.3,15.8,1.3,17c0.1,2.1-0.4,5.6-0.4,8.2c0,2.6,14.9,13.4,25.7,11.5c10.8-1.9,17.1-4.9,23-12c5-6.2,9-18.2,10.2-27.1
			c1-7.5-1.1-14.9-6.3-20.4C1300.3,58.5,1298.4,57,1296.3,56.1z"/>
		<g>
			<ellipse class="st4" cx="1258.3" cy="94.8" rx="3" ry="6.6"/>
			<ellipse class="st4" cx="1278.9" cy="96" rx="3" ry="6.6"/>
			<path class="st11" d="M1266.5,107.9c1.5-3.3,3.7-0.7,3.7,1.2c0,3.6-2.8,4.1-3.7,1.8C1266.2,110.3,1266.2,108.5,1266.5,107.9z"/>
		</g>
		<ellipse class="st12" cx="1283.2" cy="105.4" rx="3.9" ry="2.4"/>
		<ellipse class="st12" cx="1254.1" cy="103.7" rx="3.4" ry="2.1"/>
		<path class="st13" d="M1304.9,80.1c0.6,2,3.7,5,3.2,6.1s-3.9,9.2-5.6,15.3c-1,3.6-7,8.8-7,8.8l-2-14.6l-4.7,1.2l0.2-3.6l1.5-0.9
			l-0.9-0.2c0,0,1.7-1.8,1.7-2.8c0-1.1-2.7-5.4-3.5-5.8c-0.9-0.5,3.6-0.4,3.6-0.4l-3.5-2.8l6.2,0l-6-4.1l3.3,0.5l15.8,3.8"/>
		
			<ellipse transform="matrix(0.3513 -0.9363 0.9363 0.3513 749.2981 1277.7097)" class="st10" cx="1296.7" cy="98.2" rx="8.7" ry="5.2"/>
		<g>
			<path class="st14" d="M1313.9,85.4c0.1,0,0.2-0.1,0.2,0C1314.2,85.4,1314.1,85.4,1313.9,85.4z"/>
			<path class="st14" d="M1266.6,72.5c0,0,0,0.1-0.1,0.1C1266.6,72.5,1266.7,72.4,1266.6,72.5z"/>
			<path class="st15" d="M1237.6,68.1c3.1,0.7,7.8-5.4,7.8-5.4l-4.1-1.6c0,0,4.2-0.9,3.7-1.3c-2.3-2.1-6.6-0.4-6.3-0.7
				c1.5-1.2,7.2-3.1,7.2-3.1c0.8-2.2-4.7-2-4.5-2.2c2.1-1.9,9.7-1.5,9-2.4c-0.7-1,0.1-6.9,0.2-5.9c0.3,2.6,2.7,6.3,2.9,5.8
				c0.1-0.2-0.9-4.5-0.4-3.8c0.9,1.3,5.9,1.1,5.7,0.9c-1.8-1.6-1.6-11.7-1.6-11.7s1.1,5,7,9c3.6,2.4,3.9,1.3,3.9,1.3
				c-4.2-3.6-2.5-7.5-2.3-7.2c1.6,4.1,3.8,4.4,3.3,4c-1.3-1-2.9-11.3-2.7-10.5c0.3,1.3,2,2.5,3.3,3.6c1.4,1.1,7,4,8.8,4.3
				c1.8,0.2,7.4,1.3,8.6,1.6s6.8,3.6,6.8,3.6s-5.2-6.1-4.3-5.6c2.1,1.1,4.9,2.6,7,3.8c2.2,1.3,3.1,2.6,4.5,4.1
				c1.4,1.6,1.6,5.3,0.6,8.9c0,0,8.3-2,8.3-1.8c-0.2,3.2-4.4,6.4-4.3,6.6c0.8,0.8,3.3-1.4,3.2-1.2c-0.5,3-3.6,3.9-1.9,3.6
				c1.7-0.3,7.3,2.1,6.2,2.5c-1.1,0.4-3.5,3.9-3.5,3.9s3.1-0.9,2.3-0.4c-0.7,0.4-3.1,6.4-2.2,6.1c0.5-0.2,3.3-1.1,4.8-1.8
				c-1.6,2.3-4.1,7.7-4.1,7.7s2.1,2.8,2.8,2.8c-1.1,0.3-4.7,0.2-4,0.4c0.7,0.3,2.6,6.1,2.1,4.9c-0.5-1.2-5.1-2.8-5.6-2.5
				c-0.5,0.3,1.6,4.9,1.2,4.3c-0.4-0.6-6.2-4.5-6.2-4.5s1.9,3.7,1.4,3.4c-0.5-0.3-5.3-6.1-5.3-6.1l-3.8,1.6l-8.9-8.1
				c0,0,6.9-0.5,6.1-0.8c-1.7-0.7-13.6-6-13.6-6s-6.2,4.3-10,5.6c-3.8,1.3-4.7-0.2-4.6-0.3c0.4-0.2,2.7-0.8,3.9-4.8
				c-2.7,0.9-12.4,5.6-12.6,5.5l2.9-3.6c-2-0.4-6,3.8-6,3.8c-1.5-2.2,0.9-5.9-0.3-4.5c-0.5,0.5-1.1,2.1-1.7,3.9
				c-1,2.9-0.3,7.8-0.3,7.8l-1.8-5.8l0.1-0.5c-0.2,0.1-0.4,0.3-0.5,0.3c-3.7,1.8-4.9,0.9-4.5,0.7c2.6-1.5,3.8-7.5,3.8-7.5l-4,3.3
				c-0.4-2.2,0.6-1.7-1.2-1.7c-1.8,0-3.9-2-2.9-1.8c1,0.2,5.1-1.8,2.5-2.2c-2.5-0.4-4.3-2.7-4.3-2.7S1234.5,67.5,1237.6,68.1z"/>
		</g>
		<g>
			<path class="st6" d="M1295.9,125.1c-0.6-1.1,1-2.4-2.4-5.4c-3.4-3-9.5,2.9-9.5,2.9s-18,17.6-18.4,18.9c-0.4,1.2-0.8,3.8,0.8,4
				c1.6,0.2,6.9-0.9,8-1.8s14.6-8.1,14.6-8.1"/>
			<path class="st4" d="M1277.5,126.8l9.1,13.9l8.5-11.9c1.4-1.9,1.9-4.4,1.3-6.6c-0.2-0.6-0.4-1.1-0.7-1.7
				c-0.5-0.9-1.7-2.3-2.6-2.6c-3.6-1.1-7.4,1.2-10.1,3.8L1277.5,126.8z"/>
		</g>
		<g>
			<path class="st6" d="M1291.7,147.5c-1.2-0.4-0.9-2.5-5.5-2.4c-4.6,0.1-5,8.5-5,8.5s-2.5,27.4-1.3,28.5c2.9,2.6,10.4,1.2,10.5-0.1
				s3.3-22.2,3.3-22.2"/>
			<path class="st4" d="M1280,166.1l14,1c0.8,0.1,1.4-0.5,1.5-1.2l1.9-18c-0.3-2.3-5.2-1.8-7.2-3c-0.5-0.3-1-0.6-1.6-0.8
				c-1-0.3-2.8-0.6-3.7-0.2c-3.4,1.6-4.6,5.9-4.9,9.6l-1.2,11C1278.6,165.3,1279.2,166,1280,166.1z"/>
		</g>
	</g>
</g>
<g>
	<g>
		<polygon class="st0" points="1591.5,127.6 1591.5,211.8 1519.5,170.3 		"/>
		<polygon class="st1" points="1591.5,127.6 1590.9,212.1 1662.1,170.8 		"/>
	</g>
	<g>
		<g>
			<path class="st3" d="M1599.1,164.5c-0.9-0.7-0.1-2.6-4-3.8c-3.9-1.2-6.5,6.8-6.5,6.8s-9.2,25.6-8.4,27c1.8,3.3,8.5,4.1,9,2.8
				s8.5-20.4,8.5-20.4"/>
			<path class="st4" d="M1583.2,180.1l11.8,4.8c0.8,0.3,1.8,0,2-0.8l5.4-16.7c0-0.1,0.1-0.2,0.1-0.4c0.1-2.6-1.1-5.1-3.3-6.8
				c-0.6-0.4-1.2-0.8-1.9-1.2c-1.2-0.5-0.1-3.1-1.2-2.8c-4.6,1-7,7.6-9,11.7l-4.8,10.7C1582.2,179.3,1582.5,179.9,1583.2,180.1z"/>
		</g>
		<g>
			<path class="st7" d="M1590.1,142.2c0.4,0.7,0.1,1.6-0.6,1.9c-2.3,0.9-5,0.2-5.3-0.2c-0.4-0.5-14.2-11.3-15.2-12.5
				c-1-1.2-6.8-9.7-6.1-10.7c0.8-1,2.8-3.3,4.3-2.3c1.4,0.9,17.3,15.7,18.9,17.2c0.1,0.1,0.2,0.2,0.2,0.3L1590.1,142.2z"/>
			<path class="st4" d="M1586.8,144.8c-1.7,0.3-4.5-0.6-6.9-2.4s-4.7-3.6-5.9-4.5c-1.2-0.9,4.7-6.7,4.6-8.4
				c-0.1-1.7,6.4,2.1,6.4,2.1l6.1,8c0,0,0.2,1.4-0.3,3.2C1590.2,145.1,1586.9,144.9,1586.8,144.8z"/>
		</g>
		<path class="st4" d="M1582.6,135c4.6,0,24.9-2.3,27.6-5.2c2.7-2.9,9.2,21.1,7.1,32.5c-2.5,13.2-8.2,11.5-8.2,11.5
			c-4.2,1-7.8,1.6-12.4-0.6s-8.1-5.7-8.8-17.7C1587.1,143.5,1582.6,135,1582.6,135z"/>
		<polyline class="st5" points="1589.2,133.4 1596.2,150.1 1602.3,132.6 		"/>
		<polygon class="st8" points="1584.1,132.8 1588.7,132.6 1595.7,148.9 1595.1,152 		"/>
		<path class="st9" d="M1605.7,132.7c0,0-7,16.5-9.1,21.3c-0.5,1.2-8.3,5-8.3,5l-0.4-2.1c0,0,4.1-3.3,4.9-4.4c3-3.9,8.8-19,8.8-19
			L1605.7,132.7z"/>
		<g>
			<path class="st6" d="M1610.5,163.7c-1.2-0.3-1.2-2.3-5.7-1.6c-4.5,0.7-3.9,9.1-3.9,9.1s0.4,26.1,1.8,27
				c3.2,2.2,10.5-0.2,10.4-1.5c0-1.4,1-21,1-21"/>
			<path class="st4" d="M1601.4,183.8l14-0.9c0.8,0,1.3-0.7,1.3-1.4l-0.5-18.1c-0.6-2.3-5.4-1-7.6-2c-0.5-0.2-1.1-0.4-1.7-0.5
				c-1-0.2-2.8-0.2-3.7,0.3c-3.2,2-3.8,6.4-3.6,10.2l0.3,11C1599.9,183.2,1600.6,183.8,1601.4,183.8z"/>
		</g>
		<path class="st10" d="M1615.3,71.1c0,0-17.5-8.2-31.3-2.2c-1.7,0.7-3.3,1.6-4.7,2.6c-8.6,5.9-13,16.2-11.9,26.6
			c0.7,6.9,1.3,15.8,1.3,17c0.1,2.1-0.4,5.6-0.4,8.2s14.9,13.4,25.7,11.5c10.8-1.9,17.1-4.9,23-12c5-6.2,9-18.2,10.2-27.1
			c1-7.5-1.1-14.9-6.3-20.4C1619.3,73.6,1617.4,72.1,1615.3,71.1z"/>
		<g>
			<ellipse class="st4" cx="1577.3" cy="109.9" rx="3" ry="6.6"/>
			<ellipse class="st4" cx="1597.9" cy="111" rx="3" ry="6.6"/>
			<path class="st11" d="M1585.5,122.9c1.5-3.3,3.7-0.7,3.7,1.2c0,3.6-2.8,4.1-3.7,1.8C1585.2,125.3,1585.2,123.6,1585.5,122.9z"/>
		</g>
		<ellipse class="st12" cx="1602.2" cy="120.5" rx="3.9" ry="2.4"/>
		<ellipse class="st12" cx="1573.1" cy="118.7" rx="3.4" ry="2.1"/>
		<path class="st13" d="M1623.9,95.2c0.6,2,3.7,5,3.2,6.1c-0.5,1.1-3.9,9.2-5.6,15.3c-1,3.6-7,8.8-7,8.8l-2-14.6l-4.7,1.2l0.2-3.6
			l1.5-0.9l-0.9-0.2c0,0,1.7-1.8,1.7-2.8c0-1.1-2.7-5.4-3.5-5.8c-0.9-0.5,3.6-0.4,3.6-0.4l-3.5-2.8l6.2,0l-6-4.1l3.3,0.5l15.8,3.8"
			/>
		
			<ellipse transform="matrix(0.3513 -0.9363 0.9363 0.3513 942.163 1586.1427)" class="st10" cx="1615.7" cy="113.2" rx="8.7" ry="5.2"/>
		<g>
			<path class="st14" d="M1632.9,100.4c0.1,0,0.2-0.1,0.2,0C1633.2,100.4,1633.1,100.4,1632.9,100.4z"/>
			<path class="st14" d="M1585.6,87.5c0,0,0,0.1-0.1,0.1C1585.6,87.5,1585.7,87.5,1585.6,87.5z"/>
			<path class="st15" d="M1556.6,83.2c3.1,0.7,7.8-5.4,7.8-5.4l-4.1-1.6c0,0,4.2-0.9,3.7-1.3c-2.3-2.1-6.6-0.4-6.3-0.7
				c1.5-1.2,7.2-3.1,7.2-3.1c0.8-2.2-4.7-2-4.5-2.2c2.1-1.9,9.7-1.5,9-2.4c-0.7-1,0.1-6.9,0.2-5.9c0.3,2.6,2.7,6.3,2.9,5.8
				c0.1-0.2-0.9-4.5-0.4-3.8c0.9,1.3,5.9,1.1,5.7,0.9c-1.8-1.6-1.6-11.7-1.6-11.7s1.1,5,7,9c3.6,2.4,3.9,1.3,3.9,1.3
				c-4.2-3.6-2.5-7.5-2.3-7.2c1.6,4.1,3.8,4.4,3.3,4c-1.3-1-2.9-11.3-2.7-10.5c0.3,1.3,2,2.5,3.3,3.6c1.4,1.1,7,4,8.8,4.3
				c1.8,0.2,7.4,1.3,8.6,1.6s6.8,3.6,6.8,3.6s-5.2-6.1-4.3-5.6c2.1,1.1,4.9,2.6,7,3.8c2.2,1.3,3.1,2.6,4.5,4.1
				c1.4,1.6,1.6,5.3,0.6,8.9c0,0,8.3-2,8.3-1.8c-0.2,3.2-4.4,6.4-4.3,6.6c0.8,0.8,3.3-1.4,3.2-1.2c-0.5,3-3.6,3.9-1.9,3.6
				c1.7-0.3,7.3,2.1,6.2,2.5c-1.1,0.4-3.5,3.9-3.5,3.9s3.1-0.9,2.3-0.4c-0.7,0.4-3.1,6.4-2.2,6.1c0.5-0.2,3.3-1.1,4.8-1.8
				c-1.6,2.3-4.1,7.7-4.1,7.7s2.1,2.8,2.8,2.8c-1.1,0.3-4.7,0.2-4,0.4c0.7,0.3,2.6,6.1,2.1,4.9c-0.5-1.2-5.1-2.8-5.6-2.5
				c-0.5,0.3,1.6,4.9,1.2,4.3c-0.4-0.6-6.2-4.5-6.2-4.5s1.9,3.7,1.4,3.4c-0.5-0.3-5.3-6.1-5.3-6.1l-3.8,1.6l-8.9-8.1
				c0,0,6.9-0.5,6.1-0.8c-1.7-0.7-13.6-6-13.6-6s-6.2,4.3-10,5.6c-3.8,1.3-4.7-0.2-4.6-0.3c0.4-0.2,2.7-0.8,3.9-4.8
				c-2.7,0.9-12.4,5.6-12.6,5.5l2.9-3.6c-2-0.4-6,3.8-6,3.8c-1.5-2.2,0.9-5.9-0.3-4.5c-0.5,0.5-1.1,2.1-1.7,3.9
				c-1,2.9-0.3,7.8-0.3,7.8l-1.8-5.8l0.1-0.5c-0.2,0.1-0.4,0.3-0.5,0.3c-3.7,1.8-4.9,0.9-4.5,0.7c2.6-1.5,3.8-7.5,3.8-7.5l-4,3.3
				c-0.4-2.2,0.6-1.7-1.2-1.7c-1.8,0-3.9-2-2.9-1.8c1,0.2,5.1-1.8,2.5-2.2c-2.5-0.4-4.3-2.7-4.3-2.7S1553.5,82.5,1556.6,83.2z"/>
		</g>
		<g>
			<path class="st7" d="M1606.2,144.9c1.2,0.1,1.6,2.1,5.9,0.7c4.3-1.4,2.3-9.6,2.3-9.6s-6.1-24.4-7-25.4s-2.9-2.6-3.9-1.3
				c-1,1.3-2.8,6.4-2.5,7.8c0.3,1.4,2.3,16.6,2.3,16.6"/>
			<path class="st4" d="M1614.1,128.2l-14,0.7l3.3,13.5c1,2.2,2.8,3.9,5.1,4.4c0.6,0.1,1.2,0.2,1.8,0.2c1.1,0,2.8-0.3,3.6-0.9
				c2.8-2.5,2.7-7,1.8-10.7L1614.1,128.2z"/>
		</g>
	</g>
</g>
<g>
	<g>
		<polygon class="st0" points="1424.5,127.6 1424.5,211.8 1352.5,170.3 		"/>
		<polygon class="st1" points="1424.5,127.6 1424,212.1 1495.2,170.8 		"/>
	</g>
	<g>
		<g>
			<path class="st3" d="M1432.2,160.5c-0.9-0.7-0.1-2.6-4-3.8s-6.5,6.8-6.5,6.8s-9.2,25.6-8.4,27c1.8,3.3,8.5,4.1,9,2.8
				s8.5-20.4,8.5-20.4"/>
			<path class="st4" d="M1416.2,176.1l11.8,4.8c0.8,0.3,1.8,0,2-0.8l5.4-16.7c0-0.1,0.1-0.2,0.1-0.4c0.1-2.6-1.1-5.1-3.3-6.8
				c-0.6-0.4-1.2-0.8-1.9-1.2c-1.2-0.5-0.1-3.1-1.2-2.8c-4.6,1-7,7.6-9,11.7l-4.8,10.7C1415.2,175.3,1415.6,175.9,1416.2,176.1z"/>
		</g>
		<g>
			<path class="st7" d="M1426.1,130.9c0.7,0.4,0.8,1.4,0.3,2c-1.7,1.9-4.3,2.4-4.8,2.2c-0.5-0.2-17.8-3.6-19.2-4.1
				s-10.5-5.5-10.2-6.7c0.2-1.2,0.9-4.2,2.7-4c1.7,0.2,22.6,6.1,24.7,6.7c0.1,0,0.2,0.1,0.3,0.1L1426.1,130.9z"/>
			<path class="st4" d="M1424.5,134.8c-1.3,1.1-4.3,1.5-7.2,1c-2.9-0.5-5.9-1.1-7.3-1.4c-1.5-0.3,1.1-8.1,0.3-9.6
				c-0.9-1.5,6.6-1,6.6-1l9,4.3c0,0,0.8,1.1,1.2,3C1427.6,133.5,1424.5,134.8,1424.5,134.8z"/>
		</g>
		<path class="st4" d="M1415.6,131c4.6,0,24.9-2.3,27.6-5.2c2.7-2.9,9.2,21.1,7.1,32.5c-2.5,13.2-8.2,11.5-8.2,11.5
			c-4.2,1-7.8,1.6-12.4-0.6s-8.1-5.7-8.8-17.7C1420.1,139.5,1415.6,131,1415.6,131z"/>
		<polyline class="st5" points="1422.3,129.4 1429.3,146.1 1435.4,128.6 		"/>
		<polygon class="st8" points="1417.1,128.8 1421.8,128.6 1428.8,144.9 1428.2,148 		"/>
		<path class="st9" d="M1438.7,128.7c0,0-7,16.5-9.1,21.3c-0.5,1.2-8.3,5-8.3,5l-0.4-2.1c0,0,4.1-3.3,4.9-4.4c3-3.9,8.8-19,8.8-19
			L1438.7,128.7z"/>
		<g>
			<path class="st6" d="M1443.6,159.7c-1.2-0.3-1.2-2.3-5.7-1.6c-4.5,0.7-3.9,9.1-3.9,9.1s1.2,27.5,2.5,28.4
				c3.2,2.2,10.5-0.2,10.4-1.5c0-1.4,0.3-22.4,0.3-22.4"/>
			<path class="st4" d="M1434.5,179.8l14-0.9c0.8,0,1.3-0.7,1.3-1.4l-0.5-18.1c-0.6-2.3-5.4-1-7.6-2c-0.5-0.2-1.1-0.4-1.7-0.5
				c-1-0.2-2.8-0.2-3.7,0.3c-3.2,2-3.8,6.4-3.6,10.2l0.3,11C1433,179.2,1433.7,179.8,1434.5,179.8z"/>
		</g>
		<path class="st10" d="M1448.3,67.1c0,0-17.5-8.2-31.3-2.2c-1.7,0.7-3.3,1.6-4.7,2.6c-8.6,5.9-13,16.2-11.9,26.6
			c0.7,6.9,1.3,15.8,1.3,17c0.1,2.1-0.4,5.6-0.4,8.2s14.9,13.4,25.7,11.5s17.1-4.9,23-12c5-6.2,9-18.2,10.2-27.1
			c1-7.5-1.1-14.9-6.3-20.4C1452.4,69.6,1450.5,68.1,1448.3,67.1z"/>
		<g>
			<ellipse class="st4" cx="1410.3" cy="105.9" rx="3" ry="6.6"/>
			<ellipse class="st4" cx="1430.9" cy="107" rx="3" ry="6.6"/>
			<path class="st11" d="M1418.6,118.9c1.5-3.3,3.7-0.7,3.7,1.2c0,3.6-2.8,4.1-3.7,1.8C1418.3,121.3,1418.3,119.6,1418.6,118.9z"/>
		</g>
		<ellipse class="st12" cx="1435.2" cy="116.5" rx="3.9" ry="2.4"/>
		<ellipse class="st12" cx="1406.1" cy="114.7" rx="3.4" ry="2.1"/>
		<path class="st13" d="M1456.9,91.2c0.6,2,3.7,5,3.2,6.1c-0.5,1.1-3.9,9.2-5.6,15.3c-1,3.6-7,8.8-7,8.8l-2-14.6l-4.7,1.2l0.2-3.6
			l1.5-0.9l-0.9-0.2c0,0,1.7-1.8,1.7-2.8c0-1.1-2.7-5.4-3.5-5.8c-0.9-0.5,3.6-0.4,3.6-0.4l-3.5-2.8l6.2,0l-6-4.1l3.3,0.5l15.8,3.8"
			/>
		
			<ellipse transform="matrix(0.3513 -0.9363 0.9363 0.3513 837.6053 1427.2435)" class="st10" cx="1448.7" cy="109.2" rx="8.7" ry="5.2"/>
		<g>
			<path class="st14" d="M1465.9,96.4c0.1,0,0.2-0.1,0.2,0C1466.3,96.4,1466.2,96.4,1465.9,96.4z"/>
			<path class="st14" d="M1418.7,83.5c0,0,0,0.1-0.1,0.1C1418.7,83.5,1418.7,83.5,1418.7,83.5z"/>
			<path class="st15" d="M1389.7,79.2c3.1,0.7,7.8-5.4,7.8-5.4l-4.1-1.6c0,0,4.2-0.9,3.7-1.3c-2.3-2.1-6.6-0.4-6.3-0.7
				c1.5-1.2,7.2-3.1,7.2-3.1c0.8-2.2-4.7-2-4.5-2.2c2.1-1.9,9.7-1.5,9-2.4c-0.7-1,0.1-6.9,0.2-5.9c0.3,2.6,2.7,6.3,2.9,5.8
				c0.1-0.2-0.9-4.5-0.4-3.8c0.9,1.3,5.9,1.1,5.7,0.9c-1.8-1.6-1.6-11.7-1.6-11.7s1.1,5,7,9c3.6,2.4,3.9,1.3,3.9,1.3
				c-4.2-3.6-2.5-7.5-2.3-7.2c1.6,4.1,3.8,4.4,3.3,4c-1.3-1-2.9-11.3-2.7-10.5c0.3,1.3,2,2.5,3.3,3.6c1.4,1.1,7,4,8.8,4.3
				c1.8,0.2,7.4,1.3,8.6,1.6s6.8,3.6,6.8,3.6s-5.2-6.1-4.3-5.6c2.1,1.1,4.9,2.6,7,3.8c2.2,1.3,3.1,2.6,4.5,4.1
				c1.4,1.6,1.6,5.3,0.6,8.9c0,0,8.3-2,8.3-1.8c-0.2,3.2-4.4,6.4-4.3,6.6c0.8,0.8,3.3-1.4,3.2-1.2c-0.5,3-3.6,3.9-1.9,3.6
				c1.7-0.3,7.3,2.1,6.2,2.5s-3.5,3.9-3.5,3.9s3.1-0.9,2.3-0.4c-0.7,0.4-3.1,6.4-2.2,6.1c0.5-0.2,3.3-1.1,4.8-1.8
				c-1.6,2.3-4.1,7.7-4.1,7.7s2.1,2.8,2.8,2.8c-1.1,0.3-4.7,0.2-4,0.4c0.7,0.3,2.6,6.1,2.1,4.9c-0.5-1.2-5.1-2.8-5.6-2.5
				c-0.5,0.3,1.6,4.9,1.2,4.3c-0.4-0.6-6.2-4.5-6.2-4.5s1.9,3.7,1.4,3.4c-0.5-0.3-5.3-6.1-5.3-6.1l-3.8,1.6l-8.9-8.1
				c0,0,6.9-0.5,6.1-0.8c-1.7-0.7-13.6-6-13.6-6s-6.2,4.3-10,5.6c-3.8,1.3-4.7-0.2-4.6-0.3c0.4-0.2,2.7-0.8,3.9-4.8
				c-2.7,0.9-12.4,5.6-12.6,5.5l2.9-3.6c-2-0.4-6,3.8-6,3.8c-1.5-2.2,0.9-5.9-0.3-4.5c-0.5,0.5-1.1,2.1-1.7,3.9
				c-1,2.9-0.3,7.8-0.3,7.8l-1.8-5.8l0.1-0.5c-0.2,0.1-0.4,0.3-0.5,0.3c-3.7,1.8-4.9,0.9-4.5,0.7c2.6-1.5,3.8-7.5,3.8-7.5l-4,3.3
				c-0.4-2.2,0.6-1.7-1.2-1.7c-1.8,0-3.9-2-2.9-1.8c1,0.2,5.1-1.8,2.5-2.2c-2.5-0.4-4.3-2.7-4.3-2.7S1386.6,78.5,1389.7,79.2z"/>
		</g>
		<g>
			<path class="st7" d="M1444.5,142.3c0.9-0.8,2.6,0.4,4.8-3.6c2.2-4-5-8.6-5-8.6s-21.2-13.6-22.5-13.7c-1.3-0.1-3.9,0.1-3.7,1.7
				c0.2,1.6,2.4,6.6,3.5,7.4c1.1,0.8,13,10.5,13,10.5"/>
			<path class="st4" d="M1438.8,124.7l-9.7,10.1l11.7,7.5c2.2,0.9,4.7,0.9,6.7-0.2c0.5-0.3,1-0.6,1.5-1.1c0.8-0.7,1.9-2.1,2-3.1
				c0.3-3.8-2.9-6.9-6-9L1438.8,124.7z"/>
		</g>
	</g>
</g>
<g>
	<g>
		<polygon class="st0" points="1758.4,127.6 1758.4,211.8 1686.4,170.3 		"/>
		<polygon class="st1" points="1758.4,127.6 1757.9,212.1 1829.1,170.8 		"/>
	</g>
	<g>
		<g>
			<path class="st4" d="M1750.1,186.1l11.8,4.8c0.8,0.3,1.8,0,2-0.8l5.4-16.7c0-0.1,0.1-0.2,0.1-0.4c0.1-2.6-1.1-5.1-3.3-6.8
				c-0.6-0.4-1.2-0.8-1.9-1.2c-1.2-0.5-0.1-3.1-1.2-2.8c-4.6,1-7,7.6-9,11.7l-4.8,10.7C1749.1,185.3,1749.5,185.9,1750.1,186.1z"/>
		</g>
		<g>
			<path class="st7" d="M1757,148.2c0.4,0.7,0.1,1.6-0.6,1.9c-2.3,0.9-5,0.2-5.3-0.2c-0.4-0.5-14.2-11.3-15.2-12.5
				s-6.8-9.7-6.1-10.7c0.8-1,2.8-3.3,4.3-2.3c1.4,0.9,17.3,15.7,18.9,17.2c0.1,0.1,0.2,0.2,0.2,0.3L1757,148.2z"/>
			<path class="st4" d="M1753.8,150.8c-1.7,0.3-4.5-0.6-6.9-2.4c-2.4-1.8-4.7-3.6-5.9-4.5c-1.2-0.9,4.7-6.7,4.6-8.4
				c-0.1-1.7,6.4,2.1,6.4,2.1l6.1,8c0,0,0.2,1.4-0.3,3.2C1757.1,151.1,1753.8,150.9,1753.8,150.8z"/>
		</g>
		<path class="st4" d="M1749.5,141c4.6,0,24.9-2.3,27.6-5.2c2.7-2.9,9.2,21.1,7.1,32.5c-2.5,13.2-8.2,11.5-8.2,11.5
			c-4.2,1-7.8,1.6-12.4-0.6s-8.1-5.7-8.8-17.7C1754,149.5,1749.5,141,1749.5,141z"/>
		<polyline class="st5" points="1756.1,139.4 1763.2,156.1 1769.3,138.6 		"/>
		<polygon class="st8" points="1751,138.8 1755.7,138.6 1762.7,154.9 1762,158 		"/>
		<path class="st9" d="M1772.6,138.7c0,0-7,16.5-9.1,21.3c-0.5,1.2-8.3,5-8.3,5l-0.4-2.1c0,0,4.1-3.3,4.9-4.4c3-3.9,8.8-19,8.8-19
			L1772.6,138.7z"/>
		<g>
			<path class="st4" d="M1768.3,189.8l14-0.9c0.8,0,1.3-0.7,1.3-1.4l-0.5-18.1c-0.6-2.3-5.4-1-7.6-2c-0.5-0.2-1.1-0.4-1.7-0.5
				c-1-0.2-2.8-0.2-3.7,0.3c-3.2,2-3.8,6.4-3.6,10.2l0.3,11C1766.9,189.2,1767.6,189.8,1768.3,189.8z"/>
		</g>
		<path class="st10" d="M1782.2,77.1c0,0-17.5-8.2-31.3-2.2c-1.7,0.7-3.3,1.6-4.7,2.6c-8.6,5.9-13,16.2-11.9,26.6
			c0.7,6.9,1.3,15.8,1.3,17c0.1,2.1-0.4,5.6-0.4,8.2c0,2.6,14.9,13.4,25.7,11.5c10.8-1.9,17.1-4.9,23-12c5-6.2,9-18.2,10.2-27.1
			c1-7.5-1.1-14.9-6.3-20.4C1786.2,79.6,1784.4,78.1,1782.2,77.1z"/>
		<g>
			<ellipse class="st4" cx="1744.2" cy="115.9" rx="3" ry="6.6"/>
			<ellipse class="st4" cx="1764.8" cy="117" rx="3" ry="6.6"/>
			<path class="st11" d="M1752.5,128.9c1.5-3.3,3.7-0.7,3.7,1.2c0,3.6-2.8,4.1-3.7,1.8C1752.2,131.3,1752.2,129.6,1752.5,128.9z"/>
		</g>
		<ellipse class="st12" cx="1769.1" cy="126.5" rx="3.9" ry="2.4"/>
		<ellipse class="st12" cx="1740" cy="124.7" rx="3.4" ry="2.1"/>
		<path class="st13" d="M1790.8,101.2c0.6,2,3.7,5,3.2,6.1c-0.5,1.1-3.9,9.2-5.6,15.3c-1,3.6-7,8.8-7,8.8l-2-14.6l-4.7,1.2l0.2-3.6
			l1.5-0.9l-0.9-0.2c0,0,1.7-1.8,1.7-2.8c0-1.1-2.7-5.4-3.5-5.8c-0.9-0.5,3.6-0.4,3.6-0.4l-3.5-2.8l6.2,0l-6-4.1l3.3,0.5l15.8,3.8"
			/>
		
			<ellipse transform="matrix(0.3513 -0.9363 0.9363 0.3513 1044.8483 1746.3395)" class="st10" cx="1782.6" cy="119.2" rx="8.7" ry="5.2"/>
		<g>
			<path class="st14" d="M1799.8,106.4c0.1,0,0.2-0.1,0.2,0C1800.2,106.4,1800.1,106.4,1799.8,106.4z"/>
			<path class="st14" d="M1752.6,93.5c0,0,0,0.1-0.1,0.1C1752.6,93.5,1752.6,93.5,1752.6,93.5z"/>
			<path class="st15" d="M1723.6,89.2c3.1,0.7,7.8-5.4,7.8-5.4l-4.1-1.6c0,0,4.2-0.9,3.7-1.3c-2.3-2.1-6.6-0.4-6.3-0.7
				c1.5-1.2,7.2-3.1,7.2-3.1c0.8-2.2-4.7-2-4.5-2.2c2.1-1.9,9.7-1.5,9-2.4c-0.7-1,0.1-6.9,0.2-5.9c0.3,2.6,2.7,6.3,2.9,5.8
				c0.1-0.2-0.9-4.5-0.4-3.8c0.9,1.3,5.9,1.1,5.7,0.9c-1.8-1.6-1.6-11.7-1.6-11.7s1.1,5,7,9c3.6,2.4,3.9,1.3,3.9,1.3
				c-4.2-3.6-2.5-7.5-2.3-7.2c1.6,4.1,3.8,4.4,3.3,4c-1.3-1-2.9-11.3-2.7-10.5c0.3,1.3,2,2.5,3.3,3.6c1.4,1.1,7,4,8.8,4.3
				c1.8,0.2,7.4,1.3,8.6,1.6s6.8,3.6,6.8,3.6s-5.2-6.1-4.3-5.6c2.1,1.1,4.9,2.6,7,3.8c2.2,1.3,3.1,2.6,4.5,4.1
				c1.4,1.6,1.6,5.3,0.6,8.9c0,0,8.3-2,8.3-1.8c-0.2,3.2-4.4,6.4-4.3,6.6c0.8,0.8,3.3-1.4,3.2-1.2c-0.5,3-3.6,3.9-1.9,3.6
				c1.7-0.3,7.3,2.1,6.2,2.5c-1.1,0.4-3.5,3.9-3.5,3.9s3.1-0.9,2.3-0.4c-0.7,0.4-3.1,6.4-2.2,6.1c0.5-0.2,3.3-1.1,4.8-1.8
				c-1.6,2.3-4.1,7.7-4.1,7.7s2.1,2.8,2.8,2.8c-1.1,0.3-4.7,0.2-4,0.4c0.7,0.3,2.6,6.1,2.1,4.9c-0.5-1.2-5.1-2.8-5.6-2.5
				c-0.5,0.3,1.6,4.9,1.2,4.3c-0.4-0.6-6.2-4.5-6.2-4.5s1.9,3.7,1.4,3.4c-0.5-0.3-5.3-6.1-5.3-6.1l-3.8,1.6l-8.9-8.1
				c0,0,6.9-0.5,6.1-0.8c-1.7-0.7-13.6-6-13.6-6s-6.2,4.3-10,5.6c-3.8,1.3-4.7-0.2-4.6-0.3c0.4-0.2,2.7-0.8,3.9-4.8
				c-2.7,0.9-12.4,5.6-12.6,5.5l2.9-3.6c-2-0.4-6,3.8-6,3.8c-1.5-2.2,0.9-5.9-0.3-4.5c-0.5,0.5-1.1,2.1-1.7,3.9
				c-1,2.9-0.3,7.8-0.3,7.8l-1.8-5.8l0.1-0.5c-0.2,0.1-0.4,0.3-0.5,0.3c-3.7,1.8-4.9,0.9-4.5,0.7c2.6-1.5,3.8-7.5,3.8-7.5l-4,3.3
				c-0.4-2.2,0.6-1.7-1.2-1.7c-1.8,0-3.9-2-2.9-1.8c1,0.2,5.1-1.8,2.5-2.2c-2.5-0.4-4.3-2.7-4.3-2.7S1720.4,88.5,1723.6,89.2z"/>
		</g>
		<g>
			<path class="st7" d="M1773.1,150.9c1.2,0.1,1.6,2.1,5.9,0.7s2.3-9.6,2.3-9.6s-6.1-24.4-7-25.4c-0.9-1-2.9-2.6-3.9-1.3
				s-2.8,6.4-2.5,7.8c0.3,1.4,2.3,16.6,2.3,16.6"/>
			<path class="st4" d="M1781,134.2l-14,0.7l3.3,13.5c1,2.2,2.8,3.9,5.1,4.4c0.6,0.1,1.2,0.2,1.8,0.2c1.1,0,2.8-0.3,3.6-0.9
				c2.8-2.5,2.7-7,1.8-10.7L1781,134.2z"/>
		</g>
	</g>
</g>
<g>
	<g>
		<polygon class="st0" points="1925.4,127.6 1925.4,211.8 1853.4,170.3 		"/>
		<polygon class="st1" points="1925.4,127.6 1924.8,212.1 1996,170.8 		"/>
	</g>
	<path class="st4" d="M1913.3,157.7c4.6,0,24.9-2.3,27.6-5.2c2.7-2.9,9.2,21.1,7.1,32.5c-2.5,13.2-8.2,11.5-8.2,11.5
		c-4.2,1-7.8,1.6-12.4-0.6s-8.1-5.7-8.8-17.7C1917.8,166.1,1913.3,157.7,1913.3,157.7z"/>
	<g>
		<g>
			<path class="st7" d="M1921.3,166.9c0.4,0.7,0.1,1.6-0.6,1.9c-2.3,0.9-5,0.2-5.3-0.2c-0.4-0.5-14.2-11.3-15.2-12.5
				s-6.8-9.7-6.1-10.7c0.8-1,2.8-3.3,4.3-2.3c1.4,0.9,17.3,15.7,18.9,17.2c0.1,0.1,0.2,0.2,0.2,0.3L1921.3,166.9z"/>
			<path class="st4" d="M1918.1,169.5c-1.7,0.3-4.5-0.6-6.9-2.4c-2.4-1.8-4.7-3.6-5.9-4.5s4.7-6.7,4.6-8.4c-0.1-1.7,6.4,2.1,6.4,2.1
				l6.1,8c0,0,0.2,1.4-0.3,3.2C1921.4,169.8,1918.1,169.6,1918.1,169.5z"/>
		</g>
		<polyline class="st5" points="1919.6,156.9 1927.5,174.9 1934.2,155.5 		"/>
		<polygon class="st8" points="1915.5,158.2 1921,159.5 1927,173.6 1926.3,176.7 		"/>
		<path class="st9" d="M1936.9,157.4c0,0-7,16.5-9.1,21.3c-0.5,1.2-8.3,5-8.3,5l-0.4-2.1c0,0,4.1-3.3,4.9-4.4c3-3.9,8.8-19,8.8-19
			L1936.9,157.4z"/>
		<path class="st10" d="M1946.5,95.8c0,0-17.5-8.2-31.3-2.2c-1.7,0.7-3.3,1.6-4.7,2.6c-8.6,5.9-13,16.2-11.9,26.6
			c0.7,6.9,1.3,15.8,1.3,17c0.1,2.1-0.4,5.6-0.4,8.2s14.9,13.4,25.7,11.5c10.8-1.9,17.1-4.9,23-12c5-6.2,9-18.2,10.2-27.1
			c1-7.5-1.1-14.9-6.3-20.4C1950.5,98.3,1948.6,96.8,1946.5,95.8z"/>
		<g>
			<ellipse class="st4" cx="1908.5" cy="134.6" rx="3" ry="6.6"/>
			<ellipse class="st4" cx="1929.1" cy="135.7" rx="3" ry="6.6"/>
			<path class="st11" d="M1916.8,147.6c1.5-3.3,3.7-0.7,3.7,1.2c0,3.6-2.8,4.1-3.7,1.8C1916.5,150,1916.5,148.3,1916.8,147.6z"/>
		</g>
		<ellipse class="st12" cx="1933.4" cy="145.2" rx="3.9" ry="2.4"/>
		<ellipse class="st12" cx="1904.3" cy="143.4" rx="3.4" ry="2.1"/>
		<path class="st13" d="M1955.1,119.9c0.6,2,3.7,5,3.2,6.1c-0.5,1.1-3.9,9.2-5.6,15.3c-1,3.6-7,8.8-7,8.8l-2-14.6l-4.7,1.2l0.2-3.6
			l1.5-0.9l-0.9-0.2c0,0,1.7-1.8,1.7-2.8s-2.7-5.4-3.5-5.8c-0.9-0.5,3.6-0.4,3.6-0.4l-3.5-2.8l6.2,0l-6-4.1l3.3,0.5l15.8,3.8"/>
		
			<ellipse transform="matrix(0.3513 -0.9363 0.9363 0.3513 1133.9193 1912.2968)" class="st10" cx="1946.9" cy="137.9" rx="8.7" ry="5.2"/>
		<g>
			<path class="st14" d="M1964.1,125.1c0.1,0,0.2-0.1,0.2,0C1964.5,125.1,1964.3,125.1,1964.1,125.1z"/>
			<path class="st14" d="M1916.9,112.2c0,0,0,0.1-0.1,0.1C1916.9,112.2,1916.9,112.2,1916.9,112.2z"/>
			<path class="st15" d="M1887.9,107.9c3.1,0.7,7.8-5.4,7.8-5.4l-4.1-1.6c0,0,4.2-0.9,3.7-1.3c-2.3-2.1-6.6-0.4-6.3-0.7
				c1.5-1.2,7.2-3.1,7.2-3.1c0.8-2.2-4.7-2-4.5-2.2c2.1-1.9,9.7-1.5,9-2.4c-0.7-1,0.1-6.9,0.2-5.9c0.3,2.6,2.7,6.3,2.9,5.8
				c0.1-0.2-0.9-4.5-0.4-3.8c0.9,1.3,5.9,1.1,5.7,0.9c-1.8-1.6-1.6-11.7-1.6-11.7s1.1,5,7,9c3.6,2.4,3.9,1.3,3.9,1.3
				c-4.2-3.6-2.5-7.5-2.3-7.2c1.6,4.1,3.8,4.4,3.3,4c-1.3-1-2.9-11.3-2.7-10.5c0.3,1.3,2,2.5,3.3,3.6s7,4,8.8,4.3
				c1.8,0.2,7.4,1.3,8.6,1.6c1.2,0.2,6.8,3.6,6.8,3.6s-5.2-6.1-4.3-5.6c2.1,1.1,4.9,2.6,7,3.8c2.2,1.3,3.1,2.6,4.5,4.1
				c1.4,1.6,1.6,5.3,0.6,8.9c0,0,8.3-2,8.3-1.8c-0.2,3.2-4.4,6.4-4.3,6.6c0.8,0.8,3.3-1.4,3.2-1.2c-0.5,3-3.6,3.9-1.9,3.6
				c1.7-0.3,7.3,2.1,6.2,2.5c-1.1,0.4-3.5,3.9-3.5,3.9s3.1-0.9,2.3-0.4c-0.7,0.4-3.1,6.4-2.2,6.1c0.5-0.2,3.3-1.1,4.8-1.8
				c-1.6,2.3-4.1,7.7-4.1,7.7s2.1,2.8,2.8,2.8c-1.1,0.3-4.7,0.2-4,0.4c0.7,0.3,2.6,6.1,2.1,4.9c-0.5-1.2-5.1-2.8-5.6-2.5
				c-0.5,0.3,1.6,4.9,1.2,4.3c-0.4-0.6-6.2-4.5-6.2-4.5s1.9,3.7,1.4,3.4c-0.5-0.3-5.3-6.1-5.3-6.1l-3.8,1.6l-8.9-8.1
				c0,0,6.9-0.5,6.1-0.8c-1.7-0.7-13.6-6-13.6-6s-6.2,4.3-10,5.6c-3.8,1.3-4.7-0.2-4.6-0.3c0.4-0.2,2.7-0.8,3.9-4.8
				c-2.7,0.9-12.4,5.6-12.6,5.5l2.9-3.6c-2-0.4-6,3.8-6,3.8c-1.5-2.2,0.9-5.9-0.3-4.5c-0.5,0.5-1.1,2.1-1.7,3.9
				c-1,2.9-0.3,7.8-0.3,7.8l-1.8-5.8l0.1-0.5c-0.2,0.1-0.4,0.3-0.5,0.3c-3.7,1.8-4.9,0.9-4.5,0.7c2.6-1.5,3.8-7.5,3.8-7.5l-4,3.3
				c-0.4-2.2,0.6-1.7-1.2-1.7c-1.8,0-3.9-2-2.9-1.8c1,0.2,5.1-1.8,2.5-2.2c-2.5-0.4-4.3-2.7-4.3-2.7S1884.7,107.2,1887.9,107.9z"/>
		</g>
		<g>
			<path class="st7" d="M1937.4,169.6c1.2,0.1,1.6,2.1,5.9,0.7s2.3-9.6,2.3-9.6s-6.1-24.4-7-25.4s-2.9-2.6-3.9-1.3
				c-1,1.3-2.8,6.4-2.5,7.8c0.3,1.4,1,16.5,1,16.5"/>
			<path class="st4" d="M1945.3,152.9l-14,0.7l3.3,13.5c1,2.2,2.8,3.9,5.1,4.4c0.6,0.1,1.2,0.2,1.8,0.2c1.1,0,2.8-0.3,3.6-0.9
				c2.8-2.5,2.7-7,1.8-10.7L1945.3,152.9z"/>
		</g>
	</g>
</g>
<g>
	<g>
		<polygon class="st0" points="2092.3,127.6 2092.3,211.8 2020.3,170.3 		"/>
		<polygon class="st1" points="2092.3,127.6 2091.7,212.1 2162.9,170.8 		"/>
	</g>
	<path class="st4" d="M2080.2,157.7c4.6,0,24.9-2.3,27.6-5.2c2.7-2.9,9.2,21.1,7.1,32.5c-2.5,13.2-8.2,11.5-8.2,11.5
		c-4.2,1-7.8,1.6-12.4-0.6s-8.1-5.7-8.8-17.7C2084.7,166.1,2080.2,157.7,2080.2,157.7z"/>
	<g>
		<g>
			<path class="st7" d="M2088.2,186.9c0.4,0.7,0.1,1.6-0.6,1.9c-2.3,0.9-5,0.2-5.3-0.2c-0.4-0.5-14.2-11.3-15.2-12.5
				s-6.8-9.7-6.1-10.7c0.8-1,2.8-3.3,4.3-2.3c1.4,0.9,17.3,15.7,18.9,17.2c0.1,0.1,0.2,0.2,0.2,0.3L2088.2,186.9z"/>
			<path class="st4" d="M2085,189.5c-1.7,0.3-4.5-0.6-6.9-2.4s-4.7-3.6-5.9-4.5c-1.2-0.9,4.7-6.7,4.6-8.4c-0.1-1.7,6.4,2.1,6.4,2.1
				l6.1,8c0,0,0.2,1.4-0.3,3.2C2088.4,189.8,2085.1,189.6,2085,189.5z"/>
		</g>
		<polyline class="st5" points="2086.6,176.9 2094.4,194.9 2101.1,175.5 		"/>
		<polygon class="st8" points="2082.4,178.2 2088,179.5 2093.9,193.6 2093.3,196.7 		"/>
		<path class="st9" d="M2103.8,177.4c0,0-7,16.5-9.1,21.3c-0.5,1.2-8.3,5-8.3,5l-0.4-2.1c0,0,4.1-3.3,4.9-4.4c3-3.9,8.8-19,8.8-19
			L2103.8,177.4z"/>
		<path class="st10" d="M2113.5,115.8c0,0-17.5-8.2-31.3-2.2c-1.7,0.7-3.3,1.6-4.7,2.6c-8.6,5.9-13,16.2-11.9,26.6
			c0.7,6.9,1.3,15.8,1.3,17c0.1,2.1-0.4,5.6-0.4,8.2s14.9,13.4,25.7,11.5c10.8-1.9,17.1-4.9,23-12c5-6.2,9-18.2,10.2-27.1
			c1-7.5-1.1-14.9-6.3-20.4C2117.5,118.3,2115.6,116.8,2113.5,115.8z"/>
		<g>
			<ellipse class="st4" cx="2075.5" cy="154.6" rx="3" ry="6.6"/>
			<ellipse class="st4" cx="2096" cy="155.7" rx="3" ry="6.6"/>
			<path class="st11" d="M2083.7,167.6c1.5-3.3,3.7-0.7,3.7,1.2c0,3.6-2.8,4.1-3.7,1.8C2083.4,170,2083.4,168.3,2083.7,167.6z"/>
		</g>
		<ellipse class="st12" cx="2100.3" cy="165.2" rx="3.9" ry="2.4"/>
		<ellipse class="st12" cx="2071.2" cy="163.4" rx="3.4" ry="2.1"/>
		<path class="st13" d="M2122.1,139.9c0.6,2,3.7,5,3.2,6.1c-0.5,1.1-3.9,9.2-5.6,15.3c-1,3.6-7,8.8-7,8.8l-2-14.6l-4.7,1.2l0.2-3.6
			l1.5-0.9l-0.9-0.2c0,0,1.7-1.8,1.7-2.8s-2.7-5.4-3.5-5.8c-0.9-0.5,3.6-0.4,3.6-0.4l-3.5-2.8l6.2,0l-6-4.1l3.3,0.5l15.8,3.8"/>
		
			<ellipse transform="matrix(0.3513 -0.9363 0.9363 0.3513 1223.4966 2081.5759)" class="st10" cx="2113.8" cy="157.9" rx="8.7" ry="5.2"/>
		<g>
			<path class="st14" d="M2131,145.1c0.1,0,0.2-0.1,0.2,0C2131.4,145.1,2131.3,145.1,2131,145.1z"/>
			<path class="st14" d="M2083.8,132.2c0,0,0,0.1-0.1,0.1C2083.8,132.2,2083.8,132.2,2083.8,132.2z"/>
			<path class="st15" d="M2054.8,127.9c3.1,0.7,7.8-5.4,7.8-5.4l-4.1-1.6c0,0,4.2-0.9,3.7-1.3c-2.3-2.1-6.6-0.4-6.3-0.7
				c1.5-1.2,7.2-3.1,7.2-3.1c0.8-2.2-4.7-2-4.5-2.2c2.1-1.9,9.7-1.5,9-2.4c-0.7-1,0.1-6.9,0.2-5.9c0.3,2.6,2.7,6.3,2.9,5.8
				c0.1-0.2-0.9-4.5-0.4-3.8c0.9,1.3,5.9,1.1,5.7,0.9c-1.8-1.6-1.6-11.7-1.6-11.7s1.1,5,7,9c3.6,2.4,3.9,1.3,3.9,1.3
				c-4.2-3.6-2.5-7.5-2.3-7.2c1.6,4.1,3.8,4.4,3.3,4c-1.3-1-2.9-11.3-2.7-10.5c0.3,1.3,2,2.5,3.3,3.6c1.4,1.1,7,4,8.8,4.3
				c1.8,0.2,7.4,1.3,8.6,1.6c1.2,0.2,6.8,3.6,6.8,3.6s-5.2-6.1-4.3-5.6c2.1,1.1,4.9,2.6,7,3.8c2.2,1.3,3.1,2.6,4.5,4.1
				c1.4,1.6,1.6,5.3,0.6,8.9c0,0,8.4-2,8.3-1.8c-0.2,3.2-4.4,6.4-4.3,6.6c0.8,0.8,3.3-1.4,3.2-1.2c-0.5,3-3.6,3.9-1.9,3.6
				c1.7-0.3,7.3,2.1,6.2,2.5s-3.5,3.9-3.5,3.9s3.1-0.9,2.3-0.4c-0.7,0.4-3.1,6.4-2.2,6.1c0.5-0.2,3.3-1.1,4.8-1.8
				c-1.6,2.3-4.1,7.7-4.1,7.7s2.1,2.8,2.8,2.8c-1.1,0.3-4.7,0.2-4,0.4c0.7,0.3,2.6,6.1,2.1,4.9c-0.5-1.2-5.1-2.8-5.6-2.5
				c-0.5,0.3,1.6,4.9,1.2,4.3c-0.4-0.6-6.2-4.5-6.2-4.5s1.9,3.7,1.4,3.4c-0.5-0.3-5.3-6.1-5.3-6.1l-3.8,1.6l-8.9-8.1
				c0,0,6.9-0.5,6.1-0.8c-1.7-0.7-13.6-6-13.6-6s-6.2,4.3-10,5.6c-3.8,1.3-4.7-0.2-4.6-0.3c0.4-0.2,2.7-0.8,3.9-4.8
				c-2.7,0.9-12.4,5.6-12.6,5.5l2.9-3.6c-2-0.4-6,3.8-6,3.8c-1.5-2.2,0.9-5.9-0.3-4.5c-0.5,0.5-1.1,2.1-1.7,3.9
				c-1,2.9-0.3,7.8-0.3,7.8l-1.8-5.8l0.1-0.5c-0.2,0.1-0.4,0.3-0.5,0.3c-3.7,1.8-4.9,0.9-4.5,0.7c2.6-1.5,3.8-7.5,3.8-7.5l-4,3.3
				c-0.4-2.2,0.6-1.7-1.2-1.7c-1.8,0-3.9-2-2.9-1.8c1,0.2,5.1-1.8,2.5-2.2c-2.5-0.4-4.3-2.7-4.3-2.7S2051.7,127.2,2054.8,127.9z"/>
		</g>
		<g>
			<path class="st7" d="M2104.4,189.6c1.2,0.1,1.6,2.1,5.9,0.7c4.3-1.4,2.3-9.6,2.3-9.6s-6.1-24.4-7-25.4c-0.9-1-2.9-2.6-3.9-1.3
				c-1,1.3-2.8,6.4-2.5,7.8c0.3,1.4,1,16.5,1,16.5"/>
			<path class="st4" d="M2112.3,172.9l-14,0.7l3.3,13.5c1,2.2,2.8,3.9,5.1,4.4c0.6,0.1,1.2,0.2,1.8,0.2c1.1,0,2.8-0.3,3.6-0.9
				c2.8-2.5,2.7-7,1.8-10.7L2112.3,172.9z"/>
		</g>
	</g>
</g>
<g>
	<g>
		<polygon class="st0" points="2259.2,127.6 2259.2,211.8 2187.2,170.3 		"/>
		<polygon class="st1" points="2259.2,127.6 2258.7,212.1 2329.9,170.8 		"/>
	</g>
	<g>
		<g>
			<path class="st7" d="M2257.5,205.4c0.5,0.6,0.3,1.4-0.4,1.5c-2,0.5-4.5-0.4-4.8-0.8c-0.4-0.4-14.2-11.2-15.3-12.4s-7.3-9-6.8-9.7
				s2.1-2.5,3.6-1.5c1.4,1,17.6,15.4,19.2,16.8c0.1,0.1,0.2,0.2,0.2,0.3L2257.5,205.4z"/>
			<path class="st4" d="M2254.9,207.3c-1.5,0.1-4.2-1.1-6.5-2.9c-2.4-1.8-4.7-3.6-5.9-4.5c-1.2-0.9,3.5-5.1,3.2-6.6
				c-0.3-1.5,6,2.5,6,2.5l6.5,7.5c0,0,0.4,1.2,0.1,2.7C2257.9,207.9,2254.9,207.3,2254.9,207.3z"/>
		</g>
		<path class="st10" d="M2281.9,135.4c0,0-17.5-8.2-31.3-2.2c-1.7,0.7-3.3,1.6-4.7,2.6c-8.6,5.9-13,16.2-11.9,26.6
			c0.7,6.9,1.3,15.8,1.3,17c0.1,2.1-0.4,5.6-0.4,8.2s14.9,13.4,25.7,11.5s17.1-4.9,23-12c5-6.2,9-18.2,10.2-27.1
			c1-7.5-1.1-14.9-6.3-20.4C2285.9,137.8,2284,136.3,2281.9,135.4z"/>
		<g>
			<ellipse class="st4" cx="2243.9" cy="174.1" rx="3" ry="6.6"/>
			<ellipse class="st4" cx="2264.5" cy="175.3" rx="3" ry="6.6"/>
			<path class="st11" d="M2252.1,187.2c1.5-3.3,3.7-0.7,3.7,1.2c0,3.6-2.8,4.1-3.7,1.8C2251.8,189.6,2251.8,187.8,2252.1,187.2z"/>
		</g>
		<ellipse class="st12" cx="2268.8" cy="184.7" rx="3.9" ry="2.4"/>
		<ellipse class="st12" cx="2239.7" cy="183" rx="3.4" ry="2.1"/>
		<path class="st13" d="M2290.5,159.4c0.6,2,3.7,5,3.2,6.1c-0.5,1.1-3.9,9.2-5.6,15.3c-1,3.6-7,8.8-7,8.8l-2-14.6l-4.7,1.2l0.2-3.6
			l1.5-0.9l-0.9-0.2c0,0,1.7-1.8,1.7-2.8c0-1.1-2.7-5.4-3.5-5.8c-0.9-0.5,3.6-0.4,3.6-0.4l-3.5-2.8l6.2,0l-6-4.1l3.3,0.5l15.8,3.8"
			/>
		
			<ellipse transform="matrix(0.3513 -0.9363 0.9363 0.3513 1314.4585 2251.9583)" class="st10" cx="2282.3" cy="177.5" rx="8.7" ry="5.2"/>
		<g>
			<path class="st14" d="M2299.5,164.7c0.1,0,0.2-0.1,0.2,0C2299.8,164.7,2299.7,164.7,2299.5,164.7z"/>
			<path class="st14" d="M2252.2,151.8c0,0,0,0.1-0.1,0.1C2252.2,151.8,2252.3,151.7,2252.2,151.8z"/>
			<path class="st15" d="M2223.2,147.4c3.1,0.7,7.8-5.4,7.8-5.4l-4.1-1.6c0,0,4.2-0.9,3.7-1.3c-2.3-2.1-6.6-0.4-6.3-0.7
				c1.5-1.2,7.2-3.1,7.2-3.1c0.8-2.2-4.7-2-4.5-2.2c2.1-1.9,9.7-1.5,9-2.4c-0.7-1,0.1-6.9,0.2-5.9c0.3,2.6,2.7,6.3,2.9,5.8
				c0.1-0.2-0.9-4.5-0.4-3.8c0.9,1.3,5.9,1.1,5.7,0.9c-1.8-1.6-1.6-11.7-1.6-11.7s1.1,5,7,9c3.6,2.4,3.9,1.3,3.9,1.3
				c-4.2-3.6-2.5-7.5-2.3-7.2c1.6,4.1,3.8,4.4,3.3,4c-1.3-1-2.9-11.3-2.7-10.5c0.3,1.3,2,2.5,3.3,3.6c1.4,1.1,7,4,8.8,4.3
				c1.8,0.2,7.4,1.3,8.6,1.6c1.2,0.2,6.8,3.6,6.8,3.6s-5.2-6.1-4.3-5.6c2.1,1.1,4.9,2.6,7,3.8c2.2,1.3,3.1,2.6,4.5,4.1
				c1.4,1.6,1.6,5.3,0.6,8.9c0,0,8.3-2,8.3-1.8c-0.2,3.2-4.4,6.4-4.3,6.6c0.8,0.8,3.3-1.4,3.2-1.2c-0.5,3-3.6,3.9-1.9,3.6
				c1.7-0.3,7.3,2.1,6.2,2.5c-1.1,0.4-3.5,3.9-3.5,3.9s3.1-0.9,2.3-0.4c-0.7,0.4-3.1,6.4-2.2,6.1c0.5-0.2,3.3-1.1,4.8-1.8
				c-1.6,2.3-4.1,7.7-4.1,7.7s2.1,2.8,2.8,2.8c-1.1,0.3-4.7,0.2-4,0.4c0.7,0.3,2.6,6.1,2.1,4.9c-0.5-1.2-5.1-2.8-5.6-2.5
				c-0.5,0.3,1.6,4.9,1.2,4.3c-0.4-0.6-6.2-4.5-6.2-4.5s1.9,3.7,1.4,3.4s-5.3-6.1-5.3-6.1l-3.8,1.6l-8.9-8.1c0,0,6.9-0.5,6.1-0.8
				c-1.7-0.7-13.6-6-13.6-6s-6.2,4.3-10,5.6s-4.7-0.2-4.6-0.3c0.4-0.2,2.7-0.8,3.9-4.8c-2.7,0.9-12.4,5.6-12.6,5.5l2.9-3.6
				c-2-0.4-6,3.8-6,3.8c-1.5-2.2,0.9-5.9-0.3-4.5c-0.5,0.5-1.1,2.1-1.7,3.9c-1,2.9-0.3,7.8-0.3,7.8l-1.8-5.8l0.1-0.5
				c-0.2,0.1-0.4,0.3-0.5,0.3c-3.7,1.8-4.9,0.9-4.5,0.7c2.6-1.5,3.8-7.5,3.8-7.5l-4,3.3c-0.4-2.2,0.6-1.7-1.2-1.7s-3.9-2-2.9-1.8
				c1,0.2,5.1-1.8,2.5-2.2c-2.5-0.4-4.3-2.7-4.3-2.7S2220.1,146.8,2223.2,147.4z"/>
		</g>
		<g>
			<path class="st7" d="M2279.8,197.3c0,0-5.1-22-5.9-22.8c-0.8-0.8-2.8-2.3-3.8-1s-3,5.9-2.8,7.2c0.2,1.2,0.3,14.9,0.3,14.9"/>
			<path class="st4" d="M2279.8,190.3l-13.8,1.2l2.8,12.2c0.9,1.9,13-3.4,12.3-6.8L2279.8,190.3z"/>
		</g>
	</g>
</g>
<g>
	<polygon class="st0" points="2593.1,127.6 2593.1,211.8 2521.1,170.3 	"/>
	<polygon class="st1" points="2593.1,127.6 2592.6,212.1 2663.8,170.8 	"/>
</g>
<g>
	<g>
		<polygon class="st0" points="255.9,127.6 255.9,211.8 183.9,170.3 		"/>
		<polygon class="st1" points="255.9,127.6 255.4,212.1 326.6,170.8 		"/>
	</g>
	<g>
		
			<ellipse transform="matrix(0.7831 -0.6219 0.6219 0.7831 -31.4396 201.8249)" class="st2" cx="273.6" cy="146" rx="3.7" ry="8.8"/>
		<path class="st3" d="M287.6,136.9c0,0-8.3-2.5-12.3-1.1c-4.5,1.6-7.8,3.9-8.7,8.1c-0.8,4.2-4.2,14.2-4.2,14.2s-1,3.1,0.2,4
			c1.4,1.1,3,1.4,4,1.8c1.4,0.6,4.2,1.4,6.1-0.3c2-1.7,4.2-8.7,4.5-10.9c0.3-2.2,7.7,3,14.1,1.3c6.4-1.7,8.5-12.5,8.5-12.5
			L287.6,136.9z"/>
		<path class="st4" d="M268.2,139.4c3.1-0.9,10.5,6.5,10.9,13.5l10.5,1.8l-2.3-18.7c0,0-8.1-2.1-10.4-1.3
			C274.7,135.4,265.4,140.2,268.2,139.4z"/>
		<path class="st4" d="M277.8,109.1c4.5,0,18.2-0.3,20.8-3.6c2.6-3.3,19.7,17.8,17.6,30.9c-2.4,15.2-12.8,17.4-12.8,17.4
			c-4.1,1.1-7.5,1.9-12-0.7c-4.5-2.6-7.8-6.6-8.5-20.3C282.1,118.8,277.8,109.1,277.8,109.1z"/>
		<polyline class="st5" points="282.8,109.8 288.9,126.5 294.7,107.4 		"/>
		<g>
			<path class="st5" d="M301.7,138c0,0-10.9-0.9-13.9,2.1c-3,3.1-4.9,5.6-4.7,9.8c0.2,4.3-0.5,14.8-0.5,14.8s-0.2,3.2,1.2,3.9
				c1.6,0.7,3.2,0.6,4.3,0.8c1.5,0.2,4.4,0.3,5.9-1.8c1.5-2.1,1.9-9.4,1.6-11.7s7.6,2.7,13.4-0.5c5.8-3.2,5.7-15.9,5.7-15.9
				L301.7,138z"/>
			<path class="st4" d="M283.8,144.7c0,0,4.6-2.8,9.1,1.3c3.9,3.5,4.9,8.2,4.7,9.7s7.2,2.1,9.3,0.9c2.1-1.2,5.6-2.6,6.7-6.7
				c1.1-4.1,1.9-8.9,2.2-11.2c0.4-2.3-12.1-2.2-12.1-2.2l-15.7,0.6L283.8,144.7z"/>
		</g>
		<g>
			<path class="st6" d="M305.9,110.3c-1.1-0.5-0.7-2.5-5.2-2.9c-4.6-0.4-5.8,8-5.8,8s-3.8,24.9-3.3,26.1c0.4,1.2,1.7,3.5,3.1,2.7
				c1.4-0.8,5-4.9,5.3-6.2c0.3-1.4,6.8-15.3,6.8-15.3"/>
			<path class="st4" d="M292.2,122.6l15.6,5.6l-0.4-16.9c0,0-1.1-4.7-4.5-4.7c-0.8,0-1.5-1.4-2.4-1.1c-3.6,1.3-6.4,6-7,9.7
				L292.2,122.6z"/>
		</g>
		<g>
			<path class="st7" d="M278.7,110.3c-0.3-0.8-1.2-1.1-1.9-0.7c-2.1,1.3-3.2,3.8-3.1,4.3c0.1,0.6,0.3,18.1,0.6,19.7
				c0.3,1.5,3.5,11.3,4.7,11.3c1.3,0,4.3-0.1,4.5-2c0.1-1.7-1.9-23.3-2.1-25.5c0-0.1,0-0.2-0.1-0.3L278.7,110.3z"/>
			<path class="st4" d="M274.6,111.2c-1.3,1.1-2.3,4-2.3,6.9s0,6,0,7.4c0,1.5,8.2,0.4,9.5,1.5c1.3,1.1,2.2-6.3,2.2-6.3l-2.6-9.7
				c0,0-1-1-2.7-1.7C276.4,108.4,274.6,111.2,274.6,111.2z"/>
		</g>
		<polygon class="st8" points="277.8,109.1 282.5,108.9 288.4,125.1 287.8,128.6 		"/>
		<path class="st9" d="M298.3,106.4c0,0-6.4,19-8.4,24.5c-0.5,1.3-6.6,4.5-6.6,4.5l-0.3-2.4c0,0,2.7-2.6,3.5-3.9
			c2.7-4.4,8.1-21.8,8.1-21.8L298.3,106.4z"/>
		<path class="st10" d="M307,46.8c0,0-17.5-8.2-31.3-2.2c-1.7,0.7-3.3,1.6-4.7,2.6c-8.6,5.9-13,16.2-11.9,26.6
			c0.7,6.9,1.3,15.8,1.3,17c0.1,2.1-0.4,5.6-0.4,8.2s14.9,13.4,25.7,11.5c10.8-1.9,17.1-4.9,23-12c5-6.2,9-18.2,10.2-27.1
			c1-7.5-1.1-14.9-6.3-20.4C311,49.2,309.1,47.7,307,46.8z"/>
		<g>
			<ellipse class="st4" cx="269" cy="85.5" rx="3" ry="6.6"/>
			<ellipse class="st4" cx="289.6" cy="86.6" rx="3" ry="6.6"/>
			<path class="st11" d="M277.2,100.6c1.1,0,3.6,0.4,3.6,0.4c0.4,1.9-2.6,2.2-3.7,1.1C276,101,277.2,100.6,277.2,100.6z"/>
		</g>
		<ellipse class="st12" cx="293.9" cy="96.1" rx="3.9" ry="2.4"/>
		<ellipse class="st12" cx="264.8" cy="94.3" rx="3.4" ry="2.1"/>
		<path class="st13" d="M315.6,70.8c0.6,2,3.7,5,3.2,6.1c-0.5,1.1-3.9,9.2-5.6,15.3c-1,3.6-7,8.8-7,8.8l-2-14.6l-4.7,1.2l0.2-3.6
			l1.5-0.9l-0.9-0.2c0,0,1.7-1.8,1.7-2.8s-2.7-5.4-3.5-5.8s3.6-0.4,3.6-0.4l-3.5-2.8l6.2,0l-6-4.1l3.3,0.5l15.8,3.8"/>
		
			<ellipse transform="matrix(0.3513 -0.9363 0.9363 0.3513 116.2262 345.3942)" class="st10" cx="307.4" cy="88.8" rx="8.7" ry="5.2"/>
		<g>
			<path class="st14" d="M324.6,76.1c0.1,0,0.2-0.1,0.2,0C324.9,76.1,324.8,76.1,324.6,76.1z"/>
			<path class="st14" d="M277.3,63.2c0,0,0,0.1-0.1,0.1C277.3,63.2,277.4,63.1,277.3,63.2z"/>
			<path class="st15" d="M248.3,58.8c3.1,0.7,7.8-5.4,7.8-5.4l-4.1-1.6c0,0,4.2-0.9,3.7-1.3c-2.3-2.1-6.6-0.4-6.3-0.7
				c1.5-1.2,7.2-3.1,7.2-3.1c0.8-2.2-4.7-2-4.5-2.2c2.1-1.9,9.7-1.5,9-2.4c-0.7-1,0.1-6.9,0.2-5.9c0.3,2.6,2.7,6.3,2.9,5.8
				c0.1-0.2-0.9-4.5-0.4-3.8c0.9,1.3,5.9,1.1,5.7,0.9c-1.8-1.6-1.6-11.7-1.6-11.7s1.1,5,7,9c3.6,2.4,3.9,1.3,3.9,1.3
				c-4.2-3.6-2.5-7.5-2.3-7.2c1.6,4.1,3.8,4.4,3.3,4c-1.3-1-2.9-11.3-2.7-10.5c0.3,1.3,2,2.5,3.3,3.6c1.4,1.1,7,4,8.8,4.3
				c1.8,0.2,7.4,1.3,8.6,1.6s6.8,3.6,6.8,3.6s-5.2-6.1-4.3-5.6c2.1,1.1,4.9,2.6,7,3.8c2.2,1.3,3.1,2.6,4.5,4.1
				c1.4,1.6,1.6,5.3,0.6,8.9c0,0,8.3-2,8.3-1.8c-0.2,3.2-4.4,6.4-4.3,6.6c0.8,0.8,3.3-1.4,3.2-1.2c-0.5,3-3.6,3.9-1.9,3.6
				c1.7-0.3,7.3,2.1,6.2,2.5s-3.5,3.9-3.5,3.9s3.1-0.9,2.3-0.4c-0.7,0.4-3.1,6.4-2.2,6.1c0.5-0.2,3.3-1.1,4.8-1.8
				c-1.6,2.3-4.1,7.7-4.1,7.7s2.1,2.8,2.8,2.8c-1.1,0.3-4.7,0.2-4,0.4c0.7,0.3,2.6,6.1,2.1,4.9c-0.5-1.2-5.1-2.8-5.6-2.5
				c-0.5,0.3,1.6,4.9,1.2,4.3c-0.4-0.6-6.2-4.5-6.2-4.5s1.9,3.7,1.4,3.4c-0.5-0.3-5.3-6.1-5.3-6.1l-3.8,1.6l-8.9-8.1
				c0,0,6.9-0.5,6.1-0.8c-1.7-0.7-13.6-6-13.6-6s-6.2,4.3-10,5.6c-3.8,1.3-4.7-0.2-4.6-0.3c0.4-0.2,2.7-0.8,3.9-4.8
				c-2.7,0.9-12.4,5.6-12.6,5.5l2.9-3.6c-2-0.4-6,3.8-6,3.8c-1.5-2.2,0.9-5.9-0.3-4.5c-0.5,0.5-1.1,2.1-1.7,3.9
				c-1,2.9-0.3,7.8-0.3,7.8l-1.8-5.8l0.1-0.5c-0.2,0.1-0.4,0.3-0.5,0.3c-3.7,1.8-4.9,0.9-4.5,0.7c2.6-1.5,3.8-7.5,3.8-7.5l-4,3.3
				c-0.4-2.2,0.6-1.7-1.2-1.7c-1.8,0-3.9-2-2.9-1.8c1,0.2,5.1-1.8,2.5-2.2c-2.5-0.4-4.3-2.7-4.3-2.7S245.2,58.1,248.3,58.8z"/>
		</g>
	</g>
</g>
<g>
	<g>
		<polygon class="st0" points="589.8,127.6 589.8,211.8 517.8,170.3 		"/>
		<polygon class="st1" points="589.8,127.6 589.3,212.1 660.5,170.8 		"/>
	</g>
	<g>
		<ellipse transform="matrix(0.7831 -0.6219 0.6219 0.7831 40.9704 409.4538)" class="st2" cx="607.5" cy="146" rx="3.7" ry="8.8"/>
		<path class="st3" d="M621.5,136.9c0,0-8.3-2.5-12.3-1.1c-4.5,1.6-7.8,3.9-8.7,8.1c-0.8,4.2-4.2,14.2-4.2,14.2s-1,3.1,0.2,4
			c1.4,1.1,3,1.4,4,1.8c1.4,0.6,4.2,1.4,6.1-0.3c2-1.7,4.2-8.7,4.5-10.9c0.3-2.2,7.7,3,14.1,1.3c6.4-1.7,8.5-12.5,8.5-12.5
			L621.5,136.9z"/>
		<path class="st4" d="M602.1,139.4c3.1-0.9,10.5,6.5,10.9,13.5l10.5,1.8l-2.3-18.7c0,0-8.1-2.1-10.4-1.3
			C608.6,135.4,599.3,140.2,602.1,139.4z"/>
		<path class="st4" d="M611.7,109.1c4.5,0,18.2-0.3,20.8-3.6c2.6-3.3,19.7,17.8,17.6,30.9c-2.4,15.2-12.8,17.4-12.8,17.4
			c-4.1,1.1-7.5,1.9-12-0.7c-4.5-2.6-7.8-6.6-8.5-20.3C616,118.8,611.7,109.1,611.7,109.1z"/>
		<polyline class="st5" points="616.7,109.8 622.8,126.5 628.5,107.4 		"/>
		<g>
			<path class="st5" d="M635.6,138c0,0-10.9-0.9-13.9,2.1s-4.9,5.6-4.7,9.8c0.2,4.3-0.5,14.8-0.5,14.8s-0.2,3.2,1.2,3.9
				c1.6,0.7,3.2,0.6,4.3,0.8c1.5,0.2,4.4,0.3,5.9-1.8s1.9-9.4,1.6-11.7s7.6,2.7,13.4-0.5c5.8-3.2,5.7-15.9,5.7-15.9L635.6,138z"/>
			<path class="st4" d="M617.7,144.7c0,0,4.6-2.8,9.1,1.3c3.9,3.5,4.9,8.2,4.7,9.7c-0.2,1.5,7.2,2.1,9.3,0.9
				c2.1-1.2,5.6-2.6,6.7-6.7c1.1-4.1,1.9-8.9,2.2-11.2c0.4-2.3-12.1-2.2-12.1-2.2l-15.7,0.6L617.7,144.7z"/>
		</g>
		<g>
			<path class="st6" d="M639.8,110.3c-1.1-0.5-0.7-2.5-5.2-2.9c-4.6-0.4-5.8,8-5.8,8s-3.8,24.9-3.3,26.1c0.4,1.2,1.7,3.5,3.1,2.7
				c1.4-0.8,5-4.9,5.3-6.2c0.3-1.4,6.8-15.3,6.8-15.3"/>
			<path class="st4" d="M626.1,122.6l15.6,5.6l-0.4-16.9c0,0-1.1-4.7-4.5-4.7c-0.8,0-1.5-1.4-2.4-1.1c-3.6,1.3-6.4,6-7,9.7
				L626.1,122.6z"/>
		</g>
		<g>
			<path class="st7" d="M612.5,110.3c-0.3-0.8-1.2-1.1-1.9-0.7c-2.1,1.3-3.2,3.8-3.1,4.3c0.1,0.6,0.3,18.1,0.6,19.7
				s3.5,11.3,4.7,11.3c1.3,0,4.3-0.1,4.5-2c0.1-1.7-1.9-23.3-2.1-25.5c0-0.1,0-0.2-0.1-0.3L612.5,110.3z"/>
			<path class="st4" d="M608.5,111.2c-1.3,1.1-2.3,4-2.3,6.9s0,6,0,7.4c0,1.5,8.2,0.4,9.5,1.5s2.2-6.3,2.2-6.3l-2.6-9.7
				c0,0-1-1-2.7-1.7C610.3,108.4,608.4,111.2,608.5,111.2z"/>
		</g>
		<polygon class="st8" points="611.7,109.1 616.3,108.9 622.3,125.1 621.6,128.6 		"/>
		<path class="st9" d="M632.2,106.4c0,0-6.4,19-8.4,24.5c-0.5,1.3-6.6,4.5-6.6,4.5l-0.3-2.4c0,0,2.7-2.6,3.5-3.9
			c2.7-4.4,8.1-21.8,8.1-21.8L632.2,106.4z"/>
		<path class="st10" d="M640.9,46.8c0,0-17.5-8.2-31.3-2.2c-1.7,0.7-3.3,1.6-4.7,2.6c-8.6,5.9-13,16.2-11.9,26.6
			c0.7,6.9,1.3,15.8,1.3,17c0.1,2.1-0.4,5.6-0.4,8.2s14.9,13.4,25.7,11.5c10.8-1.9,17.1-4.9,23-12c5-6.2,9-18.2,10.2-27.1
			c1-7.5-1.1-14.9-6.3-20.4C644.9,49.2,643,47.7,640.9,46.8z"/>
		<g>
			<path class="st11" d="M611.1,100.6c1.1,0,3.6,0.4,3.6,0.4c0.4,1.9-2.6,2.2-3.7,1.1C609.9,101,611.1,100.6,611.1,100.6z"/>
		</g>
		<ellipse class="st12" cx="627.8" cy="96.1" rx="3.9" ry="2.4"/>
		<ellipse class="st12" cx="598.6" cy="94.3" rx="3.4" ry="2.1"/>
		<path class="st13" d="M649.5,70.8c0.6,2,3.7,5,3.2,6.1c-0.5,1.1-3.9,9.2-5.6,15.3c-1,3.6-7,8.8-7,8.8l-2-14.6l-4.7,1.2l0.2-3.6
			l1.5-0.9l-0.9-0.2c0,0,1.7-1.8,1.7-2.8s-2.7-5.4-3.5-5.8s3.6-0.4,3.6-0.4l-3.5-2.8l6.2,0l-6-4.1l3.3,0.5l15.8,3.8"/>
		
			<ellipse transform="matrix(0.3513 -0.9363 0.9363 0.3513 332.832 658.0027)" class="st10" cx="641.2" cy="88.8" rx="8.7" ry="5.2"/>
		<g>
			<path class="st14" d="M658.4,76.1c0.1,0,0.2-0.1,0.2,0C658.8,76.1,658.7,76.1,658.4,76.1z"/>
			<path class="st14" d="M611.2,63.2c0,0,0,0.1-0.1,0.1C611.2,63.2,611.2,63.1,611.2,63.2z"/>
			<path class="st15" d="M582.2,58.8c3.1,0.7,7.8-5.4,7.8-5.4l-4.1-1.6c0,0,4.2-0.9,3.7-1.3c-2.3-2.1-6.6-0.4-6.3-0.7
				c1.5-1.2,7.2-3.1,7.2-3.1c0.8-2.2-4.7-2-4.5-2.2c2.1-1.9,9.7-1.5,9-2.4c-0.7-1,0.1-6.9,0.2-5.9c0.3,2.6,2.7,6.3,2.9,5.8
				c0.1-0.2-0.9-4.5-0.4-3.8c0.9,1.3,5.9,1.1,5.7,0.9c-1.8-1.6-1.6-11.7-1.6-11.7s1.1,5,7,9c3.6,2.4,3.9,1.3,3.9,1.3
				c-4.2-3.6-2.5-7.5-2.3-7.2c1.6,4.1,3.8,4.4,3.3,4c-1.3-1-2.9-11.3-2.7-10.5c0.3,1.3,2,2.5,3.3,3.6c1.4,1.1,7,4,8.8,4.3
				c1.8,0.2,7.4,1.3,8.6,1.6s6.8,3.6,6.8,3.6s-5.2-6.1-4.3-5.6c2.1,1.1,4.9,2.6,7,3.8c2.2,1.3,3.1,2.6,4.5,4.1
				c1.4,1.6,1.6,5.3,0.6,8.9c0,0,8.3-2,8.3-1.8c-0.2,3.2-4.4,6.4-4.3,6.6c0.8,0.8,3.3-1.4,3.2-1.2c-0.5,3-3.6,3.9-1.9,3.6
				c1.7-0.3,7.3,2.1,6.2,2.5c-1.1,0.4-3.5,3.9-3.5,3.9s3.1-0.9,2.3-0.4c-0.7,0.4-3.1,6.4-2.2,6.1c0.5-0.2,3.3-1.1,4.8-1.8
				c-1.6,2.3-4.1,7.7-4.1,7.7s2.1,2.8,2.8,2.8c-1.1,0.3-4.7,0.2-4,0.4c0.7,0.3,2.6,6.1,2.1,4.9c-0.5-1.2-5.1-2.8-5.6-2.5
				c-0.5,0.3,1.6,4.9,1.2,4.3c-0.4-0.6-6.2-4.5-6.2-4.5s1.9,3.7,1.4,3.4c-0.5-0.3-5.3-6.1-5.3-6.1l-3.8,1.6l-8.9-8.1
				c0,0,6.9-0.5,6.1-0.8c-1.7-0.7-13.6-6-13.6-6s-6.2,4.3-10,5.6c-3.8,1.3-4.7-0.2-4.6-0.3c0.4-0.2,2.7-0.8,3.9-4.8
				c-2.7,0.9-12.4,5.6-12.6,5.5l2.9-3.6c-2-0.4-6,3.8-6,3.8c-1.5-2.2,0.9-5.9-0.3-4.5c-0.5,0.5-1.1,2.1-1.7,3.9
				c-1,2.9-0.3,7.8-0.3,7.8l-1.8-5.8l0.1-0.5c-0.2,0.1-0.4,0.3-0.5,0.3c-3.7,1.8-4.9,0.9-4.5,0.7c2.6-1.5,3.8-7.5,3.8-7.5l-4,3.3
				c-0.4-2.2,0.6-1.7-1.2-1.7c-1.8,0-3.9-2-2.9-1.8c1,0.2,5.1-1.8,2.5-2.2c-2.5-0.4-4.3-2.7-4.3-2.7S579.1,58.1,582.2,58.8z"/>
		</g>
	</g>
	<path class="st4" d="M606.8,88.2h-8.2c-0.4,0-0.8-0.3-0.8-0.8l0,0c0-0.4,0.3-0.8,0.8-0.8h8.2c0.4,0,0.8,0.3,0.8,0.8l0,0
		C607.6,87.8,607.2,88.2,606.8,88.2z"/>
	<path class="st4" d="M628.4,88.2h-9c-0.4,0-0.8-0.3-0.8-0.8l0,0c0-0.4,0.3-0.8,0.8-0.8h9c0.4,0,0.8,0.3,0.8,0.8l0,0
		C629.2,87.8,628.8,88.2,628.4,88.2z"/>
</g>
<g>
	<g>
		<polygon class="st0" points="2426.2,124.2 2426.2,208.5 2354.2,166.9 		"/>
		<polygon class="st1" points="2426.2,124.2 2426.7,208.9 2496.8,167.5 		"/>
	</g>
	<g>
		<path class="st1" d="M2462.6,185.9c0.2,0.1,0.4,0.5,0.7,1l2.3-1.3C2464.1,185.7,2462,185.7,2462.6,185.9z"/>
		<path class="st1" d="M2459.9,188.9l0.6-0.4c-0.1,0-0.3-0.1-0.4-0.1C2460.1,188.5,2460,188.7,2459.9,188.9z"/>
		<path class="st10" d="M2457.7,194.7c-0.1,0.3-0.2,0.5-0.3,0.8C2457.5,195.2,2457.6,194.9,2457.7,194.7z"/>
		<path class="st4" d="M2431.9,202.4c1.6,0,3-3,3-6.6c0-3.6-1.3-6.6-3-6.6c-1.6,0-3,3-3,6.6C2428.9,199.5,2430.2,202.4,2431.9,202.4
			z"/>
		<path class="st13" d="M2459.1,188.3c-0.2,0.1,0,0.9,0.3,1.8c0.2-0.4,0.3-0.8,0.5-1.2c0.1-0.2,0.1-0.3,0.2-0.5
			C2459.6,188.3,2459.2,188.2,2459.1,188.3z"/>
		<path class="st14" d="M2466.9,185.3c0.3,0,0.4,0,0.2,0C2467.1,185.2,2467,185.2,2466.9,185.3z"/>
	</g>
	<g>
		<path class="st16" d="M2436.6,203c-0.2,0-0.3,0-0.5,0c-2.2,0-3.9,1.1-3.9,2.4c0,0.1,0,0.2,0,0.2"/>
		<path class="st16" d="M2431.9,202.4c1.6,0,3-3,3-6.6c0-3.6-1.3-6.6-3-6.6c-1.6,0-3,3-3,6.6
			C2428.9,199.5,2430.2,202.4,2431.9,202.4z"/>
		<path class="st16" d="M2422.6,211.3l-1.4,0.8C2421.7,212.1,2422.2,211.9,2422.6,211.3z"/>
		<path class="st16" d="M2465.6,185.6c-1.5,0.1-3.5,0.1-3,0.3c0.2,0.1,0.4,0.5,0.7,1c0,0.1,0.1,0.1,0.1,0.2l2.7-1.6
			C2465.9,185.6,2465.7,185.6,2465.6,185.6z"/>
		<path class="st16" d="M2460.1,188.4c-0.5-0.1-0.9-0.2-1-0.1c-0.2,0.1-0.1,0.6,0.2,1.3l1.6-1c-0.1,0-0.2-0.1-0.3-0.1
			C2460.4,188.5,2460.3,188.4,2460.1,188.4z"/>
		<path class="st10" d="M2408.3,194.7c0-3.6,1.3-6.6,3-6.6s3,3,3,6.6c0,2.6-0.7,4.9-1.7,5.9l14.1,8.2l17.4-10.3
			c0.1-0.8,10.8-6.3,10.8-6.4l-23.6-26.8c0,0-26.4,1.3-27.6,2.7c-0.5,0.5-3.3,5.7-3.9,7.5c-0.1,0.2,1.5,5.9,1.7,7.4
			c0.4,3.9,0.8,8.4,1,11.9l6.4,3.7C2408.5,197.4,2408.3,196.1,2408.3,194.7z M2431.9,189.2c1.6,0,3,3,3,6.6c0,3.6-1.3,6.6-3,6.6
			c-1.6,0-3-3-3-6.6C2428.9,192.2,2430.2,189.2,2431.9,189.2z"/>
		<path class="st13" d="M2440.7,183.4c0.9,0.5,3.5,4.7,3.5,5.8s-1.7,2.8-1.7,2.8l0.9,0.2l-1.5,0.9l-0.2,3.6l3-0.7
			c1.7-4.4,5.2-7.1,7.9-6.1c1,0.4,1.7,1.2,2.2,2.3l2.8-1.6c-1.7-1.2-3.5-2.4-3.5-2.4s1.9,3.7,1.4,3.4c-0.5-0.3-5.3-6.1-5.3-6.1
			l-3.8,1.6l-4.5-4C2441.1,183.1,2440.3,183.2,2440.7,183.4z"/>
		<path class="st10" d="M2452.7,189.9c-2.7-1-6.2,1.7-7.9,6.1c0,0.1-0.1,0.1-0.1,0.2c-0.3,0.8-0.5,1.6-0.7,2.4l10.8-6.4
			C2454.4,191.1,2453.7,190.3,2452.7,189.9z"/>
		<path class="st15" d="M2466.6,185.5c-0.1,0-0.2,0-0.2-0.1l-0.3,0.2C2466.2,185.5,2466.4,185.5,2466.6,185.5z"/>
		<path class="st15" d="M2459.1,188.3c0.1-0.1,0.5,0,1,0.1c0.1,0,0.3,0.1,0.4,0.1c0.1,0,0.2,0.1,0.3,0.1l2.5-1.5
			c0-0.1-0.1-0.1-0.1-0.2c-0.3-0.6-0.5-1-0.7-1c-0.5-0.2,1.5-0.2,3-0.3c0.2,0,0.3,0,0.5-0.1l0.3-0.2c-0.1,0-0.1-0.1-0.2-0.1
			c-0.9-0.6-2.4-2.6-2.4-2.6s2.6-5.4,4.1-7.7c-1.5,0.6-4.2,1.6-4.8,1.8c-0.9,0.3,1.5-5.7,2.2-6.1c0.7-0.4-2.3,0.4-2.3,0.4
			s2.3-3.4,3.5-3.9c1.1-0.4-4.5-2.8-6.2-2.5s1.4-0.6,1.9-3.6c0-0.2-2.4,2-3.2,1.2c-0.1-0.1,4.2-3.4,4.3-6.6c0-0.2-8.3,1.8-8.3,1.8
			c1-3.6,0.8-7.3-0.6-8.9c-1.4-1.6-2.2-2.8-4.5-4.1c-2.1-1.2-5-2.7-7-3.8c-0.9-0.5,4.3,5.6,4.3,5.6s-5.7-3.4-6.8-3.6
			c-1.2-0.2-6.8-1.3-8.6-1.6c-1.1-0.1-3.5-1.2-5.6-2.3c-1.4-0.7-2.7-1.5-3.2-1.9c-1.4-1.1-3-2.3-3.3-3.6c-0.2-0.8,1.4,9.5,2.7,10.5
			c0.4,0.3-1.8,0.1-3.3-4c-0.1-0.3-1.8,3.5,2.3,7.2c0,0-0.3,1.1-3.9-1.3c-5.9-3.9-7-9-7-9s-0.2,10,1.6,11.7c0.2,0.2-4.7,0.4-5.7-0.9
			c-0.5-0.6,0.5,3.7,0.4,3.8c-0.2,0.5-2.7-3.2-2.9-5.8c-0.1-1-0.9,5-0.2,5.9c0.7,0.9-6.9,0.5-9,2.4c-0.2,0.2,5.3,0,4.5,2.2
			c0,0-5.8,1.9-7.2,3.1c-0.3,0.3,4-1.4,6.3,0.7c0.5,0.4-3.7,1.3-3.7,1.3l4.1,1.6c0,0-4.7,6-7.8,5.4c-3.1-0.7-2.1-0.4-2.1-0.4
			s1.8,2.2,4.3,2.7c2.5,0.4-1.6,2.5-2.5,2.2s1.2,1.8,2.9,1.8s0.8-0.5,1.2,1.7l4-3.3c0,0-1.1,6.1-3.8,7.5c-0.4,0.2,0.8,1.1,4.5-0.7
			c0.1-0.1,0.3-0.2,0.5-0.3l-0.1,0.5l1.8,5.8c0,0-0.6-4.2,0.1-7.1c0.1-0.2,0.1-0.5,0.2-0.7c0.6-1.8,1.3-3.4,1.7-3.9
			c1.2-1.3-1.2,2.3,0.3,4.5c0,0,4-4.2,6-3.8l-2.9,3.6c0.2,0.1,10-4.6,12.6-5.5c-1.2,4-3.4,4.6-3.9,4.8c-0.1,0.1,0.7,1.6,4.6,0.3
			c3.8-1.3,10-5.6,10-5.6s11.9,5.3,13.6,6c0.8,0.3-6.1,0.8-6.1,0.8l4.4,4l4.5,4l3.8-1.6c0,0,4.8,5.8,5.3,6.1
			c0.5,0.3-1.4-3.4-1.4-3.4s1.8,1.2,3.5,2.4"/>
	</g>
</g>
</svg>
