<?xml version="1.0" encoding="utf-8"?>
<!-- Generator: Adobe Illustrator 24.0.1, SVG Export Plug-In . SVG Version: 6.00 Build 0)  -->
<svg version="1.1" id="Calque_1" xmlns="http://www.w3.org/2000/svg" xmlns:xlink="http://www.w3.org/1999/xlink" x="0px" y="0px"
	 viewBox="0 0 5133.9 321.5" style="enable-background:new 0 0 5133.9 321.5;" xml:space="preserve">
<style type="text/css">
	.st0{fill:#EA5540;}
	.st1{fill:#E04D3D;}
	.st2{fill:#EA5640;}
	.st3{fill:#EC654F;}
	.st4{fill:#BF3C18;}
	.st5{fill:#FFFFFF;}
	.st6{fill:#F29186;}
	.st7{fill:#282726;}
</style>
<g>
	<path class="st0" d="M377.6,204.2c-1.5-7.3-4.7-13.9-9.1-19.3c-10.3-12.8-27.1-19.5-44.2-16c-4.6,0.9-8.9,2.6-12.9,4.8
		c-0.7-1-1.3-1.9-2.1-2.8c-10.3-12.8-27.1-19.5-44.2-16c-1.6,0.3-3.2,0.7-4.7,1.2c-1.1-1.8-2.3-3.5-3.5-5.1
		c-10.3-12.8-27.1-19.5-44.2-16c-16,3.3-28.2,14.7-33.4,29c-3.7-0.2-7.6,0.1-11.4,0.9c-6.6,1.3-12.5,4.1-17.6,7.8
		c-9-4.9-19.6-6.7-30.4-4.5c-3.2,0.7-6.3,1.7-9.2,2.9c-8.3-6.9-19.4-10.1-30.8-7.7c-15.3,3.1-26.4,15.4-28.8,30c0,0,0,0,0,0
		c-0.7,4.4-0.7,8.9,0.2,13.5c3.8,18.5,20.8,31,39.2,29.4c9.7,15.8,28.4,24.6,47.5,20.7c6.6-1.3,12.5-4.1,17.6-7.8
		c9,4.9,19.6,6.7,30.4,4.5c16-3.3,28.2-14.7,33.4-29c3.7,0.2,7.5-0.1,11.4-0.8c1.6-0.3,3.2-0.8,4.7-1.2
		c9.6,16.1,28.5,25.1,47.8,21.2c4.6-0.9,8.9-2.6,12.8-4.8c10,14.6,28,22.6,46.3,18.8C366.9,252.6,382.7,228.7,377.6,204.2z"/>
	<path class="st1" d="M324.5,168.2c-5.9,1.2-11.3,3.5-16,6.7c0.4-1.5,0.8-3.1,1.1-4.7c-10.3-12.8-27.1-19.5-44.2-16
		c-1.6,0.3-3.2,0.7-4.7,1.2c-1.1-1.8-2.3-3.5-3.5-5.1c-10.3-12.8-27.1-19.5-44.2-16c-16,3.3-28.2,14.7-33.4,29
		c-3.7-0.2-7.6,0.1-11.4,0.9c-6.6,1.3-12.5,4.1-17.6,7.8c-9-4.9-19.6-6.7-30.4-4.5c-3.2,0.7-6.3,1.7-9.2,2.9
		c-8.3-6.9-19.4-10.1-30.8-7.7c-15.3,3.1-26.4,15.4-28.8,30c8.1,10.1,21.2,15.6,34.7,13.3c10.3,11.7,26.4,17.7,42.8,14.4
		c6.6-1.3,12.5-4.1,17.6-7.8c8.2,4.4,17.7,6.3,27.5,5c1-0.1,1.9-0.3,2.9-0.5c5.1-1,9.9-2.9,14.1-5.5c9-5.4,15.8-13.8,19.3-23.5
		c2.3,0.1,4.6,0.1,7-0.2c0,0,0,0,0,0c0.7-0.1,1.3-0.2,2-0.3c0.1,0,0.2,0,0.3-0.1c0.7-0.1,1.4-0.2,2.1-0.4c3.6-0.7,7-1.9,10.1-3.4
		c-0.8,2.3-1.4,4.8-1.8,7.2c6.8,8.4,16.4,14.2,27,16.2c5.5,1,11.3,1,17.2-0.2c5.9-1.2,11.3-3.5,16-6.7c-0.4,1.5-0.8,3.1-1.1,4.7
		c10.3,12.8,27.1,19.5,44.2,16c18.8-3.8,32.4-18.9,35.4-36.8C358.4,171.5,341.6,164.7,324.5,168.2z"/>
	<g>
		<g>
			<ellipse transform="matrix(0.9797 -0.2004 0.2004 0.9797 -17.5316 76.659)" class="st2" cx="370" cy="124.9" rx="6.6" ry="6.6"/>
			
				<ellipse transform="matrix(0.9797 -0.2004 0.2004 0.9797 -15.491 75.6842)" class="st2" cx="366.2" cy="114.4" rx="6.6" ry="6.6"/>
			
				<ellipse transform="matrix(0.9797 -0.2004 0.2004 0.9797 -13.3769 75.0799)" class="st2" cx="364.2" cy="103.6" rx="6.6" ry="6.6"/>
			<ellipse transform="matrix(0.9797 -0.2004 0.2004 0.9797 -11.909 74.679)" class="st2" cx="363" cy="96.2" rx="6.6" ry="6.6"/>
			
				<ellipse transform="matrix(0.9797 -0.2004 0.2004 0.9797 -10.1916 74.2521)" class="st2" cx="361.7" cy="87.5" rx="6.6" ry="6.6"/>
			
				<ellipse transform="matrix(0.9797 -0.2004 0.2004 0.9797 -7.9554 74.3752)" class="st2" cx="363.5" cy="76.5" rx="11.8" ry="11.9"/>
		</g>
		<g>
			
				<ellipse transform="matrix(0.4266 -0.9044 0.9044 0.4266 116.9862 470.2604)" class="st2" cx="429.4" cy="142.9" rx="6.6" ry="6.6"/>
			
				<ellipse transform="matrix(0.4266 -0.9044 0.9044 0.4266 128.5852 467.0827)" class="st2" cx="432.7" cy="132.1" rx="6.6" ry="6.6"/>
			
				<ellipse transform="matrix(0.4266 -0.9044 0.9044 0.4266 140.2195 465.9136)" class="st2" cx="437.6" cy="122.4" rx="6.6" ry="6.6"/>
			
				<ellipse transform="matrix(0.4266 -0.9044 0.9044 0.4266 148.2794 465.1998)" class="st2" cx="441" cy="115.7" rx="6.6" ry="6.6"/>
			
				<ellipse transform="matrix(0.4266 -0.9044 0.9044 0.4266 157.6701 464.5851)" class="st2" cx="445.2" cy="107.9" rx="6.6" ry="6.6"/>
			
				<ellipse transform="matrix(0.4266 -0.9044 0.9044 0.4266 169.257 467.338)" class="st2" cx="453.2" cy="100.2" rx="11.9" ry="11.8"/>
		</g>
		<g>
			<path class="st3" d="M356.8,133.2c-17.3,12.6-26.6,34.6-22.1,57c6.2,30.5,36,50.3,66.4,44c30.4-6.2,50-36,43.8-66.6
				c-0.1-0.3-0.1-0.5-0.2-0.8c-6.3,4.6-16.9-11.5-25-9.8C389.5,163.3,377.9,152.4,356.8,133.2z"/>
			<path class="st2" d="M378.5,123.6c-8.1,1.7-15.4,5-21.7,9.6c6.6,30.1,36,49.5,66.2,43.3c8.1-1.7,15.4-5,21.7-9.6
				C438.1,136.8,408.7,117.5,378.5,123.6z"/>
		</g>
		<polygon class="st4" points="413.6,196.6 410.6,196.2 412.3,182.4 405.2,187.5 403.6,179.7 398.7,183.9 395,176.1 392.2,191.9 
			389.2,191.4 393.6,166.4 399.7,179.1 405.6,174.1 407.3,182.4 416.1,175.9 		"/>
		<path class="st5" d="M423.9,166.7l16.4,1.8c0,0,1.1,13.1-7.8,11.8C422.6,178.8,423.9,166.7,423.9,166.7z"/>
		<path class="st5" d="M368.6,149l19.1,7.1c0,0-3.4,12.8-13.5,8.6C362.8,160,368.6,149,368.6,149z"/>
		
			<ellipse transform="matrix(0.6107 -0.7918 0.7918 0.6107 53.0694 384.1535)" class="st6" cx="417.3" cy="138.1" rx="6.4" ry="14.3"/>
	</g>
</g>
<g>
	<path class="st0" d="M2224.9,204.2c-1.5-7.3-4.7-13.9-9.1-19.3c-10.3-12.8-27.1-19.5-44.2-16c-4.6,0.9-8.9,2.6-12.9,4.8
		c-0.7-1-1.3-1.9-2.1-2.8c-10.3-12.8-27.1-19.5-44.2-16c-1.6,0.3-3.2,0.7-4.7,1.2c-1.1-1.8-2.3-3.5-3.5-5.1
		c-10.3-12.8-27.1-19.5-44.2-16c-16,3.3-28.2,14.7-33.4,29c-3.7-0.2-7.6,0.1-11.4,0.9c-6.6,1.3-12.5,4.1-17.6,7.8
		c-9-4.9-19.6-6.7-30.4-4.5c-3.2,0.7-6.3,1.7-9.2,2.9c-8.3-6.9-19.4-10.1-30.8-7.7c-15.3,3.1-26.4,15.4-28.8,30c0,0,0,0,0,0
		c-0.7,4.4-0.7,8.9,0.2,13.5c3.8,18.5,20.8,31,39.2,29.4c9.7,15.8,28.4,24.6,47.5,20.7c6.6-1.3,12.5-4.1,17.6-7.8
		c9,4.9,19.6,6.7,30.4,4.5c16-3.3,28.2-14.7,33.4-29c3.7,0.2,7.5-0.1,11.4-0.8c1.6-0.3,3.2-0.8,4.7-1.2
		c9.6,16.1,28.5,25.1,47.8,21.2c4.6-0.9,8.9-2.6,12.8-4.8c10,14.6,28,22.6,46.3,18.8C2214.1,252.6,2229.9,228.7,2224.9,204.2z"/>
	<path class="st1" d="M2171.7,168.2c-5.9,1.2-11.3,3.5-16,6.7c0.4-1.5,0.8-3.1,1.1-4.7c-10.3-12.8-27.1-19.5-44.2-16
		c-1.6,0.3-3.2,0.7-4.7,1.2c-1.1-1.8-2.3-3.5-3.5-5.1c-10.3-12.8-27.1-19.5-44.2-16c-16,3.3-28.2,14.7-33.4,29
		c-3.7-0.2-7.6,0.1-11.4,0.9c-6.6,1.3-12.5,4.1-17.6,7.8c-9-4.9-19.6-6.7-30.4-4.5c-3.2,0.7-6.3,1.7-9.2,2.9
		c-8.3-6.9-19.4-10.1-30.8-7.7c-15.3,3.1-26.4,15.4-28.8,30c8.1,10.1,21.2,15.6,34.7,13.3c10.3,11.7,26.4,17.7,42.8,14.4
		c6.6-1.3,12.5-4.1,17.6-7.8c8.2,4.4,17.7,6.3,27.5,5c1-0.1,1.9-0.3,2.9-0.5c5.1-1,9.9-2.9,14.1-5.5c9-5.4,15.8-13.8,19.3-23.5
		c2.3,0.1,4.6,0.1,7-0.2c0,0,0,0,0,0c0.7-0.1,1.3-0.2,2-0.3c0.1,0,0.2,0,0.3-0.1c0.7-0.1,1.4-0.2,2.1-0.4c3.6-0.7,7-1.9,10.1-3.4
		c-0.8,2.3-1.4,4.8-1.8,7.2c6.8,8.4,16.4,14.2,27,16.2c5.5,1,11.3,1,17.2-0.2c5.9-1.2,11.3-3.5,16-6.7c-0.4,1.5-0.8,3.1-1.1,4.7
		c10.3,12.8,27.1,19.5,44.2,16c18.8-3.8,32.4-18.9,35.4-36.8C2205.7,171.5,2188.8,164.7,2171.7,168.2z"/>
	<g>
		<g>
			
				<ellipse transform="matrix(0.9797 -0.2004 0.2004 0.9797 19.9241 446.7596)" class="st2" cx="2217.2" cy="124.9" rx="6.6" ry="6.6"/>
			
				<ellipse transform="matrix(0.9797 -0.2004 0.2004 0.9797 21.9647 445.7848)" class="st2" cx="2213.4" cy="114.4" rx="6.6" ry="6.6"/>
			
				<ellipse transform="matrix(0.9797 -0.2004 0.2004 0.9797 24.0789 445.1805)" class="st2" cx="2211.5" cy="103.6" rx="6.6" ry="6.6"/>
			
				<ellipse transform="matrix(0.9797 -0.2004 0.2004 0.9797 25.5467 444.7797)" class="st2" cx="2210.2" cy="96.2" rx="6.6" ry="6.6"/>
			
				<ellipse transform="matrix(0.9797 -0.2004 0.2004 0.9797 27.2641 444.3528)" class="st2" cx="2209" cy="87.5" rx="6.6" ry="6.6"/>
			
				<ellipse transform="matrix(0.9797 -0.2004 0.2004 0.9797 29.5003 444.4759)" class="st2" cx="2210.7" cy="76.5" rx="11.8" ry="11.9"/>
		</g>
		<g>
			
				<ellipse transform="matrix(0.4266 -0.9044 0.9044 0.4266 1176.1987 2140.9641)" class="st2" cx="2276.6" cy="142.9" rx="6.6" ry="6.6"/>
			
				<ellipse transform="matrix(0.4266 -0.9044 0.9044 0.4266 1187.7977 2137.7864)" class="st2" cx="2279.9" cy="132.1" rx="6.6" ry="6.6"/>
			
				<ellipse transform="matrix(0.4266 -0.9044 0.9044 0.4266 1199.432 2136.6172)" class="st2" cx="2284.8" cy="122.4" rx="6.6" ry="6.6"/>
			
				<ellipse transform="matrix(0.4266 -0.9044 0.9044 0.4266 1207.4921 2135.9036)" class="st2" cx="2288.2" cy="115.7" rx="6.6" ry="6.6"/>
			
				<ellipse transform="matrix(0.4266 -0.9044 0.9044 0.4266 1216.8827 2135.2888)" class="st2" cx="2292.4" cy="107.9" rx="6.6" ry="6.6"/>
			
				<ellipse transform="matrix(0.4266 -0.9044 0.9044 0.4266 1228.4696 2138.0415)" class="st2" cx="2300.4" cy="100.2" rx="11.9" ry="11.8"/>
		</g>
		<g>
			<path class="st3" d="M2204,133.2c-17.3,12.6-26.6,34.6-22.1,57c6.2,30.5,36,50.3,66.4,44c30.4-6.2,50-36,43.8-66.6
				c-0.1-0.3-0.1-0.5-0.2-0.8c-6.3,4.6-16.9-11.5-25-9.8C2236.7,163.3,2225.1,152.4,2204,133.2z"/>
			<path class="st2" d="M2225.7,123.6c-8.1,1.7-15.4,5-21.7,9.6c6.6,30.1,36,49.5,66.2,43.3c8.1-1.7,15.4-5,21.7-9.6
				C2285.3,136.8,2255.9,117.5,2225.7,123.6z"/>
		</g>
		<polygon class="st4" points="2260.8,196.6 2257.8,196.2 2259.5,182.4 2252.5,187.5 2250.9,179.7 2245.9,183.9 2242.2,176.1 
			2239.4,191.9 2236.4,191.4 2240.8,166.4 2246.9,179.1 2252.8,174.1 2254.5,182.4 2263.3,175.9 		"/>
		<path class="st5" d="M2271.1,166.7l16.4,1.8c0,0,1.1,13.1-7.8,11.8C2269.8,178.8,2271.1,166.7,2271.1,166.7z"/>
		<path class="st5" d="M2215.8,149l19.1,7.1c0,0-3.4,12.8-13.5,8.6C2210,160,2215.8,149,2215.8,149z"/>
		
			<ellipse transform="matrix(0.6107 -0.7918 0.7918 0.6107 772.1328 1846.8477)" class="st6" cx="2264.5" cy="138.1" rx="6.4" ry="14.3"/>
	</g>
</g>
<g>
	<path class="st0" d="M2686.7,204.2c-1.5-7.3-4.7-13.9-9.1-19.3c-10.3-12.8-27.1-19.5-44.2-16c-4.6,0.9-8.9,2.6-12.9,4.8
		c-0.7-1-1.3-1.9-2.1-2.8c-10.3-12.8-27.1-19.5-44.2-16c-1.6,0.3-3.2,0.7-4.7,1.2c-1.1-1.8-2.3-3.5-3.5-5.1
		c-10.3-12.8-27.1-19.5-44.2-16c-16,3.3-28.2,14.7-33.4,29c-3.7-0.2-7.6,0.1-11.4,0.9c-6.6,1.3-12.5,4.1-17.6,7.8
		c-9-4.9-19.6-6.7-30.4-4.5c-3.2,0.7-6.3,1.7-9.2,2.9c-8.3-6.9-19.4-10.1-30.8-7.7c-15.3,3.1-26.4,15.4-28.8,30c0,0,0,0,0,0
		c-0.7,4.4-0.7,8.9,0.2,13.5c3.8,18.5,20.8,31,39.2,29.4c9.7,15.8,28.4,24.6,47.5,20.7c6.6-1.3,12.5-4.1,17.6-7.8
		c9,4.9,19.6,6.7,30.4,4.5c16-3.3,28.2-14.7,33.4-29c3.7,0.2,7.5-0.1,11.4-0.8c1.6-0.3,3.2-0.8,4.7-1.2
		c9.6,16.1,28.5,25.1,47.8,21.2c4.6-0.9,8.9-2.6,12.8-4.8c10,14.6,28,22.6,46.3,18.8C2676,252.6,2691.7,228.7,2686.7,204.2z"/>
	<path class="st1" d="M2633.5,168.2c-5.9,1.2-11.3,3.5-16,6.7c0.4-1.5,0.8-3.1,1.1-4.7c-10.3-12.8-27.1-19.5-44.2-16
		c-1.6,0.3-3.2,0.7-4.7,1.2c-1.1-1.8-2.3-3.5-3.5-5.1c-10.3-12.8-27.1-19.5-44.2-16c-16,3.3-28.2,14.7-33.4,29
		c-3.7-0.2-7.6,0.1-11.4,0.9c-6.6,1.3-12.5,4.1-17.6,7.8c-9-4.9-19.6-6.7-30.4-4.5c-3.2,0.7-6.3,1.7-9.2,2.9
		c-8.3-6.9-19.4-10.1-30.8-7.7c-15.3,3.1-26.4,15.4-28.8,30c8.1,10.1,21.2,15.6,34.7,13.3c10.3,11.7,26.4,17.7,42.8,14.4
		c6.6-1.3,12.5-4.1,17.6-7.8c8.2,4.4,17.7,6.3,27.5,5c1-0.1,1.9-0.3,2.9-0.5c5.1-1,9.9-2.9,14.1-5.5c9-5.4,15.8-13.8,19.3-23.5
		c2.3,0.1,4.6,0.1,7-0.2c0,0,0,0,0,0c0.7-0.1,1.3-0.2,2-0.3c0.1,0,0.2,0,0.3-0.1c0.7-0.1,1.4-0.2,2.1-0.4c3.6-0.7,7-1.9,10.1-3.4
		c-0.8,2.3-1.4,4.8-1.8,7.2c6.8,8.4,16.4,14.2,27,16.2c5.5,1,11.3,1,17.2-0.2c5.9-1.2,11.3-3.5,16-6.7c-0.4,1.5-0.8,3.1-1.1,4.7
		c10.3,12.8,27.1,19.5,44.2,16c18.8-3.8,32.4-18.9,35.4-36.8C2667.5,171.5,2650.6,164.7,2633.5,168.2z"/>
	<g>
		<g>
			
				<ellipse transform="matrix(0.9797 -0.2004 0.2004 0.9797 29.288 539.2848)" class="st2" cx="2679" cy="124.9" rx="6.6" ry="6.6"/>
			
				<ellipse transform="matrix(0.9797 -0.2004 0.2004 0.9797 31.3287 538.3099)" class="st2" cx="2675.2" cy="114.4" rx="6.6" ry="6.6"/>
			
				<ellipse transform="matrix(0.9797 -0.2004 0.2004 0.9797 33.4428 537.7057)" class="st2" cx="2673.3" cy="103.6" rx="6.6" ry="6.6"/>
			
				<ellipse transform="matrix(0.9797 -0.2004 0.2004 0.9797 34.9106 537.3048)" class="st2" cx="2672" cy="96.2" rx="6.6" ry="6.6"/>
			
				<ellipse transform="matrix(0.9797 -0.2004 0.2004 0.9797 36.6281 536.8779)" class="st2" cx="2670.8" cy="87.5" rx="6.6" ry="6.6"/>
			
				<ellipse transform="matrix(0.9797 -0.2004 0.2004 0.9797 38.8642 537.001)" class="st2" cx="2672.5" cy="76.5" rx="11.8" ry="11.9"/>
		</g>
		<g>
			
				<ellipse transform="matrix(0.4266 -0.9044 0.9044 0.4266 1441.0018 2558.6399)" class="st2" cx="2738.4" cy="142.9" rx="6.6" ry="6.6"/>
			
				<ellipse transform="matrix(0.4266 -0.9044 0.9044 0.4266 1452.6008 2555.4622)" class="st2" cx="2741.7" cy="132.1" rx="6.6" ry="6.6"/>
			
				<ellipse transform="matrix(0.4266 -0.9044 0.9044 0.4266 1464.2352 2554.2932)" class="st2" cx="2746.6" cy="122.4" rx="6.6" ry="6.6"/>
			
				<ellipse transform="matrix(0.4266 -0.9044 0.9044 0.4266 1472.2952 2553.5793)" class="st2" cx="2750" cy="115.7" rx="6.6" ry="6.6"/>
			
				<ellipse transform="matrix(0.4266 -0.9044 0.9044 0.4266 1481.6858 2552.9646)" class="st2" cx="2754.2" cy="107.9" rx="6.6" ry="6.6"/>
			
				<ellipse transform="matrix(0.4266 -0.9044 0.9044 0.4266 1493.2727 2555.7175)" class="st2" cx="2762.2" cy="100.2" rx="11.9" ry="11.8"/>
		</g>
		<g>
			<path class="st3" d="M2665.8,133.2c-17.3,12.6-26.6,34.6-22.1,57c6.2,30.5,36,50.3,66.4,44c30.4-6.2,50-36,43.8-66.6
				c-0.1-0.3-0.1-0.5-0.2-0.8c-6.3,4.6-16.9-11.5-25-9.8C2698.5,163.3,2686.9,152.4,2665.8,133.2z"/>
			<path class="st2" d="M2687.5,123.6c-8.1,1.7-15.4,5-21.7,9.6c6.6,30.1,36,49.5,66.2,43.3c8.1-1.7,15.4-5,21.7-9.6
				C2747.1,136.8,2717.7,117.5,2687.5,123.6z"/>
		</g>
		<polygon class="st4" points="2722.6,196.6 2719.6,196.2 2721.3,182.4 2714.3,187.5 2712.7,179.7 2707.7,183.9 2704,176.1 
			2701.2,191.9 2698.2,191.4 2702.6,166.4 2708.7,179.1 2714.6,174.1 2716.3,182.4 2725.2,175.9 		"/>
		<path class="st5" d="M2732.9,166.7l16.4,1.8c0,0,1.1,13.1-7.8,11.8C2731.6,178.8,2732.9,166.7,2732.9,166.7z"/>
		<path class="st5" d="M2677.6,149l19.1,7.1c0,0-3.4,12.8-13.5,8.6C2671.8,160,2677.6,149,2677.6,149z"/>
		
			<ellipse transform="matrix(0.6107 -0.7918 0.7918 0.6107 951.8987 2212.5212)" class="st6" cx="2726.3" cy="138.1" rx="6.4" ry="14.3"/>
	</g>
</g>
<g>
	<path class="st0" d="M4995.7,204.2c-1.5-7.3-4.7-13.9-9.1-19.3c-10.3-12.8-27.1-19.5-44.2-16c-4.6,0.9-8.9,2.6-12.9,4.8
		c-0.7-1-1.3-1.9-2.1-2.8c-10.3-12.8-27.1-19.5-44.2-16c-1.6,0.3-3.2,0.7-4.7,1.2c-1.1-1.8-2.3-3.5-3.5-5.1
		c-10.3-12.8-27.1-19.5-44.2-16c-16,3.3-28.2,14.7-33.4,29c-3.7-0.2-7.6,0.1-11.4,0.9c-6.6,1.3-12.5,4.1-17.6,7.8
		c-9-4.9-19.6-6.7-30.4-4.5c-3.2,0.7-6.3,1.7-9.2,2.9c-8.3-6.9-19.4-10.1-30.8-7.7c-15.3,3.1-26.4,15.4-28.8,30c0,0,0,0,0,0
		c-0.7,4.4-0.7,8.9,0.2,13.5c3.8,18.5,20.8,31,39.2,29.4c9.7,15.8,28.4,24.6,47.5,20.7c6.6-1.3,12.5-4.1,17.6-7.8
		c9,4.9,19.6,6.7,30.4,4.5c16-3.3,28.2-14.7,33.4-29c3.7,0.2,7.5-0.1,11.4-0.8c1.6-0.3,3.2-0.8,4.7-1.2
		c9.6,16.1,28.5,25.1,47.8,21.2c4.6-0.9,8.9-2.6,12.8-4.8c10,14.6,28,22.6,46.3,18.8C4985,252.6,5000.7,228.7,4995.7,204.2z"/>
	<path class="st1" d="M4942.5,168.2c-5.9,1.2-11.3,3.5-16,6.7c0.4-1.5,0.8-3.1,1.1-4.7c-10.3-12.8-27.1-19.5-44.2-16
		c-1.6,0.3-3.2,0.7-4.7,1.2c-1.1-1.8-2.3-3.5-3.5-5.1c-10.3-12.8-27.1-19.5-44.2-16c-16,3.3-28.2,14.7-33.4,29
		c-3.7-0.2-7.6,0.1-11.4,0.9c-6.6,1.3-12.5,4.1-17.6,7.8c-9-4.9-19.6-6.7-30.4-4.5c-3.2,0.7-6.3,1.7-9.2,2.9
		c-8.3-6.9-19.4-10.1-30.8-7.7c-15.3,3.1-26.4,15.4-28.8,30c8.1,10.1,21.2,15.6,34.7,13.3c10.3,11.7,26.4,17.7,42.8,14.4
		c6.6-1.3,12.5-4.1,17.6-7.8c8.2,4.4,17.7,6.3,27.5,5c1-0.1,1.9-0.3,2.9-0.5c5.1-1,9.9-2.9,14.1-5.5c9-5.4,15.8-13.8,19.3-23.5
		c2.3,0.1,4.6,0.1,7-0.2c0,0,0,0,0,0c0.7-0.1,1.3-0.2,2-0.3c0.1,0,0.2,0,0.3-0.1c0.7-0.1,1.4-0.2,2.1-0.4c3.6-0.7,7-1.9,10.1-3.4
		c-0.8,2.3-1.4,4.8-1.8,7.2c6.8,8.4,16.4,14.2,27,16.2c5.5,1,11.3,1,17.2-0.2c5.9-1.2,11.3-3.5,16-6.7c-0.4,1.5-0.8,3.1-1.1,4.7
		c10.3,12.8,27.1,19.5,44.2,16c18.8-3.8,32.4-18.9,35.4-36.8C4976.5,171.5,4959.6,164.7,4942.5,168.2z"/>
	<g>
		<g>
			
				<ellipse transform="matrix(0.9797 -0.2004 0.2004 0.9797 76.1077 1001.9106)" class="st2" cx="4988" cy="124.9" rx="6.6" ry="6.6"/>
			
				<ellipse transform="matrix(0.9797 -0.2004 0.2004 0.9797 78.1483 1000.9357)" class="st2" cx="4984.2" cy="114.4" rx="6.6" ry="6.6"/>
			
				<ellipse transform="matrix(0.9797 -0.2004 0.2004 0.9797 80.2625 1000.3314)" class="st2" cx="4982.3" cy="103.6" rx="6.6" ry="6.6"/>
			
				<ellipse transform="matrix(0.9797 -0.2004 0.2004 0.9797 81.7303 999.9306)" class="st2" cx="4981" cy="96.2" rx="6.6" ry="6.6"/>
			
				<ellipse transform="matrix(0.9797 -0.2004 0.2004 0.9797 83.4477 999.5037)" class="st2" cx="4979.8" cy="87.5" rx="6.6" ry="6.6"/>
			
				<ellipse transform="matrix(0.9797 -0.2004 0.2004 0.9797 85.6839 999.6268)" class="st2" cx="4981.5" cy="76.5" rx="11.8" ry="11.9"/>
		</g>
		<g>
			
				<ellipse transform="matrix(0.4266 -0.9044 0.9044 0.4266 2765.0176 4647.0195)" class="st2" cx="5047.4" cy="142.9" rx="6.6" ry="6.6"/>
			
				<ellipse transform="matrix(0.4266 -0.9044 0.9044 0.4266 2776.6165 4643.8418)" class="st2" cx="5050.7" cy="132.1" rx="6.6" ry="6.6"/>
			
				<ellipse transform="matrix(0.4266 -0.9044 0.9044 0.4266 2788.251 4642.6729)" class="st2" cx="5055.6" cy="122.4" rx="6.6" ry="6.6"/>
			
				<ellipse transform="matrix(0.4266 -0.9044 0.9044 0.4266 2796.3108 4641.959)" class="st2" cx="5059.1" cy="115.7" rx="6.6" ry="6.6"/>
			
				<ellipse transform="matrix(0.4266 -0.9044 0.9044 0.4266 2805.7014 4641.3442)" class="st2" cx="5063.3" cy="107.9" rx="6.6" ry="6.6"/>
			
				<ellipse transform="matrix(0.4266 -0.9044 0.9044 0.4266 2817.2883 4644.0972)" class="st2" cx="5071.2" cy="100.2" rx="11.9" ry="11.8"/>
		</g>
		<g>
			<path class="st3" d="M4974.8,133.2c-17.3,12.6-26.6,34.6-22.1,57c6.2,30.5,36,50.3,66.4,44c30.4-6.2,50-36,43.8-66.6
				c-0.1-0.3-0.1-0.5-0.2-0.8c-6.3,4.6-16.9-11.5-25-9.8C5007.6,163.3,4995.9,152.4,4974.8,133.2z"/>
			<path class="st2" d="M4996.5,123.6c-8.1,1.7-15.4,5-21.7,9.6c6.6,30.1,36,49.5,66.2,43.3c8.1-1.7,15.4-5,21.7-9.6
				C5056.1,136.8,5026.7,117.5,4996.5,123.6z"/>
		</g>
		<polygon class="st4" points="5031.6,196.6 5028.7,196.2 5030.3,182.4 5023.3,187.5 5021.7,179.7 5016.7,183.9 5013,176.1 
			5010.2,191.9 5007.2,191.4 5011.7,166.4 5017.7,179.1 5023.6,174.1 5025.3,182.4 5034.2,175.9 		"/>
		<path class="st5" d="M5042,166.7l16.4,1.8c0,0,1.1,13.1-7.8,11.8C5040.6,178.8,5042,166.7,5042,166.7z"/>
		<path class="st5" d="M4986.7,149l19.1,7.1c0,0-3.4,12.8-13.5,8.6C4980.8,160,4986.7,149,4986.7,149z"/>
		
			<ellipse transform="matrix(0.6107 -0.7918 0.7918 0.6107 1850.7279 4040.8887)" class="st6" cx="5035.3" cy="138.1" rx="6.4" ry="14.3"/>
	</g>
</g>
<g>
	<path class="st0" d="M3148.5,204.2c-1.5-7.3-4.7-13.9-9.1-19.3c-10.3-12.8-27.1-19.5-44.2-16c-4.6,0.9-8.9,2.6-12.9,4.8
		c-0.7-1-1.3-1.9-2.1-2.8c-10.3-12.8-27.1-19.5-44.2-16c-1.6,0.3-3.2,0.7-4.7,1.2c-1.1-1.8-2.3-3.5-3.5-5.1
		c-10.3-12.8-27.1-19.5-44.2-16c-16,3.3-28.2,14.7-33.4,29c-3.7-0.2-7.6,0.1-11.4,0.9c-6.6,1.3-12.5,4.1-17.6,7.8
		c-9-4.9-19.6-6.7-30.4-4.5c-3.2,0.7-6.3,1.7-9.2,2.9c-8.3-6.9-19.4-10.1-30.8-7.7c-15.3,3.1-26.4,15.4-28.8,30c0,0,0,0,0,0
		c-0.7,4.4-0.7,8.9,0.2,13.5c3.8,18.5,20.8,31,39.2,29.4c9.7,15.8,28.4,24.6,47.5,20.7c6.6-1.3,12.5-4.1,17.6-7.8
		c9,4.9,19.6,6.7,30.4,4.5c16-3.3,28.2-14.7,33.4-29c3.7,0.2,7.5-0.1,11.4-0.8c1.6-0.3,3.2-0.8,4.7-1.2
		c9.6,16.1,28.5,25.1,47.8,21.2c4.6-0.9,8.9-2.6,12.8-4.8c10,14.6,28,22.6,46.3,18.8C3137.8,252.6,3153.5,228.7,3148.5,204.2z"/>
	<path class="st1" d="M3095.3,168.2c-5.9,1.2-11.3,3.5-16,6.7c0.4-1.5,0.8-3.1,1.1-4.7c-10.3-12.8-27.1-19.5-44.2-16
		c-1.6,0.3-3.2,0.7-4.7,1.2c-1.1-1.8-2.3-3.5-3.5-5.1c-10.3-12.8-27.1-19.5-44.2-16c-16,3.3-28.2,14.7-33.4,29
		c-3.7-0.2-7.6,0.1-11.4,0.9c-6.6,1.3-12.5,4.1-17.6,7.8c-9-4.9-19.6-6.7-30.4-4.5c-3.2,0.7-6.3,1.7-9.2,2.9
		c-8.3-6.9-19.4-10.1-30.8-7.7c-15.3,3.1-26.4,15.4-28.8,30c8.1,10.1,21.2,15.6,34.7,13.3c10.3,11.7,26.4,17.7,42.8,14.4
		c6.6-1.3,12.5-4.1,17.6-7.8c8.2,4.4,17.7,6.3,27.5,5c1-0.1,1.9-0.3,2.9-0.5c5.1-1,9.9-2.9,14.1-5.5c9-5.4,15.8-13.8,19.3-23.5
		c2.3,0.1,4.6,0.1,7-0.2c0,0,0,0,0,0c0.7-0.1,1.3-0.2,2-0.3c0.1,0,0.2,0,0.3-0.1c0.7-0.1,1.4-0.2,2.1-0.4c3.6-0.7,7-1.9,10.1-3.4
		c-0.8,2.3-1.4,4.8-1.8,7.2c6.8,8.4,16.4,14.2,27,16.2c5.5,1,11.3,1,17.2-0.2c5.9-1.2,11.3-3.5,16-6.7c-0.4,1.5-0.8,3.1-1.1,4.7
		c10.3,12.8,27.1,19.5,44.2,16c18.8-3.8,32.4-18.9,35.4-36.8C3129.3,171.5,3112.4,164.7,3095.3,168.2z"/>
	<g>
		<g>
			
				<ellipse transform="matrix(0.9797 -0.2004 0.2004 0.9797 38.6519 631.81)" class="st2" cx="3140.8" cy="124.9" rx="6.6" ry="6.6"/>
			
				<ellipse transform="matrix(0.9797 -0.2004 0.2004 0.9797 40.6926 630.8351)" class="st2" cx="3137" cy="114.4" rx="6.6" ry="6.6"/>
			
				<ellipse transform="matrix(0.9797 -0.2004 0.2004 0.9797 42.8067 630.2308)" class="st2" cx="3135.1" cy="103.6" rx="6.6" ry="6.6"/>
			
				<ellipse transform="matrix(0.9797 -0.2004 0.2004 0.9797 44.2746 629.83)" class="st2" cx="3133.8" cy="96.2" rx="6.6" ry="6.6"/>
			
				<ellipse transform="matrix(0.9797 -0.2004 0.2004 0.9797 45.992 629.4031)" class="st2" cx="3132.6" cy="87.5" rx="6.6" ry="6.6"/>
			
				<ellipse transform="matrix(0.9797 -0.2004 0.2004 0.9797 48.2281 629.5262)" class="st2" cx="3134.3" cy="76.5" rx="11.8" ry="11.9"/>
		</g>
		<g>
			
				<ellipse transform="matrix(0.4266 -0.9044 0.9044 0.4266 1705.8049 2976.3159)" class="st2" cx="3200.2" cy="142.9" rx="6.6" ry="6.6"/>
			
				<ellipse transform="matrix(0.4266 -0.9044 0.9044 0.4266 1717.4041 2973.1382)" class="st2" cx="3203.5" cy="132.1" rx="6.6" ry="6.6"/>
			
				<ellipse transform="matrix(0.4266 -0.9044 0.9044 0.4266 1729.0383 2971.969)" class="st2" cx="3208.4" cy="122.4" rx="6.6" ry="6.6"/>
			
				<ellipse transform="matrix(0.4266 -0.9044 0.9044 0.4266 1737.0983 2971.2554)" class="st2" cx="3211.8" cy="115.7" rx="6.6" ry="6.6"/>
			
				<ellipse transform="matrix(0.4266 -0.9044 0.9044 0.4266 1746.4889 2970.6406)" class="st2" cx="3216.1" cy="107.9" rx="6.6" ry="6.6"/>
			
				<ellipse transform="matrix(0.4266 -0.9044 0.9044 0.4266 1758.0758 2973.3936)" class="st2" cx="3224" cy="100.2" rx="11.9" ry="11.8"/>
		</g>
		<g>
			<path class="st3" d="M3127.6,133.2c-17.3,12.6-26.6,34.6-22.1,57c6.2,30.5,36,50.3,66.4,44c30.4-6.2,50-36,43.8-66.6
				c-0.1-0.3-0.1-0.5-0.2-0.8c-6.3,4.6-16.9-11.5-25-9.8C3160.3,163.3,3148.7,152.4,3127.6,133.2z"/>
			<path class="st2" d="M3149.3,123.6c-8.1,1.7-15.4,5-21.7,9.6c6.6,30.1,36,49.5,66.2,43.3c8.1-1.7,15.4-5,21.7-9.6
				C3208.9,136.8,3179.5,117.5,3149.3,123.6z"/>
		</g>
		<polygon class="st7" points="3183.9,190.4 3162.9,185.9 3164.4,166.4 3170.5,179.1 3176.4,174.1 3178.1,182.4 3187,175.9 		"/>
		<polygon class="st4" points="3184.4,196.6 3181.4,196.2 3183.1,182.4 3176.1,187.5 3174.5,179.7 3169.5,183.9 3165.8,176.1 
			3163,191.9 3160,191.4 3164.4,166.4 3170.5,179.1 3176.4,174.1 3178.1,182.4 3187,175.9 		"/>
		<path class="st5" d="M3194.7,166.7l16.4,1.8c0,0,1.1,13.1-7.8,11.8C3193.4,178.8,3194.7,166.7,3194.7,166.7z"/>
		<path class="st5" d="M3139.5,149l19.1,7.1c0,0-3.4,12.8-13.5,8.6C3133.6,160,3139.5,149,3139.5,149z"/>
		
			<ellipse transform="matrix(0.6107 -0.7918 0.7918 0.6107 1131.6646 2578.1946)" class="st6" cx="3188.1" cy="138.1" rx="6.4" ry="14.3"/>
	</g>
</g>
<g>
	<path class="st0" d="M4533.9,204.2c-1.5-7.3-4.7-13.9-9.1-19.3c-10.3-12.8-27.1-19.5-44.2-16c-4.6,0.9-8.9,2.6-12.9,4.8
		c-0.7-1-1.3-1.9-2.1-2.8c-10.3-12.8-27.1-19.5-44.2-16c-1.6,0.3-3.2,0.7-4.7,1.2c-1.1-1.8-2.3-3.5-3.5-5.1
		c-10.3-12.8-27.1-19.5-44.2-16c-16,3.3-28.2,14.7-33.4,29c-3.7-0.2-7.6,0.1-11.4,0.9c-6.6,1.3-12.5,4.1-17.6,7.8
		c-9-4.9-19.6-6.7-30.4-4.5c-3.2,0.7-6.3,1.7-9.2,2.9c-8.3-6.9-19.4-10.1-30.8-7.7c-15.3,3.1-26.4,15.4-28.8,30c0,0,0,0,0,0
		c-0.7,4.4-0.7,8.9,0.2,13.5c3.8,18.5,20.8,31,39.2,29.4c9.7,15.8,28.4,24.6,47.5,20.7c6.6-1.3,12.5-4.1,17.6-7.8
		c9,4.9,19.6,6.7,30.4,4.5c16-3.3,28.2-14.7,33.4-29c3.7,0.2,7.5-0.1,11.4-0.8c1.6-0.3,3.2-0.8,4.7-1.2
		c9.6,16.1,28.5,25.1,47.8,21.2c4.6-0.9,8.9-2.6,12.8-4.8c10,14.6,28,22.6,46.3,18.8C4523.2,252.6,4538.9,228.7,4533.9,204.2z"/>
	<path class="st1" d="M4480.7,168.2c-5.9,1.2-11.3,3.5-16,6.7c0.4-1.5,0.8-3.1,1.1-4.7c-10.3-12.8-27.1-19.5-44.2-16
		c-1.6,0.3-3.2,0.7-4.7,1.2c-1.1-1.8-2.3-3.5-3.5-5.1c-10.3-12.8-27.1-19.5-44.2-16c-16,3.3-28.2,14.7-33.4,29
		c-3.7-0.2-7.6,0.1-11.4,0.9c-6.6,1.3-12.5,4.1-17.6,7.8c-9-4.9-19.6-6.7-30.4-4.5c-3.2,0.7-6.3,1.7-9.2,2.9
		c-8.3-6.9-19.4-10.1-30.8-7.7c-15.3,3.1-26.4,15.4-28.8,30c8.1,10.1,21.2,15.6,34.7,13.3c10.3,11.7,26.4,17.7,42.8,14.4
		c6.6-1.3,12.5-4.1,17.6-7.8c8.2,4.4,17.7,6.3,27.5,5c1-0.1,1.9-0.3,2.9-0.5c5.1-1,9.9-2.9,14.1-5.5c9-5.4,15.8-13.8,19.3-23.5
		c2.3,0.1,4.6,0.1,7-0.2c0,0,0,0,0,0c0.7-0.1,1.3-0.2,2-0.3c0.1,0,0.2,0,0.3-0.1c0.7-0.1,1.4-0.2,2.1-0.4c3.6-0.7,7-1.9,10.1-3.4
		c-0.8,2.3-1.4,4.8-1.8,7.2c6.8,8.4,16.4,14.2,27,16.2c5.5,1,11.3,1,17.2-0.2c5.9-1.2,11.3-3.5,16-6.7c-0.4,1.5-0.8,3.1-1.1,4.7
		c10.3,12.8,27.1,19.5,44.2,16c18.8-3.8,32.4-18.9,35.4-36.8C4514.7,171.5,4497.8,164.7,4480.7,168.2z"/>
	<g>
		<g>
			
				<ellipse transform="matrix(0.9797 -0.2004 0.2004 0.9797 66.7437 909.3854)" class="st2" cx="4526.2" cy="124.9" rx="6.6" ry="6.6"/>
			
				<ellipse transform="matrix(0.9797 -0.2004 0.2004 0.9797 68.7844 908.4106)" class="st2" cx="4522.4" cy="114.4" rx="6.6" ry="6.6"/>
			
				<ellipse transform="matrix(0.9797 -0.2004 0.2004 0.9797 70.8985 907.8063)" class="st2" cx="4520.5" cy="103.6" rx="6.6" ry="6.6"/>
			
				<ellipse transform="matrix(0.9797 -0.2004 0.2004 0.9797 72.3664 907.4055)" class="st2" cx="4519.2" cy="96.2" rx="6.6" ry="6.6"/>
			
				<ellipse transform="matrix(0.9797 -0.2004 0.2004 0.9797 74.0838 906.9786)" class="st2" cx="4518" cy="87.5" rx="6.6" ry="6.6"/>
			
				<ellipse transform="matrix(0.9797 -0.2004 0.2004 0.9797 76.3199 907.1017)" class="st2" cx="4519.7" cy="76.5" rx="11.8" ry="11.9"/>
		</g>
		<g>
			
				<ellipse transform="matrix(0.4266 -0.9044 0.9044 0.4266 2500.2144 4229.3438)" class="st2" cx="4585.6" cy="142.9" rx="6.6" ry="6.6"/>
			
				<ellipse transform="matrix(0.4266 -0.9044 0.9044 0.4266 2511.8135 4226.166)" class="st2" cx="4588.9" cy="132.1" rx="6.6" ry="6.6"/>
			
				<ellipse transform="matrix(0.4266 -0.9044 0.9044 0.4266 2523.4478 4224.9971)" class="st2" cx="4593.8" cy="122.4" rx="6.6" ry="6.6"/>
			
				<ellipse transform="matrix(0.4266 -0.9044 0.9044 0.4266 2531.5078 4224.2832)" class="st2" cx="4597.2" cy="115.7" rx="6.6" ry="6.6"/>
			
				<ellipse transform="matrix(0.4266 -0.9044 0.9044 0.4266 2540.8984 4223.6685)" class="st2" cx="4601.5" cy="107.9" rx="6.6" ry="6.6"/>
			
				<ellipse transform="matrix(0.4266 -0.9044 0.9044 0.4266 2552.4854 4226.4214)" class="st2" cx="4609.4" cy="100.2" rx="11.9" ry="11.8"/>
		</g>
		<g>
			<path class="st3" d="M4513,133.2c-17.3,12.6-26.6,34.6-22.1,57c6.2,30.5,36,50.3,66.4,44c30.4-6.2,50-36,43.8-66.6
				c-0.1-0.3-0.1-0.5-0.2-0.8c-6.3,4.6-16.9-11.5-25-9.8C4545.8,163.3,4534.1,152.4,4513,133.2z"/>
			<path class="st2" d="M4534.7,123.6c-8.1,1.7-15.4,5-21.7,9.6c6.6,30.1,36,49.5,66.2,43.3c8.1-1.7,15.4-5,21.7-9.6
				C4594.3,136.8,4564.9,117.5,4534.7,123.6z"/>
		</g>
		<polygon class="st7" points="4569.3,190.4 4548.3,185.9 4549.8,166.4 4555.9,179.1 4561.8,174.1 4563.5,182.4 4572.4,175.9 		"/>
		<polygon class="st4" points="4569.8,196.6 4566.9,196.2 4568.5,182.4 4561.5,187.5 4559.9,179.7 4554.9,183.9 4551.2,176.1 
			4548.4,191.9 4545.4,191.4 4549.8,166.4 4555.9,179.1 4561.8,174.1 4563.5,182.4 4572.4,175.9 		"/>
		<path class="st5" d="M4580.2,166.7l16.4,1.8c0,0,1.1,13.1-7.8,11.8C4578.8,178.8,4580.2,166.7,4580.2,166.7z"/>
		<path class="st5" d="M4524.9,149l19.1,7.1c0,0-3.4,12.8-13.5,8.6C4519,160,4524.9,149,4524.9,149z"/>
		
			<ellipse transform="matrix(0.6107 -0.7918 0.7918 0.6107 1670.962 3675.2153)" class="st6" cx="4573.5" cy="138.1" rx="6.4" ry="14.3"/>
	</g>
</g>
<g>
	<path class="st0" d="M3610.3,204.2c-1.5-7.3-4.7-13.9-9.1-19.3c-10.3-12.8-27.1-19.5-44.2-16c-4.6,0.9-8.9,2.6-12.9,4.8
		c-0.7-1-1.3-1.9-2.1-2.8c-10.3-12.8-27.1-19.5-44.2-16c-1.6,0.3-3.2,0.7-4.7,1.2c-1.1-1.8-2.3-3.5-3.5-5.1
		c-10.3-12.8-27.1-19.5-44.2-16c-16,3.3-28.2,14.7-33.4,29c-3.7-0.2-7.6,0.1-11.4,0.9c-6.6,1.3-12.5,4.1-17.6,7.8
		c-9-4.9-19.6-6.7-30.4-4.5c-3.2,0.7-6.3,1.7-9.2,2.9c-8.3-6.9-19.4-10.1-30.8-7.7c-15.3,3.1-26.4,15.4-28.8,30c0,0,0,0,0,0
		c-0.7,4.4-0.7,8.9,0.2,13.5c3.8,18.5,20.8,31,39.2,29.4c9.7,15.8,28.4,24.6,47.5,20.7c6.6-1.3,12.5-4.1,17.6-7.8
		c9,4.9,19.6,6.7,30.4,4.5c16-3.3,28.2-14.7,33.4-29c3.7,0.2,7.5-0.1,11.4-0.8c1.6-0.3,3.2-0.8,4.7-1.2
		c9.6,16.1,28.5,25.1,47.8,21.2c4.6-0.9,8.9-2.6,12.8-4.8c10,14.6,28,22.6,46.3,18.8C3599.6,252.6,3615.3,228.7,3610.3,204.2z"/>
	<path class="st1" d="M3557.1,168.2c-5.9,1.2-11.3,3.5-16,6.7c0.4-1.5,0.8-3.1,1.1-4.7c-10.3-12.8-27.1-19.5-44.2-16
		c-1.6,0.3-3.2,0.7-4.7,1.2c-1.1-1.8-2.3-3.5-3.5-5.1c-10.3-12.8-27.1-19.5-44.2-16c-16,3.3-28.2,14.7-33.4,29
		c-3.7-0.2-7.6,0.1-11.4,0.9c-6.6,1.3-12.5,4.1-17.6,7.8c-9-4.9-19.6-6.7-30.4-4.5c-3.2,0.7-6.3,1.7-9.2,2.9
		c-8.3-6.9-19.4-10.1-30.8-7.7c-15.3,3.1-26.4,15.4-28.8,30c8.1,10.1,21.2,15.6,34.7,13.3c10.3,11.7,26.4,17.7,42.8,14.4
		c6.6-1.3,12.5-4.1,17.6-7.8c8.2,4.4,17.7,6.3,27.5,5c1-0.1,1.9-0.3,2.9-0.5c5.1-1,9.9-2.9,14.1-5.5c9-5.4,15.8-13.8,19.3-23.5
		c2.3,0.1,4.6,0.1,7-0.2c0,0,0,0,0,0c0.7-0.1,1.3-0.2,2-0.3c0.1,0,0.2,0,0.3-0.1c0.7-0.1,1.4-0.2,2.1-0.4c3.6-0.7,7-1.9,10.1-3.4
		c-0.8,2.3-1.4,4.8-1.8,7.2c6.8,8.4,16.4,14.2,27,16.2c5.5,1,11.3,1,17.2-0.2c5.9-1.2,11.3-3.5,16-6.7c-0.4,1.5-0.8,3.1-1.1,4.7
		c10.3,12.8,27.1,19.5,44.2,16c18.8-3.8,32.4-18.9,35.4-36.8C3591.1,171.5,3574.2,164.7,3557.1,168.2z"/>
	<g>
		<g>
			
				<ellipse transform="matrix(0.9797 -0.2004 0.2004 0.9797 48.0159 724.3351)" class="st2" cx="3602.6" cy="124.9" rx="6.6" ry="6.6"/>
			
				<ellipse transform="matrix(0.9797 -0.2004 0.2004 0.9797 50.0565 723.3603)" class="st2" cx="3598.8" cy="114.4" rx="6.6" ry="6.6"/>
			
				<ellipse transform="matrix(0.9797 -0.2004 0.2004 0.9797 52.1707 722.756)" class="st2" cx="3596.9" cy="103.6" rx="6.6" ry="6.6"/>
			
				<ellipse transform="matrix(0.9797 -0.2004 0.2004 0.9797 53.6385 722.3551)" class="st2" cx="3595.6" cy="96.2" rx="6.6" ry="6.6"/>
			
				<ellipse transform="matrix(0.9797 -0.2004 0.2004 0.9797 55.3559 721.9282)" class="st2" cx="3594.4" cy="87.5" rx="6.6" ry="6.6"/>
			
				<ellipse transform="matrix(0.9797 -0.2004 0.2004 0.9797 57.5921 722.0513)" class="st2" cx="3596.1" cy="76.5" rx="11.8" ry="11.9"/>
		</g>
		<g>
			
				<ellipse transform="matrix(0.4266 -0.9044 0.9044 0.4266 1970.6082 3393.9917)" class="st2" cx="3662" cy="142.9" rx="6.6" ry="6.6"/>
			
				<ellipse transform="matrix(0.4266 -0.9044 0.9044 0.4266 1982.2072 3390.8142)" class="st2" cx="3665.3" cy="132.1" rx="6.6" ry="6.6"/>
			
				<ellipse transform="matrix(0.4266 -0.9044 0.9044 0.4266 1993.8414 3389.645)" class="st2" cx="3670.2" cy="122.4" rx="6.6" ry="6.6"/>
			
				<ellipse transform="matrix(0.4266 -0.9044 0.9044 0.4266 2001.9014 3388.9312)" class="st2" cx="3673.6" cy="115.7" rx="6.6" ry="6.6"/>
			
				<ellipse transform="matrix(0.4266 -0.9044 0.9044 0.4266 2011.2921 3388.3167)" class="st2" cx="3677.9" cy="107.9" rx="6.6" ry="6.6"/>
			
				<ellipse transform="matrix(0.4266 -0.9044 0.9044 0.4266 2022.879 3391.0693)" class="st2" cx="3685.8" cy="100.2" rx="11.9" ry="11.8"/>
		</g>
		<g>
			<path class="st3" d="M3589.4,133.2c-17.3,12.6-26.6,34.6-22.1,57c6.2,30.5,36,50.3,66.4,44c30.4-6.2,50-36,43.8-66.6
				c-0.1-0.3-0.1-0.5-0.2-0.8c-6.3,4.6-16.9-11.5-25-9.8C3622.2,163.3,3610.5,152.4,3589.4,133.2z"/>
			<path class="st2" d="M3611.1,123.6c-8.1,1.7-15.4,5-21.7,9.6c6.6,30.1,36,49.5,66.2,43.3c8.1-1.7,15.4-5,21.7-9.6
				C3670.7,136.8,3641.3,117.5,3611.1,123.6z"/>
		</g>
		<polygon class="st7" points="3646.2,196.6 3621.8,191.4 3626.2,166.4 3632.3,179.1 3638.2,174.1 3639.9,182.4 3648.8,175.9 		"/>
		<polygon class="st4" points="3646.2,196.6 3643.2,196.2 3644.9,182.4 3637.9,187.5 3636.3,179.7 3631.3,183.9 3627.6,176.1 
			3624.8,191.9 3621.8,191.4 3626.2,166.4 3632.3,179.1 3638.2,174.1 3639.9,182.4 3648.8,175.9 		"/>
		<path class="st5" d="M3656.5,166.7l16.4,1.8c0,0,1.1,13.1-7.8,11.8C3655.2,178.8,3656.5,166.7,3656.5,166.7z"/>
		<path class="st5" d="M3601.3,149l19.1,7.1c0,0-3.4,12.8-13.5,8.6C3595.4,160,3601.3,149,3601.3,149z"/>
		
			<ellipse transform="matrix(0.6107 -0.7918 0.7918 0.6107 1311.4304 2943.8682)" class="st6" cx="3649.9" cy="138.1" rx="6.4" ry="14.3"/>
	</g>
</g>
<g>
	<path class="st0" d="M4072.1,204.2c-1.5-7.3-4.7-13.9-9.1-19.3c-10.3-12.8-27.1-19.5-44.2-16c-4.6,0.9-8.9,2.6-12.9,4.8
		c-0.7-1-1.3-1.9-2.1-2.8c-10.3-12.8-27.1-19.5-44.2-16c-1.6,0.3-3.2,0.7-4.7,1.2c-1.1-1.8-2.3-3.5-3.5-5.1
		c-10.3-12.8-27.1-19.5-44.2-16c-16,3.3-28.2,14.7-33.4,29c-3.7-0.2-7.6,0.1-11.4,0.9c-6.6,1.3-12.5,4.1-17.6,7.8
		c-9-4.9-19.6-6.7-30.4-4.5c-3.2,0.7-6.3,1.7-9.2,2.9c-8.3-6.9-19.4-10.1-30.8-7.7c-15.3,3.1-26.4,15.4-28.8,30c0,0,0,0,0,0
		c-0.7,4.4-0.7,8.9,0.2,13.5c3.8,18.5,20.8,31,39.2,29.4c9.7,15.8,28.4,24.6,47.5,20.7c6.6-1.3,12.5-4.1,17.6-7.8
		c9,4.9,19.6,6.7,30.4,4.5c16-3.3,28.2-14.7,33.4-29c3.7,0.2,7.5-0.1,11.4-0.8c1.6-0.3,3.2-0.8,4.7-1.2
		c9.6,16.1,28.5,25.1,47.8,21.2c4.6-0.9,8.9-2.6,12.8-4.8c10,14.6,28,22.6,46.3,18.8C4061.4,252.6,4077.1,228.7,4072.1,204.2z"/>
	<path class="st1" d="M4018.9,168.2c-5.9,1.2-11.3,3.5-16,6.7c0.4-1.5,0.8-3.1,1.1-4.7c-10.3-12.8-27.1-19.5-44.2-16
		c-1.6,0.3-3.2,0.7-4.7,1.2c-1.1-1.8-2.3-3.5-3.5-5.1c-10.3-12.8-27.1-19.5-44.2-16c-16,3.3-28.2,14.7-33.4,29
		c-3.7-0.2-7.6,0.1-11.4,0.9c-6.6,1.3-12.5,4.1-17.6,7.8c-9-4.9-19.6-6.7-30.4-4.5c-3.2,0.7-6.3,1.7-9.2,2.9
		c-8.3-6.9-19.4-10.1-30.8-7.7c-15.3,3.1-26.4,15.4-28.8,30c8.1,10.1,21.2,15.6,34.7,13.3c10.3,11.7,26.4,17.7,42.8,14.4
		c6.6-1.3,12.5-4.1,17.6-7.8c8.2,4.4,17.7,6.3,27.5,5c1-0.1,1.9-0.3,2.9-0.5c5.1-1,9.9-2.9,14.1-5.5c9-5.4,15.8-13.8,19.3-23.5
		c2.3,0.1,4.6,0.1,7-0.2c0,0,0,0,0,0c0.7-0.1,1.3-0.2,2-0.3c0.1,0,0.2,0,0.3-0.1c0.7-0.1,1.4-0.2,2.1-0.4c3.6-0.7,7-1.9,10.1-3.4
		c-0.8,2.3-1.4,4.8-1.8,7.2c6.8,8.4,16.4,14.2,27,16.2c5.5,1,11.3,1,17.2-0.2c5.9-1.2,11.3-3.5,16-6.7c-0.4,1.5-0.8,3.1-1.1,4.7
		c10.3,12.8,27.1,19.5,44.2,16c18.8-3.8,32.4-18.9,35.4-36.8C4052.9,171.5,4036,164.7,4018.9,168.2z"/>
	<g>
		<g>
			
				<ellipse transform="matrix(0.9797 -0.2004 0.2004 0.9797 57.3798 816.8603)" class="st2" cx="4064.4" cy="124.9" rx="6.6" ry="6.6"/>
			
				<ellipse transform="matrix(0.9797 -0.2004 0.2004 0.9797 59.4205 815.8854)" class="st2" cx="4060.6" cy="114.4" rx="6.6" ry="6.6"/>
			
				<ellipse transform="matrix(0.9797 -0.2004 0.2004 0.9797 61.5346 815.2811)" class="st2" cx="4058.7" cy="103.6" rx="6.6" ry="6.6"/>
			
				<ellipse transform="matrix(0.9797 -0.2004 0.2004 0.9797 63.0024 814.8803)" class="st2" cx="4057.4" cy="96.2" rx="6.6" ry="6.6"/>
			
				<ellipse transform="matrix(0.9797 -0.2004 0.2004 0.9797 64.7199 814.4534)" class="st2" cx="4056.2" cy="87.5" rx="6.6" ry="6.6"/>
			
				<ellipse transform="matrix(0.9797 -0.2004 0.2004 0.9797 66.956 814.5765)" class="st2" cx="4057.9" cy="76.5" rx="11.8" ry="11.9"/>
		</g>
		<g>
			
				<ellipse transform="matrix(0.4266 -0.9044 0.9044 0.4266 2235.4114 3811.6677)" class="st2" cx="4123.8" cy="142.9" rx="6.6" ry="6.6"/>
			
				<ellipse transform="matrix(0.4266 -0.9044 0.9044 0.4266 2247.0103 3808.49)" class="st2" cx="4127.1" cy="132.1" rx="6.6" ry="6.6"/>
			
				<ellipse transform="matrix(0.4266 -0.9044 0.9044 0.4266 2258.6445 3807.321)" class="st2" cx="4132" cy="122.4" rx="6.6" ry="6.6"/>
			
				<ellipse transform="matrix(0.4266 -0.9044 0.9044 0.4266 2266.7046 3806.6072)" class="st2" cx="4135.4" cy="115.7" rx="6.6" ry="6.6"/>
			
				<ellipse transform="matrix(0.4266 -0.9044 0.9044 0.4266 2276.0952 3805.9924)" class="st2" cx="4139.7" cy="107.9" rx="6.6" ry="6.6"/>
			
				<ellipse transform="matrix(0.4266 -0.9044 0.9044 0.4266 2287.6821 3808.7454)" class="st2" cx="4147.6" cy="100.2" rx="11.9" ry="11.8"/>
		</g>
		<g>
			<path class="st3" d="M4051.2,133.2c-17.3,12.6-26.6,34.6-22.1,57c6.2,30.5,36,50.3,66.4,44c30.4-6.2,50-36,43.8-66.6
				c-0.1-0.3-0.1-0.5-0.2-0.8c-6.3,4.6-16.9-11.5-25-9.8C4084,163.3,4072.3,152.4,4051.2,133.2z"/>
			<path class="st2" d="M4072.9,123.6c-8.1,1.7-15.4,5-21.7,9.6c6.6,30.1,36,49.5,66.2,43.3c8.1-1.7,15.4-5,21.7-9.6
				C4132.5,136.8,4103.1,117.5,4072.9,123.6z"/>
		</g>
		<polygon class="st7" points="4108,196.6 4083.6,191.4 4088,166.4 4094.1,179.1 4100,174.1 4101.7,182.4 4110.6,175.9 		"/>
		<polygon class="st4" points="4108,196.6 4105,196.2 4106.7,182.4 4099.7,187.5 4098.1,179.7 4093.1,183.9 4089.4,176.1 
			4086.6,191.9 4083.6,191.4 4088,166.4 4094.1,179.1 4100,174.1 4101.7,182.4 4110.6,175.9 		"/>
		<path class="st5" d="M4118.4,166.7l16.4,1.8c0,0,1.1,13.1-7.8,11.8C4117,178.8,4118.4,166.7,4118.4,166.7z"/>
		<path class="st5" d="M4063.1,149l19.1,7.1c0,0-3.4,12.8-13.5,8.6C4057.2,160,4063.1,149,4063.1,149z"/>
		
			<ellipse transform="matrix(0.6107 -0.7918 0.7918 0.6107 1491.1962 3309.5417)" class="st6" cx="4111.7" cy="138.1" rx="6.4" ry="14.3"/>
	</g>
</g>
<g>
	<path class="st0" d="M839.4,204.2c-1.5-7.3-4.7-13.9-9.1-19.3c-10.3-12.8-27.1-19.5-44.2-16c-4.6,0.9-8.9,2.6-12.9,4.8
		c-0.7-1-1.3-1.9-2.1-2.8c-10.3-12.8-27.1-19.5-44.2-16c-1.6,0.3-3.2,0.7-4.7,1.2c-1.1-1.8-2.3-3.5-3.5-5.1
		c-10.3-12.8-27.1-19.5-44.2-16c-16,3.3-28.2,14.7-33.4,29c-3.7-0.2-7.6,0.1-11.4,0.9c-6.6,1.3-12.5,4.1-17.6,7.8
		c-9-4.9-19.6-6.7-30.4-4.5c-3.2,0.7-6.3,1.7-9.2,2.9c-8.3-6.9-19.4-10.1-30.8-7.7c-15.3,3.1-26.4,15.4-28.8,30c0,0,0,0,0,0
		c-0.7,4.4-0.7,8.9,0.2,13.5c3.8,18.5,20.8,31,39.2,29.4c9.7,15.8,28.4,24.6,47.5,20.7c6.6-1.3,12.5-4.1,17.6-7.8
		c9,4.9,19.6,6.7,30.4,4.5c16-3.3,28.2-14.7,33.4-29c3.7,0.2,7.5-0.1,11.4-0.8c1.6-0.3,3.2-0.8,4.7-1.2
		c9.6,16.1,28.5,25.1,47.8,21.2c4.6-0.9,8.9-2.6,12.8-4.8c10,14.6,28,22.6,46.3,18.8C828.7,252.6,844.5,228.7,839.4,204.2z"/>
	<path class="st1" d="M786.3,168.2c-5.9,1.2-11.3,3.5-16,6.7c0.4-1.5,0.8-3.1,1.1-4.7c-10.3-12.8-27.1-19.5-44.2-16
		c-1.6,0.3-3.2,0.7-4.7,1.2c-1.1-1.8-2.3-3.5-3.5-5.1c-10.3-12.8-27.1-19.5-44.2-16c-16,3.3-28.2,14.7-33.4,29
		c-3.7-0.2-7.6,0.1-11.4,0.9c-6.6,1.3-12.5,4.1-17.6,7.8c-9-4.9-19.6-6.7-30.4-4.5c-3.2,0.7-6.3,1.7-9.2,2.9
		c-8.3-6.9-19.4-10.1-30.8-7.7c-15.3,3.1-26.4,15.4-28.8,30c8.1,10.1,21.2,15.6,34.7,13.3c10.3,11.7,26.4,17.7,42.8,14.4
		c6.6-1.3,12.5-4.1,17.6-7.8c8.2,4.4,17.7,6.3,27.5,5c1-0.1,1.9-0.3,2.9-0.5c5.1-1,9.9-2.9,14.1-5.5c9-5.4,15.8-13.8,19.3-23.5
		c2.3,0.1,4.6,0.1,7-0.2c0,0,0,0,0,0c0.7-0.1,1.3-0.2,2-0.3c0.1,0,0.2,0,0.3-0.1c0.7-0.1,1.4-0.2,2.1-0.4c3.6-0.7,7-1.9,10.1-3.4
		c-0.8,2.3-1.4,4.8-1.8,7.2c6.8,8.4,16.4,14.2,27,16.2c5.5,1,11.3,1,17.2-0.2c5.9-1.2,11.3-3.5,16-6.7c-0.4,1.5-0.8,3.1-1.1,4.7
		c10.3,12.8,27.1,19.5,44.2,16c18.8-3.8,32.4-18.9,35.4-36.8C820.2,171.5,803.4,164.7,786.3,168.2z"/>
	<g>
		<g>
			
				<ellipse transform="matrix(0.9797 -0.2004 0.2004 0.9797 -8.1677 169.1842)" class="st2" cx="831.8" cy="124.9" rx="6.6" ry="6.6"/>
			
				<ellipse transform="matrix(0.9797 -0.2004 0.2004 0.9797 -6.1271 168.2093)" class="st2" cx="828" cy="114.4" rx="6.6" ry="6.6"/>
			<ellipse transform="matrix(0.9797 -0.2004 0.2004 0.9797 -4.0129 167.605)" class="st2" cx="826" cy="103.6" rx="6.6" ry="6.6"/>
			
				<ellipse transform="matrix(0.9797 -0.2004 0.2004 0.9797 -2.5451 167.2042)" class="st2" cx="824.8" cy="96.2" rx="6.6" ry="6.6"/>
			
				<ellipse transform="matrix(0.9797 -0.2004 0.2004 0.9797 -0.8277 166.7773)" class="st2" cx="823.6" cy="87.5" rx="6.6" ry="6.6"/>
			
				<ellipse transform="matrix(0.9797 -0.2004 0.2004 0.9797 1.4085 166.9004)" class="st2" cx="825.3" cy="76.5" rx="11.8" ry="11.9"/>
		</g>
		<g>
			
				<ellipse transform="matrix(0.4266 -0.9044 0.9044 0.4266 381.7893 887.9363)" class="st2" cx="891.2" cy="142.9" rx="6.6" ry="6.6"/>
			
				<ellipse transform="matrix(0.4266 -0.9044 0.9044 0.4266 393.3883 884.7586)" class="st2" cx="894.5" cy="132.1" rx="6.6" ry="6.6"/>
			
				<ellipse transform="matrix(0.4266 -0.9044 0.9044 0.4266 405.0226 883.5895)" class="st2" cx="899.4" cy="122.4" rx="6.6" ry="6.6"/>
			
				<ellipse transform="matrix(0.4266 -0.9044 0.9044 0.4266 413.0826 882.8757)" class="st2" cx="902.8" cy="115.7" rx="6.6" ry="6.6"/>
			
				<ellipse transform="matrix(0.4266 -0.9044 0.9044 0.4266 422.4732 882.261)" class="st2" cx="907" cy="107.9" rx="6.6" ry="6.6"/>
			
				<ellipse transform="matrix(0.4266 -0.9044 0.9044 0.4266 434.0602 885.0139)" class="st2" cx="915" cy="100.2" rx="11.9" ry="11.8"/>
		</g>
		<g>
			<path class="st3" d="M818.6,133.2c-17.3,12.6-26.6,34.6-22.1,57c6.2,30.5,36,50.3,66.4,44c30.4-6.2,50-36,43.8-66.6
				c-0.1-0.3-0.1-0.5-0.2-0.8c-6.3,4.6-16.9-11.5-25-9.8C851.3,163.3,839.7,152.4,818.6,133.2z"/>
			<path class="st2" d="M840.3,123.6c-8.1,1.7-15.4,5-21.7,9.6c6.6,30.1,36,49.5,66.2,43.3c8.1-1.7,15.4-5,21.7-9.6
				C899.9,136.8,870.5,117.5,840.3,123.6z"/>
		</g>
		<polygon class="st4" points="875.4,196.6 872.4,196.2 874.1,182.4 867.1,187.5 865.4,179.7 860.5,183.9 856.8,176.1 854,191.9 
			851,191.4 855.4,166.4 861.5,179.1 867.4,174.1 869.1,182.4 877.9,175.9 		"/>
		<path class="st5" d="M885.7,171.9l16.4,1.8c0,0,1.1,7.9-7.8,6.6C884.4,178.8,885.7,171.9,885.7,171.9z"/>
		<path class="st5" d="M828.8,153.7l19.1,7.1c0,0-1.8,8.1-11.9,3.9C824.6,160,828.8,153.7,828.8,153.7z"/>
		
			<ellipse transform="matrix(0.6107 -0.7918 0.7918 0.6107 232.8353 749.827)" class="st6" cx="879.1" cy="138.1" rx="6.4" ry="14.3"/>
	</g>
</g>
<g>
	<path class="st0" d="M1763,204.2c-1.5-7.3-4.7-13.9-9.1-19.3c-10.3-12.8-27.1-19.5-44.2-16c-4.6,0.9-8.9,2.6-12.9,4.8
		c-0.7-1-1.3-1.9-2.1-2.8c-10.3-12.8-27.1-19.5-44.2-16c-1.6,0.3-3.2,0.7-4.7,1.2c-1.1-1.8-2.3-3.5-3.5-5.1
		c-10.3-12.8-27.1-19.5-44.2-16c-16,3.3-28.2,14.7-33.4,29c-3.7-0.2-7.6,0.1-11.4,0.9c-6.6,1.3-12.5,4.1-17.6,7.8
		c-9-4.9-19.6-6.7-30.4-4.5c-3.2,0.7-6.3,1.7-9.2,2.9c-8.3-6.9-19.4-10.1-30.8-7.7c-15.3,3.1-26.4,15.4-28.8,30c0,0,0,0,0,0
		c-0.7,4.4-0.7,8.9,0.2,13.5c3.8,18.5,20.8,31,39.2,29.4c9.7,15.8,28.4,24.6,47.5,20.7c6.6-1.3,12.5-4.1,17.6-7.8
		c9,4.9,19.6,6.7,30.4,4.5c16-3.3,28.2-14.7,33.4-29c3.7,0.2,7.5-0.1,11.4-0.8c1.6-0.3,3.2-0.8,4.7-1.2
		c9.6,16.1,28.5,25.1,47.8,21.2c4.6-0.9,8.9-2.6,12.8-4.8c10,14.6,28,22.6,46.3,18.8C1752.3,252.6,1768.1,228.7,1763,204.2z"/>
	<path class="st1" d="M1709.9,168.2c-5.9,1.2-11.3,3.5-16,6.7c0.4-1.5,0.8-3.1,1.1-4.7c-10.3-12.8-27.1-19.5-44.2-16
		c-1.6,0.3-3.2,0.7-4.7,1.2c-1.1-1.8-2.3-3.5-3.5-5.1c-10.3-12.8-27.1-19.5-44.2-16c-16,3.3-28.2,14.7-33.4,29
		c-3.7-0.2-7.6,0.1-11.4,0.9c-6.6,1.3-12.5,4.1-17.6,7.8c-9-4.9-19.6-6.7-30.4-4.5c-3.2,0.7-6.3,1.7-9.2,2.9
		c-8.3-6.9-19.4-10.1-30.8-7.7c-15.3,3.1-26.4,15.4-28.8,30c8.1,10.1,21.2,15.6,34.7,13.3c10.3,11.7,26.4,17.7,42.8,14.4
		c6.6-1.3,12.5-4.1,17.6-7.8c8.2,4.4,17.7,6.3,27.5,5c1-0.1,1.9-0.3,2.9-0.5c5.1-1,9.9-2.9,14.1-5.5c9-5.4,15.8-13.8,19.3-23.5
		c2.3,0.1,4.6,0.1,7-0.2c0,0,0,0,0,0c0.7-0.1,1.3-0.2,2-0.3c0.1,0,0.2,0,0.3-0.1c0.7-0.1,1.4-0.2,2.1-0.4c3.6-0.7,7-1.9,10.1-3.4
		c-0.8,2.3-1.4,4.8-1.8,7.2c6.8,8.4,16.4,14.2,27,16.2c5.5,1,11.3,1,17.2-0.2c5.9-1.2,11.3-3.5,16-6.7c-0.4,1.5-0.8,3.1-1.1,4.7
		c10.3,12.8,27.1,19.5,44.2,16c18.8-3.8,32.4-18.9,35.4-36.8C1743.8,171.5,1727,164.7,1709.9,168.2z"/>
	<g>
		<g>
			
				<ellipse transform="matrix(0.9797 -0.2004 0.2004 0.9797 10.5601 354.2345)" class="st2" cx="1755.4" cy="124.9" rx="6.6" ry="6.6"/>
			
				<ellipse transform="matrix(0.9797 -0.2004 0.2004 0.9797 12.6008 353.2596)" class="st2" cx="1751.6" cy="114.4" rx="6.6" ry="6.6"/>
			
				<ellipse transform="matrix(0.9797 -0.2004 0.2004 0.9797 14.7149 352.6553)" class="st2" cx="1749.7" cy="103.6" rx="6.6" ry="6.6"/>
			
				<ellipse transform="matrix(0.9797 -0.2004 0.2004 0.9797 16.1828 352.2545)" class="st2" cx="1748.4" cy="96.2" rx="6.6" ry="6.6"/>
			
				<ellipse transform="matrix(0.9797 -0.2004 0.2004 0.9797 17.9002 351.8276)" class="st2" cx="1747.2" cy="87.5" rx="6.6" ry="6.6"/>
			
				<ellipse transform="matrix(0.9797 -0.2004 0.2004 0.9797 20.1363 351.9507)" class="st2" cx="1748.9" cy="76.5" rx="11.8" ry="11.9"/>
		</g>
		<g>
			
				<ellipse transform="matrix(0.4266 -0.9044 0.9044 0.4266 911.3956 1723.2882)" class="st2" cx="1814.8" cy="142.9" rx="6.6" ry="6.6"/>
			
				<ellipse transform="matrix(0.4266 -0.9044 0.9044 0.4266 922.9946 1720.1105)" class="st2" cx="1818.1" cy="132.1" rx="6.6" ry="6.6"/>
			
				<ellipse transform="matrix(0.4266 -0.9044 0.9044 0.4266 934.6289 1718.9414)" class="st2" cx="1823" cy="122.4" rx="6.6" ry="6.6"/>
			
				<ellipse transform="matrix(0.4266 -0.9044 0.9044 0.4266 942.6888 1718.2275)" class="st2" cx="1826.4" cy="115.7" rx="6.6" ry="6.6"/>
			
				<ellipse transform="matrix(0.4266 -0.9044 0.9044 0.4266 952.0795 1717.6129)" class="st2" cx="1830.6" cy="107.9" rx="6.6" ry="6.6"/>
			
				<ellipse transform="matrix(0.4266 -0.9044 0.9044 0.4266 963.6664 1720.3657)" class="st2" cx="1838.6" cy="100.2" rx="11.9" ry="11.8"/>
		</g>
		<g>
			<path class="st3" d="M1742.2,133.2c-17.3,12.6-26.6,34.6-22.1,57c6.2,30.5,36,50.3,66.4,44c30.4-6.2,50-36,43.8-66.6
				c-0.1-0.3-0.1-0.5-0.2-0.8c-6.3,4.6-16.9-11.5-25-9.8C1774.9,163.3,1763.3,152.4,1742.2,133.2z"/>
			<path class="st2" d="M1763.9,123.6c-8.1,1.7-15.4,5-21.7,9.6c6.6,30.1,36,49.5,66.2,43.3c8.1-1.7,15.4-5,21.7-9.6
				C1823.5,136.8,1794.1,117.5,1763.9,123.6z"/>
		</g>
		<polygon class="st4" points="1799,196.6 1796,196.2 1797.7,182.4 1790.7,187.5 1789,179.7 1784.1,183.9 1780.4,176.1 
			1777.6,191.9 1774.6,191.4 1779,166.4 1785.1,179.1 1791,174.1 1792.7,182.4 1801.5,175.9 		"/>
		<path class="st5" d="M1809.3,171.9l16.4,1.8c0,0,1.1,7.9-7.8,6.6C1808,178.8,1809.3,171.9,1809.3,171.9z"/>
		<path class="st5" d="M1752.4,153.7l19.1,7.1c0,0-1.8,8.1-11.9,3.9C1748.2,160,1752.4,153.7,1752.4,153.7z"/>
		
			<ellipse transform="matrix(0.6107 -0.7918 0.7918 0.6107 592.3669 1481.1741)" class="st6" cx="1802.7" cy="138.1" rx="6.4" ry="14.3"/>
	</g>
</g>
<g>
	<path class="st0" d="M1301.2,204.2c-1.5-7.3-4.7-13.9-9.1-19.3c-10.3-12.8-27.1-19.5-44.2-16c-4.6,0.9-8.9,2.6-12.9,4.8
		c-0.7-1-1.3-1.9-2.1-2.8c-10.3-12.8-27.1-19.5-44.2-16c-1.6,0.3-3.2,0.7-4.7,1.2c-1.1-1.8-2.3-3.5-3.5-5.1
		c-10.3-12.8-27.1-19.5-44.2-16c-16,3.3-28.2,14.7-33.4,29c-3.7-0.2-7.6,0.1-11.4,0.9c-6.6,1.3-12.5,4.1-17.6,7.8
		c-9-4.9-19.6-6.7-30.4-4.5c-3.2,0.7-6.3,1.7-9.2,2.9c-8.3-6.9-19.4-10.1-30.8-7.7c-15.3,3.1-26.4,15.4-28.8,30c0,0,0,0,0,0
		c-0.7,4.4-0.7,8.9,0.2,13.5c3.8,18.5,20.8,31,39.2,29.4c9.7,15.8,28.4,24.6,47.5,20.7c6.6-1.3,12.5-4.1,17.6-7.8
		c9,4.9,19.6,6.7,30.4,4.5c16-3.3,28.2-14.7,33.4-29c3.7,0.2,7.5-0.1,11.4-0.8c1.6-0.3,3.2-0.8,4.7-1.2
		c9.6,16.1,28.5,25.1,47.8,21.2c4.6-0.9,8.9-2.6,12.8-4.8c10,14.6,28,22.6,46.3,18.8C1290.5,252.6,1306.3,228.7,1301.2,204.2z"/>
	<path class="st1" d="M1248.1,168.2c-5.9,1.2-11.3,3.5-16,6.7c0.4-1.5,0.8-3.1,1.1-4.7c-10.3-12.8-27.1-19.5-44.2-16
		c-1.6,0.3-3.2,0.7-4.7,1.2c-1.1-1.8-2.3-3.5-3.5-5.1c-10.3-12.8-27.1-19.5-44.2-16c-16,3.3-28.2,14.7-33.4,29
		c-3.7-0.2-7.6,0.1-11.4,0.9c-6.6,1.3-12.5,4.1-17.6,7.8c-9-4.9-19.6-6.7-30.4-4.5c-3.2,0.7-6.3,1.7-9.2,2.9
		c-8.3-6.9-19.4-10.1-30.8-7.7c-15.3,3.1-26.4,15.4-28.8,30c8.1,10.1,21.2,15.6,34.7,13.3c10.3,11.7,26.4,17.7,42.8,14.4
		c6.6-1.3,12.5-4.1,17.6-7.8c8.2,4.4,17.7,6.3,27.5,5c1-0.1,1.9-0.3,2.9-0.5c5.1-1,9.9-2.9,14.1-5.5c9-5.4,15.8-13.8,19.3-23.5
		c2.3,0.1,4.6,0.1,7-0.2c0,0,0,0,0,0c0.7-0.1,1.3-0.2,2-0.3c0.1,0,0.2,0,0.3-0.1c0.7-0.1,1.4-0.2,2.1-0.4c3.6-0.7,7-1.9,10.1-3.4
		c-0.8,2.3-1.4,4.8-1.8,7.2c6.8,8.4,16.4,14.2,27,16.2c5.5,1,11.3,1,17.2-0.2c5.9-1.2,11.3-3.5,16-6.7c-0.4,1.5-0.8,3.1-1.1,4.7
		c10.3,12.8,27.1,19.5,44.2,16c18.8-3.8,32.4-18.9,35.4-36.8C1282,171.5,1265.2,164.7,1248.1,168.2z"/>
	<g>
		<g>
			
				<ellipse transform="matrix(0.9797 -0.2004 0.2004 0.9797 1.1962 261.7094)" class="st2" cx="1293.6" cy="124.9" rx="6.6" ry="6.6"/>
			
				<ellipse transform="matrix(0.9797 -0.2004 0.2004 0.9797 3.2369 260.7345)" class="st2" cx="1289.8" cy="114.4" rx="6.6" ry="6.6"/>
			
				<ellipse transform="matrix(0.9797 -0.2004 0.2004 0.9797 5.351 260.1302)" class="st2" cx="1287.9" cy="103.6" rx="6.6" ry="6.6"/>
			
				<ellipse transform="matrix(0.9797 -0.2004 0.2004 0.9797 6.8189 259.7293)" class="st2" cx="1286.6" cy="96.2" rx="6.6" ry="6.6"/>
			
				<ellipse transform="matrix(0.9797 -0.2004 0.2004 0.9797 8.5363 259.3025)" class="st2" cx="1285.4" cy="87.5" rx="6.6" ry="6.6"/>
			
				<ellipse transform="matrix(0.9797 -0.2004 0.2004 0.9797 10.7724 259.4256)" class="st2" cx="1287.1" cy="76.5" rx="11.8" ry="11.9"/>
		</g>
		<g>
			
				<ellipse transform="matrix(0.4266 -0.9044 0.9044 0.4266 646.5924 1305.6122)" class="st2" cx="1353" cy="142.9" rx="6.6" ry="6.6"/>
			
				<ellipse transform="matrix(0.4266 -0.9044 0.9044 0.4266 658.1915 1302.4346)" class="st2" cx="1356.3" cy="132.1" rx="6.6" ry="6.6"/>
			
				<ellipse transform="matrix(0.4266 -0.9044 0.9044 0.4266 669.8257 1301.2654)" class="st2" cx="1361.2" cy="122.4" rx="6.6" ry="6.6"/>
			
				<ellipse transform="matrix(0.4266 -0.9044 0.9044 0.4266 677.8857 1300.5516)" class="st2" cx="1364.6" cy="115.7" rx="6.6" ry="6.6"/>
			
				<ellipse transform="matrix(0.4266 -0.9044 0.9044 0.4266 687.2764 1299.937)" class="st2" cx="1368.8" cy="107.9" rx="6.6" ry="6.6"/>
			
				<ellipse transform="matrix(0.4266 -0.9044 0.9044 0.4266 698.8633 1302.6898)" class="st2" cx="1376.8" cy="100.2" rx="11.9" ry="11.8"/>
		</g>
		<g>
			<path class="st3" d="M1280.4,133.2c-17.3,12.6-26.6,34.6-22.1,57c6.2,30.5,36,50.3,66.4,44c30.4-6.2,50-36,43.8-66.6
				c-0.1-0.3-0.1-0.5-0.2-0.8c-6.3,4.6-16.9-11.5-25-9.8C1313.1,163.3,1301.5,152.4,1280.4,133.2z"/>
			<path class="st2" d="M1302.1,123.6c-8.1,1.7-15.4,5-21.7,9.6c6.6,30.1,36,49.5,66.2,43.3c8.1-1.7,15.4-5,21.7-9.6
				C1361.7,136.8,1332.3,117.5,1302.1,123.6z"/>
		</g>
		<polygon class="st4" points="1337.2,196.6 1334.2,196.2 1335.9,182.4 1328.9,187.5 1327.2,179.7 1322.3,183.9 1318.6,176.1 
			1315.8,191.9 1312.8,191.4 1317.2,166.4 1323.3,179.1 1329.2,174.1 1330.9,182.4 1339.7,175.9 		"/>
		<path class="st5" d="M1348.1,175.3l16.4,1.8c0,0,0.5,4.6-8.3,3.2C1346.2,178.8,1348.1,175.3,1348.1,175.3z"/>
		<path class="st5" d="M1290.3,157.1l19.1,7.1c0,0-1.4,4.6-11.5,0.5C1286.4,160,1290.3,157.1,1290.3,157.1z"/>
		
			<ellipse transform="matrix(0.6107 -0.7918 0.7918 0.6107 412.6011 1115.5005)" class="st6" cx="1340.9" cy="138.1" rx="6.4" ry="14.3"/>
	</g>
</g>
</svg>
