<?xml version="1.0" encoding="utf-8"?>
<!-- Generator: Adobe Illustrator 24.0.0, SVG Export Plug-In . SVG Version: 6.00 Build 0)  -->
<svg version="1.1" id="Calque_6" xmlns="http://www.w3.org/2000/svg" xmlns:xlink="http://www.w3.org/1999/xlink" x="0px" y="0px"
	 viewBox="0 0 1920 1071.6" style="enable-background:new 0 0 1920 1071.6;" xml:space="preserve">
<style type="text/css">
	.st0{fill:url(#SVGID_1_);}
	.st1{fill:none;}
	.st2{opacity:0.51;fill:#1C3F3C;enable-background:new    ;}
	.st3{fill:#1C3F3C;}
	.st4{fill:#152322;}
	.st5{opacity:0.28;}
</style>
<title>Plan de travail 4</title>
<linearGradient id="SVGID_1_" gradientUnits="userSpaceOnUse" x1="959.5587" y1="1031.2723" x2="959.4398" y2="20.1219" gradientTransform="matrix(1 0 0 -1 0 1068)">
	<stop  offset="0" style="stop-color:#DCF8E3"/>
	<stop  offset="0.19" style="stop-color:#A2F0C7"/>
	<stop  offset="0.39" style="stop-color:#6DE9AD"/>
	<stop  offset="0.58" style="stop-color:#44E398"/>
	<stop  offset="0.75" style="stop-color:#26DF89"/>
	<stop  offset="0.9" style="stop-color:#14DD80"/>
	<stop  offset="1" style="stop-color:#0DDC7D"/>
</linearGradient>
<rect x="-1" class="st0" width="1921" height="1071.6"/>
<path class="st1" d="M1384.8,97.9c10.2-22.5,23.6-44,29.7-67.1c2.6-10.1,4.5-20.4,5.6-30.7h-83.8c3.3,23.7,0.8,48.4,13.1,69.1
	C1355.9,80.1,1379,86.9,1384.8,97.9z"/>
<path class="st1" d="M125.7,78.1c10.2-22.5,23.6-44,29.7-67.2c1-3.6,1.8-7.3,2.5-11H85.3c6.4,15.4,14,30.3,22.6,44.7
	C114.4,55.6,119.9,67.1,125.7,78.1z"/>
<path class="st2" d="M1414.5,30.7c-6.1,23.2-19.4,44.7-29.7,67.1c-5.8-11-28.9-17.8-35.4-28.8c-12.3-20.7-9.8-45.4-13.1-69.1H1268
	c-7.3,24.2-16.5,48.1-23,72.5c-6.5,24.7-13.1,50-13.7,75.2c-1.1,44.5,1.4,89.2,4.2,133.7c1.5,24,6.6,47.8,10,71.6
	c0.9,6.3,4.3,8.4,11.6,8.4c62.6-0.3,125.1-0.1,187.7,0h80.3c-2.3-17.4-3.9-33.8-6.7-50c-1.3-7.3-3.4-15.1-7.5-21.3
	c-6.7-10.1-8.6-20.5-8.8-32c-0.3-16.5-1.4-33-2.4-49.4c-0.1-2.3-1.8-4.5-2.7-6.7c-2.3,2.9-3.7,6.4-4,10.2
	c-1.2,17.1-2.5,34.1-3.3,51.2c-0.4,8.2-2.5,15.5-8.3,22.1c-2.3-7.7-2.7-15.4-4.8-22.7c-9.2-31.6-18.7-63.2-28.4-94.7
	c-4.9-16-5.9-31.7-1.7-48.1c5.3-20.4,9.4-41,6.3-62.4c-1.6-10.8-1.5-21.8-1.6-32.7c-0.1-8.2-0.2-16.4-0.2-24.7h-31
	C1418.9,10.4,1417,20.6,1414.5,30.7z"/>
<path class="st2" d="M901.8,67.8C893,63,889,55,881.7,51c-1.5,0.7-17.4,16.5-18.9,17.2l16.9,29.4l-22.3,2.5
	c4.9,15.1,8.3,29.7,14.5,43.7c8.1,18.4,22.4,35.8,27,54.5c8.1,33,11,66.7,15.8,100.2c3,20.5,5.5,41.1,8.2,62h115.7
	c-1.3-2.5-2.3-4.3-3.2-6.1c-12.1-23.7-25.5-47.2-36.1-71.2c-16.3-36.8-25-74.7-28.7-113.1c-2.4-24.8,0-48.7,16.6-71.2
	c3.3-4.7,6.3-9.6,8.8-14.7c14-27.3,21.3-55.5,25.1-84.1h-77.5C934.5,22.3,920.1,44.2,901.8,67.8z"/>
<path class="st2" d="M1854.9,59.3c-1.1-0.7-7.1-19.3-8.2-20c-5.4,3.9-5.9,25.9-12.5,30.6c-13.3-22.9-25.2-46-33.6-69.9h-62.9
	c3,25.6,8.4,50.8,17.8,75.2c1.9,5,4.1,10,6.6,14.7c12.4,22.5,14.2,46.4,12.4,71.2c-2.8,38.5-9.3,76.3-21.4,113.1
	c-8,24-17.9,47.5-27,71.2c-0.7,1.8-1.4,3.6-2.4,6.1h86.5c2-20.8,3.9-41.4,6.1-62c3.6-33.4,5.8-67.1,11.8-100.2
	c3.4-18.7,14.1-36.2,20.1-54.5c4.6-14,7.2-28.6,10.8-43.7l-16.7-2.5C1846.7,78.4,1850.8,68.8,1854.9,59.3z"/>
<path class="st2" d="M485.3,76.1c-2.9,26.5-8.4,52.8-9.8,79.3c-2.9,54.3-4,108.8-5.4,163.2c-0.4,13.9,0.9,27.7,1.5,42h65
	c-2.2-38.3-5.1-76-6.2-113.8c-0.8-27.7-1.2-55.7,2-83.2c4.4-39,12-77.7,18.5-116.4C553,34.5,548,24.7,538,16.7
	c-3.9-3.1-8.4-5.5-12.1-8.8c-2.9-2.6-6.4-5.1-9-7.9h-32C488.3,25.3,488.1,50.6,485.3,76.1z"/>
<path class="st2" d="M595.2,45.3c-4.5,21.1-11,42.1-16.9,63.1c-2.8,9.9-7.4,19.7-9,29.7c-3.4,20.4-3.5,40.9-8.2,61.2
	c-12.3,52.8,4,104.5,15.9,156.5c0.4,1.9,5.6,4.9,8.7,5c16.5,0.5,33,0.2,50.1,0.2c-9.6-26.8-5.5-52.2,7.1-77.8
	c11.7-23.8,13.1-48.1-0.2-72.2s-16-48.2-8.2-73.7C648.5,91.9,651.8,46,651.1,0h-47.7C601.6,15.1,598.4,30.3,595.2,45.3z"/>
<path class="st2" d="M1678.2,43.1c-2.7,21.1-6.6,42.1-10.1,63.1c-1.7,9.9-4.4,19.7-5.4,29.7c-2,20.4-2.1,40.9-4.9,61.1
	c-7.4,52.8,2.4,104.5,9.5,156.5c0.3,1.9,3.3,4.9,5.2,5c9.8,0.5,19.8,0.2,30,0.2c-5.7-26.7-3.3-52.2,4.3-77.8
	c7-23.8,7.9-48.1-0.2-72.2s-9.6-48.2-4.9-73.7c8.2-44.6,10.3-89.8,9.9-135h-28.7C1681.8,14.4,1680,28.8,1678.2,43.1z"/>
<path class="st2" d="M280.6,38.6c-2.7,21.1-6.6,42.1-10.1,63.1c-1.7,9.9-4.4,19.7-5.4,29.7c-2,20.4-2.1,40.9-4.9,61.2
	c-7.4,52.8,2.4,104.5,9.5,156.5c0.3,1.9,3.3,4.9,5.2,5c9.8,0.5,19.7,0.2,30,0.2c-5.7-26.8-3.3-52.2,4.3-77.8
	c7-23.8,7.9-48.1-0.1-72.2s-9.6-48.2-4.9-73.7c7.9-43.2,10-86.9,9.8-130.6h-29C283.9,12.9,282.2,25.8,280.6,38.6z"/>
<path class="st2" d="M155.3,11c-6.1,23.2-19.4,44.7-29.7,67.2c-5.8-11-11.3-22.5-17.8-33.5C99.3,30.4,91.8,15.4,85.3,0H2.6
	C1.4,3.5,0.2,7.1-1,10.6v331c62.2-0.3,124.5-0.1,186.7,0c26.7,0,53.4,0,80.3,0c-2.3-17.4-3.9-33.8-6.7-50
	c-1.3-7.3-3.4-15.1-7.5-21.3c-6.7-10.1-8.6-20.5-8.8-32c-0.3-16.5-1.4-33-2.4-49.4c-0.1-2.3-1.8-4.5-2.7-6.7
	c-2.3,2.9-3.7,6.4-4,10.2c-1.2,17.1-2.5,34.1-3.3,51.2c-0.4,8.2-2.5,15.5-8.3,22.1c-2.3-7.6-2.7-15.4-4.8-22.7
	c-9.1-31.6-18.7-63.2-28.4-94.7c-4.9-16-5.9-31.7-1.6-48.1c5.3-20.4,9.4-41,6.3-62.4c-1.6-10.8-1.5-21.8-1.6-32.7c0-1.6,0-3.3,0-4.9
	h-34.3C157.1,3.7,156.3,7.3,155.3,11z"/>
<path class="st3" d="M1482.1,91.5c-106.1-37.8-208.6-7.1-279.7,46.6c15.7,3,31.4,6.4,47.4,8.8c3.3,0.5,7.8-2.6,11.4-4.3
	c14.6-7.1,29.1-14.3,44.9-20l-21.1,29.9c4.1,1.4,5.8,2.2,7.6,2.7c24.5,5.8,24.4,5.8,36.2-10.4c3.4-4.6,8-8.8,12-13.2l2.7,1.1v31.5
	c9.3-1.5,20,1.1,20.4-9.7c2.2,0.5,4.7,0.6,5.6,1.5c10.4,9.8,24.9,8.1,39.4,8.6c18,0.6,35.9,3.2,54,4.2c4,0.2,9.3-2.4,12.2-4.9
	c9.5-8.2,18.1-16.9,28.2-26.5c8.8,13.8,16.9,25.6,23.9,37.7c5.4,9.5-5.8,9.9-15.7,11.7l13.7,12.9l-17.6-2.6c0.8,2.3,1.3,3.8,2.1,6
	l-22.6-1l16.4,9.6l-0.4,0.9c-17.8-7.5-35.5-15.1-53.5-22.4c-22.1-8.9-44.8-17.1-70.4-18.9c-5.9-0.4-13.1-0.3-17.8,1.8
	c-23.5,10.3-46.4,21.4-70.4,32.7c22.9,18.8,46.4,33.1,77.2,39.6c3.5,0.7,8.3-0.5,11.9-1.8s6.1-3.7,10.2-6.4
	c7.9,9.3,3.9,26.3,29.4,21.4l10.7-21.1c4.6,7.5,9.6,12.3,10.3,17.5c1.6,10.9,10.5,13.8,24.4,13.9l7.1-18.4
	c10.5,8.2,20.2,14.6,27.8,22.1c6,6-1,16.7-10.5,17.3c-19.7,1.3-38.3,4.4-52.1,13.4c-15.5-10.5-29.9-20.6-44.9-30.3
	c-3.3-2.1-8.7-2.5-13.1-3.7c-0.6,3.6-1.8,7.3-1.5,11c0.2,3.4,1.8,6.6,4.4,8.8c-20.4-13.8-39.9-28.4-61.5-41.1
	c-30.1-17.9-36.7-7.6-37.7,9.9c-0.7,12.5-3,24.9-4.8,38.9c-2.2-4.5-3.6-7.8-5.5-10.9c-4.2-7-8.6-15.4-20.5-14.7
	c-6.5,0.4-12.4,6.7-18.9,10.5c0-3.3,0.7-7.8-0.2-12.1c-1.9-9.2-3.6-18.4-7.5-27.2c-1.5-3.3-8.4-7-13.3-7.3c-4-0.2-10.5,3.6-12.4,6.8
	c-5.2,8.4-8.5,17.5-12.6,26.3c-0.8,1.8-1.7,3.7-3.4,7.6c-1.1-7.6-0.6-13.1-2.9-18c-1.6-3.4-6.3-7.4-10.7-8.2
	c-3.2-0.5-8.6,3.4-11.7,6.1c-3.1,2.7-4.1,6.3-6.5,10.2c-4.1-15-16-18.5-32.3-9.5c-6.2,3.4-11.8,7.9-16.3,13.4
	c-13.2,16.9-25.4,34.3-36.2,48.9c-7.2-4.3-15.5-12-26.2-14.9c-13.7-3.8-23.6,4-28.4,9.9c-2.3-6-2.6-14.8-8.5-20.1
	c-7.4-6.7-20.1-3.9-47.8,7c0-6.7,0.4-13.5-0.1-20.2c-0.7-9.5-2.4-19.4-16.9-23.1c-14.2-3.5-28.2-2-38.5,6.8
	c-9.2,7.9-17.4,16.5-26.4,25.1c-1.8-2.4-4.2-6-7-9.3c-8.7-10.4-21.9-13.9-35.7-7.1c-12.2,6-22,14.7-32.6,22c-5-5.6-9-6-15.4,1
	s-11.5,14.6-17.3,21.9c-2.2,2.8-4.6,5.4-8.9,10.6c-3.3-14.1-5.8-25.5-8.8-36.9c-1.3-5-2.8-10.1-5.6-14.7
	c-5.5-9.1-13.4-10.3-22.8-3.1c-8.5,6.5-15.9,13.8-23.6,20.8c-4,3.7-7.7,7.6-13.3,11.1c-2.9-10.2-0.7-19.9,3.4-29.4
	c3.1-7.2,8.4-13.9,10.7-21.1c0.2-0.7,0.3-1.4,0.3-2.1c0-5.3-4.3-9.7-9.6-9.7c-0.7,0-1.3,0.1-2,0.2c-3.1,0.6-5.9,1.4-7.9,2.9
	c-16.1,12-31.1,24.8-48.7,36.7c1.7-4.6,4-9.1,5-13.8c0.8-3.3,0-6.9-0.1-10.3c-4.8,0.9-10.3,1.1-14.4,2.9
	c-10.5,4.7-20.3,10.2-30.5,15.2c-1.2,0.6-3.1,0.6-5.5,1c5.5-8.4,11.4-16,15.5-24.1c4.6-9,2.7-17.8-6.4-25.9
	c10.6-7.2,30.8-5.9,35-19.9c0.9,3.8,1.9,7.6,2.9,11.8c8-0.6,15.3-1.2,22.6-1.8c21.2-1.7,21.4-1.8,27.2-19
	c13.7,15.5,30.3,6.5,48.7,4.6c-4.4-3.7-7.2-6.9-11.1-9.2c-31.7-18.5-67.4-31.2-108.4-31.8c-40.6-0.6-73.4,11.7-95.3,39
	c-10.5-3.1-19.5-0.2-25.7,7.4l-23.2-6.8l28.3-4.9v-2.9l-32.5-4.5c-0.4-5.1-1.3-5.2-31.5-4.2l14.8-6.8l-27.4-5.3
	c9.8-13.7,20.7-25.6,41.1-31.3c0.7,0.6,1.3,1.3,1.8,2c2.6,5.4-2.2,13.9,9.4,15.5c15.1,2.1,31.8-4,37.4-11.9
	c3.5-5.1,7.6-9.9,13.3-17.5l13,24.9c7-0.7,18.5,0.5,23.3-3.1c4.5-3.4,1.9-11.8,4.9-18.6l11.3,16.9h71.4
	c-16.1-17.3-38.1-31-64.3-41.1c-48-18.1-99.4-21.8-152-16.6c-29.3,2.9-58.1,8.2-85.8,12.2c-4.2-2.7-9.1-8-12.2-7.5
	c-7.8,1.2-12.4,5.8-12.3,12.7c0.2,50.9,0,101.8-0.1,152.7c0,28,0.3,56-0.1,84c-0.1,6.5,2.5,8.1,11.2,8.1
	c126.8-0.1,253.7-0.1,380.5,0.1c123.9,0,247.9-0.1,371.8-0.3c111.1,0,222.3,0.1,333.4,0.3c53.3,0,106.6,0,159.9,0
	c4.9,0,9.8-0.8,14.7-1.2V133.1"/>
<path class="st4" d="M385.5,156.9c18.9-12.1,41-20.4,67.5-24.8c0.8-0.2,1.6,0.4,1.8,1.2c0.1,0.4,0,0.8-0.2,1.2l-6.4,8.8
	c-0.5,0.7-0.3,1.7,0.4,2.1c0.4,0.3,0.9,0.3,1.3,0.2l47.9-11.7l2.4,4.7l-15.8,11.9c-0.7,0.5-0.8,1.5-0.3,2.1c0.4,0.5,1.1,0.7,1.7,0.5
	c87.4-24.8,171.2-2.6,230.7,36.2c0.7,0.4,0.9,1.4,0.5,2.1c-0.2,0.4-0.6,0.6-1.1,0.7c-12.3,2.1-24.7,4.4-37.2,6.1
	c-2.8,0.4-6.7-2-9.9-3.3c-11.1-4.8-22.1-9.6-33.9-13.7c-0.8-0.3-1.7,0.1-2,0.9c-0.2,0.5-0.1,1.1,0.2,1.5c4.5,5.7,9.1,11.4,13.7,17.3
	c0.5,0.6,0.4,1.6-0.2,2.1c-0.1,0.1-0.3,0.2-0.5,0.3c-1.5,0.5-3,1-4.5,1.4c-21.2,4.5-21.1,4.4-31.4-8c-2.4-2.7-5-5.3-7.8-7.7l-4.9,2
	v19c0,0.9-0.7,1.5-1.6,1.5h-0.1c-7-0.7-14.5,0.3-15.8-5.8c-0.2-0.8-1-1.3-1.8-1.2c-1.1,0-2.2,0.3-3.3,0.9c-9,7.5-21.6,6.3-34.1,6.6
	c-15.6,0.4-31.1,2.5-46.7,3.2c-3.4,0.2-8-1.9-10.5-3.8c-7.8-6-14.9-12.3-23.1-19.2c-0.7-0.6-1.7-0.5-2.3,0.2c0,0,0,0-0.1,0.1
	c-7.2,10-13.9,18.7-19.6,27.6c-4.1,6.4,2.7,7.4,10.2,8.5c0.8,0.1,1.4,0.8,1.3,1.6c0,0.4-0.2,0.8-0.5,1l-5.2,4.4
	c-0.6,0.6-0.7,1.5-0.1,2.2c0.3,0.4,0.9,0.6,1.4,0.5l7.2-1c0.8-0.1,1.6,0.4,1.8,1.3c0,0.2,0,0.5-0.1,0.7v0.1c-0.3,0.8,0.1,1.7,0.9,2
	c0.2,0.1,0.4,0.1,0.6,0.1l13.8-0.4c0.4,0,0.8,0.3,0.8,0.7c0,0.2-0.1,0.5-0.2,0.6l-0.1,0.9l0.4,0.8c0.2,0.4,0.6,0.5,1,0.4
	c11.3-4.2,22.6-8.5,34-12.6c19.1-6.9,38.8-13.2,61-14.6c5.1-0.3,11.3-0.2,15.4,1.4c19.5,7.6,38.6,15.8,58.5,24.1
	c0.8,0.3,1.2,1.2,0.9,1.9c-0.1,0.3-0.3,0.5-0.5,0.7c-19.2,13.7-39,24.1-64.7,28.9c-3,0.6-7.2-0.4-10.3-1.4c-2.6-0.9-4.7-2.4-7.6-4.2
	c-0.7-0.4-1.6-0.3-2.2,0.4c-5.6,7.2-3.5,18.6-23.7,15.5c-0.5-0.1-0.9-0.3-1.1-0.8l-7.7-13.4c-0.5-0.8-1.5-1-2.2-0.6
	c-0.2,0.1-0.3,0.2-0.5,0.4c-3.5,4.6-6.9,8-7.5,11.5c-1.4,8.2-8.6,10.5-20.1,10.7c-0.6,0-1.2-0.3-1.5-0.9l-5-11.5
	c-0.4-0.8-1.4-1.2-2.2-0.8c-0.1,0-0.2,0.1-0.2,0.1c-8.5,5.8-16.2,10.5-22.5,15.9c-5.2,4.6,0.9,12.8,9.1,13.3
	c16.6,1,32.5,3.2,44.3,9.8c0.5,0.3,1.1,0.3,1.7,0c13.1-7.9,25.3-15.5,38.1-22.8c2.5-1.4,6.3-1.8,9.8-2.5c0.8-0.2,1.7,0.3,1.9,1.2
	c0.7,2.2,1,4.6,1,6.9c0,0.5-0.1,1-0.2,1.5c-0.2,0.9,0.4,1.7,1.2,1.9c0.4,0.1,0.8,0,1.2-0.2c15.6-9.5,30.8-19.3,47.3-28.1
	c26.1-13.8,31.8-5.8,32.6,7.6c0.5,8.2,2.1,16.4,3.5,25.3c0.2,0.9,1,1.5,1.9,1.3c0.5-0.1,0.9-0.4,1.1-0.8c0.8-1.5,1.6-2.9,2.5-4.2
	c3.6-5.4,7.4-11.9,17.8-11.3c4.8,0.2,9.1,3.7,13.8,6.6c0.7,0.5,1.7,0.3,2.2-0.5c0.2-0.3,0.3-0.6,0.3-0.9c-0.2-2.1-0.1-4.3,0.3-6.4
	c1.6-7,3.1-14.2,6.5-20.9c1.3-2.5,7.3-5.4,11.5-5.6c3.4-0.2,9.1,2.8,10.8,5.2c4.5,6.5,7.4,13.4,10.9,20.2c0.2,0.4,0.4,0.7,0.6,1.1
	c0.4,0.8,1.4,1.1,2.2,0.6c0.4-0.2,0.7-0.7,0.8-1.2c0.3-3.3,0.6-6.1,1.9-8.6s5.5-5.7,9.2-6.3c2.7-0.4,7.5,2.6,10.1,4.7
	c1.6,1.4,2.9,3.2,3.9,5.1c0.5,0.8,1.5,1,2.2,0.6c0.3-0.2,0.5-0.4,0.6-0.7c4.3-9,14-10.7,26.8-4.4c5.3,2.5,10.1,6,14.1,10.3
	c11.1,12.6,21.4,25.6,30.5,36.6c0.5,0.6,1.3,0.7,2,0.4c6-3.4,12.8-8.7,21.5-10.8c8.1-2.1,16.7,0.2,22.8,5.9c0.7,0.6,1.7,0.5,2.3-0.1
	c0.1-0.2,0.3-0.3,0.3-0.6c1.3-4.4,2.2-9.6,6.5-13.1c6.2-5,16.8-3.1,39.3,4.6c0.8,0.3,1.7-0.1,2-1c0.1-0.2,0.1-0.3,0.1-0.5
	c-0.1-4.4-0.3-8.9,0.1-13.4c0.6-7.3,2.1-15,14.7-17.8c12.3-2.7,24.4-1.5,33.3,5.2c7.6,5.8,14.3,12,21.6,18.3
	c0.7,0.6,1.7,0.5,2.3-0.2l0,0c1.4-1.7,3.1-3.9,5-5.9c7.5-8,19-10.7,30.9-5.5c10.2,4.5,18.4,10.8,27.2,16.3c0.6,0.4,1.4,0.3,2-0.2
	c4-3.5,7.3-3.4,12.5,1.6c5.6,5.4,10,11.2,15,16.8c1.5,1.7,3.2,3.4,5.8,6c0.6,0.6,1.6,0.7,2.3,0c0.2-0.2,0.4-0.4,0.4-0.7
	c2.5-9.6,4.5-17.6,6.8-25.6c1-4,2.6-7.8,4.8-11.3c4.8-7,11.6-7.9,19.8-2.4c7.4,5,13.8,10.6,20.5,16c3.1,2.7,6.3,5.2,9.7,7.4
	c0.8,0.5,1.8,0.2,2.2-0.5c0.1-0.1,0.1-0.3,0.2-0.4c1.6-7.1-0.2-13.9-3.5-20.6c-2.7-5.4-7.1-10.5-9.1-16c-0.2-0.7-0.4-1.4-0.4-2.1
	c0-4.7,4.6-8,9.4-7.2c2.9,0.5,5.7,1.1,7.5,2.3c12.5,8.3,24.3,17.1,37.7,25.5c0.7,0.5,1.7,0.3,2.2-0.4c0.3-0.4,0.3-1,0.2-1.5
	c-0.9-1.9-1.7-3.9-2.3-6c-0.5-2-0.2-4.2,0-6.3c0.1-0.9,0.9-1.5,1.7-1.4l0,0c3.8,0.5,7.8,0.8,10.8,2c9.1,3.6,17.6,7.8,26.4,11.7
	c0.3,0.1,0.7,0.2,1,0.3c0.8,0.2,1.7-0.3,1.8-1.2c0.1-0.4,0-0.9-0.3-1.3c-4-5.3-8.2-10.3-11.2-15.6c-3.7-6.4-2.5-12.7,3.9-18.5
	c0.6-0.5,0.7-1.5,0.1-2.1c-0.1-0.2-0.3-0.3-0.5-0.4c-8.3-3.9-21.2-4.2-26.5-10.9c-0.5-0.7-1.6-0.8-2.3-0.3c-0.3,0.2-0.4,0.5-0.5,0.8
	l-1.1,4.1c-0.2,0.7-0.9,1.2-1.7,1.1l-18.2-1.3c-17.3-1.2-18.5-1.4-22.7-12.5c-0.4-0.8-1.3-1.2-2.1-0.9c-0.2,0.1-0.3,0.2-0.4,0.3
	c-10.6,8.9-23,4.3-36.8,2.4c-0.8-0.1-1.4-0.8-1.4-1.7c0-0.4,0.2-0.8,0.5-1c2.1-1.8,4.3-3.4,6.7-4.8c27.5-14.3,58.4-24,93.9-24.5
	c34.8-0.5,62.9,8.8,81.9,29.3c0.4,0.4,1,0.6,1.6,0.5c8.3-1.9,15.5,0.1,20.7,5.3c0.4,0.4,1,0.6,1.6,0.4l12-3.1
	c0.8-0.1,1.4-0.9,1.3-1.7c-0.1-0.7-0.7-1.2-1.4-1.3l-6.3-1l0.1-5.2l16-2c0.7-0.1,1.2-0.6,1.4-1.2c0.6-2.5,2.9-2.8,18.7-2.4
	c0.8,0.1,1.6-0.6,1.6-1.4c0.1-0.7-0.3-1.3-1-1.5h-0.1c-0.8-0.3-1.2-1.2-0.8-2c0.2-0.5,0.7-0.9,1.2-0.9l15.8-2.7
	c0.8-0.1,1.4-0.9,1.3-1.7c0-0.3-0.1-0.5-0.3-0.8c-7.9-9.5-17-17.7-33.1-21.8c-0.5-0.1-1.1,0-1.5,0.4c-0.3,0.3-0.7,0.6-0.9,0.9
	c-2.3,4.2,1.9,10.7-8.1,12c-13.1,1.6-27.6-3.1-32.3-9.1c-2.8-3.5-5.8-6.9-10.1-11.7c-0.6-0.7-1.6-0.7-2.3-0.1
	c-0.1,0.1-0.2,0.2-0.3,0.4l-9.6,16.4c-0.3,0.5-0.9,0.8-1.5,0.8c-6.1-0.4-15.2,0.3-19.1-2.3c-3.2-2.1-2.2-6.8-3.2-11.3
	c-0.2-0.9-1.1-1.4-2-1.2c-0.3,0.1-0.7,0.3-0.9,0.6l-7.5,9.9c-0.3,0.4-0.8,0.6-1.3,0.6h-57.1c-0.8,0-1.5-0.6-1.6-1.5
	c0-0.4,0.2-0.9,0.5-1.2c13.6-12.1,31.6-21.8,52.8-29c41.4-14.1,85.9-17,131.5-13c25.2,2.2,49.9,6.2,73.7,9.3c0.3,0,0.7,0,1-0.2
	c3.6-2.2,7.5-5.8,10.1-5.5c6.7,1,10.7,4.4,10.7,9.8c-0.2,39.2,0,78.3,0.1,117.5c0,21.5-0.3,43.1,0.1,64.7c0.1,5-2.2,6.2-9.7,6.2
	c-109.8-0.1-219.6-0.1-329.4,0.1c-107.3,0-214.6-0.1-321.9-0.2c-96.2,0-192.4,0.1-288.7,0.2c-46.1,0-92.3,0-138.4,0
	c-3.8,0-7.5-0.5-11.3-0.8c-0.8,0-1.4-0.7-1.5-1.5V158.2C384.8,157.7,385.1,157.2,385.5,156.9z"/>
<path class="st3" d="M1912.1,298.3c-3.9-5.3-7-5.7-12.1,0.9s-9.1,13.7-13.6,20.6c-1.7,2.6-3.6,5.1-7,10c-2.6-13.3-4.6-24-6.9-34.7
	c-0.9-4.8-2.3-9.4-4.4-13.9c-4.3-8.6-10.5-9.7-17.9-2.9c-6.7,6.1-12.5,13-18.6,19.6c-3.2,3.5-6.1,7.2-10.5,10.4
	c-2.3-9.6-0.6-18.7,2.7-27.7c2.4-6.8,6.6-13.1,8.4-19.9c0.2-0.7,0.3-1.3,0.3-2c0.1-5.8-4.4-10.1-9.1-8.9c-2.2,0.4-4.4,1.3-6.2,2.7
	c-12.6,11.3-24.4,23.3-38.2,34.6c1.4-4.3,3.1-8.6,4-13c0.6-3.1,0-6.5-0.1-9.7c-3.8,0.9-8.1,1-11.3,2.7c-8.2,4.4-16,9.6-24,14.4
	c-1,0.6-2.4,0.6-4.3,1c4.3-7.9,9-15.1,12.2-22.7c3.6-8.5,2.1-16.8-5-24.4c8.3-6.8,24.2-5.5,27.5-18.7c0.7,3.6,1.4,7.1,2.3,11.1
	l17.8-1.7c16.7-1.6,16.8-1.7,21.4-17.9c10.8,14.6,23.8,6.1,38.2,4.3c-3.5-3.5-5.7-6.5-8.7-8.6c-24.9-17.5-53-29.4-85.1-29.9
	c-31.9-0.6-57.6,11-74.8,36.7c-8.2-2.9-15.3-0.2-20.2,7l-18.3-6.4l22.2-4.6c0-1.6,0-1.1,0-2.7l-25.5-4.2c-0.3-4.8-1-5-24.7-4
	l11.6-6.4l-21.5-5c7.7-12.9,16.2-24.1,32.3-29.5c0.5,0.6,1,1.2,1.4,1.9c2.1,5.1-1.7,13.1,7.4,14.6c11.8,2,25-3.8,29.3-11.2
	c2.8-4.8,5.9-9.4,10.5-16.5l10.2,23.5c5.5-0.7,14.5,0.5,18.3-2.9c3.5-3.2,1.5-11.1,3.8-17.5l8.9,15.9h56.1
	c-12.6-16.3-29.9-29.3-50.5-38.7c-37.6-17.3-77.9-20.8-119.3-15.9c-23,2.7-45.6,7.7-67.3,11.5c-3.3-2.6-7.1-7.5-9.6-7
	c-6.1,1.2-9.7,5.4-9.7,12c0.2,48,0,95.9,0,143.9c0,26.4,0.3,52.8-0.1,79.2c-0.1,6.1,2,7.6,8.8,7.6c99.6-0.1,199.2,0.1,298.8,0.1
	c27.1,0,54.2,0,81.2,0V289C1919.3,291.9,1915.8,295.2,1912.1,298.3z"/>
<path class="st4" d="M1906.6,330.7c-0.7,0.4-1.5,0.2-2-0.4c-9.1-11.1-19.4-24-30.5-36.6c-4-4.3-8.8-7.8-14.1-10.3
	c-12.8-6.3-22.5-4.7-26.8,4.4c-0.4,0.8-1.4,1.1-2.2,0.8c-0.3-0.1-0.5-0.3-0.7-0.6c-1-1.9-2.3-3.7-3.9-5.1c-2.7-2.1-7.4-5.1-10.1-4.7
	c-3.7,0.6-7.9,3.7-9.2,6.3s-1.6,5.3-1.9,8.6c-0.1,0.9-0.9,1.5-1.8,1.4c-0.5-0.1-1-0.4-1.2-0.8l-0.6-1.1c-3.5-6.8-6.4-13.7-10.9-20.2
	c-1.7-2.4-7.3-5.4-10.8-5.2c-4.2,0.2-10.2,3.1-11.5,5.6c-3.3,6.7-4.8,13.9-6.5,20.9c-0.4,2.1-0.5,4.3-0.3,6.4c0,0.9-0.7,1.6-1.6,1.6
	c-0.3,0-0.6-0.1-0.9-0.3c-4.7-2.9-9-6.4-13.8-6.6c-10.3-0.5-14.1,6-17.8,11.3c-0.9,1.3-1.7,2.7-2.5,4.2c-0.4,0.8-1.4,1.1-2.2,0.6
	c-0.4-0.2-0.7-0.6-0.8-1.1c-1.4-8.9-2.9-17.1-3.4-25.3c-0.9-13.5-6.6-21.4-32.6-7.6c-16.6,8.7-31.7,18.5-47.3,28.1
	c-0.7,0.5-1.7,0.3-2.2-0.5c-0.2-0.4-0.3-0.8-0.2-1.2c0.1-0.5,0.2-1,0.2-1.5c0-2.3-0.3-4.7-1-6.9c-0.2-0.8-1-1.3-1.9-1.2
	c-3.5,0.7-7.3,1.1-9.8,2.5c-12.7,7.3-25,14.9-38.1,22.8c-0.5,0.3-1.1,0.3-1.7,0c-11.8-6.6-27.6-8.9-44.3-9.8
	c-8.2-0.5-14.3-8.7-9.1-13.3c6.2-5.5,14-10.1,22.4-15.9c0.7-0.5,1.7-0.3,2.3,0.4c0.1,0.1,0.1,0.2,0.1,0.3l5,11.5
	c0.3,0.6,0.9,0.9,1.5,0.9c11.5-0.2,18.7-2.5,20.1-10.7c0.6-3.5,4-6.8,7.5-11.5c0.5-0.7,1.6-0.9,2.3-0.3c0.2,0.1,0.3,0.3,0.4,0.5
	l7.7,13.4c0.2,0.4,0.7,0.7,1.1,0.8c20.2,3.1,18.2-8.3,23.7-15.5c0.5-0.6,1.4-0.8,2.1-0.4c2.9,1.8,5,3.3,7.6,4.2
	c3.1,1,7.2,1.9,10.3,1.4c25.7-4.8,45.5-15.2,64.6-28.9c0.7-0.5,0.8-1.4,0.4-2.1c-0.2-0.2-0.4-0.4-0.7-0.5
	c-19.9-8.3-38.9-16.4-58.5-24.1c-4.1-1.6-10.3-1.7-15.4-1.4c-22.2,1.4-41.8,7.7-61,14.6c-11.4,4.1-22.7,8.4-34,12.6
	c-0.4,0.1-0.8,0-1-0.4l-0.4-0.8l0.1-0.9c0.3-0.3,0.3-0.8,0-1.1c-0.2-0.2-0.4-0.2-0.6-0.2l-13.8,0.6c-0.8,0.1-1.6-0.6-1.6-1.4
	c0-0.2,0-0.4,0.1-0.6V240c0.3-0.8-0.2-1.7-1-1.9c-0.2-0.1-0.5-0.1-0.7-0.1l-7.2,1c-0.8,0.1-1.6-0.4-1.8-1.3
	c-0.1-0.5,0.1-1.1,0.5-1.4l5.2-4.4c0.6-0.5,0.7-1.5,0.2-2.1c-0.3-0.3-0.6-0.5-1-0.5c-7.5-1.1-14.3-2.1-10.2-8.5
	c5.8-8.9,12.4-17.6,19.7-27.6c0.5-0.7,1.6-0.9,2.3-0.4c0,0,0.1,0,0.1,0.1c8.2,6.9,15.3,13.3,23.1,19.2c2.5,1.9,7.1,3.9,10.5,3.8
	c15.6-0.7,31.1-2.8,46.7-3.2c12.5-0.4,25.1,0.9,34.1-6.6c1-0.5,2.1-0.8,3.3-0.9c0.8-0.1,1.6,0.4,1.8,1.2c1.3,6.1,8.7,5.1,15.8,5.8
	c0.9,0.1,1.6-0.5,1.7-1.4v-0.1v-19l4.9-2c2.8,2.4,5.4,5,7.8,7.7c10.3,12.4,10.2,12.5,31.4,8c1.5-0.4,3-0.8,4.5-1.4
	c0.8-0.2,1.2-1.1,1-1.9c-0.1-0.2-0.1-0.4-0.3-0.5c-4.7-5.9-9.2-11.6-13.7-17.3c-0.5-0.7-0.4-1.6,0.3-2.2c0.4-0.3,1-0.4,1.5-0.2
	c11.8,4.1,22.8,8.9,33.9,13.7c3.2,1.4,7.1,3.7,9.9,3.3c12.5-1.7,24.8-4,37.2-6.1c0.8-0.1,1.4-0.9,1.3-1.7c-0.1-0.4-0.3-0.8-0.7-1.1
	c-59.5-38.8-143.3-61-230.8-36.2c-0.8,0.3-1.7-0.1-1.9-0.9c-0.2-0.6,0-1.3,0.5-1.7l15.8-11.9c-1.3-2.6-1.1-2.1-2.4-4.7l-47.9,11.7
	c-0.8,0.2-1.7-0.2-1.9-1c-0.1-0.4-0.1-0.9,0.2-1.3l6.4-8.8c0.5-0.7,0.3-1.6-0.4-2.1c-0.3-0.2-0.8-0.3-1.2-0.2
	c-26.5,4.3-48.7,12.6-67.5,24.8c-0.4,0.3-0.7,0.8-0.7,1.3v198c0,0.8,0.6,1.5,1.4,1.5c3.8,0.3,7.5,0.8,11.3,0.8
	c46.1,0.1,92.3,0.1,138.4,0c96.2-0.1,192.4-0.1,288.7-0.2h29.7v-37.6C1916.6,324.1,1911.3,328,1906.6,330.7z"/>
<path class="st3" d="M273.9,110.7C190.6,75,110.2,104,54.4,154.6c12.4,2.8,24.6,6,37.2,8.3c2.6,0.5,6.1-2.4,9-4.1
	c11.5-6.7,22.8-13.5,35.3-18.8l-16.6,28.2c3.2,1.4,4.5,2.1,6,2.5c19.2,5.5,19.1,5.4,28.4-9.8c2.7-4.4,6.3-8.3,9.4-12.4l2.1,1v29.7
	c7.3-1.4,15.7,1,16.1-9.1c1.7,0.5,3.6,0.5,4.4,1.4c8.2,9.2,19.6,7.7,30.9,8.1c14.2,0.5,28.2,3,42.4,3.9c3.1,0.2,7.3-2.3,9.5-4.6
	c7.4-7.7,14.2-15.9,22.2-25c6.9,13,13.3,24.1,18.7,35.5c4.3,8.9-4.5,9.3-12.3,11l10.8,12.1l-13.8-2.5l1.6,5.7l-17.8-1l12.9,9.1
	l-0.4,0.9c-14-7-27.9-14.2-42-21.1c-17.4-8.4-35.1-16.1-55.3-17.8c-4.6-0.4-10.3-0.3-14,1.7c-18.5,9.8-36.5,20.2-55.3,30.8
	c18,17.7,36.4,31.2,60.6,37.3c2.7,0.7,6.5-0.5,9.3-1.7s4.8-3.5,8-6c6.2,8.8,3,24.8,23.1,20.2l8.4-19.9c3.6,7,7.5,11.6,8.1,16.5
	c1.3,10.3,8.2,13,19.2,13.1l5.6-17.4c8.2,7.7,15.9,13.8,21.8,20.9c4.7,5.6-0.8,15.7-8.2,16.3c-15.5,1.2-30.1,4.1-40.9,12.6
	c-12.2-9.9-23.5-19.5-35.3-28.5c-2.6-2-6.8-2.4-10.3-3.5c-0.4,3.5-1.4,6.9-1.2,10.3c0.1,3.1,1.3,6,3.4,8.3
	c-16-13-31.4-26.7-48.3-38.8c-23.7-16.8-28.8-7.1-29.6,9.4c-0.6,11.8-2.4,23.5-3.8,36.6c-1.8-4.2-2.8-7.3-4.3-10.3
	c-3.3-6.6-6.8-14.5-16.1-13.9c-5.1,0.4-9.7,6.3-14.9,9.9c0-3.1,0.6-7.3-0.1-11.4c-1.5-8.6-2.8-17.4-5.9-25.6
	c-1.2-3.1-6.6-6.6-10.5-6.9c-3.1-0.2-8.2,3.4-9.8,6.4c-4.1,8-6.7,16.5-9.9,24.8c-0.7,1.7-1.3,3.5-2.7,7.2c-0.8-7.1-0.5-12.4-2.3-17
	c-1.2-3.2-5-7-8.4-7.7c-2.5-0.5-6.8,3.2-9.2,5.8s-3.2,5.9-5.1,9.7c-2-10.8-8.1-15.2-16.5-13v96.9c74.4,0,148.7,0.1,223.1,0.2
	c41.9,0,83.7,0,125.5,0c3.9,0,7.7-0.7,11.5-1.1V149.9L273.9,110.7z"/>
<path class="st4" d="M394.2,287.7c0-39.2-0.3-78.3-0.1-117.5c0-5.3-4-8.8-10.7-9.8c-2.6-0.4-6.5,3.3-10.1,5.5
	c-0.3,0.2-0.7,0.3-1,0.2c-23.8-3.1-48.5-7.1-73.7-9.3c-45.6-4-90.1-1.1-131.5,13c-21.2,7.2-39.2,16.9-52.8,29
	c-0.6,0.6-0.7,1.5-0.1,2.1c0.3,0.3,0.7,0.5,1.2,0.5h57.1c0.5,0,1-0.2,1.3-0.6l7.5-9.9c0.5-0.7,1.5-0.8,2.3-0.3
	c0.3,0.2,0.5,0.5,0.6,0.9c1,4.5,0,9.2,3.2,11.3c3.9,2.6,13.1,1.9,19.1,2.3c0.6,0,1.2-0.3,1.5-0.8l9.6-16.4c0.5-0.8,1.5-1,2.3-0.5
	c0.1,0.1,0.3,0.2,0.4,0.3c4.2,4.9,7.3,8.2,10.1,11.7c4.8,6,19.3,10.7,32.3,9.1c10-1.2,5.8-7.8,8.1-12c0.3-0.4,0.6-0.7,0.9-0.9
	c0.4-0.4,1-0.5,1.5-0.4c16,4.2,25.2,12.3,33.1,21.8c0.5,0.7,0.4,1.6-0.2,2.1c-0.2,0.2-0.5,0.3-0.8,0.3l-15.8,2.7
	c-0.8,0.1-1.4,0.9-1.3,1.7c0.1,0.5,0.4,1,0.9,1.2h0.1c0.8,0.3,1.2,1.2,0.9,2c-0.2,0.6-0.9,1-1.5,1c-15.8-0.4-18.1-0.1-18.7,2.4
	c-0.1,0.7-0.7,1.2-1.4,1.2l-16,2c-0.1,3,0,2.2-0.1,5.2l6.3,1c0.8,0,1.5,0.7,1.4,1.6c0,0.7-0.6,1.3-1.3,1.4l-12,3.1
	c-0.6,0.1-1.2,0-1.6-0.4c-5.2-5.2-12.4-7.2-20.6-5.3c-0.6,0.1-1.2,0-1.6-0.5c-19-20.5-47.1-29.8-81.9-29.3
	c-35.5,0.5-66.4,10.2-93.9,24.5c-2.4,1.4-4.6,3-6.7,4.8c-0.6,0.5-0.7,1.5-0.2,2.1c0.3,0.3,0.6,0.5,1,0.5c13.7,1.9,26.2,6.5,36.8-2.4
	c0.7-0.6,1.7-0.5,2.3,0.2c0.1,0.1,0.2,0.3,0.3,0.4c4.2,11.1,5.4,11.2,22.7,12.5l18.2,1.3c0.8,0.1,1.5-0.4,1.7-1.1
	c0.4-1.4,0.8-2.8,1.1-4.1c0.3-0.8,1.2-1.3,2-1c0.3,0.1,0.6,0.3,0.8,0.5c5.3,6.8,18.2,7.1,26.5,10.9c0.8,0.3,1.1,1.2,0.8,2
	c-0.1,0.2-0.2,0.4-0.4,0.5c-6.4,5.8-7.5,12.1-3.9,18.5c3,5.3,7.2,10.3,11.3,15.6c0.5,0.7,0.4,1.6-0.3,2.2c-0.4,0.3-0.8,0.4-1.3,0.3
	c-0.3-0.1-0.7-0.2-1-0.3c-8.8-3.9-17.3-8.1-26.4-11.7c-3.1-1.2-7.1-1.5-10.8-2c-0.9-0.1-1.7,0.5-1.8,1.3l0,0c-0.2,2.1-0.5,4.3,0,6.3
	c0.6,2.1,1.3,4.1,2.3,6c0.3,0.8-0.1,1.7-0.9,2c-0.5,0.2-1,0.1-1.5-0.2c-13.4-8.4-25.2-17.2-37.7-25.5c-1.8-1.2-4.6-1.8-7.5-2.3
	c-4.7-0.8-9.3,2.5-9.4,7.2c0,0.7,0.2,1.4,0.4,2.1c2,5.5,6.5,10.6,9.1,16c3.2,6.7,5.1,13.5,3.5,20.6c-0.2,0.9-1.1,1.4-2,1.1
	c-0.2,0-0.3-0.1-0.4-0.2c-3.4-2.3-6.6-4.7-9.7-7.4c-6.7-5.4-13.1-11-20.5-16c-8.1-5.5-15-4.6-19.8,2.4c-2.2,3.5-3.8,7.3-4.8,11.3
	c-2.3,8-4.3,16-6.9,25.6c-0.2,0.9-1.1,1.3-2,1.1c-0.3-0.1-0.5-0.2-0.7-0.4c-2.6-2.7-4.2-4.3-5.8-6c-2.8-3.1-5.4-6.3-8-9.3v38.1h57.2
	c109.8,0,219.6,0,329.4-0.1c7.5,0,9.8-1.2,9.7-6.2C393.9,330.8,394.2,309.3,394.2,287.7z"/>
<path d="M591.5,349.5v-10.8l-1.8-0.6l-14.1,16.3c1.8-5.7,3.3-10.1,4.7-14.6l-1.2-0.7l-11.6,10.7c0.9-3.9,1.6-7.1,2.6-11.7l-15.2,10
	c-6-9-3.1-17.6,0.7-26.4c-2,1.6-3.7,3.6-4.8,5.9c-2.8,6.6-5.3,13.2-7.9,20l-7.8-3.7c-0.5,2.5-0.8,4-1.1,5.6c-11-4-12.5-3.7-19.4,3.7
	l-1.8-0.7l16.6-22.1c-16.1,2.3-23.7,10.6-25.5,23.5c-5.5-9.4,0-16.4,4-23.6l-1.5-0.7c-5.7,4.8-11.4,9.6-17.1,14.4
	c-4.5-6.5-11-11.8-23.2-14l8.5,14.6l-13.7,10.8c0.3-3.9,0.6-7.1,1-11.8l-19,13.5c-1.4-4.1-3.7-8.1-3.8-12.1
	c-0.5-14.4,7.3-26.7,18.7-38.4c-9.5,5.4-19.3,10.6-26.1,17.4s-11,15.1-16.3,22.6c-5.9-6.5-12.2-12.9-25.8-14.2
	c1.2,2.9,2.1,4.7,2.7,6.5c0.4,1.2,1.2,2.9,0.5,3.7c-4.1,4.6-8.6,8.9-13,13.4l-1.4,0.1c1-5.3,2.1-10.5,3.4-17.2L367.1,352v-9
	l-1.3-0.4l-8.6,8.2c-4-11.6-13.7-18.2-30-20.9c5.3,8.6,10.2,16.5,15.1,24.3l-1.4,0.4L320.1,342c-3.6,5.7-1.8,12.4-12.5,13.6l-3.5-9
	l-15.2,8.9c1.2-3.8,2.2-6.9,3.3-10.1l-1.5-0.9l-16,12.8c-4.6-11.9-3.2-23.4,4.6-35.1c-18.2,7.7-27.3,18.7-29.8,33l-2.3-0.3
	c0.6-5.6,1.3-11.2,2-17.8l-13.2,13V344l-1.3-0.3l-5.1,8.7c-6.5-8.7-14.9-15.4-28-20.2c0.3,4.6,0.8,8.4,0.6,12.1
	c-0.2,1.6-1.2,3.1-2.6,4c-3.2,2.2-6.9,4.1-10.5,6.2v-7.3l-12.1,6.1c-6.1-11.2-12.5-22-28.3-28.5c3.9,9.3,7.7,18.6,11.6,28l-4.7-0.2
	c-0.6,2-1.1,3.7-1.6,5.6c-15.6-9.8-15.6-9.8-22.4-4.4c-0.7-4.8-1.5-9.5-2.4-15.2L108,351.5c1.1-3.6,2.2-7.4,3.5-11.5
	c-8.5,4.3-19,6.8-21.7,15.5l-1.7-0.5l4.5-12.6c-8.9,3.3-16.2,6.9-12.3,15.6c-2.6-2.5-5.2-5-8.7-8.5c-0.3,3.8-0.6,6.3-0.8,9.3
	c-5.8-4.1-8.3-9.9-17.6-11.5c0.4,3.5,0.7,6.2,1,9c-13.5-7.8-14.3-7.9-18.6-1.4c-0.5-2.4-0.9-4.9-1.6-8.2l-17.6,7.6
	c-1.3-8,3.7-14.4,11.1-21.2c-13.4,4.6-21.9,9.5-30.6,17.2v11h97h229.5h279.8v-15.5L591.5,349.5z"/>
<path class="st1" d="M1920,343.3v-23C1916.9,327.9,1915.2,335.5,1920,343.3z"/>
<path d="M1920,320.3v-1.6c-1.6,1.4-2.8,3.1-3.8,4.9c-2.8,6.6-5.3,13.2-7.9,20l-7.8-3.7c-0.5,2.5-0.8,4-1.1,5.6
	c-11-4-12.5-3.7-19.4,3.7l-1.8-0.7l16.6-22.1c-16.2,2.4-23.7,10.6-25.6,23.5c-5.5-9.4,0-16.4,4-23.6l-1.5-0.7l-17.1,14.4
	c-4.5-6.5-11-11.8-23.2-14.1c3.4,5.8,6.1,10.5,8.5,14.6l-13.7,10.8c0.3-3.9,0.6-7.1,1-11.8l-19,13.5c-1.4-4.1-3.7-8.1-3.8-12.1
	c-0.5-14.4,7.3-26.7,18.7-38.4c-9.5,5.4-19.2,10.6-26.2,17.4s-11,15.1-16.3,22.6c-5.9-6.5-12.2-12.9-25.8-14.2
	c1.2,2.9,2.1,4.7,2.7,6.6c0.4,1.2,1.3,2.9,0.5,3.7c-4.1,4.6-8.6,8.9-13,13.4l-1.4,0.1c1-5.3,2.1-10.5,3.4-17.2l-14.7,13.1v-9
	l-1.3-0.4l-8.6,8.2c-4-11.6-13.7-18.2-30-20.9l15.1,24.3l-1.3,0.4l-20.6-12.6c-3.6,5.7-1.8,12.4-12.5,13.6c-1-2.6-2.1-5.4-3.5-9
	l-15.2,8.9c1.2-3.8,2.2-6.9,3.3-10l-1.5-0.9l-16,12.8c-4.6-11.9-3.2-23.4,4.6-35.1c-18.2,7.7-27.3,18.7-29.7,33l-2.3-0.3
	c0.6-5.6,1.3-11.2,2-17.8l-13.2,12.9v-6.3l-1.3-0.3l-5.1,8.7c-6.5-8.7-14.8-15.4-28-20.2c0.3,4.6,0.8,8.4,0.7,12.1
	c-0.2,1.6-1.2,3.1-2.6,4c-3.2,2.2-6.9,4.1-10.5,6.2V343l-12.1,6.1c-6.1-11.2-12.5-22-28.3-28.5c3.9,9.3,7.7,18.5,11.6,28l-4.7-0.2
	c-0.6,2-1.1,3.7-1.6,5.6c-15.6-9.8-15.6-9.8-22.4-4.4l-2.4-15.2l-21.3,12.9l3.5-11.5c-8.5,4.3-19,6.8-21.7,15.5l-1.7-0.5
	c1.5-4.1,2.9-8.2,4.5-12.6c-9,3.3-16.2,6.9-12.3,15.6l-8.7-8.5c-0.3,3.8-0.5,6.3-0.8,9.3c-5.8-4.1-8.3-9.9-17.6-11.4
	c0.4,3.5,0.7,6.2,1,9c-13.5-7.8-14.3-7.9-18.6-1.5c-0.5-2.4-0.9-4.9-1.6-8.1l-17.7,7.6c-1.3-8,3.7-14.4,11.1-21.2
	c-15.2,5.2-24,10.8-34.1,20.3l4.4-14.8l-1.9-1c-7.3,6.4-14.5,12.8-21.8,19.1h-0.9l7.2-14.5c-11.6,3.1-21.6,7-27.9,15.5
	c-6.2-6-1.5-11.1,1.3-17c-10.5,3.3-13.2,9.2-14.7,16.2c-6.2-8-5.3-15.9-2.9-23.9c-7.9,6.1-11.3,13.3-10.2,22.1l-8.2-6.6
	c-0.3,12.8-0.3,12.8,14.8,12.7c53.7,0,107.3,0,161,0h229.5H1920V343C1915.2,335.5,1916.9,327.9,1920,320.3z"/>
<path d="M984.3,344.4c1.4,3.5,2.5,6.3,3.5,9c10.7-1.3,8.9-8,12.5-13.6l20.5,12.7l1.3-0.4l-15.1-24.3c16.3,2.7,26,9.3,30,20.9
	l8.6-8.2l1.3,0.4v9l14.7-13.1c-1.3,6.7-2.3,12-3.4,17.2l1.4-0.1c4.4-4.4,8.9-8.8,13-13.4c0.7-0.8-0.1-2.5-0.5-3.7
	c-0.6-1.9-1.5-3.7-2.7-6.6c13.6,1.3,19.9,7.7,25.8,14.2c5.3-7.6,9.4-15.9,16.3-22.6s16.6-12,26.2-17.4c-11.3,11.7-19.2,24-18.7,38.4
	c0.2,4,2.5,8,3.8,12.1l19-13.5c-0.4,4.7-0.7,7.9-1,11.8l13.7-10.8l-8.4-14.6c12.2,2.3,18.7,7.6,23.2,14l17.1-14.4l1.5,0.7
	c-3.9,7.2-9.4,14.2-4,23.6c1.9-12.9,9.4-21.1,25.6-23.5l-16.6,22.1l1.8,0.7c6.9-7.4,8.4-7.7,19.4-3.7c0.3-1.6,0.6-3.1,1.1-5.6
	l7.8,3.7c2.7-6.8,5.1-13.5,7.9-20c1.2-2.3,2.8-4.3,4.8-5.9c-3.7,8.7-6.7,17.3-0.7,26.4l15.2-10c-1,4.6-1.7,7.8-2.6,11.7l11.6-10.7
	l1.2,0.7c-1.4,4.4-2.8,8.9-4.7,14.6l14.2-16.3l1.8,0.6v10.8l11.8-3.6v15.5h-279.9H774.1c-53.7,0-107.3,0-161,0
	c-15.1,0-15.1,0.1-14.8-12.7l8.2,6.6c-1.1-8.9,2.3-16,10.2-22.1c-2.5,8-3.3,15.9,2.9,23.9c1.5-7,4.2-13,14.7-16.2
	c-2.8,5.9-7.6,11-1.3,17c6.2-8.4,16.2-12.4,27.8-15.4c-2.6,5.2-4.9,9.8-7.3,14.5h0.9l21.8-19.1l1.9,1l-4.4,14.8
	c10.1-9.5,18.9-15.1,34.1-20.2c-7.4,6.8-12.4,13.2-11.1,21.2l17.6-7.6c0.6,3.3,1.1,5.7,1.6,8.1c4.3-6.4,5-6.4,18.5,1.5
	c-0.3-2.8-0.6-5.5-1-9c9.4,1.5,11.9,7.3,17.7,11.4c0.3-3,0.5-5.5,0.8-9.3l8.7,8.5c-3.9-8.7,3.3-12.4,12.3-15.6
	c-1.6,4.4-3,8.5-4.5,12.6l1.7,0.5c2.6-8.7,13.1-11.2,21.7-15.5c-1.2,4.1-2.4,7.9-3.5,11.5l21.3-12.9c0.9,5.7,1.6,10.5,2.4,15.2
	c6.8-5.4,6.8-5.4,22.4,4.4c0.5-1.9,1-3.5,1.6-5.6l4.7,0.2c-3.9-9.4-7.8-18.7-11.6-28c15.8,6.5,22.2,17.3,28.3,28.5l12.1-6.1v7.3
	c3.5-2,7.2-3.9,10.5-6.2c1.4-0.9,2.3-2.4,2.5-4c0.1-3.8-0.3-7.5-0.6-12.1c13.1,4.8,21.5,11.5,28,20.2l5.1-8.7l1.3,0.3v6.3l13.2-12.9
	c-0.7,6.6-1.4,12.2-2,17.8l2.3,0.3c2.4-14.3,11.6-25.3,29.7-33c-7.8,11.8-9.1,23.2-4.6,35.1l16-12.8l1.5,0.9c-1,3.1-2,6.3-3.3,10.1
	L984.3,344.4z"/>
<g id="Fond_bruit" class="st5">
	
		<image style="overflow:visible;" width="1998" height="1144" xlink:href="2A2A5B5323519D8E.png"  transform="matrix(1 0 0 1 -39 -36.4)">
	</image>
</g>
</svg>
