<svg xmlns="http://www.w3.org/2000/svg" viewBox="0 0 970.38 301.79"><defs><style>.cls-1{fill:#b4813b;}.cls-2{fill:#0a0a0a;}.cls-3{fill:#212121;}.cls-4{fill:#c39049;}.cls-5{fill:#4c4c4c;}.cls-6{fill:#cd9a51;}.cls-7{fill:#222526;}.cls-8{fill:#0c0101;}.cls-9{fill:#c48a3f;}.cls-10{fill:#4f361b;}.cls-11{fill:#dfac6a;}</style></defs><title>fond2Plan de travail 25</title><g id="Calque_9" data-name="Calque 9"><path class="cls-1" d="M151.4,158.75c2.21-6.33,27.47-17.35,32.95-17.9s25.39,7.07,26.49,9.44,2.94,10.86-2,11.21-19.74-1.65-19.74-1.65-8.22,8.4-14.43,10.23-12.1,3.19-18.51.52C151.81,168.79,149.16,165.14,151.4,158.75Z"/><path class="cls-2" d="M169.24,139.28s16.15,23.23,19.08,25.05-20.55,13.72-27.57,11c-2.64-1-10.32-4-10.4-12.87C150.23,150.45,167,140.54,169.24,139.28Z"/><ellipse class="cls-3" cx="119.82" cy="224.44" rx="3.01" ry="9.32" transform="translate(-134.34 236.07) rotate(-64.52)"/><path class="cls-4" d="M147,215.76c1.37,9.32,0,22.07,6.82,27.28s25.13,4.38,29,.82,13.5-11.13,13-27.68c-.54-17,.55-28.94-14.25-43.57s-21-17.18-21-17.18l-11.07,4.3"/><path class="cls-2" d="M156.61,170.54c-1.37,4.38-9.41,21.32-9.55,30.73-.13,9.21-1,36.2,5.79,41.4s27.15,5.07,31,1.51,13.51-11.13,13-27.68c-.55-17,.55-28.94-14.25-43.57S162.4,154.5,162.4,154.5Z"/><path class="cls-5" d="M147,211.26V197.6s5.17-28.87,6.93-31.52,8.52-11.58,8.52-11.58l-12.16,44.19L147,211.26"/><path class="cls-1" d="M162.85,215.32s-3.29,3.1-.55,12.24-1.36,8.77-5.93,8.58-13.08,8.64-13.08,8.64,3.47,18.64,0,20.1-7.31,4.93-10.78,3.65-3.3-3.47-4.11-6S110,239.3,111.32,230.71s3.84-13.7,8.4-14.79,9.15-6.2,20.48-4.19S162.85,215.32,162.85,215.32Z"/><path class="cls-2" d="M111.54,220.22c12.32,2.31,14.52,2,17.79,10.49,1,2.55,25.68,3.69,30,3.06,6-.87,14,11.26,17-3.21S156.55,207,156.55,207,143.86,211,136.86,211C119.74,211,111.54,220.22,111.54,220.22Z"/><ellipse class="cls-3" cx="134.98" cy="222.95" rx="3.01" ry="9.32" transform="translate(-124.36 248.9) rotate(-64.52)"/><path class="cls-6" d="M170.88,218.29s13.05,5.66,15.79,14.8-6.4,15.16-11,15-18.08-4.93-18.08-4.93,3.47,18.63,0,20.09-7.31,4.94-10.78,3.66-3.3-3.47-4.12-6-18.35-23.2-17.07-31.79,3.83-13.7,8.4-14.8,8.77-3.84,20.1-1.83S170.88,218.29,170.88,218.29Z"/><path class="cls-6" d="M91.53,164.31S64.47,144.7,60.86,130.72c-3.89-15.09-2.19-20,0-27.5s8-15.76,10.47-19.48C73.52,80.5,82.52,71.09,90.56,68.9s15.08-5.6,31-4.14A58.13,58.13,0,0,1,149,75s15.34,13.15,18.5,28.48c.71,3.41,1.27,6.26,1.71,8.62a75.87,75.87,0,0,1,.9,21.9,64.9,64.9,0,0,1-1.39,8.67c-1.7,6.57-10,17-13.63,21.66s-17.53,14.36-22.4,16.31-25.8,7.3-28.72,5.35-3.89-9.24-5.84-12.9S91.53,164.31,91.53,164.31Z"/><path class="cls-7" d="M151.27,83.29c3.16,2.9,15.76,4,16,6.43s5,23.54,5.74,35.68c.51,7.83-6.16,22.07-6.16,22.07l-19.36-24-7.14,7.08-3.51-6.65,1.67-3.15-1.78.58s1.07-4.94-.1-6.89-10.54-6.73-12.62-6.64,6.1-4.65,6.1-4.65l-9.34-1.35,11-6.62-15.07-.89,6.45-2.74,32.28-10.19"/><path class="cls-8" d="M36.94,144.12c5.87-2.81,5.9-18.4,5.9-18.4l-8.56,2.58s5.65-6.67,4.31-6.79c-6.25-.53-11.12,7.58-10.92,6.7.87-3.76,7.75-14.06,7.75-14.06-1.53-4.58-10.15,2.65-10,2,1-5.59,13.76-14.4,11.56-15-2.37-.62-8.49-11.32-7.07-9.81,3.67,3.91,12.21,6.86,12,5.74-.07-.34-6.93-6.12-5.37-5.65,3.1.92,10.93-5.56,10.25-5.61-4.9-.42-17-16.84-17-16.84s8.11,6.7,22.5,5.69c8.83-.61,8-2.7,8-2.7-11.22-.7-13.31-9-12.7-8.64C55.09,68,59,65.69,57.85,65.7c-3.4,0-18.81-14.59-17.52-13.57,2.16,1.7,6.22,1.54,9.82,1.64s16.37-2.25,19.48-4.08,13.65-7.08,15.81-8.17,15.49-2.74,15.49-2.74-16-3.33-13.9-3.68c4.71-.76,11.16-2,16.08-2.61,5.29-.64,8.19.25,12.34,1.08s7.78,3.63,10.66,10.63c0,0,12.3-10.76,12.58-10.35,3.69,5.29.86,15.93,1.21,16,2.29.29,3.45-6.37,3.69-5.93,3,5.44-.94,10.73,1.48,8.09s14.36-5.71,13.12-3.6S157.45,59,157.45,59s3.86-5.29,3.23-3.65,3,14.21,4,12.65c.64-1,3.84-5.87,5.51-8.83.35,5.64,2.87,17.51,2.87,17.51s6.82,1.92,8,1c-1.31,1.86-7.36,6.12-5.94,5.72C176.76,83,187,90,184.71,88.73s-11.7,1.74-12.13,2.83,8.73,6,7.39,5.45-15.55.47-15.55.47,7.64,3.71,6.47,3.84-16.19-3.25-16.19-3.25l-4.07,7.28-29.81-3.6s12.79-7.1,11-6.62c-3.59,1-26.17,6.68-26.17,6.68s-4.72,14.6-9.23,21.54-7.91,5.49-7.74,5.21c.5-.84,3.33-4.63.2-12.57-3.1,4.82-13,24.33-13.48,24.56l.14-9.44c-3.7,1.76-4.91,13.48-4.91,13.48-5.26-1.69-6.59-8.43-6.91-4.72-.12,1.41,1.55,2.64,2.79,6.33,2,6,9.2,13,9.2,13l-10-7.14-.39-.92a8.87,8.87,0,0,1-.46,1.18c-3.75,7.51-6.78,7.55-6.41,6.68,2.46-5.65-3.3-16.84-3.3-16.84l-2.31,10.22c-3.42-3.13-1.17-3.53-4-1.34s-8.81,1.62-7,.76,6-9.21,1.31-6.77-10.28,1-10.28,1S31.06,146.93,36.94,144.12Z"/><ellipse class="cls-6" cx="155.01" cy="125.4" rx="15.16" ry="9.15" transform="translate(20.63 272.7) rotate(-86.6)"/><path class="cls-8" d="M86.29,142.39a1,1,0,0,1-.58-1.78c.1-.07,10.11-7.49,14.85-14.76a1,1,0,0,1,1.35-.29,1,1,0,0,1,.29,1.36c-4.93,7.57-14.9,15-15.33,15.27A1,1,0,0,1,86.29,142.39Z"/><path class="cls-9" d="M97.93,148.45l.11-1-1-.26c.71-3,1.47-4.76,2.36-5.5l1.26,1.51c-.14.11-.86.85-1.68,4.32Z"/><path class="cls-2" d="M101.83,159.41a2.07,2.07,0,0,1-2.09-2c0-.5,0-3.3,3.09-10.39,1.67-3.85,5.82-7.47,6-7.62a2.07,2.07,0,0,1,3,.22,2.14,2.14,0,0,1-.22,3s-3.61,3.15-4.89,6.11c-2.69,6.19-2.75,8.53-2.75,8.55a2.13,2.13,0,0,1-2,2.12Z"/><path class="cls-10" d="M121,178.37a1.19,1.19,0,0,1-.32-.05,1,1,0,0,1-.61-1.25c.05-.15,1.36-4,6-8.78a1,1,0,0,1,1.39,0,1,1,0,0,1,0,1.38c-4.29,4.48-5.53,8-5.54,8.06A1,1,0,0,1,121,178.37Z"/><ellipse class="cls-11" cx="126.42" cy="147.73" rx="8.79" ry="5.31" transform="translate(-67.43 132.66) rotate(-45)"/><path class="cls-6" d="M160.8,163.55c2.22-6.33,20.85-18.33,26.33-18.88s27.3,9.7,28.39,12.07,2.94,10.86-2,11.22-19.75-1.66-19.75-1.66-8.22,8.4-14.43,10.23-9.79.78-16.2-1.88C158.8,172.84,158.56,169.93,160.8,163.55Z"/><path class="cls-2" d="M176.44,144.67s16.16,23.22,19.08,25.05S175,183.43,168,180.76c-2.65-1-10.33-3.95-10.41-12.86C157.44,155.83,174.17,145.93,176.44,144.67Z"/><path class="cls-2" d="M126.56,219c12.31,2.3,27.79,15.7,31.06,24.19,1,2.55,14.77,5.5,19.13,4.87,6-.87,14.46-4.43,17.48-18.9s-19.87-23.61-19.87-23.61S154,211.26,147,211.26C129.83,211.26,126.56,219,126.56,219Z"/><path class="cls-1" d="M637.76,159.05c2.21-6.32,27.47-17.35,33-17.9s25.39,7.07,26.49,9.45,2.94,10.85-2,11.21-19.74-1.66-19.74-1.66-8.22,8.4-14.43,10.23-12.1,3.19-18.51.52C638.17,169.09,635.52,165.44,637.76,159.05Z"/><path class="cls-2" d="M655.59,139.59s16.16,23.22,19.08,25-20.54,13.71-27.56,11c-2.64-1-10.32-4-10.4-12.86C636.59,150.75,653.32,140.85,655.59,139.59Z"/><ellipse class="cls-3" cx="606.18" cy="224.75" rx="3.01" ry="9.32" transform="translate(142.55 675.31) rotate(-64.52)"/><path class="cls-4" d="M633.31,216.06c1.37,9.32,0,22.07,6.82,27.28s25.13,4.39,29,.82,13.51-11.13,13-27.67c-.55-17,.55-29-14.25-43.58s-21-17.18-21-17.18L635.75,160"/><path class="cls-2" d="M643,170.84c-1.37,4.38-9.41,21.32-9.55,30.74-.13,9.2-1,36.19,5.79,41.4s27.15,5.07,31,1.5,13.5-11.13,13-27.67c-.55-17,.55-28.95-14.25-43.58s-20.15-18.42-20.15-18.42Z"/><path class="cls-5" d="M633.31,211.57V197.9s5.17-28.86,6.93-31.51,8.52-11.58,8.52-11.58L636.6,199l-3.29,12.58"/><path class="cls-1" d="M649.21,215.62s-3.29,3.1-.55,12.24-1.36,8.77-5.93,8.59-13.08,8.63-13.08,8.63,3.47,18.64,0,20.1-7.31,4.93-10.78,3.65-3.3-3.47-4.11-6S596.4,239.6,597.68,231s3.83-13.71,8.4-14.8,9.15-6.2,20.47-4.19S649.21,215.62,649.21,215.62Z"/><path class="cls-2" d="M597.9,220.53c12.31,2.3,14.52,2,17.79,10.48,1,2.55,25.68,3.7,30,3.06,6-.87,14,11.27,17-3.2s-19.87-23.61-19.87-23.61-12.69,4.08-19.69,4.08C606.09,211.34,597.9,220.53,597.9,220.53Z"/><ellipse class="cls-3" cx="621.33" cy="223.26" rx="3.01" ry="9.32" transform="translate(152.53 688.14) rotate(-64.52)"/><path class="cls-6" d="M657.23,218.59s13,5.67,15.8,14.8-6.4,15.16-11,15S644,243.44,644,243.44s3.47,18.63,0,20.1-7.31,4.93-10.78,3.65-3.3-3.47-4.12-6S610.73,238,612,229.37s3.83-13.7,8.4-14.8,8.77-3.83,20.1-1.82S657.23,218.59,657.23,218.59Z"/><path class="cls-6" d="M577.89,164.61S550.83,145,547.22,131c-3.9-15.09-2.19-20,0-27.5s7.95-15.75,10.47-19.47c2.19-3.25,11.19-12.66,19.22-14.85s15.09-5.6,31-4.14a58.13,58.13,0,0,1,27.38,10.22s15.34,13.15,18.5,28.48c.71,3.42,1.26,6.26,1.71,8.62a75.53,75.53,0,0,1,.89,21.9,64.75,64.75,0,0,1-1.38,8.67c-1.71,6.57-10,17-13.63,21.66S623.89,179,619,180.92s-25.8,7.3-28.72,5.36-3.89-9.25-5.84-12.9S577.89,164.61,577.89,164.61Z"/><path class="cls-7" d="M637.63,83.59c3.16,2.9,15.76,4,16,6.43s5,23.54,5.74,35.68c.51,7.84-6.16,22.07-6.16,22.07L633.9,123.72l-7.14,7.08-3.51-6.65,1.67-3.15-1.79.58s1.08-4.94-.09-6.89-10.54-6.72-12.62-6.64,6.1-4.65,6.1-4.65l-9.34-1.34,11-6.62-15.07-.9,6.45-2.73,32.28-10.2"/><path class="cls-8" d="M523.29,144.42c5.88-2.81,5.91-18.4,5.91-18.4l-8.56,2.58s5.65-6.67,4.31-6.79c-6.25-.53-11.12,7.58-10.92,6.7.87-3.76,7.75-14,7.75-14-1.53-4.59-10.15,2.64-10,2,1-5.59,13.76-14.41,11.56-15-2.37-.63-8.49-11.33-7.08-9.82,3.68,3.92,12.22,6.86,12,5.74-.07-.34-6.93-6.12-5.37-5.65,3.1.92,10.93-5.55,10.25-5.61-4.9-.42-17-16.84-17-16.84s8.11,6.7,22.5,5.69c8.82-.61,8-2.69,8-2.69-11.23-.71-13.32-9-12.7-8.64,7.61,4.64,11.5,2.36,10.37,2.36-3.4,0-18.81-14.59-17.52-13.57,2.16,1.71,6.22,1.54,9.82,1.64S552.87,51.82,556,50s13.64-7.07,15.81-8.17,15.49-2.73,15.49-2.73-16-3.34-13.9-3.68c4.71-.76,11.16-2,16.08-2.62,5.29-.63,8.19.25,12.34,1.08s7.78,3.64,10.66,10.63c0,0,12.3-10.76,12.58-10.35,3.69,5.29.86,15.94,1.21,16,2.29.29,3.45-6.37,3.69-5.93,3,5.45-.94,10.73,1.48,8.09s14.36-5.7,13.12-3.6-.74,10.57-.74,10.57S647.67,54,647,55.62s3,14.2,4,12.64c.64-1,3.84-5.87,5.51-8.83.35,5.64,2.86,17.52,2.86,17.52s6.83,1.92,8,1c-1.31,1.85-7.35,6.11-5.93,5.71,1.57-.44,11.81,6.65,9.52,5.33s-11.7,1.74-12.13,2.83,8.73,6,7.39,5.45-15.55.47-15.55.47,7.64,3.71,6.47,3.85-16.19-3.26-16.19-3.26L637,105.65l-29.81-3.59s12.79-7.11,11-6.62c-3.59,1-26.17,6.68-26.17,6.68s-4.72,14.59-9.23,21.53-7.91,5.49-7.75,5.21c.51-.83,3.34-4.63.21-12.57-3.1,4.82-13,24.34-13.48,24.56l.14-9.44c-3.7,1.77-4.91,13.48-4.91,13.48-5.26-1.68-6.59-8.42-6.91-4.72-.12,1.41,1.55,2.64,2.79,6.33,2,6,9.2,13,9.2,13l-10-7.14-.4-.91a8.71,8.71,0,0,1-.45,1.18c-3.75,7.51-6.78,7.54-6.41,6.67,2.46-5.64-3.3-16.83-3.3-16.83l-2.31,10.21c-3.42-3.12-1.17-3.52-4-1.33s-8.81,1.61-7,.75,6-9.21,1.31-6.77-10.28,1-10.28,1S517.42,147.23,523.29,144.42Z"/><ellipse class="cls-6" cx="641.37" cy="125.7" rx="15.16" ry="9.15" transform="translate(477.83 758.48) rotate(-86.6)"/><path class="cls-8" d="M572.65,142.69a1,1,0,0,1-.58-1.77c.1-.08,10.11-7.5,14.85-14.77a1,1,0,1,1,1.64,1.07c-4.93,7.57-14.9,15-15.33,15.28A1,1,0,0,1,572.65,142.69Z"/><path class="cls-9" d="M584.28,148.75l.12-1-.95-.27c.71-3,1.47-4.76,2.36-5.5l1.26,1.51c-.14.11-.86.86-1.68,4.33Z"/><path class="cls-2" d="M588.19,159.71a2.07,2.07,0,0,1-2.09-2c0-.49,0-3.3,3.09-10.39,1.67-3.84,5.82-7.47,6-7.62a2.07,2.07,0,0,1,2.94.22,2.13,2.13,0,0,1-.21,3s-3.61,3.16-4.89,6.11c-2.69,6.19-2.75,8.53-2.75,8.56a2.12,2.12,0,0,1-2,2.11Z"/><path class="cls-10" d="M607.36,178.67a1.19,1.19,0,0,1-.32,0,1,1,0,0,1-.61-1.24c.05-.16,1.36-4,6-8.79a1,1,0,0,1,1.42,1.36c-4.29,4.48-5.53,8-5.54,8.05A1,1,0,0,1,607.36,178.67Z"/><ellipse class="cls-11" cx="612.78" cy="148.03" rx="8.79" ry="5.31" transform="translate(74.81 476.66) rotate(-45)"/><path class="cls-6" d="M647.16,163.85c2.22-6.33,20.85-18.33,26.33-18.88s27.3,9.7,28.39,12.08,2.94,10.85-2,11.21-19.75-1.66-19.75-1.66-8.22,8.41-14.43,10.23-9.79.78-16.2-1.88C645.16,173.14,644.92,170.24,647.16,163.85Z"/><path class="cls-2" d="M662.8,145S679,168.19,681.88,170s-20.55,13.71-27.56,11c-2.65-1-10.33-3.95-10.41-12.86C643.8,156.14,660.53,146.23,662.8,145Z"/><path class="cls-2" d="M612.92,219.25c12.31,2.3,27.79,15.71,31.06,24.19,1,2.55,14.76,5.51,19.13,4.87,6-.87,14.46-4.43,17.48-18.9s-19.87-23.6-19.87-23.6-20.41,5.76-27.41,5.76C616.19,211.57,612.92,219.25,612.92,219.25Z"/><path class="cls-1" d="M876.54,159.6c2.22-6.33,27.47-17.36,33-17.91s27,14,28.12,16.39,2.94,10.86-2,11.22-21.38-8.61-21.38-8.61-8.22,8.41-14.43,10.24-12.09,3.18-18.51.52C877,169.64,874.3,166,876.54,159.6Z"/><path class="cls-2" d="M894.38,140.13s16.16,23.22,19.08,25.05-20.55,13.71-27.56,11c-2.65-1-10.32-3.95-10.41-12.86C875.38,151.29,892.11,141.39,894.38,140.13Z"/><ellipse class="cls-3" cx="844.96" cy="225.29" rx="3.01" ry="9.32" transform="translate(278.13 891.19) rotate(-64.52)"/><path class="cls-4" d="M872.1,216.61c1.37,9.31,0,22.06,6.81,27.27s25.13,4.39,29,.83,13.5-11.13,13-27.68c-.55-17,.55-28.95-14.25-43.57s-21-17.19-21-17.19l-11.06,4.31"/><path class="cls-2" d="M881.75,171.38c-1.37,4.39-9.4,21.32-9.54,30.74-.13,9.2-1.05,36.19,5.78,41.4s27.15,5.07,31,1.51,13.5-11.13,13-27.68c-.55-17,.54-28.95-14.25-43.57s-20.15-18.43-20.15-18.43Z"/><path class="cls-5" d="M872.1,212.11V198.44s5.16-28.86,6.92-31.51,8.53-11.58,8.53-11.58l-12.16,44.19-3.29,12.57"/><path class="cls-1" d="M888,216.16s-3.28,3.11-.54,12.24-1.36,8.77-5.93,8.59a105.09,105.09,0,0,1-12.26-1.7s8.66,17.52,9.37,23c.51,3.95-7.41,9.91-9.37,9.63-3.66-.53-15.88-12-16.7-14.53s-14.14-19.11-12.86-27.7.6-7.83,5.17-8.93,9.14-6.2,20.47-4.19S888,216.16,888,216.16Z"/><path class="cls-2" d="M836.69,221.07c12.31,2.3,14.52,2,17.79,10.48,1,2.55,25.68,3.7,30,3.06,6-.87,14,11.27,17.05-3.2S881.7,207.8,881.7,207.8,869,211.89,862,211.89C844.88,211.89,836.69,221.07,836.69,221.07Z"/><ellipse class="cls-3" cx="860.12" cy="223.8" rx="3.01" ry="9.32" transform="translate(288.11 904.02) rotate(-64.52)"/><path class="cls-6" d="M896,219.14s13.05,5.66,15.79,14.79-6.39,15.17-11,15S880.16,233,880.16,233s-9.72,31.81-12.59,34.25c-3.6,3.06-7.31,4.93-10.78,3.66s-3.3-3.48-4.12-6-3.16-26.36-1.88-34.94,3.84-13.71,8.41-14.8,8.76-3.84,20.09-1.83S896,219.14,896,219.14Z"/><path class="cls-6" d="M816.67,165.16S789.61,145.54,786,131.57c-3.89-15.09-2.19-20,0-27.51s8-15.75,10.47-19.47c2.19-3.25,11.2-12.66,19.23-14.85s15.08-5.6,31-4.14a58.21,58.21,0,0,1,27.39,10.23s15.33,13.14,18.5,28.48c.7,3.41,1.26,6.26,1.7,8.62a75.46,75.46,0,0,1,.9,21.89,63.06,63.06,0,0,1-1.39,8.67c-1.7,6.58-10,17-13.63,21.67s-17.52,14.36-22.39,16.31-25.8,7.3-28.72,5.35-3.9-9.25-5.84-12.9S816.67,165.16,816.67,165.16Z"/><path class="cls-7" d="M876.42,84.13c3.16,2.9,15.75,4,16,6.44s4.95,23.54,5.74,35.68c.51,7.83-6.16,22.07-6.16,22.07l-19.36-24-7.13,7.08L862,124.69l1.67-3.14-1.79.57s1.07-4.94-.09-6.88-10.54-6.73-12.62-6.64S855.3,104,855.3,104L846,102.6,857,96l-15.07-.89,6.44-2.74,32.29-10.19"/><ellipse class="cls-6" cx="880.16" cy="126.25" rx="15.16" ry="9.15" transform="translate(701.91 997.36) rotate(-86.6)"/><path class="cls-8" d="M759.62,142.1c5.88-2.81,8.64-15.63,8.64-15.63L756.65,130s8.7-7.59,7.35-7.7c-6.24-.53-13.65,3.6-13.44,2.72.87-3.76,10.28-10.08,10.28-10.08-1.53-4.58-12,3.76-10,2,4.22-3.79,13.76-14.4,11.57-15-2.37-.62-8.49-11.32-7.08-9.81C759,96,767.5,99,767.27,97.83c-.07-.34-7.37-17.33-6.9-15.77,1.27,4.24,12.45,4.56,11.78,4.51-4.9-.42-16.62-24.84-16.62-24.84s7.7,14.69,22.09,13.69c8.83-.62,8-2.7,8-2.7-11.23-.7-13.32-9-12.71-8.64,7.61,4.65,11.51,2.36,10.38,2.37-3.4,0-18.81-14.6-17.52-13.58,2.16,1.71,6.22,1.55,9.82,1.65s16.36-2.25,19.47-4.08,13.65-7.08,15.82-8.18,15.49-2.73,15.49-2.73-16-8.53-13.89-8.32c6.79.68,11.14,2.62,16.07,2,5.28-.64,8.18.25,12.34,1.07S848.64,38,851.53,45c0,0,12.29-10.77,12.58-10.35,3.69,5.29.85,15.93,1.2,16,2.29.29,3.46-6.37,3.7-5.93,3,5.44-1,10.73,1.47,8.09s14.37-5.71,13.13-3.6-.75,10.57-.75,10.57,3.87-5.29,3.23-3.65,3,14.21,4,12.65c.64-1,3.83-5.88,5.51-8.83.34,5.64,2.86,17.51,2.86,17.51s6.82,1.92,8,1c-1.31,1.85-7.36,6.12-5.94,5.72s11.81,6.64,9.53,5.33S898.42,91.21,898,92.31s8.72,6,7.38,5.45-15.54.47-15.54.47,7.64,3.71,6.47,3.84-16.2-3.26-16.2-3.26l-4.06,7.29-29.82-3.6s12.79-7.11,11-6.62c-3.6,1-26.18,6.68-26.18,6.68s-4.07,12.13-8.58,19.07-12,7.35-11.79,7.07a24.42,24.42,0,0,0,3.61-12c-3.11,4.82-14.8,28.17-15.27,28.4L801,131.85c-3.7,1.77-4.92,13.49-4.92,13.49-5.25-1.69-5.92-3.76-5.5-2.88a11.44,11.44,0,0,1,1.39,4.48c1,5.78-4.18,11.39-4.18,11.39l1.82-4.83c-3.59,5.5-8.8,7.52-8.4,6.66,6.7-14.33-.63-17.22-.63-17.22l-2.91,9.18c-3.42-3.12-1.18-3.52-4-1.33s-8.81,1.61-7,.76,6.57-8.18,1.92-5.74-13-1.76-13-1.76S753.74,144.9,759.62,142.1Z"/><path class="cls-8" d="M811.44,143.23a1,1,0,0,1-.59-1.77c.1-.08,10.11-7.5,14.85-14.77a1,1,0,0,1,1.65,1.07c-4.94,7.58-14.91,15-15.33,15.28A1,1,0,0,1,811.44,143.23Z"/><path class="cls-9" d="M823.07,149.29l.11-1-.94-.27c.71-3,1.46-4.76,2.35-5.5l1.26,1.51c-.14.12-.85.86-1.67,4.33Z"/><path class="cls-2" d="M827,160.26a2.08,2.08,0,0,1-2.09-2c0-.49,0-3.3,3.1-10.39,1.67-3.84,5.82-7.47,6-7.62a2.08,2.08,0,0,1,2.95.22,2.13,2.13,0,0,1-.22,3s-3.6,3.16-4.89,6.12c-2.69,6.18-2.74,8.52-2.74,8.55a2.13,2.13,0,0,1-2.05,2.12Z"/><path class="cls-10" d="M846.14,179.21a.84.84,0,0,1-.31-.05,1,1,0,0,1-.62-1.24c0-.16,1.36-4,6-8.79a1,1,0,1,1,1.42,1.36c-4.3,4.48-5.54,8-5.55,8.06A1,1,0,0,1,846.14,179.21Z"/><ellipse class="cls-11" cx="851.57" cy="148.57" rx="8.79" ry="5.31" transform="translate(144.36 645.67) rotate(-45)"/><path class="cls-6" d="M886,164.39c2.21-6.33,20.85-18.33,26.33-18.87s33.39-1.13,34.48,1.25,2.94,10.85-2,11.21-25.84,9.17-25.84,9.17-8.22,8.4-14.43,10.23-9.79.78-16.21-1.89C883.94,173.68,883.71,170.78,886,164.39Z"/><path class="cls-2" d="M901.58,145.52s16.16,23.22,19.08,25-20.55,13.72-27.56,11.05c-2.65-1-10.32-4-10.4-12.86C882.58,156.68,899.31,146.77,901.58,145.52Z"/><path class="cls-2" d="M851.71,219.79c12.31,2.3,27.78,15.71,31,24.19,1,2.56,14.77,5.51,19.14,4.88,6-.88,14.45-4.43,17.47-18.9s-19.87-23.61-19.87-23.61-20.4,5.76-27.4,5.76C855,212.11,851.71,219.79,851.71,219.79Z"/><path class="cls-1" d="M393.22,160.51c2.22-6.33,27.47-17.36,33-17.9s28.65-7.13,29.74-4.75,2.14,11.62-2.59,13.06c-4.58,1.39-22.4,10.69-22.4,10.69s-8.23,8.4-14.44,10.23S404.4,175,398,172.36C393.63,170.55,391,166.9,393.22,160.51Z"/><path class="cls-2" d="M411.06,141s16.16,23.22,19.08,25.05-20.55,13.71-27.56,11c-2.65-1-10.32-3.95-10.41-12.86C392.06,152.2,408.79,142.3,411.06,141Z"/><ellipse class="cls-3" cx="361.64" cy="226.2" rx="3.01" ry="9.32" transform="translate(1.88 455.38) rotate(-64.52)"/><path class="cls-4" d="M388.78,217.52c1.37,9.31,0,22.07,6.81,27.27s25.13,4.39,29,.83,13.5-11.13,13-27.68c-.55-17,.55-28.95-14.25-43.57s-21-17.19-21-17.19l-11.06,4.31"/><path class="cls-2" d="M398.43,172.29c-1.37,4.39-9.4,21.32-9.54,30.74-.13,9.2-1.05,36.19,5.78,41.4s27.15,5.07,31,1.51,13.5-11.13,13-27.68c-.55-17,.54-28.95-14.25-43.57s-20.15-18.43-20.15-18.43Z"/><path class="cls-5" d="M388.78,213V199.35s5.16-28.86,6.92-31.51,8.53-11.58,8.53-11.58l-12.16,44.19L388.78,213"/><path class="cls-1" d="M404.67,217.07s-3.28,3.11-.54,12.24-1.36,8.77-5.93,8.59-23.61,7.74-23.61,7.74-1.55,20.66-5,22.12-5.43,2.44-8.9,1.16-3.3-3.47-4.12-6-4.68-21.83-3.41-30.42,3.84-13.7,8.41-14.8,9.14-6.2,20.47-4.19S404.67,217.07,404.67,217.07Z"/><path class="cls-2" d="M353.37,222c12.31,2.3,14.52,2,17.79,10.48,1,2.56,25.68,3.7,30,3.07,6-.88,14,11.26,17.05-3.21s-19.87-23.61-19.87-23.61-12.69,4.09-19.69,4.09C361.56,212.8,353.37,222,353.37,222Z"/><ellipse class="cls-3" cx="376.8" cy="224.71" rx="3.01" ry="9.32" transform="translate(11.86 468.22) rotate(-64.52)"/><path class="cls-6" d="M412.7,220.05s13.05,5.66,15.79,14.8-6.39,15.16-11,15-21-11.77-21-11.77.81,26.06-2.66,27.52-7.3,4.93-10.78,3.65-3.29-3.47-4.11-6-12.76-23.8-11.48-32.38,3.84-13.71,8.41-14.8,8.77-3.84,20.09-1.83S412.7,220.05,412.7,220.05Z"/><path class="cls-6" d="M333.35,166.07s-27.06-19.61-30.66-33.59c-3.9-15.09-2.2-20,0-27.51s7.95-15.75,10.46-19.47c2.19-3.24,11.2-12.66,19.23-14.85s15.08-5.6,31-4.13A58.14,58.14,0,0,1,390.8,76.74s15.33,13.14,18.5,28.48c.7,3.41,1.26,6.26,1.71,8.62a75.86,75.86,0,0,1,.89,21.9,63.57,63.57,0,0,1-1.39,8.67c-1.7,6.57-10,17-13.63,21.66s-17.52,14.36-22.39,16.31-25.8,7.3-28.72,5.35-3.9-9.25-5.84-12.9S333.35,166.07,333.35,166.07Z"/><path class="cls-7" d="M393.1,85c3.16,2.9,15.75,4,16,6.44s4.95,23.54,5.74,35.68c.51,7.83-6.15,22.07-6.15,22.07l-19.36-24-7.14,7.08-3.51-6.66,1.67-3.14-1.79.57s1.07-4.94-.09-6.88-10.54-6.73-12.62-6.64,6.09-4.65,6.09-4.65l-9.34-1.35,11-6.62L358.61,96l6.44-2.74,32.29-10.19"/><path class="cls-8" d="M276,143.1c5.88-2.8,8.64-15.62,8.64-15.62L273.06,131s8.7-7.59,7.35-7.7c-6.24-.53-13.65,3.6-13.44,2.72.87-3.76,10.28-10.08,10.28-10.08-1.53-4.59-12,3.75-10,2,4.22-3.79,13.76-14.4,11.57-15-2.37-.62-8.49-11.32-7.08-9.82,3.68,3.92,12.21,6.86,12,5.75-.07-.35-7.37-17.33-6.91-15.77,1.28,4.24,12.46,4.56,11.79,4.5-4.9-.41-16.62-24.84-16.62-24.84s7.7,14.7,22.09,13.7c8.83-.62,8-2.7,8-2.7-11.23-.7-13.32-9-12.71-8.64,7.61,4.65,11.51,2.36,10.38,2.37-3.4,0-18.81-14.6-17.52-13.58,2.16,1.71,6.22,1.54,9.82,1.65s16.36-2.26,19.47-4.08,13.65-7.08,15.82-8.18,15.49-2.73,15.49-2.73-16-8.53-13.89-8.32c6.79.68,11.14,2.62,16.07,2,5.28-.63,8.18.26,12.34,1.08S365.05,39,367.94,46c0,0,12.29-10.77,12.58-10.36,3.69,5.29.85,15.94,1.2,16,2.29.29,3.46-6.37,3.7-5.93,3,5.44-.95,10.72,1.47,8.09S401.26,48,400,50.15s-.75,10.57-.75,10.57,3.87-5.29,3.23-3.65,3,14.2,4,12.65c.64-1,3.83-5.88,5.51-8.83.34,5.64,2.86,17.51,2.86,17.51s6.82,1.92,8,1c-1.31,1.85-7.36,6.12-5.94,5.72s11.81,6.64,9.53,5.33-11.71,1.73-12.13,2.83,8.72,6,7.38,5.44-15.54.47-15.54.47,7.64,3.72,6.47,3.85-16.2-3.26-16.2-3.26l-4.06,7.29-29.82-3.6s12.79-7.11,11-6.62c-3.6,1-26.18,6.68-26.18,6.68s-4.07,12.13-8.58,19.07S327,130,327.13,129.71a24.42,24.42,0,0,0,3.61-12c-3.11,4.82-14.8,28.17-15.27,28.39l1.93-13.27c-3.7,1.77-4.92,13.49-4.92,13.49-5.25-1.69-5.92-3.76-5.5-2.88a11.44,11.44,0,0,1,1.39,4.48c1,5.78-4.18,11.39-4.18,11.39l1.82-4.83c-3.59,5.5-8.8,7.51-8.4,6.66C304.31,146.83,297,144,297,144l-2.91,9.18c-3.42-3.12-1.18-3.52-4-1.33s-8.81,1.61-7,.75,6.57-8.18,1.92-5.74-13-1.75-13-1.75S270.15,145.91,276,143.1Z"/><ellipse class="cls-6" cx="396.84" cy="127.16" rx="15.16" ry="9.15" transform="translate(246.36 515.75) rotate(-86.6)"/><path class="cls-8" d="M328.12,144.14a1,1,0,0,1-.59-1.77c.11-.07,10.11-7.5,14.85-14.77a1,1,0,1,1,1.65,1.07c-4.94,7.58-14.91,15-15.33,15.28A1,1,0,0,1,328.12,144.14Z"/><path class="cls-9" d="M339.75,150.2l.11-1-.94-.27c.71-3,1.47-4.75,2.35-5.49l1.26,1.5c-.13.12-.85.86-1.67,4.33Z"/><path class="cls-2" d="M343.65,161.17a2.08,2.08,0,0,1-2.09-2c0-.49,0-3.29,3.1-10.39,1.67-3.84,5.82-7.46,6-7.62a2.08,2.08,0,0,1,3,.23,2.11,2.11,0,0,1-.22,3s-3.6,3.16-4.89,6.12c-2.69,6.19-2.74,8.53-2.74,8.55a2.13,2.13,0,0,1-2.05,2.12Z"/><path class="cls-10" d="M362.82,180.12a.84.84,0,0,1-.31-.05,1,1,0,0,1-.62-1.24c.05-.16,1.36-4,6-8.79a1,1,0,0,1,1.42,1.36c-4.29,4.48-5.54,8-5.55,8.06A1,1,0,0,1,362.82,180.12Z"/><ellipse class="cls-11" cx="368.25" cy="149.48" rx="8.79" ry="5.31" transform="translate(2.16 304.17) rotate(-45)"/><path class="cls-6" d="M402.63,165.3C404.85,159,423.48,147,429,146.43s28.92,6.16,30,8.53,2.94,10.86-2,11.22-21.37,1.88-21.37,1.88-8.22,8.4-14.43,10.23-9.79.78-16.21-1.89C400.62,174.59,400.39,171.69,402.63,165.3Z"/><path class="cls-2" d="M418.26,146.43s16.16,23.22,19.08,25-20.54,13.72-27.56,11.05c-2.64-1-10.32-4-10.4-12.86C399.26,157.59,416,147.69,418.26,146.43Z"/><path class="cls-2" d="M368.39,220.7c12.31,2.3,27.78,15.71,31.05,24.19,1,2.56,14.77,5.51,19.14,4.88,6-.88,14.45-4.43,17.47-18.9s-19.87-23.61-19.87-23.61-20.4,5.76-27.4,5.76C371.65,213,368.39,220.7,368.39,220.7Z"/></g></svg>