<svg xmlns="http://www.w3.org/2000/svg" viewBox="0 0 1938.33 301.06"><defs><style>.cls-1{fill:#f7b3b1;}.cls-2{fill:#f9cfcf;}.cls-3{fill:#0b0c06;}.cls-4{fill:#142a2a;}.cls-5{fill:#f9644b;}.cls-6{fill:#3f4242;}</style></defs><title>fond2Plan de travail 8</title><g id="Calque_4" data-name="Calque 4"><path class="cls-1" d="M203.84,49.15c-5.74-12.9-20.64-34.9-57-42.72-45-9.67-71.15,7.34-80.79,16A64.34,64.34,0,0,0,43.34,71.5V99.72a64.21,64.21,0,0,0,13.88,39.95c-2.12,3.45-3.85,6.82-4.25,9.63-.89,6.29,7.73,8.92,7.73,8.92s37.21,14.61,58.91,24.7,6,42.59-.55,46.78c-7,4.47-.26,15.65-2.68,22.15-2.85,7.65-12.66,10.77-12.68,16.53,0,11.11-8.09,29.35,1.71,20.69,11.77-10.4,7.82-14.52,28.3-26.75,8.83-5.27,13.16-11.76,5.11-24.45-1.89-3,.8-12.65,24.17-29.21s16-22.39,11-33.27c-5.2-11.42-9.13-18-9-24.25a64.41,64.41,0,0,0,25.56-51.42V76.45a43.3,43.3,0,0,1,9.53-13.13C204.55,59.32,206,54,203.84,49.15Z"/><path class="cls-2" d="M144.15,164.65c0-6.5,10.93-17.33,12.6-19,4-3.45,6.25-7.45,6.25-11.72,0-12.95-20.93-23.45-46.75-23.45S69.49,121,69.49,134c0,6.61,5.45,12.57,14.21,16.83,10.84,6.27,30.07,14.38,36.64,18.67,9.68,6.3,16.72,14.28,21.21,19.65,10.23,12.25-14.72,36.7-16,42.27-1.21,5.26,1.3,13.06.19,16.21s-11,16.42-11,16.42,16.74-9.64,17.49-17.06-6-13.72,8.93-27.81,23.44-17.8,16.74-29.29S144.15,171.7,144.15,164.65Z"/><ellipse class="cls-3" cx="88.29" cy="114.98" rx="27.67" ry="15.86" transform="translate(-23.29 22.43) rotate(-12.8)"/><ellipse class="cls-3" cx="147" cy="114.98" rx="15.86" ry="27.67" transform="translate(6.01 237.26) rotate(-78.97)"/><ellipse class="cls-3" cx="97.26" cy="126.08" rx="10.87" ry="19.69"/><ellipse class="cls-3" cx="119.36" cy="125.65" rx="10.87" ry="19.69"/><ellipse class="cls-3" cx="139.99" cy="124.6" rx="10.87" ry="19.69"/><path class="cls-3" d="M118,70.31A59.43,59.43,0,0,1,68.26,43.52a61.84,61.84,0,0,0-9.87,33.66c0,33.58,26.43,60.81,59,60.81s59-27.23,59-60.81a61.85,61.85,0,0,0-9.47-33A58.93,58.93,0,0,1,118,70.31Z"/><path class="cls-4" d="M118,70.31a58.93,58.93,0,0,0,49-26.15,58.06,58.06,0,0,0-98.7-.64A59.43,59.43,0,0,0,118,70.31Z"/><ellipse class="cls-5" cx="115.28" cy="111.89" rx="7.09" ry="4.1" transform="translate(-45.14 120.67) rotate(-47.28)"/><ellipse class="cls-5" cx="120.87" cy="111.65" rx="4.1" ry="7.09" transform="translate(-43.15 124.7) rotate(-47.28)"/><ellipse class="cls-4" cx="88.64" cy="96.93" rx="15.06" ry="16.67" transform="translate(-30.51 152.2) rotate(-72.44)"/><ellipse class="cls-4" cx="148.73" cy="96.93" rx="16.67" ry="15.06" transform="translate(-24.88 59.85) rotate(-21.04)"/><ellipse class="cls-5" cx="88.78" cy="97.18" rx="10.19" ry="11.27" transform="matrix(0.3, -0.95, 0.95, 0.3, -30.65, 152.51)"/><ellipse class="cls-5" cx="148.69" cy="97.21" rx="11.27" ry="10.19" transform="translate(-6.67 11.06) rotate(-4.17)"/><ellipse class="cls-6" cx="146.01" cy="39.85" rx="8" ry="11.63" transform="translate(9.44 105.09) rotate(-40.8)"/><path class="cls-1" d="M445.72,49.15c-5.74-12.9-20.64-34.9-57-42.72-45-9.67-71.15,7.34-80.79,16A64.34,64.34,0,0,0,285.22,71.5V99.72a64.21,64.21,0,0,0,13.88,39.95c-4.37,12.61,7.23,17.12,7.23,17.12s15,4.7,36.43,20.94c19.08,14.46,24.75,47.78,18.18,52-7,4.47,4.8,14,2.38,20.49-2.85,7.66-7.85,12.43-7.88,18.19-.05,11.11-8.09,29.35,1.72,20.69,11.77-10.4-6.65-13.16,13.84-25.39,8.82-5.26,17.75-13.12,9.7-25.81-1.89-3-14.74-13.34,8.63-29.9s16-22.39,11-33.27c-5.21-11.42,6.4-17.36,6.52-23.56a64.41,64.41,0,0,0,25.56-51.42V76.45A43.3,43.3,0,0,1,442,63.32C446.43,59.32,447.9,54,445.72,49.15Z"/><path class="cls-2" d="M386,164.65c0-6.5,10.93-17.33,12.6-19,4-3.45,6.25-7.45,6.25-11.72,0-12.95-20.93-23.45-46.75-23.45S311.37,121,311.37,134c0,6.61,5.45,12.57,14.21,16.83,10.84,6.27,7,4,13.56,8.31,9.67,6.31,20.51,20.13,25,25.5,10.23,12.25,4.57,41.21,3.29,46.78a21.58,21.58,0,0,0,1.3,13.06c2.27,5.46-3.4,17.1-3.4,17.1s8.05-7.17,8.8-14.59-5.41-23.44,4.23-37c11.9-16.69,23.44-17.8,16.75-29.29S386,171.7,386,164.65Z"/><ellipse class="cls-3" cx="330.17" cy="114.98" rx="27.67" ry="15.86" transform="translate(-17.27 76.03) rotate(-12.8)"/><ellipse class="cls-3" cx="388.88" cy="114.98" rx="15.86" ry="27.67" transform="translate(201.6 474.67) rotate(-78.97)"/><ellipse class="cls-3" cx="339.14" cy="126.08" rx="10.87" ry="19.69"/><ellipse class="cls-3" cx="361.24" cy="125.65" rx="10.87" ry="19.69"/><ellipse class="cls-3" cx="381.87" cy="124.6" rx="10.87" ry="19.69"/><path class="cls-3" d="M359.83,70.31a59.43,59.43,0,0,1-49.69-26.79,61.84,61.84,0,0,0-9.87,33.66c0,33.58,26.43,60.81,59,60.81s59-27.23,59-60.81a61.85,61.85,0,0,0-9.47-33A58.93,58.93,0,0,1,359.83,70.31Z"/><path class="cls-4" d="M359.83,70.31a58.93,58.93,0,0,0,49-26.15,58.06,58.06,0,0,0-98.7-.64A59.43,59.43,0,0,0,359.83,70.31Z"/><ellipse class="cls-5" cx="357.16" cy="111.89" rx="7.09" ry="4.1" transform="translate(32.64 298.36) rotate(-47.28)"/><ellipse class="cls-5" cx="362.75" cy="111.65" rx="4.1" ry="7.09" transform="translate(34.62 302.39) rotate(-47.28)"/><ellipse class="cls-4" cx="330.52" cy="96.93" rx="15.06" ry="16.67" transform="translate(138.41 382.82) rotate(-72.44)"/><ellipse class="cls-4" cx="390.61" cy="96.93" rx="16.67" ry="15.06" transform="translate(-8.76 146.68) rotate(-21.04)"/><ellipse class="cls-5" cx="330.66" cy="97.18" rx="10.19" ry="11.27" transform="translate(138.27 383.13) rotate(-72.44)"/><ellipse class="cls-5" cx="390.57" cy="97.21" rx="11.27" ry="10.19" transform="translate(-6.03 28.62) rotate(-4.17)"/><ellipse class="cls-6" cx="387.89" cy="39.85" rx="8" ry="11.63" transform="translate(68.22 263.14) rotate(-40.8)"/><path class="cls-1" d="M1897,49.15c-5.74-12.9-20.64-34.9-57-42.72-45-9.67-71.15,7.34-80.79,16A64.34,64.34,0,0,0,1736.5,71.5V99.72a64.21,64.21,0,0,0,13.88,39.95c-4.37,12.61,7.23,17.12,7.23,17.12s15,4.7,36.43,20.94c19.08,14.46,24.75,47.78,18.18,52-7,4.47,4.8,14,2.38,20.49-2.85,7.66-7.85,12.43-7.88,18.19,0,11.11-8.09,29.35,1.72,20.69,11.77-10.4-6.65-13.16,13.84-25.39,8.82-5.26,17.75-13.12,9.7-25.81-1.89-3-14.74-13.34,8.63-29.9s16-22.39,11-33.27c-5.2-11.42,6.41-17.36,6.53-23.56a64.41,64.41,0,0,0,25.56-51.42V76.45a43.3,43.3,0,0,1,9.53-13.13C1897.71,59.32,1899.18,54,1897,49.15Z"/><path class="cls-2" d="M1837.31,164.65c0-6.5,10.93-17.33,12.6-19,4-3.45,6.25-7.45,6.25-11.72,0-12.95-20.93-23.45-46.75-23.45S1762.65,121,1762.65,134c0,6.61,5.45,12.57,14.2,16.83,10.85,6.27,7,4,13.57,8.31,9.67,6.31,20.51,20.13,25,25.5,10.24,12.25,4.58,41.21,3.3,46.78a21.58,21.58,0,0,0,1.3,13.06c2.27,5.46-3.4,17.1-3.4,17.1s8.05-7.17,8.8-14.59-5.41-23.44,4.23-37c11.9-16.69,23.44-17.8,16.75-29.29S1837.31,171.7,1837.31,164.65Z"/><ellipse class="cls-3" cx="1781.45" cy="114.98" rx="27.67" ry="15.86" transform="translate(18.81 397.65) rotate(-12.8)"/><ellipse class="cls-3" cx="1840.16" cy="114.98" rx="15.86" ry="27.67" transform="matrix(0.19, -0.98, 0.98, 0.19, 1375.12, 1899.12)"/><ellipse class="cls-3" cx="1790.42" cy="126.08" rx="10.87" ry="19.69"/><ellipse class="cls-3" cx="1812.52" cy="125.65" rx="10.87" ry="19.69"/><ellipse class="cls-3" cx="1833.15" cy="124.6" rx="10.87" ry="19.69"/><path class="cls-3" d="M1811.11,70.31a59.43,59.43,0,0,1-49.69-26.79,61.84,61.84,0,0,0-9.87,33.66c0,33.58,26.43,60.81,59,60.81s59-27.23,59-60.81a61.85,61.85,0,0,0-9.47-33A58.93,58.93,0,0,1,1811.11,70.31Z"/><path class="cls-4" d="M1811.11,70.31a58.93,58.93,0,0,0,49-26.15,58.06,58.06,0,0,0-98.7-.64A59.43,59.43,0,0,0,1811.11,70.31Z"/><ellipse class="cls-5" cx="1808.44" cy="111.89" rx="7.09" ry="4.1" transform="translate(499.29 1364.53) rotate(-47.28)"/><ellipse class="cls-5" cx="1814.03" cy="111.65" rx="4.1" ry="7.09" transform="translate(501.27 1368.57) rotate(-47.28)"/><ellipse class="cls-4" cx="1781.8" cy="96.93" rx="15.06" ry="16.67" transform="translate(1151.93 1766.5) rotate(-72.44)"/><ellipse class="cls-4" cx="1841.89" cy="96.93" rx="16.67" ry="15.06" transform="translate(87.98 667.67) rotate(-21.04)"/><ellipse class="cls-5" cx="1781.94" cy="97.18" rx="10.19" ry="11.27" transform="translate(1151.8 1766.81) rotate(-72.44)"/><ellipse class="cls-5" cx="1841.85" cy="97.21" rx="11.27" ry="10.19" transform="translate(-2.2 134.03) rotate(-4.17)"/><ellipse class="cls-6" cx="1839.17" cy="39.85" rx="8" ry="11.63" transform="translate(420.88 1211.43) rotate(-40.8)"/><path class="cls-1" d="M687.6,47.7C681.86,34.81,667,12.81,630.57,5c-45-9.67-71.15,7.34-80.79,16A64.32,64.32,0,0,0,527.1,70.06V98.28A64.24,64.24,0,0,0,541,138.23c-2.12,3.45,11,16.43,11,16.43s6.53,12.61,25.29,27.14c18.92,14.66,32.08,42.26,25.51,46.45-7,4.47,11.73,15.66,9.31,22.15-2.85,7.65-4.26,12.71-4.28,18.47-.05,11.11-5,30.39,4.78,21.73,11.77-10.4-11-19.3,9.48-31.53,8.82-5.26,2.32-13.23-5.73-25.92-1.89-3-5.14-10.79,18.23-27.35s11.84-21.49,6.88-32.37c-5.2-11.42,7.15-17.54,7.27-23.74a64.41,64.41,0,0,0,25.56-51.41V75a43.24,43.24,0,0,1,9.53-13.12C688.31,57.87,689.78,52.59,687.6,47.7Z"/><path class="cls-2" d="M627.91,165.06c.18-6.19,10.93-19.19,12.6-20.81,4-3.45,6.25-7.44,6.25-11.71,0-12.95-20.93-23.45-46.75-23.45s-46.76,10.5-46.76,23.45c0,6.48,11.24,14.89,13.72,16.59,7.12,4.85,5.52,16,28.94,33.41,11.54,8.56,13.22,37.22,11.94,42.79-1.21,5.26,2.24,11.65,6.57,17,4.61,5.72,1.13,13,.7,15.35-.28,1.53,8.22-8.55,4.33-12.7-10.27-10.93-9.07-28.75-3.07-34.19C643.81,185.94,627.54,177.61,627.91,165.06Z"/><ellipse class="cls-3" cx="572.05" cy="113.54" rx="27.67" ry="15.86" transform="translate(-10.94 129.6) rotate(-12.8)"/><ellipse class="cls-3" cx="630.76" cy="113.54" rx="15.86" ry="27.67" transform="translate(398.61 710.91) rotate(-78.97)"/><ellipse class="cls-3" cx="581.02" cy="124.64" rx="10.87" ry="19.69"/><ellipse class="cls-3" cx="603.12" cy="124.2" rx="10.87" ry="19.69"/><ellipse class="cls-3" cx="623.75" cy="123.16" rx="10.87" ry="19.69"/><path class="cls-3" d="M601.71,68.86A59.41,59.41,0,0,1,552,42.07a61.84,61.84,0,0,0-9.87,33.66c0,33.58,26.43,60.81,59,60.81s59-27.23,59-60.81a61.84,61.84,0,0,0-9.47-33A58.94,58.94,0,0,1,601.71,68.86Z"/><path class="cls-4" d="M601.71,68.86a58.94,58.94,0,0,0,49-26.14,58.06,58.06,0,0,0-98.7-.65A59.41,59.41,0,0,0,601.71,68.86Z"/><ellipse class="cls-5" cx="599.04" cy="110.45" rx="7.09" ry="4.1" transform="translate(111.48 475.59) rotate(-47.28)"/><ellipse class="cls-5" cx="604.63" cy="110.2" rx="4.1" ry="7.09" transform="translate(113.46 479.62) rotate(-47.28)"/><ellipse class="cls-4" cx="572.4" cy="95.48" rx="15.06" ry="16.67" transform="translate(308.71 612.42) rotate(-72.44)"/><ellipse class="cls-4" cx="632.49" cy="95.48" rx="16.67" ry="15.06" transform="translate(7.88 233.42) rotate(-21.04)"/><ellipse class="cls-5" cx="572.54" cy="95.73" rx="10.19" ry="11.27" transform="translate(308.57 612.73) rotate(-72.44)"/><ellipse class="cls-5" cx="632.45" cy="95.76" rx="11.27" ry="10.19" transform="translate(-5.29 46.19) rotate(-4.17)"/><ellipse class="cls-6" cx="629.77" cy="38.41" rx="8" ry="11.63" transform="translate(127.94 420.84) rotate(-40.8)"/><path class="cls-1" d="M1655.12,47.7c-5.74-12.89-20.64-34.89-57-42.72-45-9.67-71.15,7.34-80.79,16a64.32,64.32,0,0,0-22.68,49.08V98.28a64.24,64.24,0,0,0,13.88,39.95c-2.12,3.45,11,16.43,11,16.43s6.53,12.61,25.29,27.14c18.92,14.66,32.08,42.26,25.51,46.45-7,4.47,11.73,15.66,9.31,22.15-2.85,7.65-4.26,12.71-4.28,18.47,0,11.11-5,30.39,4.78,21.73,11.77-10.4-11-19.3,9.48-31.53,8.82-5.26,2.32-13.23-5.73-25.92-1.89-3-5.14-10.79,18.23-27.35s11.84-21.49,6.88-32.37c-5.2-11.42,7.15-17.54,7.27-23.74a64.41,64.41,0,0,0,25.56-51.41V75a43.24,43.24,0,0,1,9.53-13.12C1655.83,57.87,1657.3,52.59,1655.12,47.7Z"/><path class="cls-2" d="M1595.43,165.06c.18-6.19,10.93-19.19,12.6-20.81,4-3.45,6.25-7.44,6.25-11.71,0-12.95-20.93-23.45-46.75-23.45s-46.76,10.5-46.76,23.45c0,6.48,11.24,14.89,13.72,16.59,7.12,4.85,5.52,16,28.94,33.41,11.54,8.56,13.22,37.22,11.94,42.79-1.21,5.26,2.24,11.65,6.57,17,4.61,5.72,1.13,13,.7,15.35-.28,1.53,8.22-8.55,4.33-12.7-10.27-10.93-9.07-28.75-3.07-34.19C1611.33,185.94,1595.06,177.61,1595.43,165.06Z"/><ellipse class="cls-3" cx="1539.57" cy="113.54" rx="27.67" ry="15.86" transform="translate(13.12 344.01) rotate(-12.8)"/><ellipse class="cls-3" cx="1598.28" cy="113.54" rx="15.86" ry="27.67" transform="translate(1180.96 1660.54) rotate(-78.97)"/><ellipse class="cls-3" cx="1548.54" cy="124.64" rx="10.87" ry="19.69"/><ellipse class="cls-3" cx="1570.64" cy="124.2" rx="10.87" ry="19.69"/><ellipse class="cls-3" cx="1591.27" cy="123.16" rx="10.87" ry="19.69"/><path class="cls-3" d="M1569.23,68.86a59.41,59.41,0,0,1-49.69-26.79,61.84,61.84,0,0,0-9.87,33.66c0,33.58,26.43,60.81,59,60.81s59-27.23,59-60.81a61.84,61.84,0,0,0-9.47-33A58.94,58.94,0,0,1,1569.23,68.86Z"/><path class="cls-4" d="M1569.23,68.86a58.94,58.94,0,0,0,49-26.14,58.06,58.06,0,0,0-98.7-.65A59.41,59.41,0,0,0,1569.23,68.86Z"/><ellipse class="cls-5" cx="1566.56" cy="110.45" rx="7.09" ry="4.1" transform="translate(422.58 1186.37) rotate(-47.28)"/><ellipse class="cls-5" cx="1572.15" cy="110.2" rx="4.1" ry="7.09" transform="translate(424.56 1190.41) rotate(-47.28)"/><ellipse class="cls-4" cx="1539.92" cy="95.48" rx="15.06" ry="16.67" transform="translate(984.39 1534.88) rotate(-72.44)"/><ellipse class="cls-4" cx="1600.01" cy="95.48" rx="16.67" ry="15.06" transform="translate(72.37 580.74) rotate(-21.04)"/><ellipse class="cls-5" cx="1540.06" cy="95.73" rx="10.19" ry="11.27" transform="translate(984.25 1535.19) rotate(-72.44)"/><ellipse class="cls-5" cx="1599.97" cy="95.76" rx="11.27" ry="10.19" transform="matrix(1, -0.07, 0.07, 1, -2.73, 116.46)"/><ellipse class="cls-6" cx="1597.29" cy="38.41" rx="8" ry="11.63" transform="translate(363.05 1053.03) rotate(-40.8)"/><path class="cls-1" d="M1171.36,49.15c-5.74-12.9-20.64-34.9-57-42.72-45-9.67-71.15,7.34-80.79,16a64.34,64.34,0,0,0-22.68,49.08V99.72a64.21,64.21,0,0,0,13.88,39.95c.12,6.2,9.35,24.3,4.15,35.72-5,10.88-12.35,16.72,11,33.28s26.06,26.23,24.17,29.2c-8,12.69-3.72,19.18,5.11,24.45,20.48,12.23,16.53,16.35,28.3,26.75,9.8,8.66,1.76-9.58,1.71-20.69,0-5.76-9.83-8.88-12.68-16.53-2.42-6.5,4.33-17.68-2.68-22.15-6.57-4.19-22.25-36.68-.55-46.78s58.91-24.7,58.91-24.7,8.62-2.63,7.73-8.92c-.4-2.81-2.13-6.18-4.25-9.63,0,0,12.4-24.86,12.4-39.95V76.45a43.3,43.3,0,0,1,9.53-13.13C1172.07,59.32,1173.54,54,1171.36,49.15Z"/><path class="cls-2" d="M1058.74,164.65c0-6.5-10.92-17.33-12.59-19-4-3.45-6.25-7.45-6.25-11.72,0-12.95,20.93-23.45,46.75-23.45s46.76,10.5,46.76,23.45c0,6.61-5.45,12.57-14.21,16.83-10.84,6.27-30.07,14.38-36.64,18.67-9.68,6.3-16.72,14.28-21.21,19.65-10.23,12.25,14.72,36.7,16,42.27,1.21,5.26-1.3,13.06-.19,16.21s11,16.42,11,16.42-16.74-9.64-17.49-17.06,5.95-13.72-8.93-27.81-23.44-17.8-16.74-29.29S1058.74,171.7,1058.74,164.65Z"/><ellipse class="cls-3" cx="1056.37" cy="114.98" rx="27.67" ry="15.86" transform="translate(0.79 236.96) rotate(-12.8)"/><ellipse class="cls-3" cx="1115.08" cy="114.98" rx="15.86" ry="27.67" transform="translate(788.81 1187.44) rotate(-78.97)"/><ellipse class="cls-3" cx="1065.34" cy="126.08" rx="10.87" ry="19.69"/><ellipse class="cls-3" cx="1087.44" cy="125.65" rx="10.87" ry="19.69"/><ellipse class="cls-3" cx="1108.06" cy="124.6" rx="10.87" ry="19.69"/><path class="cls-3" d="M1086,70.31a59.43,59.43,0,0,1-49.68-26.79,61.84,61.84,0,0,0-9.87,33.66c0,33.58,26.42,60.81,59,60.81s59-27.23,59-60.81a61.85,61.85,0,0,0-9.47-33A58.93,58.93,0,0,1,1086,70.31Z"/><path class="cls-4" d="M1086,70.31a58.93,58.93,0,0,0,49-26.15,58.06,58.06,0,0,0-98.7-.64A59.43,59.43,0,0,0,1086,70.31Z"/><ellipse class="cls-5" cx="1083.36" cy="111.89" rx="7.09" ry="4.1" transform="translate(266.15 831.86) rotate(-47.28)"/><ellipse class="cls-5" cx="1088.95" cy="111.65" rx="4.1" ry="7.09" transform="translate(268.13 835.89) rotate(-47.28)"/><ellipse class="cls-4" cx="1056.72" cy="96.93" rx="15.06" ry="16.67" transform="translate(645.56 1075.19) rotate(-72.44)"/><ellipse class="cls-4" cx="1116.81" cy="96.93" rx="16.67" ry="15.06" transform="translate(39.65 407.38) rotate(-21.04)"/><ellipse class="cls-5" cx="1056.86" cy="97.18" rx="10.19" ry="11.27" transform="translate(645.42 1075.5) rotate(-72.44)"/><ellipse class="cls-5" cx="1116.77" cy="97.21" rx="11.27" ry="10.19" transform="translate(-4.11 81.37) rotate(-4.17)"/><ellipse class="cls-6" cx="1114.09" cy="39.85" rx="8" ry="11.63" transform="translate(244.69 737.65) rotate(-40.8)"/><path class="cls-1" d="M929.48,48.71c-5.74-12.9-20.64-34.9-57-42.72-45-9.67-71.15,7.34-80.79,16A64.34,64.34,0,0,0,769,71.06V99.28a64.24,64.24,0,0,0,13.88,39.95c.12,6.2,34.93,26.62,29.73,38-5,10.88-4.05,19,7.82,36.83,15.86,23.86-4.17,33.39,4.66,38.65,20.49,12.23,6.29,26.36,18,36.76,9.81,8.66,1.77-9.58,1.72-20.69,0-5.76,2.65-9.76-.2-17.41-2.42-6.5,4.33-17.68-2.68-22.15-6.57-4.19,1.9-34.66,19.75-50.6,18.14-16.18,31.45-24.56,31.45-24.56s13.76-3.53,10.64-14.87c0,0,12.4-24.86,12.4-39.95V76a43.3,43.3,0,0,1,9.53-13.13C930.19,58.88,931.66,53.6,929.48,48.71Z"/><path class="cls-2" d="M816.86,164.21c0-6.5-10.92-17.33-12.59-19-4-3.45-6.25-7.45-6.25-11.72,0-12.95,20.93-23.45,46.75-23.45s46.76,10.5,46.76,23.45c0,6.61-5.45,12.57-14.21,16.83-10.84,6.27-15.43,18.15-22,22.43-9.67,6.31-13.11,16.4-17.59,21.77-10.24,12.25-5.33,21.41-3.39,26.79,1.85,5.16,1.83,16,2.27,19.91.46,4.11,4.84,16.53,4.84,16.53s-8-4.88-8.75-12.3,1-8.28-6.14-27.49c-5.35-14.42-9.79-19.68-3.09-31.17S816.86,171.26,816.86,164.21Z"/><ellipse class="cls-3" cx="814.49" cy="114.54" rx="27.67" ry="15.86" transform="translate(-5.13 183.35) rotate(-12.8)"/><ellipse class="cls-3" cx="873.2" cy="114.54" rx="15.86" ry="27.67" transform="translate(593.66 949.68) rotate(-78.97)"/><ellipse class="cls-3" cx="823.46" cy="125.64" rx="10.87" ry="19.69"/><ellipse class="cls-3" cx="845.56" cy="125.21" rx="10.87" ry="19.69"/><ellipse class="cls-3" cx="866.18" cy="124.16" rx="10.87" ry="19.69"/><path class="cls-3" d="M844.14,69.87a59.43,59.43,0,0,1-49.68-26.79,61.83,61.83,0,0,0-9.87,33.65c0,33.59,26.42,60.82,59,60.82s59-27.23,59-60.82a61.84,61.84,0,0,0-9.47-33A58.93,58.93,0,0,1,844.14,69.87Z"/><path class="cls-4" d="M844.14,69.87a58.93,58.93,0,0,0,49-26.15,58.06,58.06,0,0,0-98.7-.64A59.43,59.43,0,0,0,844.14,69.87Z"/><ellipse class="cls-5" cx="841.48" cy="111.45" rx="7.09" ry="4.1" transform="translate(188.69 654.02) rotate(-47.28)"/><ellipse class="cls-5" cx="847.07" cy="111.21" rx="4.1" ry="7.09" transform="translate(190.67 658.05) rotate(-47.28)"/><ellipse class="cls-4" cx="814.84" cy="96.49" rx="15.06" ry="16.67" transform="translate(477.06 844.27) rotate(-72.44)"/><ellipse class="cls-4" cx="874.93" cy="96.49" rx="16.67" ry="15.06" transform="translate(23.68 320.52) rotate(-21.04)"/><ellipse class="cls-5" cx="814.98" cy="96.74" rx="10.19" ry="11.27" transform="translate(476.92 844.58) rotate(-72.44)"/><ellipse class="cls-5" cx="874.89" cy="96.77" rx="11.27" ry="10.19" transform="translate(-4.72 63.8) rotate(-4.17)"/><ellipse class="cls-6" cx="872.21" cy="39.41" rx="8" ry="11.63" transform="translate(186.2 579.49) rotate(-40.8)"/><path class="cls-1" d="M1413.24,48.71c-5.74-12.9-20.64-34.9-57-42.72-45-9.67-71.15,7.34-80.79,16a64.34,64.34,0,0,0-22.68,49.08V99.28a64.24,64.24,0,0,0,13.88,39.95c.12,6.2,34.93,26.62,29.73,38-5,10.88-4,19,7.82,36.83,15.86,23.86-4.17,33.39,4.66,38.65,20.49,12.23,6.29,26.36,18.05,36.76,9.81,8.66,1.77-9.58,1.72-20.69,0-5.76,2.65-9.76-.2-17.41-2.42-6.5,4.33-17.68-2.68-22.15-6.57-4.19,1.9-34.66,19.75-50.6,18.14-16.18,31.45-24.56,31.45-24.56s13.76-3.53,10.64-14.87c0,0,12.4-24.86,12.4-39.95V76a43.3,43.3,0,0,1,9.53-13.13C1414,58.88,1415.42,53.6,1413.24,48.71Z"/><path class="cls-2" d="M1300.62,164.21c0-6.5-10.92-17.33-12.59-19-4-3.45-6.25-7.45-6.25-11.72,0-12.95,20.93-23.45,46.75-23.45s46.76,10.5,46.76,23.45c0,6.61-5.45,12.57-14.21,16.83-10.84,6.27-15.43,18.15-22,22.43-9.67,6.31-13.11,16.4-17.6,21.77-10.23,12.25-5.32,21.41-3.38,26.79,1.85,5.16,1.83,16,2.27,19.91.46,4.11,4.84,16.53,4.84,16.53s-8-4.88-8.75-12.3,1-8.28-6.14-27.49c-5.35-14.42-9.79-19.68-3.09-31.17S1300.62,171.26,1300.62,164.21Z"/><ellipse class="cls-3" cx="1298.25" cy="114.54" rx="27.67" ry="15.86" transform="translate(6.9 290.56) rotate(-12.8)"/><ellipse class="cls-3" cx="1356.96" cy="114.54" rx="15.86" ry="27.67" transform="translate(984.83 1424.5) rotate(-78.97)"/><ellipse class="cls-3" cx="1307.22" cy="125.64" rx="10.87" ry="19.69"/><ellipse class="cls-3" cx="1329.32" cy="125.21" rx="10.87" ry="19.69"/><ellipse class="cls-3" cx="1349.94" cy="124.16" rx="10.87" ry="19.69"/><path class="cls-3" d="M1327.9,69.87a59.43,59.43,0,0,1-49.68-26.79,61.83,61.83,0,0,0-9.87,33.65c0,33.59,26.42,60.82,59,60.82s59-27.23,59-60.82a61.84,61.84,0,0,0-9.47-33A58.93,58.93,0,0,1,1327.9,69.87Z"/><path class="cls-4" d="M1327.9,69.87a58.93,58.93,0,0,0,49-26.15,58.06,58.06,0,0,0-98.7-.64A59.43,59.43,0,0,0,1327.9,69.87Z"/><ellipse class="cls-5" cx="1325.24" cy="111.45" rx="7.09" ry="4.1" transform="translate(344.24 1009.41) rotate(-47.28)"/><ellipse class="cls-5" cx="1330.83" cy="111.21" rx="4.1" ry="7.09" transform="translate(346.23 1013.44) rotate(-47.28)"/><ellipse class="cls-4" cx="1298.6" cy="96.49" rx="15.06" ry="16.67" transform="translate(814.9 1305.5) rotate(-72.44)"/><ellipse class="cls-4" cx="1358.69" cy="96.49" rx="16.67" ry="15.06" transform="translate(55.93 494.18) rotate(-21.04)"/><ellipse class="cls-5" cx="1298.74" cy="96.74" rx="10.19" ry="11.27" transform="translate(814.76 1305.81) rotate(-72.44)"/><ellipse class="cls-5" cx="1358.65" cy="96.77" rx="11.27" ry="10.19" transform="translate(-3.44 98.93) rotate(-4.17)"/><ellipse class="cls-6" cx="1355.97" cy="39.41" rx="8" ry="11.63" transform="translate(303.75 895.59) rotate(-40.8)"/></g></svg>