<svg xmlns="http://www.w3.org/2000/svg" viewBox="0 0 8006.99 262.48"><defs><style>.cls-1{fill:#377c78;}.cls-2{fill:#367772;}.cls-3,.cls-7{fill:#172324;}.cls-4{fill:#295754;}.cls-5{fill:#0e1111;}.cls-5,.cls-6{opacity:0.81;}.cls-6{fill:#263535;}.cls-7{opacity:0.5;}.cls-8{fill:#3b3d3d;}.cls-9{fill:#ea543f;}.cls-10,.cls-13{fill:none;}.cls-11{fill:#e04c3d;}.cls-12{fill:#f9644b;}.cls-13,.cls-16{stroke:#bf3a16;stroke-miterlimit:10;stroke-width:3px;}.cls-14{fill:#fff;}.cls-15{fill:#ff9385;}.cls-16{fill:#333;}</style></defs><title>fond2Plan de travail 24</title><g id="Calque_4" data-name="Calque 4"><polygon class="cls-1" points="500.86 69.27 530.83 86.68 625.32 31.38 598.4 15.65 500.86 69.27"/><polygon class="cls-2" points="500.95 69.26 529.94 85.98 530.83 180.21 501.13 162.28 500.95 69.26"/><polygon class="cls-3" points="528.97 84.76 624.65 29.75 625.44 119.16 530.77 180.21 528.97 84.76"/><path class="cls-4" d="M604.31,63.8c6.91,11.16,5.38,30.33-5,48.07-10.51,18-26.85,29-40.18,28.3,14.1,7.61,35.24-3,47.49-24C618.76,95.43,617.63,72.3,604.31,63.8Z"/><path class="cls-1" d="M599.33,111.87c10.36-17.74,11.89-36.91,5-48.07-.27-.17-.52-.38-.8-.54-14.1-8-35.55,2.6-47.92,23.78s-11,44.88,3.13,52.93c.14.08.29.13.43.2C572.48,140.84,588.82,129.87,599.33,111.87Z"/><path class="cls-5" d="M604.37,63.92c4.37,11.4,2.12,28.19-7,43.87-11.49,19.68-30,31-43.84,27.79a19.76,19.76,0,0,0,5.23,4.39c.14.08.29.13.43.2,13.33.67,29.67-10.3,40.18-28.3C609.66,94.19,611.2,75.09,604.37,63.92Z"/><path class="cls-6" d="M597.33,107.79c9.16-15.68,11.41-32.47,7-43.87l-.06-.12c-.27-.17-.52-.38-.8-.54-14.1-8-35.55,2.6-47.92,23.78-10.6,18.16-11.06,38.13-2.1,48.54C567.36,138.75,585.84,127.47,597.33,107.79Z"/><path class="cls-7" d="M604.37,63.92l-.06-.12c-.27-.17-.52-.38-.8-.54a19.88,19.88,0,0,0-5-2c3.9,11,1.86,26.47-6.51,40.8-11,18.81-29.12,29.28-42.92,25.76a24.12,24.12,0,0,0,4.36,7.72c13.87,3.17,32.35-8.11,43.84-27.79C606.49,92.11,608.74,75.32,604.37,63.92Z"/><path class="cls-8" d="M592.05,102.1c8.37-14.33,10.41-29.79,6.51-40.8-13.81-3.56-32,6.91-43,25.74-8.38,14.35-10.4,29.81-6.46,40.82C562.93,131.38,581.07,120.91,592.05,102.1Z"/><path class="cls-7" d="M592.05,102.1c8.37-14.33,10.41-29.79,6.51-40.8-13.81-3.56-32,6.91-43,25.74-8.38,14.35-10.4,29.81-6.46,40.82C562.93,131.38,581.07,120.91,592.05,102.1Z"/><ellipse class="cls-5" cx="567.68" cy="88.89" rx="3.63" ry="3.64"/><ellipse class="cls-9" cx="566.85" cy="85.25" rx="3.63" ry="3.64"/><ellipse class="cls-9" cx="565.97" cy="79.16" rx="3.63" ry="3.64"/><ellipse class="cls-9" cx="566.11" cy="73.17" rx="3.63" ry="3.64"/><ellipse class="cls-9" cx="566.26" cy="69.04" rx="3.63" ry="3.64"/><ellipse class="cls-9" cx="566.55" cy="64.23" rx="3.63" ry="3.64"/><ellipse class="cls-9" cx="568.68" cy="58.52" rx="6.49" ry="6.51"/><ellipse class="cls-5" cx="594.68" cy="103.22" rx="3.64" ry="3.63" transform="translate(155.74 517.5) rotate(-53.19)"/><ellipse class="cls-9" cx="596.77" cy="101.4" rx="3.64" ry="3.63" transform="translate(158.03 518.44) rotate(-53.19)"/><ellipse class="cls-9" cx="599.72" cy="95.99" rx="3.64" ry="3.63" transform="translate(163.54 518.64) rotate(-53.19)"/><ellipse class="cls-9" cx="603.42" cy="91.29" rx="3.64" ry="3.63" transform="translate(168.79 519.71) rotate(-53.19)"/><ellipse class="cls-9" cx="606.02" cy="88.07" rx="3.64" ry="3.63" transform="translate(172.41 520.5) rotate(-53.19)"/><ellipse class="cls-9" cx="609.13" cy="84.39" rx="3.64" ry="3.63" transform="translate(176.61 521.52) rotate(-53.19)"/><ellipse class="cls-9" cx="614.26" cy="81.09" rx="6.51" ry="6.49" transform="translate(181.3 524.3) rotate(-53.19)"/><polygon class="cls-1" points="7506.97 68.8 7536.94 86.21 7631.44 30.91 7604.52 15.18 7506.97 68.8"/><polygon class="cls-2" points="7507.06 68.79 7536.05 85.51 7536.94 179.74 7507.25 161.81 7507.06 68.79"/><polygon class="cls-3" points="7535.08 84.29 7630.77 29.28 7631.55 118.69 7536.88 179.74 7535.08 84.29"/><path class="cls-4" d="M7610.42,63.33c6.91,11.16,5.38,30.33-5,48.07-10.5,18-26.85,29-40.18,28.3,14.1,7.61,35.25-3,47.49-24C7624.87,95,7623.74,71.83,7610.42,63.33Z"/><path class="cls-1" d="M7605.44,111.4c10.36-17.74,11.89-36.91,5-48.07-.27-.17-.51-.38-.8-.54-14.09-8-35.55,2.6-47.92,23.78s-11,44.88,3.13,52.93c.14.08.29.13.43.2C7578.59,140.37,7594.94,129.4,7605.44,111.4Z"/><path class="cls-5" d="M7610.49,63.45c4.36,11.39,2.11,28.19-7.05,43.87-11.49,19.68-30,31-43.84,27.79a19.91,19.91,0,0,0,5.23,4.39c.14.08.29.13.43.2,13.33.67,29.68-10.3,40.18-28.3C7615.77,93.72,7617.32,74.62,7610.49,63.45Z"/><path class="cls-6" d="M7603.44,107.32c9.16-15.68,11.41-32.48,7.05-43.87,0,0,0-.08-.07-.12-.27-.17-.51-.38-.8-.54-14.09-8-35.55,2.6-47.92,23.78-10.6,18.16-11.06,38.13-2.1,48.54C7573.47,138.28,7592,127,7603.44,107.32Z"/><path class="cls-7" d="M7610.49,63.45s0-.08-.07-.12c-.27-.17-.51-.38-.8-.54a19.88,19.88,0,0,0-4.95-2c3.9,11,1.86,26.47-6.51,40.8-11,18.81-29.12,29.28-42.92,25.76a24.12,24.12,0,0,0,4.36,7.72c13.87,3.17,32.35-8.11,43.84-27.79C7612.6,91.64,7614.85,74.84,7610.49,63.45Z"/><path class="cls-8" d="M7598.16,101.63c8.37-14.33,10.41-29.79,6.51-40.8-13.8-3.56-32,6.91-43,25.74-8.38,14.35-10.39,29.81-6.46,40.82C7569,130.91,7587.18,120.44,7598.16,101.63Z"/><path class="cls-7" d="M7598.16,101.63c8.37-14.33,10.41-29.79,6.51-40.8-13.8-3.56-32,6.91-43,25.74-8.38,14.35-10.39,29.81-6.46,40.82C7569,130.91,7587.18,120.44,7598.16,101.63Z"/><ellipse class="cls-5" cx="7573.8" cy="88.42" rx="3.63" ry="3.64"/><ellipse class="cls-9" cx="7572.96" cy="84.78" rx="3.63" ry="3.64"/><ellipse class="cls-9" cx="7572.08" cy="78.69" rx="3.63" ry="3.64"/><ellipse class="cls-9" cx="7572.22" cy="72.7" rx="3.63" ry="3.64"/><ellipse class="cls-9" cx="7572.37" cy="68.57" rx="3.63" ry="3.64"/><ellipse class="cls-9" cx="7572.66" cy="63.76" rx="3.63" ry="3.64"/><ellipse class="cls-9" cx="7574.79" cy="58.05" rx="6.49" ry="6.51"/><ellipse class="cls-5" cx="7600.79" cy="102.75" rx="3.64" ry="3.63" transform="translate(2964.51 6126.66) rotate(-53.19)"/><ellipse class="cls-9" cx="7602.88" cy="100.93" rx="3.64" ry="3.63" transform="translate(2966.81 6127.6) rotate(-53.19)"/><ellipse class="cls-9" cx="7605.83" cy="95.52" rx="3.64" ry="3.63" transform="translate(2972.32 6127.8) rotate(-53.19)"/><ellipse class="cls-9" cx="7609.53" cy="90.82" rx="3.64" ry="3.63" transform="translate(2977.57 6128.88) rotate(-53.19)"/><ellipse class="cls-9" cx="7612.13" cy="87.6" rx="3.64" ry="3.63" transform="translate(2981.19 6129.66) rotate(-53.19)"/><ellipse class="cls-9" cx="7615.24" cy="83.92" rx="3.64" ry="3.63" transform="translate(2985.38 6130.68) rotate(-53.19)"/><ellipse class="cls-9" cx="7620.37" cy="80.62" rx="6.51" ry="6.49" transform="translate(2990.07 6133.46) rotate(-53.19)"/><polygon class="cls-1" points="-0.17 69.78 29.8 87.19 124.29 31.89 97.37 16.16 -0.17 69.78"/><polygon class="cls-2" points="-0.09 69.78 28.91 86.49 29.8 180.72 0.1 162.79 -0.09 69.78"/><polygon class="cls-3" points="28.72 86.46 124.41 31.44 124.41 119.67 29.74 180.72 28.72 86.46"/><path class="cls-4" d="M103.28,64.31c6.91,11.16,5.38,30.33-5,48.07-10.51,18-26.85,29-40.18,28.31,14.1,7.6,35.24-3,47.49-24C117.73,95.94,116.6,72.81,103.28,64.31Z"/><path class="cls-1" d="M98.3,112.38c10.36-17.74,11.89-36.91,5-48.07-.27-.17-.52-.38-.8-.54-14.1-8.05-35.55,2.6-47.92,23.79s-11,44.87,3.13,52.92c.14.08.29.13.43.21C71.45,141.35,87.79,130.38,98.3,112.38Z"/><path class="cls-5" d="M103.34,64.43c4.36,11.4,2.11,28.19-7,43.87-11.49,19.68-30,31-43.84,27.79a19.76,19.76,0,0,0,5.23,4.39c.14.08.29.13.43.21,13.33.66,29.67-10.31,40.18-28.31C108.63,94.7,110.17,75.6,103.34,64.43Z"/><path class="cls-6" d="M96.3,108.3c9.15-15.68,11.4-32.47,7-43.87l-.06-.12c-.27-.17-.52-.38-.8-.54-14.1-8.05-35.55,2.6-47.92,23.79-10.6,18.15-11.06,38.12-2.1,48.53C66.33,139.26,84.81,128,96.3,108.3Z"/><path class="cls-7" d="M103.34,64.43l-.06-.12c-.27-.17-.52-.38-.8-.54a19.88,19.88,0,0,0-5-2c3.9,11,1.86,26.47-6.51,40.8C80,121.42,61.9,131.89,48.1,128.37a24.12,24.12,0,0,0,4.36,7.72C66.33,139.26,84.81,128,96.3,108.3,105.45,92.62,107.7,75.83,103.34,64.43Z"/><path class="cls-8" d="M91,102.61c8.37-14.33,10.41-29.79,6.51-40.8-13.81-3.56-32,6.91-43,25.75-8.38,14.34-10.4,29.81-6.46,40.81C61.9,131.89,80,121.42,91,102.61Z"/><path class="cls-7" d="M91,102.61c8.37-14.33,10.41-29.79,6.51-40.8-13.81-3.56-32,6.91-43,25.75-8.38,14.34-10.4,29.81-6.46,40.81C61.9,131.89,80,121.42,91,102.61Z"/><polygon class="cls-1" points="3003.65 69.63 3033.62 87.04 3128.11 31.73 3101.19 16.01 3003.65 69.63"/><polygon class="cls-2" points="3003.74 69.62 3032.73 86.33 3033.62 180.57 3003.92 162.64 3003.74 69.62"/><polygon class="cls-3" points="3032.54 86.3 3128.22 31.28 3128.22 119.51 3033.56 180.57 3032.54 86.3"/><path class="cls-4" d="M3107.1,64.16c6.91,11.15,5.38,30.33-5,48.07-10.51,18-26.85,29-40.18,28.3,14.1,7.6,35.24-3,47.49-24C3121.55,95.79,3120.42,72.65,3107.1,64.16Z"/><path class="cls-1" d="M3102.12,112.23c10.36-17.74,11.89-36.92,5-48.07-.27-.17-.52-.38-.8-.54-14.1-8-35.55,2.6-47.92,23.78s-11,44.88,3.13,52.93c.14.08.29.12.43.2C3075.27,141.2,3091.61,130.22,3102.12,112.23Z"/><path class="cls-5" d="M3107.16,64.27c4.36,11.4,2.11,28.2-7,43.88-11.5,19.68-30,31-43.85,27.79a20,20,0,0,0,5.24,4.39c.14.08.29.12.43.2,13.33.67,29.67-10.31,40.18-28.3C3112.45,94.54,3114,75.44,3107.16,64.27Z"/><path class="cls-6" d="M3100.12,108.15c9.15-15.68,11.4-32.48,7-43.88l-.06-.11c-.27-.17-.52-.38-.8-.54-14.1-8-35.55,2.6-47.92,23.78-10.6,18.16-11.06,38.13-2.11,48.54C3070.15,139.11,3088.62,127.83,3100.12,108.15Z"/><path class="cls-7" d="M3107.16,64.27l-.06-.11c-.27-.17-.52-.38-.8-.54a19.51,19.51,0,0,0-5-2c3.9,11,1.86,26.46-6.51,40.79-11,18.82-29.13,29.28-42.93,25.76a24.55,24.55,0,0,0,4.36,7.73c13.88,3.17,32.35-8.11,43.85-27.79C3109.27,92.47,3111.52,75.67,3107.16,64.27Z"/><path class="cls-8" d="M3094.84,102.45c8.37-14.33,10.41-29.79,6.51-40.79-13.81-3.56-32,6.91-43,25.74-8.38,14.35-10.4,29.81-6.47,40.81C3065.71,131.73,3083.86,121.27,3094.84,102.45Z"/><path class="cls-7" d="M3094.84,102.45c8.37-14.33,10.41-29.79,6.51-40.79-13.81-3.56-32,6.91-43,25.74-8.38,14.35-10.4,29.81-6.47,40.81C3065.71,131.73,3083.86,121.27,3094.84,102.45Z"/><circle class="cls-3" cx="3094.71" cy="108.15" r="35.46"/><path class="cls-9" d="M3137.82,140.14a45.07,45.07,0,0,1-40.09-24.56,45.12,45.12,0,1,0,84.77,30.85,44.73,44.73,0,0,1-25.91-10.4A44.61,44.61,0,0,1,3137.82,140.14Z"/><path class="cls-9" d="M3134.28,93.88a36.64,36.64,0,0,1-66.89,3.61,36.71,36.71,0,1,0,66.89-3.61Z"/><path class="cls-9" d="M3324.76,127.29a45,45,0,0,1-82.16,4.43,45.09,45.09,0,1,0,82.16-4.43Z"/><path class="cls-10" d="M3235.28,126.25c-.7,0-1.4,0-2.09,0C3233.88,126.23,3234.58,126.25,3235.28,126.25Z"/><path class="cls-10" d="M3232.85,126.18c-.68,0-1.35-.08-2-.15C3231.5,126.1,3232.17,126.14,3232.85,126.18Z"/><path class="cls-11" d="M3279.8,103a45.63,45.63,0,0,0-2.45-5.74,45.77,45.77,0,0,1-3.25,6.72A46.13,46.13,0,0,1,3279.8,103Z"/><path class="cls-11" d="M3210.88,119.05c.6.38,1.2.75,1.81,1.1C3212.08,119.8,3211.48,119.43,3210.88,119.05Z"/><path class="cls-11" d="M3199,107.85c.4.55.82,1.08,1.24,1.6C3199.83,108.93,3199.41,108.4,3199,107.85Z"/><path class="cls-11" d="M3213,120.35c.59.34,1.19.66,1.8,1C3214.22,121,3213.62,120.69,3213,120.35Z"/><path class="cls-11" d="M3215.2,121.51c.62.31,1.25.62,1.9.9C3216.45,122.13,3215.82,121.82,3215.2,121.51Z"/><path class="cls-11" d="M3205.3,114.77c.51.47,1,.91,1.58,1.35C3206.34,115.68,3205.81,115.24,3205.3,114.77Z"/><path class="cls-11" d="M3207.19,116.38c.54.42,1.08.84,1.63,1.24C3208.27,117.22,3207.73,116.8,3207.19,116.38Z"/><path class="cls-11" d="M3209.11,117.83c.56.4,1.14.8,1.72,1.18C3210.25,118.63,3209.67,118.24,3209.11,117.83Z"/><path class="cls-11" d="M3197.71,106c.39.59.78,1.16,1.19,1.73C3198.49,107.14,3198.1,106.57,3197.71,106Z"/><path class="cls-11" d="M3200.44,109.69c.44.53.88,1,1.34,1.57C3201.32,110.74,3200.88,110.22,3200.44,109.69Z"/><path class="cls-11" d="M3196.41,103.9c.35.59.71,1.18,1.08,1.75C3197.12,105.08,3196.76,104.49,3196.41,103.9Z"/><path class="cls-11" d="M3221.86,124.2c.65.2,1.31.4,2,.57C3223.17,124.6,3222.51,124.4,3221.86,124.2Z"/><path class="cls-11" d="M3203.68,113.25c.48.47,1,.93,1.46,1.38C3204.65,114.18,3204.16,113.72,3203.68,113.25Z"/><path class="cls-11" d="M3203.48,113.05c-.49-.49-1-1-1.42-1.49C3202.52,112.06,3203,112.56,3203.48,113.05Z"/><path class="cls-11" d="M3217.26,122.48c.61.27,1.23.52,1.86.76C3218.49,123,3217.87,122.75,3217.26,122.48Z"/><path class="cls-11" d="M3219.47,123.38c.64.24,1.28.46,1.94.68C3220.75,123.84,3220.11,123.62,3219.47,123.38Z"/><path class="cls-11" d="M3195.19,101.69c.33.64.68,1.27,1,1.89C3195.87,103,3195.52,102.33,3195.19,101.69Z"/><path class="cls-9" d="M3201.78,111.26l.28.3Z"/><path class="cls-9" d="M3196.23,103.58l.18.32Z"/><path class="cls-9" d="M3197.49,105.65l.22.33Z"/><path class="cls-9" d="M3198.9,107.71a1.34,1.34,0,0,1,.11.14A1.34,1.34,0,0,0,3198.9,107.71Z"/><path class="cls-9" d="M3200.25,109.45l.19.24Z"/><path class="cls-9" d="M3221.41,124.06l.45.14Z"/><path class="cls-9" d="M3217.1,122.41l.16.07Z"/><path class="cls-9" d="M3219.12,123.24l.35.14Z"/><path class="cls-9" d="M3203.68,113.25l-.2-.2Z"/><path class="cls-9" d="M3214.83,121.32l.37.19Z"/><path class="cls-9" d="M3242.6,131.72a44.83,44.83,0,0,1,3.26-6.72,45,45,0,0,1-10.58,1.25c-.7,0-1.4,0-2.09,0l-.34,0c-.68,0-1.35-.08-2-.15h0a44.63,44.63,0,0,1-7-1.26l.1,0A45.19,45.19,0,0,1,3200.35,144a44.95,44.95,0,0,0,65.5,9A45.37,45.37,0,0,1,3242.6,131.72Z"/><path class="cls-9" d="M3210.83,119l.05,0Z"/><path class="cls-9" d="M3206.88,116.12l.31.26Z"/><path class="cls-9" d="M3212.69,120.15l.34.2Z"/><path class="cls-9" d="M3208.82,117.62l.29.21Z"/><path class="cls-9" d="M3205.14,114.63l.16.14Z"/><path class="cls-11" d="M3233.19,126.2l-.34,0Z"/><polygon class="cls-11" points="3230.83 126.03 3230.83 126.03 3230.83 126.03 3230.83 126.03"/><path class="cls-9" d="M3185.45,146.53A45.06,45.06,0,0,1,3145.36,122a45.1,45.1,0,1,0,85.47,4.06,43.35,43.35,0,0,1-6.89-1.23A45,45,0,0,1,3185.45,146.53Z"/><path class="cls-11" d="M3223.94,124.8a43.35,43.35,0,0,0,6.89,1.23,45.88,45.88,0,0,0-3.31-8.49A44.92,44.92,0,0,1,3223.94,124.8Z"/><path class="cls-9" d="M3379.87,152.93a45,45,0,0,1-82.16,4.43,45.09,45.09,0,1,0,82.16-4.43Z"/><path class="cls-11" d="M3339.78,128.37a44.75,44.75,0,0,0-17,3.33,43.62,43.62,0,0,0,2-4.41,45.06,45.06,0,0,0-40.09-24.56,43.62,43.62,0,0,0-4.87.27,46.13,46.13,0,0,0-5.7,1,45.77,45.77,0,0,0,3.25-6.72,45,45,0,0,0-78.58-2.83,45,45,0,0,0-30.11,2.66,44.95,44.95,0,0,0-38.44-9.47,36.63,36.63,0,0,0-62.83,9.87,36.68,36.68,0,0,0,31.37,20A45,45,0,0,0,3156.59,136a44.73,44.73,0,0,0,25.91,10.4c1,.07,2,.1,2.95.1a44.94,44.94,0,0,0,38.49-21.73l-.1,0-.44-.12.54.15a44.92,44.92,0,0,0,3.58-7.26,45.88,45.88,0,0,1,3.31,8.49h0c.67.07,1.34.11,2,.15l.34,0c.69,0,1.39,0,2.09,0a45,45,0,0,0,10.58-1.25,44.83,44.83,0,0,0-3.26,6.72A45.37,45.37,0,0,0,3265.85,153a45,45,0,0,0,33.84-.06,46,46,0,0,0-2,4.41,45,45,0,0,0,82.16-4.43A45.07,45.07,0,0,0,3339.78,128.37Zm-144.59-26.68c.33.64.68,1.27,1,1.89h0C3195.87,103,3195.52,102.33,3195.19,101.69Zm1.22,2.21,0,0,0,0Zm1.3,2.08h0c.39.59.78,1.16,1.2,1.73h0C3198.49,107.14,3198.1,106.57,3197.71,106Zm1.3,1.87h0c.4.55.82,1.08,1.24,1.61h0C3199.83,108.93,3199.41,108.4,3199,107.85Zm1.94,2.44c.28.32.55.65.84,1h0Zm1.11,1.27h0c.46.5.93,1,1.42,1.49h0C3203,112.56,3202.52,112.06,3202.06,111.56Zm2.41,2.44c.23.21.45.43.68.63h0Zm1.94,1.73.47.39h0Zm.78.65.44.33-.44-.33Zm1.92,1.45.26.18-.26-.18Zm3.92,2.52c.53.3,1.07.59,1.61.87-.54-.28-1.08-.57-1.61-.87Zm2.17,1.16h0c.62.31,1.25.62,1.9.9h0C3216.45,122.13,3215.82,121.82,3215.2,121.51Zm3.92,1.73c-.27-.1-.54-.22-.81-.33.27.11.54.23.81.33Z"/><ellipse class="cls-9" cx="3393.23" cy="94.52" rx="6.62" ry="6.64"/><ellipse class="cls-9" cx="3391.63" cy="83.41" rx="6.62" ry="6.64"/><ellipse class="cls-9" cx="3391.89" cy="72.49" rx="6.62" ry="6.64"/><ellipse class="cls-9" cx="3392.16" cy="64.94" rx="6.62" ry="6.64"/><ellipse class="cls-9" cx="3392.68" cy="56.17" rx="6.62" ry="6.64"/><ellipse class="cls-9" cx="3396.57" cy="45.75" rx="11.83" ry="11.89"/><ellipse class="cls-9" cx="3447.83" cy="123.98" rx="6.64" ry="6.62" transform="translate(1282.8 2810.16) rotate(-53.19)"/><ellipse class="cls-9" cx="3453.21" cy="114.12" rx="6.64" ry="6.62" transform="translate(1292.84 2810.51) rotate(-53.19)"/><ellipse class="cls-9" cx="3459.96" cy="105.54" rx="6.64" ry="6.62" transform="translate(1302.42 2812.48) rotate(-53.19)"/><ellipse class="cls-9" cx="3464.7" cy="99.66" rx="6.64" ry="6.62" transform="translate(1309.03 2813.91) rotate(-53.19)"/><ellipse class="cls-9" cx="3470.37" cy="92.95" rx="6.64" ry="6.62" transform="translate(1316.68 2815.76) rotate(-53.19)"/><ellipse class="cls-9" cx="3479.73" cy="86.94" rx="11.89" ry="11.83" transform="matrix(0.6, -0.8, 0.8, 0.6, 1325.24, 2820.85)"/><path class="cls-12" d="M3378.68,100a56.39,56.39,0,1,0,79.37,51.43c0-.26,0-.52,0-.78A56.13,56.13,0,0,1,3378.68,100Z"/><path class="cls-9" d="M3401.85,95a55.68,55.68,0,0,0-23.17,5A56.13,56.13,0,0,0,3458,150.63,56.31,56.31,0,0,0,3401.85,95Z"/><polyline class="cls-13" points="3400.17 164.02 3407.77 144.79 3410.53 155.78 3416.75 152.34 3416.75 160.59 3425.73 156.46 3420.2 172.95"/><path class="cls-14" d="M3437.73,146.23l15.72,5s-1.59,13.07-10,10C3434,157.8,3437.73,146.23,3437.73,146.23Z"/><path class="cls-14" d="M3387.11,117.79l17.27,10.73s-5.86,11.86-15,5.74C3379.18,127.41,3387.11,117.79,3387.11,117.79Z"/><ellipse class="cls-15" cx="3436.91" cy="116.88" rx="6.37" ry="14.28" transform="translate(758.81 2274.15) rotate(-40.8)"/><polygon class="cls-1" points="5005.5 69.26 5035.47 86.67 5129.96 31.37 5103.04 15.64 5005.5 69.26"/><polygon class="cls-2" points="5005.58 69.26 5034.58 85.97 5035.47 180.21 5005.77 162.27 5005.58 69.26"/><polygon class="cls-3" points="5034.39 85.94 5130.07 30.92 5130.07 119.15 5035.41 180.21 5034.39 85.94"/><path class="cls-4" d="M5109,63.8c6.91,11.15,5.38,30.32-5,48.06-10.51,18-26.85,29-40.18,28.31,14.1,7.6,35.24-3,47.49-24C5123.4,95.42,5122.27,72.29,5109,63.8Z"/><path class="cls-1" d="M5104,111.86c10.36-17.74,11.89-36.91,5-48.06-.27-.18-.52-.38-.8-.55-14.1-8-35.55,2.6-47.92,23.79s-11,44.88,3.13,52.92c.14.08.29.13.43.21C5077.12,140.83,5093.46,129.86,5104,111.86Z"/><path class="cls-5" d="M5109,63.91c4.36,11.4,2.11,28.19-7,43.87-11.5,19.68-30,31-43.85,27.8a20.12,20.12,0,0,0,5.24,4.38c.14.08.29.13.43.21,13.33.66,29.67-10.31,40.18-28.31C5114.3,94.18,5115.84,75.08,5109,63.91Z"/><path class="cls-6" d="M5102,107.78c9.15-15.68,11.4-32.47,7-43.87l-.06-.11c-.27-.18-.52-.38-.8-.55-14.1-8-35.55,2.6-47.92,23.79-10.61,18.15-11.06,38.12-2.11,48.54C5072,138.74,5090.47,127.46,5102,107.78Z"/><path class="cls-7" d="M5109,63.91l-.06-.11c-.27-.18-.52-.38-.8-.55a20.28,20.28,0,0,0-4.95-2c3.9,11,1.86,26.47-6.51,40.8-11,18.81-29.13,29.28-42.93,25.76a24.66,24.66,0,0,0,4.36,7.73c13.88,3.16,32.35-8.12,43.85-27.8C5111.12,92.1,5113.37,75.31,5109,63.91Z"/><path class="cls-8" d="M5096.69,102.09c8.37-14.33,10.41-29.79,6.51-40.8-13.81-3.56-32,6.91-43,25.75-8.38,14.34-10.4,29.81-6.47,40.81C5067.56,131.37,5085.7,120.9,5096.69,102.09Z"/><path class="cls-7" d="M5096.69,102.09c8.37-14.33,10.41-29.79,6.51-40.8-13.81-3.56-32,6.91-43,25.75-8.38,14.34-10.4,29.81-6.47,40.81C5067.56,131.37,5085.7,120.9,5096.69,102.09Z"/><circle class="cls-3" cx="5096.56" cy="107.79" r="35.46"/><path class="cls-9" d="M5139.67,139.78a45.07,45.07,0,0,1-40.09-24.56,45.12,45.12,0,1,0,84.77,30.85,44.77,44.77,0,0,1-25.91-10.4A44.77,44.77,0,0,1,5139.67,139.78Z"/><path class="cls-9" d="M5136.13,93.51a36.64,36.64,0,0,1-66.89,3.61,36.71,36.71,0,1,0,66.89-3.61Z"/><path class="cls-9" d="M5326.61,126.93a45,45,0,0,1-82.16,4.43,45.09,45.09,0,1,0,82.16-4.43Z"/><path class="cls-10" d="M5237.13,125.89c-.7,0-1.4,0-2.09,0C5235.73,125.87,5236.43,125.89,5237.13,125.89Z"/><path class="cls-10" d="M5234.69,125.82l-2-.15Z"/><path class="cls-11" d="M5281.65,102.63a47.68,47.68,0,0,0-2.45-5.73,46.26,46.26,0,0,1-3.25,6.72A44.34,44.34,0,0,1,5281.65,102.63Z"/><path class="cls-11" d="M5212.73,118.68c.6.39,1.2.75,1.81,1.11C5213.93,119.43,5213.33,119.07,5212.73,118.68Z"/><path class="cls-11" d="M5200.86,107.49c.4.54.82,1.08,1.24,1.6C5201.68,108.57,5201.26,108,5200.86,107.49Z"/><path class="cls-11" d="M5214.88,120c.59.33,1.19.66,1.8,1C5216.07,120.65,5215.47,120.32,5214.88,120Z"/><path class="cls-11" d="M5217.05,121.15c.62.31,1.25.61,1.9.9C5218.3,121.76,5217.67,121.46,5217.05,121.15Z"/><path class="cls-11" d="M5207.15,114.41c.51.46,1,.91,1.58,1.35C5208.19,115.32,5207.66,114.87,5207.15,114.41Z"/><path class="cls-11" d="M5209,116c.53.43,1.08.85,1.63,1.25C5210.12,116.86,5209.57,116.44,5209,116Z"/><path class="cls-11" d="M5211,117.47c.56.4,1.14.8,1.72,1.18C5212.1,118.27,5211.52,117.87,5211,117.47Z"/><path class="cls-11" d="M5199.56,105.62c.39.58.78,1.16,1.19,1.72C5200.34,106.78,5200,106.2,5199.56,105.62Z"/><path class="cls-11" d="M5202.29,109.33c.44.53.88,1,1.34,1.56C5203.17,110.38,5202.73,109.86,5202.29,109.33Z"/><path class="cls-11" d="M5198.26,103.54c.35.59.71,1.17,1.08,1.75C5199,104.71,5198.61,104.13,5198.26,103.54Z"/><path class="cls-11" d="M5223.71,123.84q1,.3,2,.57Q5224.69,124.14,5223.71,123.84Z"/><path class="cls-11" d="M5205.53,112.88c.48.48,1,.94,1.46,1.39C5206.5,113.82,5206,113.36,5205.53,112.88Z"/><path class="cls-11" d="M5205.33,112.69c-.49-.49-1-1-1.43-1.5C5204.37,111.7,5204.84,112.2,5205.33,112.69Z"/><path class="cls-11" d="M5219.11,122.12c.61.27,1.23.52,1.86.76C5220.34,122.64,5219.72,122.39,5219.11,122.12Z"/><path class="cls-11" d="M5221.32,123c.64.24,1.28.46,1.93.67C5222.6,123.48,5222,123.26,5221.32,123Z"/><path class="cls-11" d="M5197,101.33c.33.64.68,1.27,1,1.89C5197.72,102.6,5197.37,102,5197,101.33Z"/><path class="cls-9" d="M5203.63,110.89l.27.3Z"/><path class="cls-9" d="M5198.08,103.22l.18.32Z"/><path class="cls-9" d="M5199.34,105.29l.22.33Z"/><path class="cls-9" d="M5200.75,107.34l.11.15Z"/><path class="cls-9" d="M5202.1,109.09l.19.24Z"/><path class="cls-9" d="M5223.25,123.69l.46.15Z"/><path class="cls-9" d="M5219,122.05l.16.07Z"/><path class="cls-9" d="M5221,122.88l.35.14Z"/><path class="cls-9" d="M5205.53,112.88l-.2-.19Z"/><path class="cls-9" d="M5216.68,121l.37.19Z"/><path class="cls-9" d="M5244.45,131.36a45.41,45.41,0,0,1,3.26-6.73,45,45,0,0,1-10.58,1.26c-.7,0-1.4,0-2.09,0l-.35,0-2-.15h0a44.63,44.63,0,0,1-7-1.26l.1,0a45.28,45.28,0,0,1-23.59,19.19,44.95,44.95,0,0,0,65.5,9A45.37,45.37,0,0,1,5244.45,131.36Z"/><path class="cls-9" d="M5212.68,118.65l0,0Z"/><path class="cls-9" d="M5208.73,115.76l.31.25Z"/><path class="cls-9" d="M5214.54,119.79l.34.2Z"/><path class="cls-9" d="M5210.67,117.26l.29.21Z"/><path class="cls-9" d="M5207,114.27l.16.14Z"/><path class="cls-11" d="M5235,125.84l-.35,0Z"/><polygon class="cls-11" points="5232.68 125.67 5232.68 125.67 5232.68 125.67 5232.68 125.67"/><path class="cls-9" d="M5187.3,146.17a45.06,45.06,0,0,1-40.09-24.56,45.1,45.1,0,1,0,85.47,4.06,45.73,45.73,0,0,1-6.89-1.23A45,45,0,0,1,5187.3,146.17Z"/><path class="cls-11" d="M5225.79,124.44a45.73,45.73,0,0,0,6.89,1.23,46,46,0,0,0-3.31-8.5A45,45,0,0,1,5225.79,124.44Z"/><path class="cls-9" d="M5381.72,152.57a45,45,0,0,1-82.16,4.43,45.09,45.09,0,1,0,82.16-4.43Z"/><path class="cls-11" d="M5341.63,128a44.75,44.75,0,0,0-17,3.33,43.62,43.62,0,0,0,2-4.41,45,45,0,0,0-40.09-24.57,46,46,0,0,0-4.87.27,44.34,44.34,0,0,0-5.7,1,46.26,46.26,0,0,0,3.25-6.72,45,45,0,0,0-78.58-2.84,45,45,0,0,0-30.12,2.66,44.83,44.83,0,0,0-38.43-9.46,36.62,36.62,0,0,0-62.83,9.86,36.71,36.71,0,0,0,31.37,20,45,45,0,0,0,57.83,18.57,44.77,44.77,0,0,0,25.91,10.4c1,.06,2,.1,2.95.1a44.83,44.83,0,0,0,14.9-2.54,45.28,45.28,0,0,0,23.59-19.19l-.1,0-.45-.13.55.16a45,45,0,0,0,3.58-7.27,46,46,0,0,1,3.31,8.5h0l2,.15.35,0c.69,0,1.39,0,2.09,0a45,45,0,0,0,10.58-1.26,45.41,45.41,0,0,0-3.26,6.73,45.37,45.37,0,0,0,23.25,21.29,45,45,0,0,0,33.84-.06,46,46,0,0,0-2,4.41,45,45,0,0,0,82.16-4.43A45,45,0,0,0,5341.63,128ZM5197,101.33c.33.64.68,1.27,1,1.89h0C5197.72,102.6,5197.37,102,5197,101.33Zm1.22,2.21,0,0,0,0Zm1.3,2.08h0c.39.58.78,1.16,1.19,1.72h0C5200.34,106.78,5200,106.2,5199.56,105.62Zm1.3,1.87h0c.4.54.82,1.08,1.24,1.6h0C5201.68,108.57,5201.26,108,5200.86,107.49Zm1.94,2.44c.28.32.55.65.84,1h0C5203.35,110.58,5203.08,110.25,5202.8,109.93Zm1.1,1.26h0c.47.51.94,1,1.43,1.5h0C5204.84,112.2,5204.37,111.7,5203.9,111.19Zm2.42,2.44.68.64h0Zm1.94,1.73.47.4h0Zm.78.65.44.34L5209,116Zm1.92,1.45c.08.07.17.12.26.19l-.26-.18Zm3.92,2.52c.53.31,1.07.6,1.61.88-.54-.28-1.08-.57-1.61-.87Zm2.17,1.17h0c.62.31,1.25.61,1.9.9h0C5218.3,121.76,5217.67,121.46,5217.05,121.15Zm3.92,1.73c-.27-.1-.54-.22-.81-.33.27.11.54.23.81.33Z"/><ellipse class="cls-9" cx="5395.08" cy="94.16" rx="6.62" ry="6.64"/><ellipse class="cls-9" cx="5393.48" cy="83.04" rx="6.62" ry="6.64"/><ellipse class="cls-9" cx="5393.74" cy="72.13" rx="6.62" ry="6.64"/><ellipse class="cls-9" cx="5394.01" cy="64.58" rx="6.62" ry="6.64"/><ellipse class="cls-9" cx="5394.53" cy="55.8" rx="6.62" ry="6.64"/><ellipse class="cls-9" cx="5398.42" cy="45.39" rx="11.83" ry="11.89"/><ellipse class="cls-9" cx="5449.68" cy="123.62" rx="6.64" ry="6.62" transform="translate(2085.53 4412.76) rotate(-53.19)"/><ellipse class="cls-9" cx="5455.06" cy="113.76" rx="6.64" ry="6.62" transform="translate(2095.58 4413.12) rotate(-53.19)"/><ellipse class="cls-9" cx="5461.81" cy="105.18" rx="6.64" ry="6.62" transform="translate(2105.15 4415.08) rotate(-53.19)"/><ellipse class="cls-9" cx="5466.55" cy="99.3" rx="6.64" ry="6.62" transform="translate(2111.76 4416.52) rotate(-53.19)"/><ellipse class="cls-9" cx="5472.22" cy="92.58" rx="6.64" ry="6.62" transform="matrix(0.6, -0.8, 0.8, 0.6, 2119.41, 4418.37)"/><ellipse class="cls-9" cx="5481.58" cy="86.58" rx="11.89" ry="11.83" transform="translate(2127.97 4423.46) rotate(-53.19)"/><path class="cls-12" d="M5380.53,99.62a56.39,56.39,0,1,0,79.37,51.43c0-.26,0-.52,0-.78a56.15,56.15,0,0,1-79.35-50.65Z"/><path class="cls-9" d="M5403.7,94.59a55.68,55.68,0,0,0-23.17,5,56.15,56.15,0,0,0,79.35,50.65A56.32,56.32,0,0,0,5403.7,94.59Z"/><polyline class="cls-13" points="5402.02 163.66 5409.62 144.42 5412.38 155.41 5418.6 151.98 5418.6 160.22 5427.58 156.1 5422.05 172.59"/><path class="cls-14" d="M5439.58,145.87l15.72,5s-1.59,13.08-10,10C5435.87,157.44,5439.58,145.87,5439.58,145.87Z"/><path class="cls-14" d="M5389,117.42l17.27,10.73s-5.86,11.86-15,5.75C5381,127.05,5389,117.42,5389,117.42Z"/><ellipse class="cls-15" cx="5438.76" cy="116.52" rx="6.37" ry="14.28" transform="translate(1245.5 3582.11) rotate(-40.8)"/><polygon class="cls-1" points="3504.27 69.87 3534.24 87.28 3628.73 31.98 3601.81 16.25 3504.27 69.87"/><polygon class="cls-2" points="3504.35 69.86 3533.35 86.58 3534.24 180.81 3504.54 162.88 3504.35 69.86"/><polygon class="cls-3" points="3533.16 86.55 3628.84 31.53 3628.84 119.76 3534.18 180.81 3533.16 86.55"/><path class="cls-4" d="M3607.72,64.4c6.91,11.16,5.38,30.33-5,48.07-10.51,18-26.85,29-40.18,28.3,14.1,7.61,35.24-3,47.49-24C3622.17,96,3621,72.9,3607.72,64.4Z"/><path class="cls-1" d="M3602.74,112.47c10.36-17.74,11.89-36.91,5-48.07-.27-.17-.52-.38-.8-.54-14.1-8-35.55,2.6-47.92,23.78s-11,44.88,3.13,52.93c.14.08.29.13.43.2C3575.89,141.44,3592.23,130.47,3602.74,112.47Z"/><path class="cls-5" d="M3607.78,64.52c4.36,11.39,2.11,28.19-7,43.87-11.5,19.68-30,31-43.85,27.79a20,20,0,0,0,5.24,4.39c.14.08.29.13.43.2,13.33.67,29.67-10.3,40.18-28.3C3613.07,94.79,3614.61,75.69,3607.78,64.52Z"/><path class="cls-6" d="M3600.74,108.39c9.15-15.68,11.4-32.48,7-43.87l-.06-.12c-.27-.17-.52-.38-.8-.54-14.1-8-35.55,2.6-47.92,23.78-10.61,18.16-11.06,38.13-2.11,48.54C3570.77,139.35,3589.24,128.07,3600.74,108.39Z"/><path class="cls-7" d="M3607.78,64.52l-.06-.12c-.27-.17-.52-.38-.8-.54a19.88,19.88,0,0,0-5-2c3.9,11,1.86,26.47-6.51,40.8-11,18.81-29.13,29.28-42.93,25.76a24.5,24.5,0,0,0,4.36,7.72c13.88,3.17,32.35-8.11,43.85-27.79C3609.89,92.71,3612.14,75.91,3607.78,64.52Z"/><path class="cls-8" d="M3595.46,102.7c8.37-14.33,10.41-29.79,6.51-40.8-13.81-3.56-32,6.91-43,25.74-8.38,14.35-10.4,29.81-6.47,40.82C3566.33,132,3584.47,121.51,3595.46,102.7Z"/><path class="cls-7" d="M3595.46,102.7c8.37-14.33,10.41-29.79,6.51-40.8-13.81-3.56-32,6.91-43,25.74-8.38,14.35-10.4,29.81-6.47,40.82C3566.33,132,3584.47,121.51,3595.46,102.7Z"/><circle class="cls-3" cx="3595.33" cy="108.39" r="35.46"/><path class="cls-9" d="M3638.44,140.38a45,45,0,0,1-40.09-24.56,45.12,45.12,0,1,0,84.77,30.86,44.77,44.77,0,0,1-25.91-10.4A44.76,44.76,0,0,1,3638.44,140.38Z"/><path class="cls-9" d="M3634.9,94.12A36.64,36.64,0,0,1,3568,97.73a36.71,36.71,0,1,0,66.89-3.61Z"/><path class="cls-9" d="M3825.38,127.53a45,45,0,0,1-82.16,4.44,45.08,45.08,0,1,0,82.16-4.44Z"/><path class="cls-10" d="M3735.9,126.5c-.7,0-1.4,0-2.09-.06C3734.5,126.47,3735.2,126.5,3735.9,126.5Z"/><path class="cls-10" d="M3733.46,126.42c-.67,0-1.35-.08-2-.15C3732.11,126.34,3732.79,126.39,3733.46,126.42Z"/><path class="cls-11" d="M3780.41,103.24A45.58,45.58,0,0,0,3778,97.5a44.94,44.94,0,0,1-3.26,6.73A45,45,0,0,1,3780.41,103.24Z"/><path class="cls-11" d="M3711.5,119.29c.6.38,1.2.75,1.81,1.11C3712.7,120,3712.1,119.67,3711.5,119.29Z"/><path class="cls-11" d="M3699.63,108.09c.4.55.82,1.08,1.24,1.61C3700.45,109.17,3700,108.64,3699.63,108.09Z"/><path class="cls-11" d="M3713.65,120.59c.59.34,1.19.67,1.8,1C3714.84,121.26,3714.24,120.93,3713.65,120.59Z"/><path class="cls-11" d="M3715.82,121.75q.93.48,1.89.9Q3716.75,122.23,3715.82,121.75Z"/><path class="cls-11" d="M3705.92,115c.51.46,1,.91,1.58,1.35C3707,115.93,3706.43,115.48,3705.92,115Z"/><path class="cls-11" d="M3707.81,116.62c.53.43,1.08.84,1.63,1.25C3708.89,117.46,3708.34,117.05,3707.81,116.62Z"/><path class="cls-11" d="M3709.73,118.07c.56.41,1.14.81,1.72,1.19C3710.87,118.88,3710.29,118.48,3709.73,118.07Z"/><path class="cls-11" d="M3698.33,106.23c.39.58.78,1.16,1.19,1.72C3699.11,107.39,3698.72,106.81,3698.33,106.23Z"/><path class="cls-11" d="M3701.06,109.94c.44.53.88,1,1.34,1.56C3701.94,111,3701.49,110.47,3701.06,109.94Z"/><path class="cls-11" d="M3697,104.14c.35.6.71,1.18,1.08,1.75C3697.74,105.32,3697.38,104.74,3697,104.14Z"/><path class="cls-11" d="M3722.47,124.44c.66.21,1.32.4,2,.58C3723.79,124.84,3723.13,124.65,3722.47,124.44Z"/><path class="cls-11" d="M3704.3,113.49c.48.47,1,.94,1.46,1.39C3705.26,114.43,3704.78,114,3704.3,113.49Z"/><path class="cls-11" d="M3704.1,113.29c-.49-.48-1-1-1.43-1.49C3703.14,112.31,3703.61,112.81,3704.1,113.29Z"/><path class="cls-11" d="M3717.88,122.72c.61.27,1.23.53,1.86.77C3719.11,123.25,3718.49,123,3717.88,122.72Z"/><path class="cls-11" d="M3720.09,123.62c.64.24,1.28.47,1.93.68C3721.37,124.09,3720.73,123.86,3720.09,123.62Z"/><path class="cls-11" d="M3695.81,101.93c.33.64.68,1.27,1,1.89C3696.49,103.2,3696.14,102.57,3695.81,101.93Z"/><path class="cls-9" d="M3702.4,111.5l.27.3Z"/><path class="cls-9" d="M3696.85,103.82l.18.32Z"/><path class="cls-9" d="M3698.11,105.89l.22.34Z"/><path class="cls-9" d="M3699.52,108l.11.14Z"/><path class="cls-9" d="M3700.87,109.7l.19.24Z"/><path class="cls-9" d="M3722,124.3l.45.14Z"/><path class="cls-9" d="M3717.71,122.65l.17.07Z"/><path class="cls-9" d="M3719.74,123.49l.35.13Z"/><path class="cls-9" d="M3704.3,113.49a1.89,1.89,0,0,1-.2-.2A1.89,1.89,0,0,0,3704.3,113.49Z"/><path class="cls-9" d="M3715.45,121.57l.37.18Z"/><path class="cls-9" d="M3743.22,132a44.94,44.94,0,0,1,3.26-6.73,45.06,45.06,0,0,1-10.58,1.26c-.7,0-1.4,0-2.09-.06l-.35,0c-.67,0-1.35-.08-2-.15h0a44.62,44.62,0,0,1-7-1.25l.1,0A45.22,45.22,0,0,1,3701,144.23a44.94,44.94,0,0,0,65.5,9A45.37,45.37,0,0,1,3743.22,132Z"/><path class="cls-9" d="M3711.45,119.26l.05,0Z"/><path class="cls-9" d="M3707.5,116.37l.31.25Z"/><path class="cls-9" d="M3713.31,120.4l.34.19Z"/><path class="cls-9" d="M3709.44,117.87l.29.2Z"/><path class="cls-9" d="M3705.76,114.88l.16.14Z"/><path class="cls-11" d="M3733.81,126.44l-.35,0Z"/><polygon class="cls-11" points="3731.45 126.27 3731.45 126.27 3731.45 126.27 3731.45 126.27"/><path class="cls-9" d="M3686.07,146.78A45,45,0,0,1,3646,122.21a45.1,45.1,0,1,0,85.47,4.06,44.5,44.5,0,0,1-6.89-1.22A45,45,0,0,1,3686.07,146.78Z"/><path class="cls-11" d="M3724.56,125.05a44.5,44.5,0,0,0,6.89,1.22,46.15,46.15,0,0,0-3.31-8.49A45.43,45.43,0,0,1,3724.56,125.05Z"/><path class="cls-9" d="M3880.49,153.17a45,45,0,0,1-82.16,4.44,45.08,45.08,0,1,0,82.16-4.44Z"/><path class="cls-11" d="M3840.4,128.61a44.76,44.76,0,0,0-17,3.34,42.8,42.8,0,0,0,2-4.42A45.06,45.06,0,0,0,3785.29,103a46.34,46.34,0,0,0-4.88.27,45,45,0,0,0-5.7,1A44.94,44.94,0,0,0,3778,97.5a45,45,0,0,0-78.58-2.83,45,45,0,0,0-30.12,2.66,44.93,44.93,0,0,0-38.43-9.47A36.63,36.63,0,0,0,3568,97.73a36.71,36.71,0,0,0,31.37,20,45,45,0,0,0,57.83,18.57,44.77,44.77,0,0,0,25.91,10.4c1,.06,2,.1,3,.1a44.58,44.58,0,0,0,14.9-2.55,45.22,45.22,0,0,0,23.59-19.18l-.1,0-.45-.13.55.16a45.43,45.43,0,0,0,3.58-7.27,46.15,46.15,0,0,1,3.31,8.49h0c.66.07,1.34.12,2,.15l.35,0c.69,0,1.39.06,2.09.06a45.06,45.06,0,0,0,10.58-1.26,44.94,44.94,0,0,0-3.26,6.73,45.37,45.37,0,0,0,23.25,21.29,45,45,0,0,0,33.84-.06,42.64,42.64,0,0,0-2,4.41,45,45,0,0,0,82.16-4.44A45.07,45.07,0,0,0,3840.4,128.61Zm-144.59-26.68c.33.64.68,1.27,1,1.9h0C3696.49,103.2,3696.14,102.57,3695.81,101.93Zm1.22,2.21,0,0,0,0Zm1.3,2.09h0c.39.58.78,1.16,1.19,1.72h0C3699.11,107.39,3698.72,106.81,3698.33,106.23Zm1.3,1.86h0c.4.55.82,1.08,1.24,1.61h0C3700.45,109.17,3700,108.64,3699.63,108.09Zm1.94,2.44c.28.33.55.66.83,1h0Zm1.1,1.27h0c.47.51.94,1,1.43,1.5h0C3703.61,112.81,3703.14,112.31,3702.67,111.8Zm2.42,2.44.68.64h0ZM3707,116l.47.4h0Zm.78.65.44.34c-.14-.12-.29-.23-.44-.34Zm1.92,1.45.26.18-.26-.18Zm3.92,2.52c.53.3,1.07.59,1.61.87-.54-.28-1.08-.56-1.61-.87Zm2.17,1.16h0c.62.32,1.25.62,1.9.9h0Q3716.75,122.23,3715.82,121.75Zm3.92,1.74-.81-.34.81.34Z"/><ellipse class="cls-9" cx="3893.85" cy="94.77" rx="6.62" ry="6.64"/><ellipse class="cls-9" cx="3892.24" cy="83.65" rx="6.62" ry="6.64"/><ellipse class="cls-9" cx="3892.51" cy="72.73" rx="6.62" ry="6.64"/><ellipse class="cls-9" cx="3892.78" cy="65.18" rx="6.62" ry="6.64"/><ellipse class="cls-9" cx="3893.3" cy="56.41" rx="6.62" ry="6.64"/><ellipse class="cls-9" cx="3897.19" cy="45.99" rx="11.83" ry="11.89"/><ellipse class="cls-9" cx="3948.45" cy="124.23" rx="6.64" ry="6.62" transform="translate(1483.27 3211.07) rotate(-53.19)"/><ellipse class="cls-9" cx="3953.83" cy="114.37" rx="6.64" ry="6.62" transform="translate(1493.32 3211.42) rotate(-53.19)"/><ellipse class="cls-9" cx="3960.58" cy="105.79" rx="6.64" ry="6.62" transform="translate(1502.9 3213.39) rotate(-53.19)"/><ellipse class="cls-9" cx="3965.32" cy="99.9" rx="6.64" ry="6.62" transform="translate(1509.51 3214.83) rotate(-53.19)"/><ellipse class="cls-9" cx="3970.99" cy="93.19" rx="6.64" ry="6.62" transform="translate(1517.16 3216.67) rotate(-53.19)"/><ellipse class="cls-9" cx="3980.35" cy="87.18" rx="11.89" ry="11.83" transform="matrix(0.6, -0.8, 0.8, 0.6, 1525.72, 3221.76)"/><path class="cls-12" d="M3879.3,100.22a56.39,56.39,0,1,0,79.37,51.43c0-.26,0-.51,0-.77a55.74,55.74,0,0,1-23.17,5A56.31,56.31,0,0,1,3879.3,100.22Z"/><path class="cls-9" d="M3902.47,95.2a55.83,55.83,0,0,0-23.17,5,56.31,56.31,0,0,0,56.18,55.68,55.74,55.74,0,0,0,23.17-5A56.32,56.32,0,0,0,3902.47,95.2Z"/><polyline class="cls-13" points="3900.79 164.26 3908.39 145.03 3911.15 156.02 3917.37 152.59 3917.37 160.83 3926.35 156.71 3920.82 173.19"/><polyline class="cls-16" points="3902.82 159.11 3908.39 145.03 3911.15 156.02 3917.37 152.59 3917.37 160.83 3926.35 156.71 3922.57 167.99"/><path class="cls-14" d="M3937.53,151.66l15.73,5s-.78,7.89-9.2,4.82C3934.64,158.05,3937.53,151.66,3937.53,151.66Z"/><path class="cls-14" d="M3885.21,121l17.27,10.73s-3.34,8.92-12.46,2.81C3879.8,127.65,3885.21,121,3885.21,121Z"/><ellipse class="cls-15" cx="3937.53" cy="117.13" rx="6.37" ry="14.28" transform="translate(880.3 2601.32) rotate(-40.8)"/><polygon class="cls-1" points="4505.19 69.87 4535.16 87.28 4629.65 31.98 4602.73 16.25 4505.19 69.87"/><polygon class="cls-2" points="4505.28 69.86 4534.27 86.58 4535.16 180.81 4505.47 162.88 4505.28 69.86"/><polygon class="cls-3" points="4534.09 86.55 4629.77 31.53 4629.77 119.76 4535.1 180.81 4534.09 86.55"/><path class="cls-4" d="M4608.64,64.4c6.91,11.16,5.38,30.33-5,48.07-10.5,18-26.85,29-40.18,28.3,14.1,7.61,35.25-3,47.49-24C4623.1,96,4622,72.9,4608.64,64.4Z"/><path class="cls-1" d="M4603.66,112.47c10.36-17.74,11.89-36.91,5-48.07-.27-.17-.51-.38-.8-.54-14.09-8-35.55,2.6-47.92,23.78s-11,44.88,3.13,52.93c.14.08.29.13.43.2C4576.81,141.44,4593.16,130.47,4603.66,112.47Z"/><path class="cls-5" d="M4608.71,64.52c4.36,11.39,2.11,28.19-7.05,43.87-11.49,19.68-30,31-43.84,27.79a19.91,19.91,0,0,0,5.23,4.39c.14.08.29.13.43.2,13.33.67,29.68-10.3,40.18-28.3C4614,94.79,4615.54,75.69,4608.71,64.52Z"/><path class="cls-6" d="M4601.66,108.39c9.16-15.68,11.41-32.48,7.05-43.87,0,0,0-.08-.07-.12-.27-.17-.51-.38-.8-.54-14.09-8-35.55,2.6-47.92,23.78-10.6,18.16-11.06,38.13-2.1,48.54C4571.69,139.35,4590.17,128.07,4601.66,108.39Z"/><path class="cls-7" d="M4608.71,64.52s0-.08-.07-.12c-.27-.17-.51-.38-.8-.54a19.88,19.88,0,0,0-4.95-2c3.9,11,1.86,26.47-6.51,40.8-11,18.81-29.12,29.28-42.92,25.76a24.12,24.12,0,0,0,4.36,7.72c13.87,3.17,32.35-8.11,43.84-27.79C4610.82,92.71,4613.07,75.91,4608.71,64.52Z"/><path class="cls-8" d="M4596.38,102.7c8.37-14.33,10.41-29.79,6.51-40.8-13.8-3.56-32,6.91-43,25.74-8.38,14.35-10.39,29.81-6.46,40.82C4567.26,132,4585.4,121.51,4596.38,102.7Z"/><path class="cls-7" d="M4596.38,102.7c8.37-14.33,10.41-29.79,6.51-40.8-13.8-3.56-32,6.91-43,25.74-8.38,14.35-10.39,29.81-6.46,40.82C4567.26,132,4585.4,121.51,4596.38,102.7Z"/><circle class="cls-3" cx="4596.25" cy="108.39" r="35.46"/><path class="cls-9" d="M4639.36,140.38a45,45,0,0,1-40.08-24.56A45.12,45.12,0,1,0,4684,146.68a44.77,44.77,0,0,1-25.9-10.4A44.84,44.84,0,0,1,4639.36,140.38Z"/><path class="cls-9" d="M4635.83,94.12a36.65,36.65,0,0,1-66.9,3.61,36.71,36.71,0,1,0,66.9-3.61Z"/><path class="cls-9" d="M4826.3,127.53a45,45,0,0,1-82.15,4.44,45.09,45.09,0,1,0,82.15-4.44Z"/><path class="cls-10" d="M4736.82,126.5c-.7,0-1.39,0-2.09-.06C4735.43,126.47,4736.12,126.5,4736.82,126.5Z"/><path class="cls-10" d="M4734.39,126.42c-.68,0-1.35-.08-2-.15C4733,126.34,4733.71,126.39,4734.39,126.42Z"/><path class="cls-11" d="M4781.34,103.24a44.2,44.2,0,0,0-2.45-5.74,44.89,44.89,0,0,1-3.25,6.73A44.65,44.65,0,0,1,4781.34,103.24Z"/><path class="cls-11" d="M4712.43,119.29c.59.38,1.2.75,1.81,1.11C4713.63,120,4713,119.67,4712.43,119.29Z"/><path class="cls-11" d="M4700.56,108.09c.4.55.81,1.08,1.23,1.61C4701.37,109.17,4701,108.64,4700.56,108.09Z"/><path class="cls-11" d="M4714.57,120.59c.59.34,1.19.67,1.8,1C4715.76,121.26,4715.16,120.93,4714.57,120.59Z"/><path class="cls-11" d="M4716.74,121.75c.63.32,1.26.62,1.9.9C4718,122.37,4717.37,122.07,4716.74,121.75Z"/><path class="cls-11" d="M4706.84,115q.78.69,1.59,1.35Q4707.62,115.71,4706.84,115Z"/><path class="cls-11" d="M4708.74,116.62c.53.43,1.07.84,1.62,1.25C4709.81,117.46,4709.27,117.05,4708.74,116.62Z"/><path class="cls-11" d="M4710.65,118.07c.57.41,1.14.81,1.73,1.19C4711.79,118.88,4711.22,118.48,4710.65,118.07Z"/><path class="cls-11" d="M4699.26,106.23c.38.58.78,1.16,1.19,1.72C4700,107.39,4699.64,106.81,4699.26,106.23Z"/><path class="cls-11" d="M4702,109.94q.66.8,1.35,1.56Q4702.64,110.73,4702,109.94Z"/><path class="cls-11" d="M4698,104.14c.35.6.71,1.18,1.09,1.75C4698.66,105.32,4698.3,104.74,4698,104.14Z"/><path class="cls-11" d="M4723.4,124.44c.65.21,1.31.4,2,.58C4724.71,124.84,4724.05,124.65,4723.4,124.44Z"/><path class="cls-11" d="M4705.22,113.49c.48.47,1,.94,1.47,1.39C4706.19,114.43,4705.7,114,4705.22,113.49Z"/><path class="cls-11" d="M4705,113.29c-.48-.48-1-1-1.42-1.49C4704.06,112.31,4704.54,112.81,4705,113.29Z"/><path class="cls-11" d="M4718.8,122.72c.62.27,1.24.53,1.86.77C4720,123.25,4719.42,123,4718.8,122.72Z"/><path class="cls-11" d="M4721,123.62c.64.24,1.29.47,1.94.68C4722.3,124.09,4721.65,123.86,4721,123.62Z"/><path class="cls-11" d="M4696.74,101.93c.33.64.67,1.27,1,1.89C4697.41,103.2,4697.07,102.57,4696.74,101.93Z"/><path class="cls-9" d="M4703.33,111.5l.27.3Z"/><path class="cls-9" d="M4697.77,103.82l.18.32Z"/><path class="cls-9" d="M4699,105.89c.07.11.14.23.22.34C4699.18,106.12,4699.11,106,4699,105.89Z"/><path class="cls-9" d="M4700.45,108a.76.76,0,0,0,.11.14A.76.76,0,0,1,4700.45,108Z"/><path class="cls-9" d="M4701.79,109.7l.19.24Z"/><path class="cls-9" d="M4723,124.3l.45.14Z"/><path class="cls-9" d="M4718.64,122.65l.16.07Z"/><path class="cls-9" d="M4720.66,123.49l.35.13Z"/><path class="cls-9" d="M4705.22,113.49l-.2-.2Z"/><path class="cls-9" d="M4716.37,121.57l.37.18Z"/><path class="cls-9" d="M4744.15,132a44.89,44.89,0,0,1,3.25-6.73,44.94,44.94,0,0,1-10.58,1.26c-.7,0-1.39,0-2.09-.06l-.34,0c-.68,0-1.35-.08-2-.15h0a44.83,44.83,0,0,1-7-1.25l.11,0a45.26,45.26,0,0,1-23.59,19.18,44.93,44.93,0,0,0,65.49,9A45.31,45.31,0,0,1,4744.15,132Z"/><path class="cls-9" d="M4712.38,119.26l.05,0Z"/><path class="cls-9" d="M4708.43,116.37l.31.25Z"/><path class="cls-9" d="M4714.24,120.4l.33.19Z"/><path class="cls-9" d="M4710.36,117.87l.29.2Z"/><path class="cls-9" d="M4706.69,114.88l.15.14Z"/><path class="cls-11" d="M4734.73,126.44l-.34,0Z"/><polygon class="cls-11" points="4732.37 126.27 4732.37 126.27 4732.37 126.27 4732.37 126.27"/><path class="cls-9" d="M4687,146.78a45.06,45.06,0,0,1-40.09-24.57,45.1,45.1,0,1,0,85.47,4.06,44.58,44.58,0,0,1-6.88-1.22A45,45,0,0,1,4687,146.78Z"/><path class="cls-11" d="M4725.49,125.05a44.58,44.58,0,0,0,6.88,1.22,45.45,45.45,0,0,0-3.31-8.49A46.24,46.24,0,0,1,4725.49,125.05Z"/><path class="cls-9" d="M4881.41,153.17a45,45,0,0,1-82.15,4.44,45.09,45.09,0,1,0,82.15-4.44Z"/><path class="cls-11" d="M4841.33,128.61a44.68,44.68,0,0,0-17,3.34,45,45,0,0,0,2-4.42A45.05,45.05,0,0,0,4786.22,103a46.19,46.19,0,0,0-4.88.27,44.65,44.65,0,0,0-5.7,1,44.89,44.89,0,0,0,3.25-6.73,45,45,0,0,0-78.58-2.83A45.07,45.07,0,0,0,4689,93.22a44.61,44.61,0,0,0-18.77,4.11,44.93,44.93,0,0,0-38.43-9.47,36.63,36.63,0,0,0-62.84,9.87,36.72,36.72,0,0,0,31.38,20,45,45,0,0,0,57.83,18.57,44.77,44.77,0,0,0,25.9,10.4c1,.06,2,.1,2.95.1a44.64,44.64,0,0,0,14.91-2.55,45.26,45.26,0,0,0,23.59-19.18l-.11,0-.44-.13.55.16a46.24,46.24,0,0,0,3.57-7.27,45.45,45.45,0,0,1,3.31,8.49h0c.67.07,1.34.12,2,.15l.34,0c.7,0,1.39.06,2.09.06a44.94,44.94,0,0,0,10.58-1.26,44.89,44.89,0,0,0-3.25,6.73,45.31,45.31,0,0,0,23.24,21.29,45,45,0,0,0,33.84-.06,44.81,44.81,0,0,0-2,4.41,45,45,0,0,0,82.15-4.44A45.05,45.05,0,0,0,4841.33,128.61Zm-144.59-26.68c.33.64.67,1.27,1,1.9h0C4697.41,103.2,4697.07,102.57,4696.74,101.93Zm1.21,2.21,0,0,0,0Zm1.31,2.09h0c.39.58.79,1.16,1.2,1.72h0C4700,107.39,4699.64,106.81,4699.26,106.23Zm1.3,1.86h0c.4.55.81,1.08,1.23,1.61h0C4701.37,109.17,4701,108.64,4700.56,108.09Zm1.94,2.44c.27.33.54.66.83,1h0C4703,111.18,4702.77,110.86,4702.5,110.53Zm1.1,1.27h0c.46.51.94,1,1.42,1.5h0C4704.54,112.81,4704.06,112.31,4703.6,111.8Zm2.42,2.44.67.64h0ZM4708,116l.47.4h0Zm.78.65.44.34-.44-.34Zm1.91,1.45.27.18-.27-.18Zm3.92,2.52c.53.3,1.07.59,1.61.87-.54-.28-1.08-.56-1.61-.87Zm2.17,1.16h0c.63.32,1.26.62,1.9.9h0C4718,122.37,4717.37,122.07,4716.74,121.75Zm3.92,1.74-.81-.34.82.34Z"/><ellipse class="cls-9" cx="4894.77" cy="94.77" rx="6.62" ry="6.64"/><ellipse class="cls-9" cx="4893.17" cy="83.65" rx="6.62" ry="6.64"/><ellipse class="cls-9" cx="4893.43" cy="72.73" rx="6.62" ry="6.64"/><ellipse class="cls-9" cx="4893.71" cy="65.18" rx="6.62" ry="6.64"/><ellipse class="cls-9" cx="4894.22" cy="56.41" rx="6.62" ry="6.64"/><ellipse class="cls-9" cx="4898.12" cy="45.99" rx="11.83" ry="11.89"/><ellipse class="cls-9" cx="4949.37" cy="124.23" rx="6.64" ry="6.62" transform="translate(1884.49 4012.44) rotate(-53.19)"/><ellipse class="cls-9" cx="4954.75" cy="114.37" rx="6.64" ry="6.62" transform="translate(1894.54 4012.8) rotate(-53.19)"/><ellipse class="cls-9" cx="4961.5" cy="105.79" rx="6.64" ry="6.62" transform="translate(1904.12 4014.76) rotate(-53.19)"/><ellipse class="cls-9" cx="4966.24" cy="99.9" rx="6.64" ry="6.62" transform="translate(1910.73 4016.2) rotate(-53.19)"/><ellipse class="cls-9" cx="4971.91" cy="93.19" rx="6.64" ry="6.62" transform="matrix(0.6, -0.8, 0.8, 0.6, 1918.38, 4018.05)"/><ellipse class="cls-9" cx="4981.27" cy="87.18" rx="11.89" ry="11.83" transform="translate(1926.94 4023.14) rotate(-53.19)"/><path class="cls-12" d="M4880.22,100.22a56.39,56.39,0,1,0,79.37,51.43c0-.26,0-.51,0-.77a55.71,55.71,0,0,1-23.17,5A56.32,56.32,0,0,1,4880.22,100.22Z"/><path class="cls-9" d="M4903.39,95.2a55.9,55.9,0,0,0-23.17,5,56.32,56.32,0,0,0,56.18,55.68,55.71,55.71,0,0,0,23.17-5A56.31,56.31,0,0,0,4903.39,95.2Z"/><polyline class="cls-13" points="4901.71 164.26 4909.31 145.03 4912.08 156.02 4918.29 152.59 4918.29 160.83 4927.28 156.71 4921.75 173.19"/><polyline class="cls-16" points="4903.75 159.11 4909.31 145.03 4912.08 156.02 4918.29 152.59 4918.29 160.83 4927.28 156.71 4923.49 167.99"/><path class="cls-14" d="M4938.46,151.66l15.72,5s-.78,7.89-9.19,4.82C4935.56,158.05,4938.46,151.66,4938.46,151.66Z"/><path class="cls-14" d="M4886.14,121l17.27,10.73s-3.35,8.92-12.47,2.81C4880.72,127.65,4886.14,121,4886.14,121Z"/><ellipse class="cls-15" cx="4938.46" cy="117.13" rx="6.37" ry="14.28" transform="translate(1123.53 3255.34) rotate(-40.8)"/><polygon class="cls-1" points="4004.89 69.75 4034.86 87.16 4129.35 31.85 4102.43 16.13 4004.89 69.75"/><polygon class="cls-2" points="4004.97 69.74 4033.97 86.45 4034.86 180.69 4005.16 162.75 4004.97 69.74"/><polygon class="cls-3" points="4033.78 86.42 4129.46 31.4 4129.46 119.63 4034.8 180.69 4033.78 86.42"/><path class="cls-4" d="M4108.34,64.28c6.9,11.15,5.38,30.33-5,48.07-10.51,18-26.86,29-40.18,28.3,14.1,7.6,35.24-3,47.49-24C4122.79,95.9,4121.65,72.77,4108.34,64.28Z"/><path class="cls-1" d="M4103.36,112.35c10.36-17.74,11.88-36.92,5-48.07-.27-.18-.52-.38-.8-.54-14.1-8.05-35.56,2.6-47.93,23.78s-11,44.88,3.13,52.92c.14.08.29.13.44.21C4076.5,141.32,4092.85,130.34,4103.36,112.35Z"/><path class="cls-5" d="M4108.4,64.39c4.36,11.4,2.11,28.19-7,43.87-11.5,19.69-30,31-43.85,27.8a20.24,20.24,0,0,0,5.23,4.38c.14.08.29.13.44.21,13.32.67,29.67-10.31,40.18-28.3C4113.68,94.66,4115.23,75.56,4108.4,64.39Z"/><path class="cls-6" d="M4101.36,108.26c9.15-15.68,11.4-32.47,7-43.87l-.06-.11c-.27-.18-.52-.38-.8-.54-14.1-8.05-35.56,2.6-47.93,23.78-10.6,18.15-11.05,38.13-2.1,48.54C4071.39,139.23,4089.86,128,4101.36,108.26Z"/><path class="cls-7" d="M4108.4,64.39l-.06-.11c-.27-.18-.52-.38-.8-.54a20.07,20.07,0,0,0-4.95-2c3.9,11,1.86,26.47-6.51,40.8-11,18.81-29.13,29.28-42.93,25.76a24.47,24.47,0,0,0,4.36,7.73c13.88,3.17,32.35-8.11,43.85-27.8C4110.51,92.58,4112.76,75.79,4108.4,64.39Z"/><path class="cls-8" d="M4096.08,102.57c8.37-14.33,10.41-29.79,6.51-40.8-13.81-3.55-32,6.92-43,25.75-8.37,14.35-10.39,29.81-6.46,40.81C4067,131.85,4085.09,121.38,4096.08,102.57Z"/><path class="cls-7" d="M4096.08,102.57c8.37-14.33,10.41-29.79,6.51-40.8-13.81-3.55-32,6.92-43,25.75-8.37,14.35-10.39,29.81-6.46,40.81C4067,131.85,4085.09,121.38,4096.08,102.57Z"/><circle class="cls-3" cx="4095.95" cy="108.27" r="35.46"/><path class="cls-9" d="M4139.06,140.26A45.06,45.06,0,0,1,4099,115.7a45.12,45.12,0,1,0,84.77,30.85,44.77,44.77,0,0,1-25.91-10.4A44.61,44.61,0,0,1,4139.06,140.26Z"/><path class="cls-9" d="M4135.52,94a36.64,36.64,0,0,1-66.89,3.6,36.72,36.72,0,1,0,66.89-3.6Z"/><path class="cls-9" d="M4326,127.41a45,45,0,0,1-82.16,4.43,45.09,45.09,0,1,0,82.16-4.43Z"/><path class="cls-10" d="M4236.52,126.37c-.7,0-1.4,0-2.09-.05C4235.12,126.35,4235.82,126.37,4236.52,126.37Z"/><path class="cls-10" d="M4234.08,126.3c-.67,0-1.35-.09-2-.15C4232.73,126.21,4233.41,126.26,4234.08,126.3Z"/><path class="cls-11" d="M4281,103.12a45.58,45.58,0,0,0-2.44-5.74,44.83,44.83,0,0,1-3.26,6.72A44.63,44.63,0,0,1,4281,103.12Z"/><path class="cls-11" d="M4212.12,119.17c.6.38,1.2.75,1.81,1.1C4213.32,119.92,4212.72,119.55,4212.12,119.17Z"/><path class="cls-11" d="M4200.25,108c.4.54.81,1.08,1.24,1.6C4201.06,109.05,4200.65,108.51,4200.25,108Z"/><path class="cls-11" d="M4214.27,120.47c.59.34,1.19.66,1.8,1C4215.46,121.13,4214.86,120.81,4214.27,120.47Z"/><path class="cls-11" d="M4216.44,121.63q.93.47,1.89.9Q4217.37,122.1,4216.44,121.63Z"/><path class="cls-11" d="M4206.53,114.89q.78.69,1.59,1.35Q4207.31,115.58,4206.53,114.89Z"/><path class="cls-11" d="M4208.43,116.49c.53.43,1.08.85,1.63,1.25C4209.51,117.34,4209,116.92,4208.43,116.49Z"/><path class="cls-11" d="M4210.35,118c.56.4,1.14.8,1.72,1.18C4211.49,118.75,4210.91,118.35,4210.35,118Z"/><path class="cls-11" d="M4199,106.1c.39.59.78,1.16,1.19,1.73C4199.73,107.26,4199.34,106.69,4199,106.1Z"/><path class="cls-11" d="M4201.68,109.81c.43.53.88,1,1.34,1.56C4202.56,110.86,4202.11,110.34,4201.68,109.81Z"/><path class="cls-11" d="M4197.65,104c.35.59.71,1.17,1.08,1.75C4198.36,105.19,4198,104.61,4197.65,104Z"/><path class="cls-11" d="M4223.09,124.32c.66.2,1.32.4,2,.57C4224.41,124.72,4223.75,124.52,4223.09,124.32Z"/><path class="cls-11" d="M4204.92,113.37c.48.47,1,.93,1.46,1.38C4205.88,114.3,4205.4,113.84,4204.92,113.37Z"/><path class="cls-11" d="M4204.72,113.17c-.49-.49-1-1-1.43-1.49C4203.76,112.18,4204.23,112.68,4204.72,113.17Z"/><path class="cls-11" d="M4218.5,122.6c.61.27,1.23.52,1.86.76C4219.73,123.12,4219.11,122.87,4218.5,122.6Z"/><path class="cls-11" d="M4220.71,123.5c.64.24,1.28.46,1.93.67C4222,124,4221.35,123.74,4220.71,123.5Z"/><path class="cls-11" d="M4196.43,101.81c.33.64.68,1.27,1,1.89C4197.11,103.08,4196.76,102.45,4196.43,101.81Z"/><path class="cls-9" d="M4203,111.37l.27.31Z"/><path class="cls-9" d="M4197.47,103.7l.18.32Z"/><path class="cls-9" d="M4198.73,105.77l.22.33Z"/><path class="cls-9" d="M4200.14,107.83a.76.76,0,0,1,.11.14A.76.76,0,0,0,4200.14,107.83Z"/><path class="cls-9" d="M4201.49,109.57l.19.24Z"/><path class="cls-9" d="M4222.64,124.17l.45.15Z"/><path class="cls-9" d="M4218.33,122.53l.17.07Z"/><path class="cls-9" d="M4220.36,123.36l.35.14Z"/><path class="cls-9" d="M4204.92,113.37c-.07-.07-.14-.13-.2-.2S4204.85,113.3,4204.92,113.37Z"/><path class="cls-9" d="M4216.07,121.44l.37.19Z"/><path class="cls-9" d="M4243.84,131.84a44.83,44.83,0,0,1,3.26-6.72,45.06,45.06,0,0,1-10.58,1.25c-.7,0-1.4,0-2.09-.05l-.35,0c-.67,0-1.35-.09-2-.15h0a44.72,44.72,0,0,1-7-1.26l.1,0a45.28,45.28,0,0,1-23.59,19.19,44.95,44.95,0,0,0,65.5,9A45.33,45.33,0,0,1,4243.84,131.84Z"/><path class="cls-9" d="M4212.07,119.13l.05,0Z"/><path class="cls-9" d="M4208.12,116.24l.31.25Z"/><path class="cls-9" d="M4213.93,120.27l.34.2Z"/><path class="cls-9" d="M4210.06,117.74l.29.21Z"/><path class="cls-9" d="M4206.38,114.75l.15.14Z"/><path class="cls-11" d="M4234.43,126.32l-.35,0Z"/><polygon class="cls-11" points="4232.06 126.15 4232.06 126.15 4232.06 126.15 4232.06 126.15"/><path class="cls-9" d="M4186.68,146.65a45.05,45.05,0,0,1-40.08-24.56,45.11,45.11,0,1,0,85.46,4.06,44.6,44.6,0,0,1-6.88-1.23A45,45,0,0,1,4186.68,146.65Z"/><path class="cls-11" d="M4225.18,124.92a44.6,44.6,0,0,0,6.88,1.23,44.51,44.51,0,0,0-3.31-8.49A44.06,44.06,0,0,1,4225.18,124.92Z"/><path class="cls-9" d="M4381.11,153.05a45,45,0,0,1-82.16,4.43,45.09,45.09,0,1,0,82.16-4.43Z"/><path class="cls-11" d="M4341,128.49a44.72,44.72,0,0,0-17,3.33,46,46,0,0,0,2-4.41,45.07,45.07,0,0,0-40.09-24.56,43.8,43.8,0,0,0-4.88.27,44.63,44.63,0,0,0-5.7,1,44.83,44.83,0,0,0,3.26-6.72A45,45,0,0,0,4200,94.54a45,45,0,0,0-30.12,2.66,44.83,44.83,0,0,0-38.43-9.46,36.63,36.63,0,0,0-62.83,9.86,36.67,36.67,0,0,0,31.37,20,45,45,0,0,0,57.83,18.57,44.77,44.77,0,0,0,25.91,10.4c1,.06,1.95.1,2.94.1a44.94,44.94,0,0,0,38.5-21.73l-.1,0-.45-.13.55.16a44.06,44.06,0,0,0,3.57-7.26,44.51,44.51,0,0,1,3.31,8.49h0c.66.06,1.34.11,2,.15l.35,0c.69,0,1.39.05,2.09.05a45.06,45.06,0,0,0,10.58-1.25,44.83,44.83,0,0,0-3.26,6.72,45.33,45.33,0,0,0,23.25,21.29,45,45,0,0,0,33.84-.06,43.62,43.62,0,0,0-2,4.41,45,45,0,0,0,82.16-4.43A45.07,45.07,0,0,0,4341,128.49Zm-144.59-26.68c.33.64.68,1.27,1,1.89h0C4197.11,103.08,4196.76,102.45,4196.43,101.81Zm1.22,2.21,0,0,0,0Zm1.3,2.08h0c.39.59.78,1.16,1.19,1.73h0C4199.73,107.26,4199.34,106.69,4199,106.1Zm1.3,1.87h0c.4.54.82,1.08,1.24,1.6h0C4201.06,109.05,4200.65,108.51,4200.25,108Zm1.94,2.44.83,1h0C4202.74,111.06,4202.47,110.73,4202.19,110.41Zm1.1,1.27h0c.47.5.94,1,1.43,1.49h0C4204.23,112.68,4203.76,112.18,4203.29,111.68Zm2.42,2.44.67.63h0Zm1.94,1.72.47.4h0Zm.78.65c.14.12.29.23.44.34-.15-.11-.3-.22-.44-.34Zm1.92,1.46.26.18-.26-.18Zm3.92,2.52c.53.3,1.06.59,1.61.87-.55-.28-1.08-.57-1.61-.87Zm2.17,1.16h0c.63.31,1.26.61,1.9.9h0Q4217.37,122.1,4216.44,121.63Zm3.92,1.73c-.28-.1-.54-.22-.81-.33l.81.33Z"/><ellipse class="cls-9" cx="4394.46" cy="94.64" rx="6.62" ry="6.64"/><ellipse class="cls-9" cx="4392.86" cy="83.53" rx="6.62" ry="6.64"/><ellipse class="cls-9" cx="4393.13" cy="72.61" rx="6.62" ry="6.64"/><ellipse class="cls-9" cx="4393.4" cy="65.06" rx="6.62" ry="6.64"/><ellipse class="cls-9" cx="4393.92" cy="56.29" rx="6.62" ry="6.64"/><ellipse class="cls-9" cx="4397.81" cy="45.87" rx="11.83" ry="11.89"/><ellipse class="cls-9" cx="4449.07" cy="124.1" rx="6.64" ry="6.62" transform="translate(1684.05 3611.83) rotate(-53.19)"/><ellipse class="cls-9" cx="4454.44" cy="114.24" rx="6.64" ry="6.62" transform="translate(1694.1 3612.19) rotate(-53.19)"/><ellipse class="cls-9" cx="4461.2" cy="105.66" rx="6.64" ry="6.62" transform="translate(1703.67 3614.15) rotate(-53.19)"/><ellipse class="cls-9" cx="4465.94" cy="99.78" rx="6.64" ry="6.62" transform="translate(1710.28 3615.59) rotate(-53.19)"/><ellipse class="cls-9" cx="4471.61" cy="93.07" rx="6.64" ry="6.62" transform="matrix(0.6, -0.8, 0.8, 0.6, 1717.93, 3617.44)"/><ellipse class="cls-9" cx="4480.97" cy="87.06" rx="11.89" ry="11.83" transform="translate(1726.49 3622.52) rotate(-53.19)"/><path class="cls-12" d="M4379.91,100.1a56.39,56.39,0,1,0,79.37,51.43c0-.26,0-.52,0-.78a55.75,55.75,0,0,1-23.17,5A56.33,56.33,0,0,1,4379.91,100.1Z"/><path class="cls-9" d="M4403.08,95.08a55.74,55.74,0,0,0-23.17,5,56.33,56.33,0,0,0,56.19,55.68,55.75,55.75,0,0,0,23.17-5A56.32,56.32,0,0,0,4403.08,95.08Z"/><polyline class="cls-16" points="4401.41 164.14 4409.01 144.91 4411.77 155.9 4417.99 152.46 4417.99 160.7 4426.97 156.58 4421.44 173.07"/><path class="cls-14" d="M4438.15,151.54l15.73,5s-.78,7.89-9.2,4.82C4435.26,157.92,4438.15,151.54,4438.15,151.54Z"/><path class="cls-14" d="M4385.83,120.84l17.27,10.73s-3.34,8.93-12.46,2.81C4380.42,127.53,4385.83,120.84,4385.83,120.84Z"/><ellipse class="cls-15" cx="4438.15" cy="117" rx="6.37" ry="14.28" transform="translate(1002.03 2928.4) rotate(-40.8)"/><polygon class="cls-1" points="1001.83 68.99 1031.8 86.4 1126.29 31.09 1099.37 15.37 1001.83 68.99"/><polygon class="cls-2" points="1001.92 68.98 1030.91 85.69 1031.8 179.93 1002.1 162 1001.92 68.98"/><polygon class="cls-3" points="1030.72 85.66 1126.4 30.64 1126.4 118.87 1031.74 179.93 1030.72 85.66"/><path class="cls-4" d="M1105.28,63.52c6.91,11.15,5.38,30.33-5,48.07-10.51,18-26.85,29-40.18,28.3,14.1,7.6,35.24-3,47.49-24C1119.73,95.15,1118.6,72,1105.28,63.52Z"/><path class="cls-1" d="M1100.3,111.59c10.36-17.74,11.89-36.92,5-48.07-.27-.18-.52-.38-.8-.54-14.1-8-35.55,2.6-47.92,23.78s-11,44.88,3.13,52.93c.14.08.29.12.43.2C1073.45,140.56,1089.79,129.58,1100.3,111.59Z"/><path class="cls-5" d="M1105.34,63.63c4.36,11.4,2.11,28.2-7,43.88-11.49,19.68-30,31-43.84,27.79a19.76,19.76,0,0,0,5.23,4.39c.14.08.29.12.43.2,13.33.67,29.67-10.31,40.18-28.3C1110.63,93.9,1112.17,74.8,1105.34,63.63Z"/><path class="cls-6" d="M1098.3,107.51c9.15-15.68,11.4-32.48,7-43.88l-.06-.11c-.27-.18-.52-.38-.8-.54-14.1-8-35.55,2.6-47.92,23.78-10.6,18.16-11.06,38.13-2.1,48.54C1068.33,138.47,1086.81,127.19,1098.3,107.51Z"/><path class="cls-7" d="M1105.34,63.63l-.06-.11c-.27-.18-.52-.38-.8-.54a19.91,19.91,0,0,0-5-2c3.9,11,1.86,26.47-6.51,40.8-11,18.81-29.12,29.28-42.92,25.76a24.17,24.17,0,0,0,4.36,7.73c13.87,3.17,32.35-8.11,43.84-27.79C1107.45,91.83,1109.7,75,1105.34,63.63Z"/><path class="cls-8" d="M1093,101.81c8.37-14.33,10.41-29.79,6.51-40.8-13.81-3.55-32,6.92-43,25.75-8.38,14.35-10.4,29.81-6.46,40.81C1063.9,131.09,1082,120.62,1093,101.81Z"/><path class="cls-7" d="M1093,101.81c8.37-14.33,10.41-29.79,6.51-40.8-13.81-3.55-32,6.92-43,25.75-8.38,14.35-10.4,29.81-6.46,40.81C1063.9,131.09,1082,120.62,1093,101.81Z"/><circle class="cls-3" cx="1094.17" cy="108.36" r="31.97"/><ellipse class="cls-9" cx="1100.28" cy="66.35" rx="4.68" ry="4.7"/><ellipse class="cls-9" cx="1099.14" cy="58.48" rx="4.68" ry="4.7"/><ellipse class="cls-9" cx="1099.33" cy="50.76" rx="4.68" ry="4.7"/><ellipse class="cls-9" cx="1099.52" cy="45.42" rx="4.68" ry="4.7"/><ellipse class="cls-9" cx="1099.89" cy="39.21" rx="4.68" ry="4.7"/><ellipse class="cls-9" cx="1102.64" cy="31.84" rx="8.37" ry="8.41"/><ellipse class="cls-9" cx="1138.9" cy="87.19" rx="4.7" ry="4.68" transform="translate(386.72 946.79) rotate(-53.19)"/><ellipse class="cls-9" cx="1142.7" cy="80.21" rx="4.7" ry="4.68" transform="translate(393.83 947.04) rotate(-53.19)"/><ellipse class="cls-9" cx="1147.48" cy="74.14" rx="4.7" ry="4.68" transform="translate(400.61 948.43) rotate(-53.19)"/><ellipse class="cls-9" cx="1150.83" cy="69.98" rx="4.7" ry="4.68" transform="translate(405.28 949.45) rotate(-53.19)"/><ellipse class="cls-9" cx="1154.85" cy="65.23" rx="4.7" ry="4.68" transform="translate(410.69 950.76) rotate(-53.19)"/><ellipse class="cls-9" cx="1161.46" cy="60.98" rx="8.41" ry="8.37" transform="translate(416.75 954.36) rotate(-53.19)"/><path class="cls-12" d="M1090,70.21a39.89,39.89,0,1,0,56.15,36.38c0-.19,0-.37,0-.55A39.72,39.72,0,0,1,1090,70.21Z"/><path class="cls-9" d="M1106.37,66.65A39.41,39.41,0,0,0,1090,70.21,39.72,39.72,0,0,0,1146.11,106,39.83,39.83,0,0,0,1106.37,66.65Z"/><polyline class="cls-13" points="1105.19 115.51 1110.56 101.9 1112.52 109.68 1116.91 107.25 1116.91 113.08 1123.27 110.16 1119.36 121.82"/><path class="cls-14" d="M1131.75,102.92l11.13,3.54s-1.13,9.25-7.08,7.08C1129.13,111.11,1131.75,102.92,1131.75,102.92Z"/><path class="cls-14" d="M1096,82.8l12.21,7.59s-4.14,8.39-10.59,4.07C1090.34,89.61,1096,82.8,1096,82.8Z"/><ellipse class="cls-15" cx="1131.18" cy="82.16" rx="4.5" ry="10.1" transform="translate(221.19 759.1) rotate(-40.8)"/><polygon class="cls-1" points="7006.92 68.15 7036.89 85.56 7131.38 30.26 7104.46 14.53 7006.92 68.15"/><polygon class="cls-2" points="7007 68.14 7036 84.86 7036.89 179.09 7007.19 161.16 7007 68.14"/><polygon class="cls-3" points="7035.81 84.83 7131.49 29.81 7131.49 118.04 7036.83 179.09 7035.81 84.83"/><path class="cls-4" d="M7110.37,62.68c6.91,11.16,5.38,30.33-5,48.07-10.51,18-26.85,29-40.18,28.31,14.1,7.6,35.24-3,47.49-24C7124.82,94.31,7123.69,71.18,7110.37,62.68Z"/><path class="cls-1" d="M7105.39,110.75c10.36-17.74,11.89-36.91,5-48.07-.27-.17-.52-.38-.8-.54-14.1-8-35.55,2.6-47.92,23.79s-11,44.87,3.13,52.92c.14.08.29.13.43.21C7078.54,139.72,7094.88,128.75,7105.39,110.75Z"/><path class="cls-5" d="M7110.43,62.8c4.36,11.4,2.11,28.19-7,43.87-11.5,19.68-30,31-43.85,27.79a20,20,0,0,0,5.24,4.39c.14.08.29.13.43.21,13.33.66,29.67-10.31,40.18-28.31C7115.72,93.07,7117.26,74,7110.43,62.8Z"/><path class="cls-6" d="M7103.39,106.67c9.15-15.68,11.4-32.47,7-43.87l-.06-.12c-.27-.17-.52-.38-.8-.54-14.1-8-35.55,2.6-47.92,23.79-10.61,18.15-11.06,38.12-2.11,48.53C7073.42,137.63,7091.89,126.35,7103.39,106.67Z"/><path class="cls-7" d="M7110.43,62.8l-.06-.12c-.27-.17-.52-.38-.8-.54a19.88,19.88,0,0,0-4.95-2c3.9,11,1.86,26.47-6.51,40.8-11,18.81-29.13,29.28-42.93,25.76a24.5,24.5,0,0,0,4.36,7.72c13.88,3.17,32.35-8.11,43.85-27.79C7112.54,91,7114.79,74.2,7110.43,62.8Z"/><path class="cls-8" d="M7098.11,101c8.37-14.33,10.41-29.79,6.51-40.8-13.81-3.56-32,6.91-43,25.75-8.38,14.34-10.4,29.81-6.47,40.81C7069,130.26,7087.12,119.79,7098.11,101Z"/><path class="cls-7" d="M7098.11,101c8.37-14.33,10.41-29.79,6.51-40.8-13.81-3.56-32,6.91-43,25.75-8.38,14.34-10.4,29.81-6.47,40.81C7069,130.26,7087.12,119.79,7098.11,101Z"/><circle class="cls-3" cx="7099.26" cy="107.53" r="31.97"/><ellipse class="cls-9" cx="7105.36" cy="65.51" rx="4.68" ry="4.7"/><ellipse class="cls-9" cx="7104.23" cy="57.65" rx="4.68" ry="4.7"/><ellipse class="cls-9" cx="7104.42" cy="49.93" rx="4.68" ry="4.7"/><ellipse class="cls-9" cx="7104.61" cy="44.58" rx="4.68" ry="4.7"/><ellipse class="cls-9" cx="7104.98" cy="38.38" rx="4.68" ry="4.7"/><ellipse class="cls-9" cx="7107.73" cy="31.01" rx="8.37" ry="8.41"/><ellipse class="cls-9" cx="7143.99" cy="86.35" rx="4.7" ry="4.68" transform="translate(2794.53 5754.35) rotate(-53.19)"/><ellipse class="cls-9" cx="7147.79" cy="79.38" rx="4.7" ry="4.68" transform="translate(2801.64 5754.6) rotate(-53.19)"/><ellipse class="cls-9" cx="7152.57" cy="73.31" rx="4.7" ry="4.68" transform="translate(2808.41 5755.99) rotate(-53.19)"/><ellipse class="cls-9" cx="7155.92" cy="69.14" rx="4.7" ry="4.68" transform="translate(2813.09 5757.01) rotate(-53.19)"/><ellipse class="cls-9" cx="7159.93" cy="64.4" rx="4.7" ry="4.68" transform="translate(2818.5 5758.32) rotate(-53.19)"/><ellipse class="cls-9" cx="7166.55" cy="60.15" rx="8.41" ry="8.37" transform="matrix(0.6, -0.8, 0.8, 0.6, 2824.56, 5761.91)"/><path class="cls-12" d="M7095.07,69.37a39.89,39.89,0,1,0,56.15,36.38c0-.18,0-.36,0-.55a39.38,39.38,0,0,1-16.39,3.56A39.84,39.84,0,0,1,7095.07,69.37Z"/><path class="cls-9" d="M7111.46,65.82a39.56,39.56,0,0,0-16.39,3.55,39.84,39.84,0,0,0,39.74,39.39,39.38,39.38,0,0,0,16.39-3.56A39.83,39.83,0,0,0,7111.46,65.82Z"/><polyline class="cls-13" points="7110.27 114.67 7115.65 101.07 7117.6 108.84 7122 106.41 7122 112.24 7128.36 109.33 7124.45 120.99"/><path class="cls-14" d="M7136.84,102.09l11.12,3.54s-1.12,9.25-7.07,7.08C7134.22,110.27,7136.84,102.09,7136.84,102.09Z"/><path class="cls-14" d="M7101,82l12.22,7.59s-4.14,8.39-10.6,4.06C7095.43,88.78,7101,82,7101,82Z"/><ellipse class="cls-15" cx="7136.27" cy="81.33" rx="4.5" ry="10.1" transform="translate(1680.99 4682.73) rotate(-40.8)"/><polygon class="cls-1" points="1502.25 68.89 1532.22 86.3 1626.71 31 1599.79 15.27 1502.25 68.89"/><polygon class="cls-2" points="1502.33 68.89 1531.33 85.6 1532.22 179.83 1502.52 161.9 1502.33 68.89"/><polygon class="cls-3" points="1531.14 85.56 1626.82 30.55 1626.82 118.78 1532.16 179.83 1531.14 85.56"/><path class="cls-4" d="M1605.7,63.42c6.91,11.16,5.38,30.33-5,48.07-10.51,18-26.85,29-40.18,28.3,14.1,7.61,35.24-3,47.49-24C1620.15,95.05,1619,71.92,1605.7,63.42Z"/><path class="cls-1" d="M1600.72,111.49c10.36-17.74,11.89-36.91,5-48.07-.27-.17-.52-.38-.8-.54-14.1-8.05-35.55,2.6-47.92,23.78s-11,44.88,3.13,52.93c.14.08.29.13.43.2C1573.87,140.46,1590.21,129.49,1600.72,111.49Z"/><path class="cls-5" d="M1605.76,63.54c4.36,11.4,2.11,28.19-7,43.87-11.5,19.68-30,31-43.85,27.79a20,20,0,0,0,5.24,4.39c.14.08.29.13.43.2,13.33.67,29.67-10.3,40.18-28.3C1611.05,93.81,1612.59,74.71,1605.76,63.54Z"/><path class="cls-6" d="M1598.72,107.41c9.15-15.68,11.4-32.47,7-43.87l-.06-.12c-.27-.17-.52-.38-.8-.54-14.1-8.05-35.55,2.6-47.92,23.78-10.61,18.16-11.06,38.13-2.11,48.54C1568.75,138.37,1587.22,127.09,1598.72,107.41Z"/><path class="cls-7" d="M1605.76,63.54l-.06-.12c-.27-.17-.52-.38-.8-.54a19.88,19.88,0,0,0-5-2c3.9,11,1.86,26.47-6.51,40.8-11,18.81-29.13,29.28-42.93,25.76a24.5,24.5,0,0,0,4.36,7.72c13.88,3.17,32.35-8.11,43.85-27.79C1607.87,91.73,1610.12,74.94,1605.76,63.54Z"/><path class="cls-8" d="M1593.44,101.72c8.37-14.33,10.41-29.79,6.51-40.8-13.81-3.56-32,6.91-43,25.74-8.38,14.35-10.4,29.81-6.47,40.82C1564.31,131,1582.45,120.53,1593.44,101.72Z"/><path class="cls-7" d="M1593.44,101.72c8.37-14.33,10.41-29.79,6.51-40.8-13.81-3.56-32,6.91-43,25.74-8.38,14.35-10.4,29.81-6.47,40.82C1564.31,131,1582.45,120.53,1593.44,101.72Z"/><circle class="cls-3" cx="1600.01" cy="112.15" r="39.47"/><path class="cls-9" d="M1607.71,126.52A41.36,41.36,0,0,1,1569,99.79a41.36,41.36,0,1,0,77.37,0A41.36,41.36,0,0,1,1607.71,126.52Z"/><ellipse class="cls-11" cx="1607.71" cy="99.79" rx="38.69" ry="26.73"/><ellipse class="cls-9" cx="1653.96" cy="55.52" rx="6.05" ry="6.08"/><ellipse class="cls-9" cx="1652.5" cy="45.35" rx="6.05" ry="6.08"/><ellipse class="cls-9" cx="1652.74" cy="35.35" rx="6.05" ry="6.08"/><ellipse class="cls-9" cx="1652.99" cy="28.44" rx="6.05" ry="6.08"/><ellipse class="cls-9" cx="1653.46" cy="20.41" rx="6.05" ry="6.08"/><ellipse class="cls-9" cx="1657.02" cy="10.88" rx="10.83" ry="10.88"/><ellipse class="cls-9" cx="1703.94" cy="82.49" rx="6.08" ry="6.05" transform="translate(616.98 1397.3) rotate(-53.19)"/><ellipse class="cls-9" cx="1708.86" cy="73.46" rx="6.08" ry="6.05" transform="translate(626.18 1397.62) rotate(-53.19)"/><ellipse class="cls-9" cx="1715.04" cy="65.61" rx="6.08" ry="6.05" transform="translate(634.95 1399.42) rotate(-53.19)"/><ellipse class="cls-9" cx="1719.38" cy="60.22" rx="6.08" ry="6.05" transform="translate(641 1400.74) rotate(-53.19)"/><ellipse class="cls-9" cx="1724.57" cy="54.08" rx="6.08" ry="6.05" transform="translate(648 1402.43) rotate(-53.19)"/><ellipse class="cls-9" cx="1733.14" cy="48.58" rx="10.88" ry="10.83" transform="translate(655.83 1407.09) rotate(-53.19)"/><path class="cls-12" d="M1640.65,60.52a51.61,51.61,0,1,0,72.64,47.07c0-.24,0-.47,0-.71a51.37,51.37,0,0,1-72.62-46.36Z"/><path class="cls-9" d="M1661.85,55.92a50.91,50.91,0,0,0-21.2,4.6,51.37,51.37,0,0,0,72.62,46.36A51.53,51.53,0,0,0,1661.85,55.92Z"/><polyline class="cls-13" points="1660.32 119.13 1667.27 101.53 1669.8 111.59 1675.49 108.44 1675.49 115.99 1683.71 112.21 1678.66 127.3"/><path class="cls-14" d="M1694.69,102.85l14.4,4.58s-1.46,12-9.16,9.16C1691.3,113.44,1694.69,102.85,1694.69,102.85Z"/><path class="cls-14" d="M1648.36,76.81l15.81,9.82s-5.36,10.86-13.71,5.26C1641.1,85.62,1648.36,76.81,1648.36,76.81Z"/><ellipse class="cls-15" cx="1693.95" cy="75.99" rx="5.83" ry="13.07" transform="translate(361.98 1125.32) rotate(-40.8)"/><polygon class="cls-1" points="6506.9 68.53 6536.87 85.94 6631.37 30.64 6604.44 14.91 6506.9 68.53"/><polygon class="cls-2" points="6506.99 68.53 6535.98 85.24 6536.87 179.47 6507.18 161.54 6506.99 68.53"/><polygon class="cls-3" points="6535.8 85.21 6631.48 30.19 6631.48 118.42 6536.81 179.47 6535.8 85.21"/><path class="cls-4" d="M6610.35,63.06c6.91,11.16,5.38,30.33-5,48.07-10.5,18-26.85,29-40.18,28.31,14.1,7.6,35.25-3,47.49-24C6624.81,94.69,6623.67,71.56,6610.35,63.06Z"/><path class="cls-1" d="M6605.37,111.13c10.36-17.74,11.89-36.91,5-48.07-.27-.17-.51-.38-.8-.54-14.09-8-35.55,2.6-47.92,23.79s-11,44.87,3.13,52.92c.14.08.29.13.43.21C6578.52,140.1,6594.87,129.13,6605.37,111.13Z"/><path class="cls-5" d="M6610.42,63.18c4.36,11.4,2.11,28.19-7.05,43.87-11.49,19.68-30,31-43.84,27.79a19.91,19.91,0,0,0,5.23,4.39c.14.08.29.13.43.21,13.33.66,29.68-10.31,40.18-28.31C6615.7,93.45,6617.25,74.35,6610.42,63.18Z"/><path class="cls-6" d="M6603.37,107.05c9.16-15.68,11.41-32.47,7.05-43.87,0,0,0-.08-.07-.12-.27-.17-.51-.38-.8-.54-14.09-8-35.55,2.6-47.92,23.79-10.6,18.15-11.06,38.12-2.1,48.53C6573.4,138,6591.88,126.73,6603.37,107.05Z"/><path class="cls-7" d="M6610.42,63.18s0-.08-.07-.12c-.27-.17-.51-.38-.8-.54a19.88,19.88,0,0,0-4.95-2c3.91,11,1.86,26.47-6.51,40.8-11,18.81-29.12,29.28-42.92,25.76a24.12,24.12,0,0,0,4.36,7.72c13.87,3.17,32.35-8.11,43.84-27.79C6612.53,91.37,6614.78,74.58,6610.42,63.18Z"/><path class="cls-8" d="M6598.09,101.36c8.37-14.33,10.42-29.79,6.51-40.8-13.8-3.56-32,6.91-43,25.75-8.38,14.34-10.39,29.81-6.46,40.81C6569,130.64,6587.11,120.17,6598.09,101.36Z"/><path class="cls-7" d="M6598.09,101.36c8.37-14.33,10.42-29.79,6.51-40.8-13.8-3.56-32,6.91-43,25.75-8.38,14.34-10.39,29.81-6.46,40.81C6569,130.64,6587.11,120.17,6598.09,101.36Z"/><circle class="cls-3" cx="6604.67" cy="111.79" r="39.47"/><path class="cls-9" d="M6612.37,126.16a41.37,41.37,0,0,1-38.69-26.73,41.36,41.36,0,1,0,77.38,0A41.37,41.37,0,0,1,6612.37,126.16Z"/><ellipse class="cls-11" cx="6612.37" cy="99.43" rx="38.69" ry="26.73"/><ellipse class="cls-9" cx="6658.62" cy="55.16" rx="6.05" ry="6.08"/><ellipse class="cls-9" cx="6657.15" cy="44.99" rx="6.05" ry="6.08"/><ellipse class="cls-9" cx="6657.39" cy="35" rx="6.05" ry="6.08"/><ellipse class="cls-9" cx="6657.64" cy="28.08" rx="6.05" ry="6.08"/><ellipse class="cls-9" cx="6658.12" cy="20.06" rx="6.05" ry="6.08"/><ellipse class="cls-9" cx="6661.68" cy="10.52" rx="10.83" ry="10.88"/><ellipse class="cls-9" cx="6708.59" cy="82.13" rx="6.08" ry="6.05" transform="translate(2623.38 5404.07) rotate(-53.19)"/><ellipse class="cls-9" cx="6713.52" cy="73.1" rx="6.08" ry="6.05" transform="translate(2632.58 5404.39) rotate(-53.19)"/><ellipse class="cls-9" cx="6719.7" cy="65.25" rx="6.08" ry="6.05" transform="translate(2641.35 5406.19) rotate(-53.19)"/><ellipse class="cls-9" cx="6724.04" cy="59.86" rx="6.08" ry="6.05" transform="translate(2647.4 5407.51) rotate(-53.19)"/><ellipse class="cls-9" cx="6729.23" cy="53.72" rx="6.08" ry="6.05" transform="translate(2654.4 5409.2) rotate(-53.19)"/><ellipse class="cls-9" cx="6737.79" cy="48.22" rx="10.88" ry="10.83" transform="translate(2662.24 5413.85) rotate(-53.19)"/><path class="cls-12" d="M6645.3,60.16A51.61,51.61,0,1,0,6718,107.23c0-.24,0-.47,0-.71a51.38,51.38,0,0,1-72.63-46.36Z"/><path class="cls-9" d="M6666.51,55.56a51,51,0,0,0-21.21,4.6,51.38,51.38,0,0,0,72.63,46.36A51.54,51.54,0,0,0,6666.51,55.56Z"/><polyline class="cls-13" points="6664.97 118.77 6671.93 101.17 6674.46 111.23 6680.15 108.08 6680.15 115.63 6688.37 111.86 6683.31 126.94"/><path class="cls-14" d="M6699.35,102.49l14.39,4.58s-1.46,12-9.16,9.16C6696,113.08,6699.35,102.49,6699.35,102.49Z"/><path class="cls-14" d="M6653,76.46l15.8,9.82s-5.36,10.85-13.71,5.25C6645.76,85.26,6653,76.46,6653,76.46Z"/><ellipse class="cls-15" cx="6698.6" cy="75.63" rx="5.83" ry="13.07" transform="translate(1578.37 4395.37) rotate(-40.8)"/><polygon class="cls-1" points="2002.41 69.66 2032.38 87.07 2126.87 31.76 2099.95 16.04 2002.41 69.66"/><polygon class="cls-2" points="2002.5 69.65 2031.49 86.37 2032.38 180.6 2002.69 162.67 2002.5 69.65"/><polygon class="cls-3" points="2031.3 86.33 2126.99 31.32 2126.99 119.55 2032.32 180.6 2031.3 86.33"/><path class="cls-4" d="M2105.86,64.19c6.91,11.16,5.38,30.33-5,48.07-10.5,18-26.85,29-40.18,28.3,14.1,7.61,35.25-3,47.49-24C2120.31,95.82,2119.18,72.69,2105.86,64.19Z"/><path class="cls-1" d="M2100.88,112.26c10.36-17.74,11.89-36.91,5-48.07-.27-.17-.51-.38-.8-.54-14.1-8-35.55,2.6-47.92,23.78s-11,44.88,3.13,52.93c.14.08.29.13.43.2C2074,141.23,2090.38,130.25,2100.88,112.26Z"/><path class="cls-5" d="M2105.93,64.31c4.36,11.39,2.11,28.19-7,43.87-11.49,19.68-30,31-43.84,27.79a19.76,19.76,0,0,0,5.23,4.39c.14.08.29.13.43.2,13.33.67,29.68-10.31,40.18-28.3C2111.21,94.58,2112.75,75.48,2105.93,64.31Z"/><path class="cls-6" d="M2098.88,108.18c9.16-15.68,11.41-32.48,7-43.87,0,0,0-.08-.07-.12-.27-.17-.51-.38-.8-.54-14.1-8-35.55,2.6-47.92,23.78-10.6,18.16-11.06,38.13-2.1,48.54C2068.91,139.14,2087.39,127.86,2098.88,108.18Z"/><path class="cls-7" d="M2105.93,64.31s0-.08-.07-.12c-.27-.17-.51-.38-.8-.54a19.88,19.88,0,0,0-4.95-2c3.9,11,1.86,26.47-6.51,40.8-11,18.81-29.12,29.28-42.92,25.76A24.23,24.23,0,0,0,2055,136c13.87,3.17,32.35-8.11,43.84-27.79C2108,92.5,2110.29,75.7,2105.93,64.31Z"/><path class="cls-8" d="M2093.6,102.49c8.37-14.33,10.41-29.8,6.51-40.8-13.8-3.56-32,6.91-43,25.74-8.38,14.35-10.39,29.81-6.46,40.82C2064.48,131.77,2082.62,121.3,2093.6,102.49Z"/><path class="cls-7" d="M2093.6,102.49c8.37-14.33,10.41-29.8,6.51-40.8-13.8-3.56-32,6.91-43,25.74-8.38,14.35-10.39,29.81-6.46,40.82C2064.48,131.77,2082.62,121.3,2093.6,102.49Z"/><circle class="cls-3" cx="2100.3" cy="113.05" r="39.34"/><path class="cls-9" d="M2210.34,124.27a37,37,0,0,1-16.92-4.07,41.42,41.42,0,0,1-31,24.56,41.36,41.36,0,0,0,75.69-23.07,41.94,41.94,0,0,0-1-8.81A37.09,37.09,0,0,1,2210.34,124.27Z"/><path class="cls-9" d="M2155.7,116.36h-.35a37.47,37.47,0,0,1-5.74-.44A41.21,41.21,0,0,1,2139,142a41.21,41.21,0,0,0,16.35,3.36,41.86,41.86,0,0,0,7-.61,41.26,41.26,0,0,1-6.68-28.4Z"/><path class="cls-9" d="M2193.42,120.2a37.51,37.51,0,0,1-14.1-12.59,37,37,0,0,1-23.62,8.75,41.26,41.26,0,0,0,6.68,28.4A41.42,41.42,0,0,0,2193.42,120.2Z"/><path class="cls-9" d="M2115.28,114.32a37.21,37.21,0,0,1-47.12-10A41.36,41.36,0,0,0,2139,142,41.45,41.45,0,0,1,2115.28,114.32Z"/><path class="cls-9" d="M2127.45,103.77a37.33,37.33,0,0,1-12.17,10.55A41.45,41.45,0,0,0,2139,142a41.21,41.21,0,0,0,10.61-26.08A37.13,37.13,0,0,1,2127.45,103.77Z"/><path class="cls-11" d="M2173.15,87.7c0-.21,0-.42,0-.63a37,37,0,0,1,4.56-17.85,41.32,41.32,0,0,0-45,.16,37,37,0,0,1,2.06,12.2c0,.32,0,.64,0,1a41.27,41.27,0,0,1,14.87,31.76c0,.55,0,1.09,0,1.63a37.47,37.47,0,0,0,5.74.44h.35A41.33,41.33,0,0,1,2173.15,87.7Z"/><path class="cls-11" d="M2155.7,116.36a37,37,0,0,0,23.62-8.75,37.17,37.17,0,0,1-6.17-19.91A41.33,41.33,0,0,0,2155.7,116.36Z"/><path class="cls-11" d="M2134.78,82.54a37,37,0,0,1-7.33,21.23,37.13,37.13,0,0,0,22.16,12.16c0-.54,0-1.08,0-1.63A41.27,41.27,0,0,0,2134.78,82.54Z"/><path class="cls-11" d="M2196.71,80.33a41.24,41.24,0,0,0-4.19.21,38.62,38.62,0,0,1-.43,4.48,41.4,41.4,0,0,1,1.33,35.18,37.19,37.19,0,0,0,43.7-7.32A41.37,41.37,0,0,0,2196.71,80.33Z"/><path class="cls-11" d="M2192.09,85a37.17,37.17,0,0,1-12.77,22.59,37.51,37.51,0,0,0,14.1,12.59A41.4,41.4,0,0,0,2192.09,85Z"/><path class="cls-11" d="M2192.52,80.54c-1,.1-1.91.24-2.84.4a41.61,41.61,0,0,1,2.41,4.08A38.62,38.62,0,0,0,2192.52,80.54Z"/><path class="cls-11" d="M2173.15,87.7a41.06,41.06,0,0,1,16.53-6.76,41.54,41.54,0,0,0-12-11.72,37,37,0,0,0-4.56,17.85C2173.14,87.28,2173.15,87.49,2173.15,87.7Z"/><path class="cls-11" d="M2192.09,85a41.61,41.61,0,0,0-2.41-4.08,41.06,41.06,0,0,0-16.53,6.76,37.17,37.17,0,0,0,6.17,19.91A37.17,37.17,0,0,0,2192.09,85Z"/><path class="cls-11" d="M2097.6,118.78a37.1,37.1,0,0,0,17.68-4.46A41.72,41.72,0,0,1,2114,104a41.12,41.12,0,0,1,4.62-19,36.46,36.46,0,0,1-.47-5.85,38.61,38.61,0,0,1,.34-5,41.38,41.38,0,0,0-50.32,30.1A37.11,37.11,0,0,0,2097.6,118.78Z"/><path class="cls-11" d="M2114,104a41.72,41.72,0,0,0,1.29,10.31,37.33,37.33,0,0,0,12.17-10.55A37,37,0,0,1,2118.61,85,41.12,41.12,0,0,0,2114,104Z"/><path class="cls-11" d="M2134.8,81.58a37,37,0,0,0-2.06-12.2,41.31,41.31,0,0,0-8.1,6.93,41,41,0,0,1,10.14,6.23C2134.78,82.22,2134.8,81.9,2134.8,81.58Z"/><path class="cls-11" d="M2118.48,74.21a38.61,38.61,0,0,0-.34,5,36.46,36.46,0,0,0,.47,5.85,41,41,0,0,1,6-8.71A40.63,40.63,0,0,0,2118.48,74.21Z"/><path class="cls-11" d="M2124.64,76.31a41,41,0,0,0-6,8.71,37,37,0,0,0,8.84,18.75,37,37,0,0,0,7.33-21.23A41,41,0,0,0,2124.64,76.31Z"/><ellipse class="cls-9" cx="2242.95" cy="62.79" rx="6.05" ry="6.08"/><ellipse class="cls-9" cx="2241.49" cy="52.62" rx="6.05" ry="6.08"/><ellipse class="cls-9" cx="2241.73" cy="42.63" rx="6.05" ry="6.08"/><ellipse class="cls-9" cx="2241.98" cy="35.72" rx="6.05" ry="6.08"/><ellipse class="cls-9" cx="2242.45" cy="27.69" rx="6.05" ry="6.08"/><ellipse class="cls-9" cx="2246.02" cy="18.15" rx="10.83" ry="10.88"/><ellipse class="cls-9" cx="2292.93" cy="89.76" rx="6.08" ry="6.05" transform="translate(847.26 1871.78) rotate(-53.19)"/><ellipse class="cls-9" cx="2297.85" cy="80.74" rx="6.08" ry="6.05" transform="translate(856.45 1872.11) rotate(-53.19)"/><ellipse class="cls-9" cx="2304.03" cy="72.88" rx="6.08" ry="6.05" transform="translate(865.22 1873.91) rotate(-53.19)"/><ellipse class="cls-9" cx="2308.37" cy="67.5" rx="6.08" ry="6.05" transform="translate(871.27 1875.22) rotate(-53.19)"/><ellipse class="cls-9" cx="2313.56" cy="61.35" rx="6.08" ry="6.05" transform="translate(878.27 1876.92) rotate(-53.19)"/><ellipse class="cls-9" cx="2322.13" cy="55.85" rx="10.88" ry="10.83" transform="translate(886.11 1881.57) rotate(-53.19)"/><path class="cls-12" d="M2229.64,67.79a51.61,51.61,0,1,0,72.64,47.07c0-.24,0-.47,0-.71a51,51,0,0,1-21.21,4.6A51.54,51.54,0,0,1,2229.64,67.79Z"/><path class="cls-9" d="M2250.84,63.19a51,51,0,0,0-21.2,4.6,51.54,51.54,0,0,0,51.42,51,51,51,0,0,0,21.21-4.6A51.54,51.54,0,0,0,2250.84,63.19Z"/><polyline class="cls-13" points="2249.31 126.4 2256.26 108.8 2258.79 118.86 2264.49 115.72 2264.49 123.26 2272.71 119.49 2267.65 134.58"/><path class="cls-14" d="M2283.68,110.12l14.4,4.58s-1.46,12-9.16,9.16C2280.29,120.71,2283.68,110.12,2283.68,110.12Z"/><path class="cls-14" d="M2237.35,84.09l15.81,9.82s-5.36,10.85-13.71,5.26C2230.1,92.9,2237.35,84.09,2237.35,84.09Z"/><ellipse class="cls-15" cx="2282.94" cy="83.26" rx="5.83" ry="13.07" transform="translate(500.36 1511.95) rotate(-40.8)"/><polygon class="cls-1" points="2504.03 70.86 2534 88.27 2628.49 32.96 2601.57 17.24 2504.03 70.86"/><polygon class="cls-2" points="2504.12 70.85 2533.11 87.57 2534 181.8 2504.3 163.87 2504.12 70.85"/><polygon class="cls-3" points="2532.92 87.53 2628.61 32.52 2628.61 120.75 2533.94 181.8 2532.92 87.53"/><path class="cls-4" d="M2607.48,65.39c6.91,11.16,5.38,30.33-5,48.07-10.51,18-26.85,29-40.18,28.3,14.1,7.61,35.24-3,47.49-24C2621.93,97,2620.8,73.89,2607.48,65.39Z"/><path class="cls-1" d="M2602.5,113.46c10.36-17.74,11.89-36.91,5-48.07-.27-.17-.52-.38-.8-.54-14.1-8-35.55,2.6-47.92,23.78s-11,44.88,3.13,52.93c.14.08.29.13.43.2C2575.65,142.43,2592,131.46,2602.5,113.46Z"/><path class="cls-5" d="M2607.54,65.51c4.37,11.39,2.11,28.19-7,43.87-11.49,19.68-30,31-43.84,27.79a19.76,19.76,0,0,0,5.23,4.39c.14.08.29.13.43.2,13.33.67,29.67-10.3,40.18-28.3C2612.83,95.78,2614.37,76.68,2607.54,65.51Z"/><path class="cls-6" d="M2600.5,109.38c9.15-15.68,11.41-32.48,7-43.87l-.06-.12c-.27-.17-.52-.38-.8-.54-14.1-8-35.55,2.6-47.92,23.78-10.6,18.16-11.06,38.13-2.1,48.54C2570.53,140.34,2589,129.06,2600.5,109.38Z"/><path class="cls-7" d="M2607.54,65.51l-.06-.12c-.27-.17-.52-.38-.8-.54a19.88,19.88,0,0,0-4.95-2c3.9,11,1.86,26.47-6.51,40.8-11,18.81-29.12,29.28-42.92,25.76a24.12,24.12,0,0,0,4.36,7.72c13.87,3.17,32.35-8.11,43.84-27.79C2609.65,93.7,2611.91,76.9,2607.54,65.51Z"/><path class="cls-8" d="M2595.22,103.69c8.37-14.33,10.41-29.79,6.51-40.8-13.81-3.56-32,6.91-43,25.74-8.38,14.35-10.4,29.81-6.46,40.82C2566.1,133,2584.24,122.5,2595.22,103.69Z"/><path class="cls-7" d="M2595.22,103.69c8.37-14.33,10.41-29.79,6.51-40.8-13.81-3.56-32,6.91-43,25.74-8.38,14.35-10.4,29.81-6.46,40.82C2566.1,133,2584.24,122.5,2595.22,103.69Z"/><circle class="cls-3" cx="2603.04" cy="106.08" r="34.98"/><path class="cls-9" d="M2815,135.91a41.17,41.17,0,0,1-16-3.21,41.45,41.45,0,0,1-20.22,15.82,41.37,41.37,0,0,0,73.44-35.92A41.36,41.36,0,0,1,2815,135.91Z"/><path class="cls-9" d="M2781.06,118.19a41.14,41.14,0,0,1-9.46,2.2,41.89,41.89,0,0,1-4.64.27,41.16,41.16,0,0,1-17.51-3.89,41.49,41.49,0,0,1-17.32,18.38A41.34,41.34,0,0,0,2799,132.7,41.48,41.48,0,0,1,2781.06,118.19Z"/><path class="cls-9" d="M2734.42,104.81a41.32,41.32,0,0,1-11.09,4.2,41.79,41.79,0,0,1-8.94,1,41.36,41.36,0,0,1-15-2.8,43.91,43.91,0,0,1-4.25-1.93,38.72,38.72,0,0,1-18.94,14.28,41.37,41.37,0,0,0,35.88,20.79,41.4,41.4,0,0,0,37.34-23.55A41.33,41.33,0,0,1,2734.42,104.81Z"/><path class="cls-9" d="M2622.72,112.33a35.45,35.45,0,0,1-43.34-21.17,35.45,35.45,0,0,0,51.69,46.21,38.41,38.41,0,0,1-8.38-24C2622.69,113,2622.71,112.68,2622.72,112.33Z"/><path class="cls-9" d="M2676.23,119.53a38.61,38.61,0,0,1-42.88-12.5,35.31,35.31,0,0,1-10.63,5.3c0,.35,0,.69,0,1a38.61,38.61,0,0,0,70.2,22.2A41.57,41.57,0,0,1,2676.23,119.53Z"/><path class="cls-11" d="M2812.71,83.53a41.31,41.31,0,0,0-37.22,23.31,41.38,41.38,0,0,0,76.73,5.76A41.39,41.39,0,0,0,2812.71,83.53Z"/><path class="cls-11" d="M2798.6,86a41.36,41.36,0,0,0-71.15,5.59A41.4,41.4,0,0,0,2767,120.66a41.89,41.89,0,0,0,4.64-.27,41.14,41.14,0,0,0,9.46-2.2,41.2,41.2,0,0,1-5.57-11.35A41.52,41.52,0,0,1,2798.6,86Z"/><path class="cls-11" d="M2744.65,73.45a41.34,41.34,0,0,0-68.12,4.43c-.59,1-1.14,2-1.64,3a41.44,41.44,0,0,0,20.28,24.34,43.91,43.91,0,0,0,4.25,1.93,41.36,41.36,0,0,0,15,2.8,41.79,41.79,0,0,0,8.94-1,41.32,41.32,0,0,0,11.09-4.2,41.18,41.18,0,0,1-7-13.22A41.48,41.48,0,0,1,2744.65,73.45Z"/><path class="cls-11" d="M2635.89,84.32a35.65,35.65,0,0,0-10.39-7.58,35.48,35.48,0,0,0-46.12,14.42,35.44,35.44,0,0,0,54,15.87,38.46,38.46,0,0,1-6.29-11.49A38.74,38.74,0,0,1,2635.89,84.32Z"/><path class="cls-11" d="M2674.89,80.91c.5-1,1.05-2,1.64-3-.88-.38-1.77-.71-2.68-1a38.66,38.66,0,0,0-46.79,18.69,38.6,38.6,0,0,0,68.11,9.71A41.44,41.44,0,0,1,2674.89,80.91Z"/><ellipse class="cls-9" cx="2861.84" cy="71.18" rx="6.05" ry="6.08"/><ellipse class="cls-9" cx="2860.38" cy="61.01" rx="6.05" ry="6.08"/><ellipse class="cls-9" cx="2860.62" cy="51.02" rx="6.05" ry="6.08"/><ellipse class="cls-9" cx="2860.87" cy="44.11" rx="6.05" ry="6.08"/><ellipse class="cls-9" cx="2861.34" cy="36.08" rx="6.05" ry="6.08"/><ellipse class="cls-9" cx="2864.9" cy="26.54" rx="10.83" ry="10.88"/><ellipse class="cls-9" cx="2911.82" cy="98.15" rx="6.08" ry="6.05" transform="translate(1088.62 2370.65) rotate(-53.19)"/><ellipse class="cls-9" cx="2916.74" cy="89.12" rx="6.08" ry="6.05" transform="translate(1097.82 2370.97) rotate(-53.19)"/><ellipse class="cls-9" cx="2922.92" cy="81.27" rx="6.08" ry="6.05" transform="translate(1106.58 2372.77) rotate(-53.19)"/><ellipse class="cls-9" cx="2927.26" cy="75.89" rx="6.08" ry="6.05" transform="translate(1112.63 2374.09) rotate(-53.19)"/><ellipse class="cls-9" cx="2932.45" cy="69.74" rx="6.08" ry="6.05" transform="translate(1119.63 2375.78) rotate(-53.19)"/><ellipse class="cls-9" cx="2941.02" cy="64.24" rx="10.88" ry="10.83" transform="translate(1127.47 2380.44) rotate(-53.19)"/><path class="cls-12" d="M2848.52,76.18a51.61,51.61,0,1,0,72.65,47.07c0-.24,0-.47,0-.71a51,51,0,0,1-21.2,4.6A51.54,51.54,0,0,1,2848.52,76.18Z"/><path class="cls-9" d="M2869.73,71.58a51,51,0,0,0-21.21,4.6,51.54,51.54,0,0,0,51.43,51,51,51,0,0,0,21.2-4.6A51.54,51.54,0,0,0,2869.73,71.58Z"/><polyline class="cls-13" points="2868.2 134.79 2875.15 117.19 2877.68 127.25 2883.37 124.11 2883.37 131.65 2891.59 127.88 2886.53 142.97"/><path class="cls-14" d="M2902.57,118.51l14.39,4.58s-1.45,12-9.16,9.16C2899.18,129.1,2902.57,118.51,2902.57,118.51Z"/><path class="cls-14" d="M2856.24,92.48l15.81,9.82s-5.37,10.85-13.71,5.26C2849,101.29,2856.24,92.48,2856.24,92.48Z"/><ellipse class="cls-15" cx="2901.83" cy="91.65" rx="5.83" ry="13.07" transform="translate(645.27 1918.38) rotate(-40.8)"/><polygon class="cls-1" points="2503.03 70.86 2533 88.27 2627.49 32.96 2600.57 17.24 2503.03 70.86"/><polygon class="cls-2" points="2503.12 70.85 2532.11 87.57 2533 181.8 2503.3 163.87 2503.12 70.85"/><polygon class="cls-3" points="2531.92 87.53 2627.61 32.52 2627.61 120.75 2532.94 181.8 2531.92 87.53"/><path class="cls-4" d="M2606.48,65.39c6.91,11.16,5.38,30.33-5,48.07-10.51,18-26.85,29-40.18,28.3,14.1,7.61,35.24-3,47.49-24C2620.93,97,2619.8,73.89,2606.48,65.39Z"/><path class="cls-1" d="M2601.5,113.46c10.36-17.74,11.89-36.91,5-48.07-.27-.17-.52-.38-.8-.54-14.1-8-35.55,2.6-47.92,23.78s-11,44.88,3.13,52.93c.14.08.29.13.43.2C2574.65,142.43,2591,131.46,2601.5,113.46Z"/><path class="cls-5" d="M2606.54,65.51c4.37,11.39,2.11,28.19-7,43.87-11.49,19.68-30,31-43.84,27.79a19.76,19.76,0,0,0,5.23,4.39c.14.08.29.13.43.2,13.33.67,29.67-10.3,40.18-28.3C2611.83,95.78,2613.37,76.68,2606.54,65.51Z"/><path class="cls-6" d="M2599.5,109.38c9.15-15.68,11.41-32.48,7-43.87l-.06-.12c-.27-.17-.52-.38-.8-.54-14.1-8-35.55,2.6-47.92,23.78-10.6,18.16-11.06,38.13-2.1,48.54C2569.53,140.34,2588,129.06,2599.5,109.38Z"/><path class="cls-7" d="M2606.54,65.51l-.06-.12c-.27-.17-.52-.38-.8-.54a19.88,19.88,0,0,0-4.95-2c3.9,11,1.86,26.47-6.51,40.8-11,18.81-29.12,29.28-42.92,25.76a24.12,24.12,0,0,0,4.36,7.72c13.87,3.17,32.35-8.11,43.84-27.79C2608.65,93.7,2610.91,76.9,2606.54,65.51Z"/><path class="cls-8" d="M2594.22,103.69c8.37-14.33,10.41-29.79,6.51-40.8-13.81-3.56-32,6.91-43,25.74-8.38,14.35-10.4,29.81-6.46,40.82C2565.1,133,2583.24,122.5,2594.22,103.69Z"/><path class="cls-7" d="M2594.22,103.69c8.37-14.33,10.41-29.79,6.51-40.8-13.81-3.56-32,6.91-43,25.74-8.38,14.35-10.4,29.81-6.46,40.82C2565.1,133,2583.24,122.5,2594.22,103.69Z"/><circle class="cls-3" cx="2602.04" cy="106.08" r="34.98"/><path class="cls-9" d="M2814,135.91a41.17,41.17,0,0,1-16-3.21,41.45,41.45,0,0,1-20.22,15.82,41.37,41.37,0,0,0,73.44-35.92A41.36,41.36,0,0,1,2814,135.91Z"/><path class="cls-9" d="M2780.06,118.19a41.14,41.14,0,0,1-9.46,2.2,41.89,41.89,0,0,1-4.64.27,41.16,41.16,0,0,1-17.51-3.89,41.49,41.49,0,0,1-17.32,18.38A41.34,41.34,0,0,0,2798,132.7,41.48,41.48,0,0,1,2780.06,118.19Z"/><path class="cls-9" d="M2733.42,104.81a41.32,41.32,0,0,1-11.09,4.2,41.79,41.79,0,0,1-8.94,1,41.36,41.36,0,0,1-15-2.8,43.91,43.91,0,0,1-4.25-1.93,38.72,38.72,0,0,1-18.94,14.28,41.37,41.37,0,0,0,35.88,20.79,41.4,41.4,0,0,0,37.34-23.55A41.33,41.33,0,0,1,2733.42,104.81Z"/><path class="cls-9" d="M2621.72,112.33a35.45,35.45,0,0,1-43.34-21.17,35.45,35.45,0,0,0,51.69,46.21,38.41,38.41,0,0,1-8.38-24C2621.69,113,2621.71,112.68,2621.72,112.33Z"/><path class="cls-9" d="M2675.23,119.53a38.61,38.61,0,0,1-42.88-12.5,35.31,35.31,0,0,1-10.63,5.3c0,.35,0,.69,0,1a38.61,38.61,0,0,0,70.2,22.2A41.57,41.57,0,0,1,2675.23,119.53Z"/><path class="cls-11" d="M2811.71,83.53a41.31,41.31,0,0,0-37.22,23.31,41.38,41.38,0,0,0,76.73,5.76A41.39,41.39,0,0,0,2811.71,83.53Z"/><path class="cls-11" d="M2797.6,86a41.36,41.36,0,0,0-71.15,5.59A41.4,41.4,0,0,0,2766,120.66a41.89,41.89,0,0,0,4.64-.27,41.14,41.14,0,0,0,9.46-2.2,41.2,41.2,0,0,1-5.57-11.35A41.52,41.52,0,0,1,2797.6,86Z"/><path class="cls-11" d="M2743.65,73.45a41.34,41.34,0,0,0-68.12,4.43c-.59,1-1.14,2-1.64,3a41.44,41.44,0,0,0,20.28,24.34,43.91,43.91,0,0,0,4.25,1.93,41.36,41.36,0,0,0,15,2.8,41.79,41.79,0,0,0,8.94-1,41.32,41.32,0,0,0,11.09-4.2,41.18,41.18,0,0,1-7-13.22A41.48,41.48,0,0,1,2743.65,73.45Z"/><path class="cls-11" d="M2634.89,84.32a35.65,35.65,0,0,0-10.39-7.58,35.48,35.48,0,0,0-46.12,14.42,35.44,35.44,0,0,0,54,15.87,38.46,38.46,0,0,1-6.29-11.49A38.74,38.74,0,0,1,2634.89,84.32Z"/><path class="cls-11" d="M2673.89,80.91c.5-1,1.05-2,1.64-3-.88-.38-1.77-.71-2.68-1a38.66,38.66,0,0,0-46.79,18.69,38.6,38.6,0,0,0,68.11,9.71A41.44,41.44,0,0,1,2673.89,80.91Z"/><ellipse class="cls-9" cx="2860.84" cy="71.18" rx="6.05" ry="6.08"/><ellipse class="cls-9" cx="2859.38" cy="61.01" rx="6.05" ry="6.08"/><ellipse class="cls-9" cx="2859.62" cy="51.02" rx="6.05" ry="6.08"/><ellipse class="cls-9" cx="2859.87" cy="44.11" rx="6.05" ry="6.08"/><ellipse class="cls-9" cx="2860.34" cy="36.08" rx="6.05" ry="6.08"/><ellipse class="cls-9" cx="2863.9" cy="26.54" rx="10.83" ry="10.88"/><ellipse class="cls-9" cx="2910.82" cy="98.15" rx="6.08" ry="6.05" transform="translate(1088.22 2369.85) rotate(-53.19)"/><ellipse class="cls-9" cx="2915.74" cy="89.12" rx="6.08" ry="6.05" transform="translate(1097.42 2370.17) rotate(-53.19)"/><ellipse class="cls-9" cx="2921.92" cy="81.27" rx="6.08" ry="6.05" transform="translate(1106.18 2371.97) rotate(-53.19)"/><ellipse class="cls-9" cx="2926.26" cy="75.89" rx="6.08" ry="6.05" transform="translate(1112.23 2373.29) rotate(-53.19)"/><ellipse class="cls-9" cx="2931.45" cy="69.74" rx="6.08" ry="6.05" transform="translate(1119.23 2374.98) rotate(-53.19)"/><ellipse class="cls-9" cx="2940.02" cy="64.24" rx="10.88" ry="10.83" transform="translate(1127.07 2379.63) rotate(-53.19)"/><path class="cls-12" d="M2847.52,76.18a51.61,51.61,0,1,0,72.65,47.07c0-.24,0-.47,0-.71a51,51,0,0,1-21.2,4.6A51.54,51.54,0,0,1,2847.52,76.18Z"/><path class="cls-9" d="M2868.73,71.58a51,51,0,0,0-21.21,4.6,51.54,51.54,0,0,0,51.43,51,51,51,0,0,0,21.2-4.6A51.54,51.54,0,0,0,2868.73,71.58Z"/><polyline class="cls-13" points="2867.2 134.79 2874.15 117.19 2876.68 127.25 2882.37 124.11 2882.37 131.65 2890.59 127.88 2885.53 142.97"/><path class="cls-14" d="M2901.57,118.51l14.39,4.58s-1.45,12-9.16,9.16C2898.18,129.1,2901.57,118.51,2901.57,118.51Z"/><path class="cls-14" d="M2855.24,92.48l15.81,9.82s-5.37,10.85-13.71,5.26C2848,101.29,2855.24,92.48,2855.24,92.48Z"/><ellipse class="cls-15" cx="2900.83" cy="91.65" rx="5.83" ry="13.07" transform="translate(645.02 1917.73) rotate(-40.8)"/><polygon class="cls-1" points="5505.8 70.68 5535.77 88.09 5630.27 32.78 5603.35 17.06 5505.8 70.68"/><polygon class="cls-2" points="5505.89 70.67 5534.89 87.38 5535.77 181.62 5506.08 163.69 5505.89 70.67"/><polygon class="cls-3" points="5534.7 87.35 5630.38 32.34 5630.38 120.56 5535.72 181.62 5534.7 87.35"/><path class="cls-4" d="M5609.26,65.21c6.9,11.15,5.38,30.33-5,48.07-10.51,18-26.86,29-40.19,28.3,14.1,7.6,35.25-3,47.5-24C5623.71,96.84,5622.57,73.7,5609.26,65.21Z"/><path class="cls-1" d="M5604.28,113.28c10.36-17.74,11.88-36.92,5-48.07-.28-.17-.52-.38-.8-.54-14.1-8.05-35.56,2.6-47.93,23.78s-11,44.88,3.13,52.93c.14.08.29.13.43.2C5577.42,142.25,5593.77,131.27,5604.28,113.28Z"/><path class="cls-5" d="M5609.32,65.32c4.36,11.4,2.11,28.2-7,43.88-11.49,19.68-30,31-43.84,27.79a19.91,19.91,0,0,0,5.23,4.39c.14.08.29.13.43.2,13.33.67,29.68-10.31,40.19-28.3C5614.6,95.6,5616.15,76.49,5609.32,65.32Z"/><path class="cls-6" d="M5602.27,109.2c9.16-15.68,11.41-32.48,7-43.88l-.06-.11c-.28-.17-.52-.38-.8-.54-14.1-8.05-35.56,2.6-47.93,23.78-10.6,18.16-11.05,38.13-2.1,48.54C5572.3,140.16,5590.78,128.88,5602.27,109.2Z"/><path class="cls-7" d="M5609.32,65.32l-.06-.11c-.28-.17-.52-.38-.8-.54a20,20,0,0,0-5-2c3.91,11,1.86,26.47-6.5,40.79-11,18.82-29.13,29.28-42.93,25.76a24.17,24.17,0,0,0,4.36,7.73c13.87,3.17,32.35-8.11,43.84-27.79C5611.43,93.52,5613.68,76.72,5609.32,65.32Z"/><path class="cls-8" d="M5597,103.5c8.36-14.32,10.41-29.79,6.5-40.79-13.8-3.56-32,6.91-43,25.74-8.38,14.35-10.39,29.81-6.46,40.81C5567.87,132.78,5586,122.32,5597,103.5Z"/><path class="cls-7" d="M5597,103.5c8.36-14.32,10.41-29.79,6.5-40.79-13.8-3.56-32,6.91-43,25.74-8.38,14.35-10.39,29.81-6.46,40.81C5567.87,132.78,5586,122.32,5597,103.5Z"/><circle class="cls-3" cx="5604.82" cy="105.89" r="34.98"/><path class="cls-9" d="M5816.77,135.73a41.12,41.12,0,0,1-16-3.21,41.48,41.48,0,0,1-20.23,15.82A41.37,41.37,0,0,0,5854,112.42,41.35,41.35,0,0,1,5816.77,135.73Z"/><path class="cls-9" d="M5782.84,118a40.84,40.84,0,0,1-9.47,2.21,41.75,41.75,0,0,1-4.64.27,41.19,41.19,0,0,1-17.51-3.89A41.58,41.58,0,0,1,5733.91,135a41.34,41.34,0,0,0,66.87-2.45A41.5,41.5,0,0,1,5782.84,118Z"/><path class="cls-9" d="M5736.19,104.63a41.47,41.47,0,0,1-20,5.17,41.32,41.32,0,0,1-15-2.8,39.81,39.81,0,0,1-4.25-1.94A38.68,38.68,0,0,1,5678,119.34a41.36,41.36,0,0,0,73.22-2.75A41.54,41.54,0,0,1,5736.19,104.63Z"/><path class="cls-9" d="M5624.5,112.15A35.5,35.5,0,0,1,5581.15,91a35.46,35.46,0,0,0,51.69,46.22,38.43,38.43,0,0,1-8.37-24C5624.47,112.84,5624.49,112.5,5624.5,112.15Z"/><path class="cls-9" d="M5678,119.34a38.57,38.57,0,0,1-31.51-2.8,39,39,0,0,1-11.37-9.69,35.49,35.49,0,0,1-10.62,5.3c0,.35,0,.69,0,1a38.61,38.61,0,0,0,70.2,22.21A41.49,41.49,0,0,1,5678,119.34Z"/><path class="cls-11" d="M5814.49,83.35a42.07,42.07,0,0,0-4.65.26,41.29,41.29,0,0,0-32.57,23,41.37,41.37,0,0,0,76.72,5.76A41.37,41.37,0,0,0,5814.49,83.35Z"/><path class="cls-11" d="M5800.38,85.82a41.35,41.35,0,0,0-71.15,5.58,41,41,0,0,0,7,13.23,41.19,41.19,0,0,0,37.18,15.58,40.84,40.84,0,0,0,9.47-2.21,41.15,41.15,0,0,1-5.57-11.34A41.42,41.42,0,0,1,5800.38,85.82Z"/><path class="cls-11" d="M5746.42,73.26a41.35,41.35,0,0,0-68.12,4.44c-.58,1-1.13,2-1.64,3A41.44,41.44,0,0,0,5697,105.06a39.81,39.81,0,0,0,4.25,1.94,41.33,41.33,0,0,0,23.9,1.82,40.84,40.84,0,0,0,11.09-4.19,41,41,0,0,1-7-13.23A41.56,41.56,0,0,1,5746.42,73.26Z"/><path class="cls-11" d="M5637.66,84.14A35.44,35.44,0,0,0,5581.15,91a35.43,35.43,0,0,0,54,15.88,38.68,38.68,0,0,1-6.29-11.49A38.91,38.91,0,0,1,5637.66,84.14Z"/><path class="cls-11" d="M5676.66,80.73c.51-1,1.06-2,1.64-3-.87-.38-1.77-.72-2.67-1a38.67,38.67,0,0,0-46.8,18.69,38.61,38.61,0,0,0,68.12,9.7A41.44,41.44,0,0,1,5676.66,80.73Z"/><ellipse class="cls-9" cx="5863.62" cy="71" rx="6.05" ry="6.08"/><ellipse class="cls-9" cx="5862.15" cy="60.83" rx="6.05" ry="6.08"/><ellipse class="cls-9" cx="5862.39" cy="50.84" rx="6.05" ry="6.08"/><ellipse class="cls-9" cx="5862.64" cy="43.92" rx="6.05" ry="6.08"/><ellipse class="cls-9" cx="5863.11" cy="35.89" rx="6.05" ry="6.08"/><ellipse class="cls-9" cx="5866.68" cy="26.36" rx="10.83" ry="10.88"/><ellipse class="cls-9" cx="5913.59" cy="97.97" rx="6.08" ry="6.05" transform="translate(2292.03 4773.91) rotate(-53.19)"/><ellipse class="cls-9" cx="5918.51" cy="88.94" rx="6.08" ry="6.05" transform="translate(2301.23 4774.23) rotate(-53.19)"/><ellipse class="cls-9" cx="5924.69" cy="81.09" rx="6.08" ry="6.05" transform="translate(2309.99 4776.03) rotate(-53.19)"/><ellipse class="cls-9" cx="5929.03" cy="75.7" rx="6.08" ry="6.05" transform="translate(2316.04 4777.35) rotate(-53.19)"/><ellipse class="cls-9" cx="5934.22" cy="69.56" rx="6.08" ry="6.05" transform="translate(2323.04 4779.04) rotate(-53.19)"/><ellipse class="cls-9" cx="5942.79" cy="64.06" rx="10.88" ry="10.83" transform="translate(2330.88 4783.69) rotate(-53.19)"/><path class="cls-12" d="M5850.3,76A51.61,51.61,0,1,0,5923,123.07c0-.24,0-.47,0-.71A51.38,51.38,0,0,1,5850.3,76Z"/><path class="cls-9" d="M5871.51,71.4A51,51,0,0,0,5850.3,76a51.38,51.38,0,0,0,72.63,46.36A51.54,51.54,0,0,0,5871.51,71.4Z"/><polyline class="cls-13" points="5869.97 134.61 5876.93 117.01 5879.45 127.07 5885.15 123.92 5885.15 131.47 5893.37 127.69 5888.31 142.78"/><path class="cls-14" d="M5904.35,118.33l14.39,4.58s-1.46,12-9.16,9.16C5901,128.92,5904.35,118.33,5904.35,118.33Z"/><path class="cls-14" d="M5858,92.29l15.81,9.83s-5.36,10.85-13.71,5.25C5850.76,101.1,5858,92.29,5858,92.29Z"/><ellipse class="cls-15" cx="5903.6" cy="91.47" rx="5.83" ry="13.07" transform="translate(1374.83 3879.75) rotate(-40.8)"/><polygon class="cls-1" points="6006.13 69.43 6036.1 86.84 6130.59 31.53 6103.67 15.81 6006.13 69.43"/><polygon class="cls-2" points="6006.21 69.42 6035.21 86.14 6036.1 180.37 6006.4 162.44 6006.21 69.42"/><polygon class="cls-3" points="6035.02 86.1 6130.7 31.09 6130.7 119.31 6036.04 180.37 6035.02 86.1"/><path class="cls-4" d="M6109.58,64c6.9,11.15,5.38,30.33-5,48.07-10.51,18-26.86,29-40.19,28.3,14.11,7.6,35.25-3,47.5-24C6124,95.59,6122.89,72.45,6109.58,64Z"/><path class="cls-1" d="M6104.6,112c10.36-17.74,11.88-36.92,5-48.07-.28-.17-.52-.38-.8-.54-14.1-8.05-35.56,2.6-47.93,23.78s-11,44.88,3.13,52.93c.14.08.29.13.43.2C6077.74,141,6094.09,130,6104.6,112Z"/><path class="cls-5" d="M6109.64,64.07c4.36,11.4,2.11,28.2-7.05,43.88-11.49,19.68-30,31-43.84,27.79a19.91,19.91,0,0,0,5.23,4.39c.14.08.29.13.43.2,13.33.67,29.68-10.31,40.19-28.3C6114.92,94.35,6116.47,75.24,6109.64,64.07Z"/><path class="cls-6" d="M6102.59,108c9.16-15.68,11.41-32.48,7.05-43.88l-.06-.11c-.28-.17-.52-.38-.8-.54-14.1-8.05-35.56,2.6-47.93,23.78-10.6,18.16-11.05,38.13-2.1,48.54C6072.62,138.91,6091.1,127.63,6102.59,108Z"/><path class="cls-7" d="M6109.64,64.07l-.06-.11c-.28-.17-.52-.38-.8-.54a20,20,0,0,0-4.95-2c3.9,11,1.85,26.47-6.51,40.79-11,18.82-29.13,29.28-42.93,25.76a24.17,24.17,0,0,0,4.36,7.73c13.87,3.17,32.35-8.11,43.84-27.79C6111.75,92.27,6114,75.47,6109.64,64.07Z"/><path class="cls-8" d="M6097.32,102.25c8.36-14.32,10.41-29.79,6.51-40.79-13.81-3.56-32,6.91-43,25.74-8.37,14.35-10.39,29.81-6.46,40.81C6068.19,131.53,6086.33,121.07,6097.32,102.25Z"/><path class="cls-7" d="M6097.32,102.25c8.36-14.32,10.41-29.79,6.51-40.79-13.81-3.56-32,6.91-43,25.74-8.37,14.35-10.39,29.81-6.46,40.81C6068.19,131.53,6086.33,121.07,6097.32,102.25Z"/><circle class="cls-3" cx="6104.02" cy="112.82" r="39.34"/><path class="cls-9" d="M6214.06,124a37,37,0,0,1-16.93-4.08,41.39,41.39,0,0,1-31,24.57,41.36,41.36,0,0,0,74.74-31.88A37.06,37.06,0,0,1,6214.06,124Z"/><path class="cls-9" d="M6159.41,116.13h-.35a37.34,37.34,0,0,1-5.73-.44,41.19,41.19,0,0,1-10.62,26.08,41.24,41.24,0,0,0,16.35,3.36,41.68,41.68,0,0,0,7-.61,41.15,41.15,0,0,1-7-23.07A42.6,42.6,0,0,1,6159.41,116.13Z"/><path class="cls-9" d="M6197.13,120A37.24,37.24,0,0,1,6183,107.37a37,37,0,0,1-23.63,8.76,42.6,42.6,0,0,0-.35,5.33,41.15,41.15,0,0,0,7,23.07A41.39,41.39,0,0,0,6197.13,120Z"/><path class="cls-9" d="M6119,114.09a37.23,37.23,0,0,1-47.13-10,41.36,41.36,0,0,0,70.84,37.7A41.49,41.49,0,0,1,6119,114.09Z"/><path class="cls-9" d="M6131.17,103.54A37.55,37.55,0,0,1,6119,114.09a41.49,41.49,0,0,0,23.71,27.69,41.19,41.19,0,0,0,10.62-26.08A37.13,37.13,0,0,1,6131.17,103.54Z"/><path class="cls-11" d="M6176.87,87.47c0-.21,0-.42,0-.63A37.11,37.11,0,0,1,6181.41,69a41.33,41.33,0,0,0-44.95.17,37.27,37.27,0,0,1,2.05,12.2c0,.32,0,.64,0,1a41.28,41.28,0,0,1,14.88,31.76c0,.55,0,1.09,0,1.63a37.34,37.34,0,0,0,5.73.44h.35A41.32,41.32,0,0,1,6176.87,87.47Z"/><path class="cls-11" d="M6159.41,116.13a37,37,0,0,0,23.63-8.76,36.93,36.93,0,0,1-6.17-19.9A41.32,41.32,0,0,0,6159.41,116.13Z"/><path class="cls-11" d="M6138.49,82.31a37,37,0,0,1-7.32,21.23,37.13,37.13,0,0,0,22.16,12.16c0-.54,0-1.08,0-1.63A41.28,41.28,0,0,0,6138.49,82.31Z"/><path class="cls-11" d="M6200.42,80.1a41.54,41.54,0,0,0-4.19.21,38.83,38.83,0,0,1-.43,4.48,41.38,41.38,0,0,1,1.33,35.17,37.16,37.16,0,0,0,43.7-7.31A41.37,41.37,0,0,0,6200.42,80.1Z"/><path class="cls-11" d="M6195.8,84.79A37.11,37.11,0,0,1,6183,107.37,37.24,37.24,0,0,0,6197.13,120a41.38,41.38,0,0,0-1.33-35.17Z"/><path class="cls-11" d="M6196.23,80.31c-1,.09-1.9.23-2.84.39a41.77,41.77,0,0,1,2.41,4.09A38.83,38.83,0,0,0,6196.23,80.31Z"/><path class="cls-11" d="M6176.87,87.47a41.12,41.12,0,0,1,16.52-6.77,41.68,41.68,0,0,0-12-11.72,37.11,37.11,0,0,0-4.56,17.86C6176.85,87.05,6176.86,87.26,6176.87,87.47Z"/><path class="cls-11" d="M6195.8,84.79a41.77,41.77,0,0,0-2.41-4.09,41.12,41.12,0,0,0-16.52,6.77,36.93,36.93,0,0,0,6.17,19.9A37.11,37.11,0,0,0,6195.8,84.79Z"/><path class="cls-11" d="M6101.31,118.55a37.14,37.14,0,0,0,17.69-4.46,41.4,41.4,0,0,1,3.32-29.3,37.65,37.65,0,0,1-.46-5.85,36.78,36.78,0,0,1,.34-5,41.39,41.39,0,0,0-50.33,30.1A37.13,37.13,0,0,0,6101.31,118.55Z"/><path class="cls-11" d="M6117.7,103.78a41.26,41.26,0,0,0,1.3,10.31,37.55,37.55,0,0,0,12.17-10.55,37,37,0,0,1-8.85-18.75A41.12,41.12,0,0,0,6117.7,103.78Z"/><path class="cls-11" d="M6138.51,81.35a37.27,37.27,0,0,0-2.05-12.2,41.61,41.61,0,0,0-8.11,6.92,41.31,41.31,0,0,1,10.14,6.24C6138.5,82,6138.51,81.67,6138.51,81.35Z"/><path class="cls-11" d="M6122.2,74a36.78,36.78,0,0,0-.34,5,37.65,37.65,0,0,0,.46,5.85,42.09,42.09,0,0,1,6-8.72A41.21,41.21,0,0,0,6122.2,74Z"/><path class="cls-11" d="M6128.35,76.07a42.09,42.09,0,0,0-6,8.72,37,37,0,0,0,8.85,18.75,37,37,0,0,0,7.32-21.23A41.31,41.31,0,0,0,6128.35,76.07Z"/><ellipse class="cls-9" cx="6246.67" cy="62.56" rx="6.05" ry="6.08"/><ellipse class="cls-9" cx="6245.2" cy="52.39" rx="6.05" ry="6.08"/><ellipse class="cls-9" cx="6245.45" cy="42.4" rx="6.05" ry="6.08"/><ellipse class="cls-9" cx="6245.69" cy="35.49" rx="6.05" ry="6.08"/><ellipse class="cls-9" cx="6246.17" cy="27.46" rx="6.05" ry="6.08"/><ellipse class="cls-9" cx="6249.73" cy="17.92" rx="10.83" ry="10.88"/><ellipse class="cls-9" cx="6296.65" cy="89.53" rx="6.08" ry="6.05" transform="translate(2452.33 5077.21) rotate(-53.19)"/><ellipse class="cls-9" cx="6301.57" cy="80.5" rx="6.08" ry="6.05" transform="translate(2461.53 5077.54) rotate(-53.19)"/><ellipse class="cls-9" cx="6307.75" cy="72.65" rx="6.08" ry="6.05" transform="translate(2470.29 5079.34) rotate(-53.19)"/><ellipse class="cls-9" cx="6312.09" cy="67.27" rx="6.08" ry="6.05" transform="translate(2476.34 5080.65) rotate(-53.19)"/><ellipse class="cls-9" cx="6317.28" cy="61.12" rx="6.08" ry="6.05" transform="translate(2483.34 5082.34) rotate(-53.19)"/><ellipse class="cls-9" cx="6325.84" cy="55.62" rx="10.88" ry="10.83" transform="translate(2491.18 5087) rotate(-53.19)"/><path class="cls-12" d="M6233.35,67.56A51.61,51.61,0,1,0,6306,114.63c0-.24,0-.47,0-.71a51,51,0,0,1-21.21,4.6A51.54,51.54,0,0,1,6233.35,67.56Z"/><path class="cls-9" d="M6254.56,63a51,51,0,0,0-21.21,4.6,51.54,51.54,0,0,0,51.42,51,51,51,0,0,0,21.21-4.6A51.54,51.54,0,0,0,6254.56,63Z"/><polyline class="cls-13" points="6253.02 126.17 6259.98 108.57 6262.51 118.63 6268.2 115.48 6268.2 123.03 6276.42 119.26 6271.36 134.35"/><path class="cls-14" d="M6287.4,109.89l14.39,4.58s-1.46,12-9.16,9.16C6284,120.48,6287.4,109.89,6287.4,109.89Z"/><path class="cls-14" d="M6241.07,83.86l15.8,9.82s-5.36,10.85-13.71,5.26C6233.81,92.67,6241.07,83.86,6241.07,83.86Z"/><ellipse class="cls-15" cx="6286.66" cy="83.03" rx="5.83" ry="13.07" transform="translate(1473.42 4128) rotate(-40.8)"/></g></svg>