<svg xmlns="http://www.w3.org/2000/svg" viewBox="0 0 110.82 95.69"><defs><style>.cls-1{fill:#afafaf;}</style></defs><title>fond2Plan de travail 41</title><g id="Calque_2" data-name="Calque 2"><path d="M67.81,20.93V12.19A5.25,5.25,0,0,0,62.57,7H13.42a5.25,5.25,0,0,0-5.24,5.24v8.74Zm-19.34-7H59a1.75,1.75,0,0,1,0,3.49H48.47a1.75,1.75,0,0,1,0-3.49ZM31,13.94a1.75,1.75,0,1,1-1.74,1.75A1.75,1.75,0,0,1,31,13.94Zm-7,0a1.75,1.75,0,1,1-1.75,1.75A1.74,1.74,0,0,1,24,13.94Zm-7,0a1.75,1.75,0,1,1-1.75,1.75A1.75,1.75,0,0,1,17,13.94Z"/><path d="M8.18,24.42V61.11a5.25,5.25,0,0,0,5.24,5.24H62.57a5.25,5.25,0,0,0,5.24-5.24V24.42ZM28.6,49.26A1.75,1.75,0,0,1,26.42,52l-8.74-7a1.75,1.75,0,0,1,0-2.73l8.74-7A1.75,1.75,0,0,1,28.6,38l-7,5.63ZM44.84,32.1,34.36,56.55a1.75,1.75,0,1,1-3.21-1.37L41.63,30.72a1.75,1.75,0,1,1,3.21,1.38ZM58.3,45l-8.73,7a1.75,1.75,0,1,1-2.19-2.73l7-5.62-7-5.63a1.75,1.75,0,0,1,2.19-2.73l8.73,7a1.75,1.75,0,0,1,0,2.73Z"/><path class="cls-1" d="M76.57,44.29c6,0,12,0,18,0,1,0,1.38.2,1.27,1.37-1,11.09-2,22.19-3,33.28-.11,1.33-.29,2.66-.32,4,0,.9-.44,1.24-1.23,1.46q-7,1.92-14.08,3.91a2.81,2.81,0,0,1-1.65-.06c-4.59-1.28-9.18-2.57-13.78-3.81a1.51,1.51,0,0,1-1.3-1.57q-1.6-18.48-3.31-37c-.12-1.31.22-1.64,1.52-1.62C64.67,44.33,70.62,44.29,76.57,44.29Z"/><path d="M77,51.59c2.75,0,5.49,0,8.24,0,.84,0,1.24.16,1.3,1.12.18,2.69.46,5.37.74,8.05.09.8-.18,1-1,1.06-3.77.17-3.8.2-4.05-3.67-.06-1-.37-1.37-1.41-1.39-2.54,0-5.07-.33-7.62-.14-1,.08-1.5.29-1.52,1.43a31.78,31.78,0,0,1-.42,4.77c-.18,1.06.15,1.28,1.13,1.27,4.49,0,9,0,13.47-.07,1.27,0,1.49.39,1.37,1.54q-.63,6-1.09,11.93c-.07.92-.39,1.37-1.27,1.5a7.61,7.61,0,0,0-1,.28c-2.5.68-5,2-7.49,1.89-2.91-.1-5.77-1.43-8.66-2.2-.7-.18-1.1-.44-1.14-1.28-.1-1.84-.3-3.68-.51-5.51-.08-.73.17-1,.9-1a4.69,4.69,0,0,0,.75,0c2.82,0,2.86,0,3.23,2.71a1.54,1.54,0,0,0,1.22,1.41,11.28,11.28,0,0,0,8.43-.06c.69-.26,1.05-.54,1.07-1.33A25.1,25.1,0,0,1,82,70c.22-1.1-.2-1.25-1.15-1.24-4.49,0-9,0-13.47,0-1,0-1.42-.18-1.31-1.31.52-4.91,1-9.84,1.39-14.76.07-.93.39-1.16,1.27-1.14,2.74,0,5.49,0,8.23,0Z"/><path d="M80,35.26c.86.93,1.48,1.68,2.18,2.34a1.62,1.62,0,0,1,.48,1.86c-.24.57-.92.26-1.4.28-1.2,0-2.41,0-3.61,0-.74,0-.81-.33-.82-.93s.14-.95.85-.92a2.85,2.85,0,0,0,1.66-.18c-.7-.76-1.31-1.52-2-2.18a1.66,1.66,0,0,1-.44-1.77c.21-.66.89-.3,1.35-.32,1.2-.05,2.41,0,3.61,0,.68,0,.77.32.77.87s0,1-.8,1C81.36,35.23,80.85,35.26,80,35.26Z"/><path d="M75.94,36.57c0,3.17,0,3.17-3.22,3.17a9,9,0,0,0-1,0c-.83.1-.91-.39-.87-1s-.13-1.17.86-1.18c2.07,0,2.07-.1,2.07-2.21a6.76,6.76,0,0,0,0-.9c-.15-1,.4-1,1.14-1s1.16.1,1.07,1S75.94,35.84,75.94,36.57Z"/></g></svg>