<svg xmlns="http://www.w3.org/2000/svg" viewBox="0 0 100.85 102.7"><title>fond2Plan de travail 40</title><g id="Calque_2" data-name="Calque 2"><path d="M90.76,29V17.07a7.14,7.14,0,0,0-7.13-7.14H16.7a7.15,7.15,0,0,0-7.14,7.14V29ZM64.44,19.44H78.71a2.38,2.38,0,1,1,0,4.76H64.44a2.38,2.38,0,1,1,0-4.76Zm-23.79,0a2.38,2.38,0,1,1-2.38,2.38A2.39,2.39,0,0,1,40.65,19.44Zm-9.52,0a2.38,2.38,0,1,1-2.38,2.38A2.38,2.38,0,0,1,31.13,19.44Zm-9.51,0a2.38,2.38,0,1,1-2.38,2.38A2.39,2.39,0,0,1,21.62,19.44Z"/><path d="M9.56,33.72v50a7.15,7.15,0,0,0,7.14,7.14H83.63a7.14,7.14,0,0,0,7.13-7.14V33.72ZM37.38,67.54a2.38,2.38,0,1,1-3,3.72L22.51,61.74a2.37,2.37,0,0,1,0-3.71L34.4,48.51a2.38,2.38,0,0,1,3,3.72L27.8,59.89ZM59.49,44.17,45.21,77.47a2.38,2.38,0,1,1-4.37-1.87L55.11,42.3a2.38,2.38,0,0,1,4.38,1.87ZM77.82,61.74l-11.9,9.52a2.38,2.38,0,0,1-3-3.72l9.57-7.65L63,52.23a2.38,2.38,0,0,1,3-3.72L77.82,58a2.37,2.37,0,0,1,0,3.71Z"/></g></svg>