<svg xmlns="http://www.w3.org/2000/svg" xmlns:xlink="http://www.w3.org/1999/xlink" viewBox="0 0 516.97 907.88"><defs><style>.cls-1{fill:url(#Dégradé_sans_nom_13);}.cls-2{fill:url(#Dégradé_sans_nom_13-2);}.cls-3{fill:url(#Dégradé_sans_nom_13-3);}.cls-4{fill:url(#Dégradé_sans_nom_5);}.cls-5{fill:#28363a;}.cls-6{fill:none;}.cls-7{fill:#327976;}.cls-8{fill:#0d1b1b;}.cls-9{fill:url(#Dégradé_sans_nom_44);}</style><linearGradient id="Dégradé_sans_nom_13" x1="-4493.16" y1="22.22" x2="-4493.16" y2="459.68" gradientTransform="matrix(-1, 0, 0, 1, -4026.48, 0)" gradientUnits="userSpaceOnUse"><stop offset="0" stop-color="#5a6a70"/><stop offset="1" stop-color="#34464c"/></linearGradient><linearGradient id="Dégradé_sans_nom_13-2" x1="-4332.6" y1="22.22" x2="-4332.6" y2="459.68" xlink:href="#Dégradé_sans_nom_13"/><linearGradient id="Dégradé_sans_nom_13-3" x1="-4233.92" y1="-235.46" x2="-4233.92" y2="336.83" xlink:href="#Dégradé_sans_nom_13"/><linearGradient id="Dégradé_sans_nom_5" x1="-4332.6" y1="-529.26" x2="-4332.6" y2="3036.48" gradientTransform="matrix(-1, 0, 0, 1, -4026.48, 0)" gradientUnits="userSpaceOnUse"><stop offset="0" stop-color="#dcf8e3"/><stop offset="0.11" stop-color="#d7f7e0"/><stop offset="0.25" stop-color="#c7f5d9"/><stop offset="0.41" stop-color="#aef2cc"/><stop offset="0.57" stop-color="#8bedbb"/><stop offset="0.75" stop-color="#5ee7a5"/><stop offset="0.92" stop-color="#27e08a"/><stop offset="1" stop-color="#0ddc7d"/></linearGradient><linearGradient id="Dégradé_sans_nom_44" x1="-4128.89" y1="847.61" x2="-4351.01" y2="428.58" gradientTransform="matrix(-1, 0, 0, 1, -4026.48, 0)" gradientUnits="userSpaceOnUse"><stop offset="0" stop-color="#587372" stop-opacity="0"/><stop offset="0.28" stop-color="#4d6665" stop-opacity="0"/><stop offset="0.69" stop-color="#213232" stop-opacity="0.69"/><stop offset="1" stop-color="#0d1b1b"/></linearGradient></defs><title>fond2Plan de travail 22</title><g id="Calque_10" data-name="Calque 10"><path class="cls-1" d="M467.34,318.35a27.74,27.74,0,0,1-1.31-3.26C466.48,316.18,466.9,317.26,467.34,318.35Z"/><path class="cls-2" d="M469.56,336.52c.84-4.46-.48-11.83-3.53-21.43a27.74,27.74,0,0,0,1.31,3.26q4.59,11.28,8.53,22.63L136.37,150.44Z"/><path class="cls-3" d="M162.28,17.58c.18,0,.36-.1.54-.13,50.79-8.06,89.78-1,89.78-1S211.86,10.48,162.28,17.58Z"/><path class="cls-4" d="M139,88.33c0-9.24,1.08-43.36,6.75-53.48,3.32-5.93,9.6-15.73,16.49-17.27,49.11-9.07,90.32-1.11,90.32-1.11,20,22,154,155.42,213.43,298.62a27.74,27.74,0,0,0,1.31,3.26q4.59,11.28,8.53,22.63L136.37,150.44S139,96.65,139,88.33Z"/><path class="cls-5" d="M74.38,46.24c23.45-13.51,49-21.55,73.28-26.22,4.94-.95,9.81-1.75,14.62-2.44-6.89,1.54-13.17,11.34-16.49,17.27C140.12,45,139,79.09,139,88.33c0,7.66-2.26,53.78-2.62,61.1l0,0L20.15,209,54.8,228.82,20.15,210S-3.1,90.9,74.38,46.24Z"/><path class="cls-6" d="M498.19,451.83l-4-2.19c1.08-26.18-2.55-53.13-9.65-80.19l15.53,8.95Z"/><path class="cls-7" d="M494.21,449.64,61.88,212.11,138.39,170,484.56,369.45C491.66,396.51,495.29,423.46,494.21,449.64Z"/><path class="cls-7" d="M136.37,149.41l0,0c0,.64,0,1,0,1L475.87,341q3.78,10.89,6.86,21.79L138.45,164.43,51.76,212.11,493.92,455q-.39,5.9-1.12,11.73L54.8,228.82,20.15,209Z"/><path class="cls-8" d="M138.45,164.43,482.73,362.77c.63,2.23,1.24,4.45,1.83,6.68L138.39,170,61.88,212.11,494.21,449.64c-.08,1.8-.17,3.61-.29,5.4L51.76,212.11Z"/><polygon class="cls-9" points="25.2 649.69 494.41 901.98 490.33 468.13 20.14 208.95 25.2 649.69"/><g id="plante"><path id="Tracé_3169" data-name="Tracé 3169" class="cls-8" d="M142.63,349.75c-18.13,30.18-13.26,78.8-13.26,78.8l4.33.19c-2-69.59,16.52-78.66,16.52-78.66Z"/><path id="Tracé_3170" data-name="Tracé 3170" class="cls-8" d="M142.63,349.75s-18.89,5.5-28.55,13.08S98.3,392.61,98.3,392.61s17.29-6.9,24.41-13.59a133,133,0,0,0,14.41-17Z"/><path id="Tracé_3171" data-name="Tracé 3171" class="cls-8" d="M149.28,350s9.59,5.59,14.73,13.64,4.88,25.52,4.88,25.52-11.3-8.15-16.76-16.63a42.52,42.52,0,0,1-6-18.43Z"/><path id="Tracé_3172" data-name="Tracé 3172" class="cls-8" d="M131.53,428.64s.14,19.88-1.46,33.63-14.83,28.83-14.83,28.83-.65-25.17,2.36-36.87,11.77-25.68,11.77-25.68Z"/><path id="Tracé_3173" data-name="Tracé 3173" class="cls-8" d="M127.8,431.19l1.57-2.64,1.17.05c-3.14,4.87-13.92,57-15,62.12l-.15.16-.21-.8c-.08-4.83-.27-25.56,2.38-35.84C119.81,445.63,125.14,435.79,127.8,431.19Z"/><path id="Tracé_3174" data-name="Tracé 3174" class="cls-8" d="M131.53,428.64s-3.27,21.73,4.5,30.56,18.92,13,18.92,13S148.76,446,133.7,428.74Z"/><g id="Groupe_724" data-name="Groupe 724"><path id="Tracé_3175" data-name="Tracé 3175" class="cls-8" d="M129.42,411.2s-1.17,5.42-7.57,19.88-23,22.88-23,22.88,2.41-23.84,7.67-36.24,23.18-22,23.18-22Z"/><path id="Tracé_3176" data-name="Tracé 3176" class="cls-8" d="M129.65,395.69c-3,3-10,14.65-16.1,26.57-7.9,15.51-14.74,31.7-14.74,31.7s2.41-23.84,7.67-36.24S129.66,395.69,129.65,395.69Z"/></g><path id="Tracé_3177" data-name="Tracé 3177" class="cls-8" d="M133.7,428.74C148.76,446,155,472.18,155,472.18s-21-23.39-22.31-43.49Z"/><path id="Tracé_3178" data-name="Tracé 3178" class="cls-8" d="M114.08,362.83c9.66-7.58,28.55-13.08,28.55-13.08-12.5,5.34-44.33,42.86-44.33,42.86S104.43,370.4,114.08,362.83Z"/><path id="Tracé_3179" data-name="Tracé 3179" class="cls-8" d="M164,363.67c5.14,8.05,4.88,25.52,4.88,25.52s-14.32-29.79-20.43-38.1l.82-1.06S158.86,355.62,164,363.67Z"/><path id="Tracé_3180" data-name="Tracé 3180" class="cls-8" d="M133.13,402.12s14.08,5,17.72,7.43S161,426.86,161,426.86a56.93,56.93,0,0,1-14.25-5.42c-8.47-4.36-13.7-17.41-13.7-17.41Z"/><path id="Tracé_3181" data-name="Tracé 3181" class="cls-8" d="M147.1,413.8a109.82,109.82,0,0,0-14-10.52l0-1.16s14.08,5,17.72,7.43S161,426.86,161,426.86C158.81,426.51,153.33,419.41,147.1,413.8Z"/></g><g id="plante-2" data-name="plante"><path id="Tracé_3169-2" data-name="Tracé 3169" class="cls-8" d="M333,453.11c-18.13,30.18-13.25,78.8-13.25,78.8l4.32.19c-2-69.59,16.52-78.66,16.52-78.66Z"/><path id="Tracé_3170-2" data-name="Tracé 3170" class="cls-8" d="M333,453.11s-18.89,5.5-28.54,13.08S288.7,496,288.7,496s17.29-6.91,24.41-13.6a133,133,0,0,0,14.41-17Z"/><path id="Tracé_3171-2" data-name="Tracé 3171" class="cls-8" d="M339.68,453.39S349.27,459,354.41,467s4.88,25.52,4.88,25.52-11.3-8.15-16.76-16.63a42.61,42.61,0,0,1-6-18.43Z"/><path id="Tracé_3172-2" data-name="Tracé 3172" class="cls-8" d="M321.94,532s.13,19.88-1.47,33.63-14.82,28.83-14.82,28.83S305,569.29,308,557.6s11.78-25.69,11.78-25.69Z"/><path id="Tracé_3173-2" data-name="Tracé 3173" class="cls-8" d="M318.21,534.55l1.57-2.64,1.16.05c-3.14,4.87-13.92,57-15,62.12l-.15.16-.2-.8c-.09-4.83-.28-25.55,2.37-35.84C310.21,549,315.54,539.15,318.21,534.55Z"/><path id="Tracé_3174-2" data-name="Tracé 3174" class="cls-8" d="M321.94,532s-3.28,21.73,4.49,30.56,18.92,13,18.92,13-6.18-26.19-21.25-43.44Z"/><g id="Groupe_724-2" data-name="Groupe 724"><path id="Tracé_3175-2" data-name="Tracé 3175" class="cls-8" d="M319.82,514.56s-1.17,5.42-7.57,19.88-23,22.88-23,22.88,2.4-23.84,7.66-36.24,23.18-22,23.18-22Z"/><path id="Tracé_3176-2" data-name="Tracé 3176" class="cls-8" d="M320.05,499.05c-3,3-10,14.65-16.1,26.58-7.89,15.5-14.73,31.69-14.73,31.69s2.4-23.84,7.66-36.24S320.06,499.05,320.05,499.05Z"/></g><path id="Tracé_3177-2" data-name="Tracé 3177" class="cls-8" d="M324.1,532.1c15.07,17.25,21.25,43.44,21.25,43.44s-21-23.39-22.31-43.49Z"/><path id="Tracé_3178-2" data-name="Tracé 3178" class="cls-8" d="M304.49,466.19c9.65-7.57,28.54-13.08,28.54-13.08C320.53,458.45,288.7,496,288.7,496S294.83,473.76,304.49,466.19Z"/><path id="Tracé_3179-2" data-name="Tracé 3179" class="cls-8" d="M354.41,467c5.14,8.05,4.88,25.52,4.88,25.52s-14.32-29.79-20.43-38.1l.82-1.06S349.27,459,354.41,467Z"/><path id="Tracé_3180-2" data-name="Tracé 3180" class="cls-8" d="M323.53,505.48s14.08,5,17.72,7.43,10.15,17.31,10.15,17.31a56.93,56.93,0,0,1-14.25-5.42c-8.47-4.36-13.7-17.41-13.7-17.41Z"/><path id="Tracé_3181-2" data-name="Tracé 3181" class="cls-8" d="M337.5,517.16a108.82,108.82,0,0,0-14-10.51l.06-1.17s14.07,5,17.71,7.44,10.16,17.3,10.16,17.3C349.21,529.87,343.73,522.77,337.5,517.16Z"/></g><g id="plante-3" data-name="plante"><path id="Tracé_3169-3" data-name="Tracé 3169" class="cls-8" d="M460.87,491.19c-18.13,30.18-13.25,78.8-13.25,78.8l4.32.19c-2-69.59,16.52-78.66,16.52-78.66Z"/><path id="Tracé_3170-3" data-name="Tracé 3170" class="cls-8" d="M460.87,491.19S442,496.7,432.33,504.27s-15.79,29.79-15.79,29.79,17.29-6.91,24.41-13.6a133,133,0,0,0,14.41-17Z"/><path id="Tracé_3171-3" data-name="Tracé 3171" class="cls-8" d="M467.52,491.48s9.59,5.58,14.73,13.63,4.88,25.52,4.88,25.52-11.3-8.15-16.76-16.63a42.46,42.46,0,0,1-6-18.43Z"/><path id="Tracé_3172-3" data-name="Tracé 3172" class="cls-8" d="M449.78,570.08s.13,19.88-1.47,33.63-14.82,28.83-14.82,28.83-.66-25.17,2.35-36.86S447.62,570,447.62,570Z"/><path id="Tracé_3173-3" data-name="Tracé 3173" class="cls-8" d="M446.05,572.63l1.57-2.64,1.16,0c-3.13,4.87-13.92,57.05-15,62.12l-.14.16-.21-.8c-.09-4.83-.27-25.55,2.37-35.84C438.05,587.07,443.38,577.23,446.05,572.63Z"/><path id="Tracé_3174-3" data-name="Tracé 3174" class="cls-8" d="M449.78,570.08s-3.28,21.73,4.49,30.56,18.92,13,18.92,13-6.18-26.19-21.25-43.44Z"/><g id="Groupe_724-3" data-name="Groupe 724"><path id="Tracé_3175-3" data-name="Tracé 3175" class="cls-8" d="M447.66,552.64s-1.17,5.42-7.57,19.88-23,22.88-23,22.88,2.4-23.84,7.66-36.24,23.18-22,23.18-22Z"/><path id="Tracé_3176-3" data-name="Tracé 3176" class="cls-8" d="M447.9,537.13c-3,3-10,14.65-16.11,26.58-7.89,15.5-14.73,31.69-14.73,31.69s2.41-23.84,7.66-36.24S447.9,537.13,447.9,537.13Z"/></g><path id="Tracé_3177-3" data-name="Tracé 3177" class="cls-8" d="M451.94,570.18c15.07,17.25,21.26,43.44,21.26,43.44s-21-23.39-22.31-43.49Z"/><path id="Tracé_3178-3" data-name="Tracé 3178" class="cls-8" d="M432.33,504.27c9.65-7.57,28.54-13.08,28.54-13.08-12.5,5.34-44.33,42.87-44.33,42.87S422.67,511.84,432.33,504.27Z"/><path id="Tracé_3179-3" data-name="Tracé 3179" class="cls-8" d="M482.25,505.11c5.14,8,4.88,25.53,4.88,25.53s-14.31-29.8-20.43-38.11l.82-1S477.11,497.06,482.25,505.11Z"/><path id="Tracé_3180-3" data-name="Tracé 3180" class="cls-8" d="M451.37,543.56s14.08,5,17.72,7.43,10.16,17.31,10.16,17.31A56.86,56.86,0,0,1,465,562.88c-8.47-4.36-13.7-17.41-13.7-17.41Z"/><path id="Tracé_3181-3" data-name="Tracé 3181" class="cls-8" d="M465.34,555.25a108.56,108.56,0,0,0-14-10.52l.05-1.17s14.07,5,17.71,7.44,10.16,17.3,10.16,17.3C477.05,568,471.57,560.85,465.34,555.25Z"/></g><g id="Groupe_725" data-name="Groupe 725"><path id="Tracé_3182" data-name="Tracé 3182" class="cls-8" d="M216,380.44c-.3,2.17-.58,4.33-.9,6.5s-.56,4.33-.85,6.5-.57,4.33-.84,6.5-.56,4.33-.77,6.5c-1.05,8.68-1.9,17.37-2.67,26.07-.17,2.18-.33,4.36-.52,6.53s-.28,4.37-.44,6.55l-.24,3.27c-.08,1.1-.09,2.19-.16,3.28-.11,2.19-.23,4.38-.38,6.58-.21-2.19-.37-4.38-.53-6.57-.07-1.1-.16-2.2-.19-3.29l-.1-3.3c0-2.2-.12-4.4-.11-6.6s.08-4.39.12-6.59c.3-8.8.89-17.58,2-26.31.24-2.18.55-4.36.85-6.54s.58-4.36.95-6.52c.71-4.34,1.43-8.67,2.29-13a255.21,255.21,0,0,1,6.3-25.58C218.47,363.13,217.19,371.79,216,380.44Z"/><path id="Tracé_3183" data-name="Tracé 3183" class="cls-8" d="M196.53,413.2c-7.82,9.26-16.76,9-20.27,4.58s-4.34-12.1,9-23.14A47.91,47.91,0,0,1,214.09,384S204.36,403.93,196.53,413.2Z"/><path id="Tracé_3184" data-name="Tracé 3184" class="cls-8" d="M192.44,382.7c-10.23,6.51-18.67,3.56-20.71-1.67s-.53-12.86,15.51-19.4a47.94,47.94,0,0,1,30.7-1.6S202.68,376.2,192.44,382.7Z"/><path id="Tracé_3185" data-name="Tracé 3185" class="cls-8" d="M200.11,444c-4.08,4.82-8.73,4.67-10.55,2.39s-2.27-6.31,4.68-12.05a25,25,0,0,1,15-5.57S204.18,439.16,200.11,444Z"/><path id="Tracé_3186" data-name="Tracé 3186" class="cls-8" d="M214.24,385.17c2.2,6.77,4.5,13.51,7,20.15,3.09,8.11,6.84,18,16.43,20,4.22.85,9.2-1.14,10.52-5.51,1.11-3.63-.7-7.56-2.34-10.73-4.76-9.21-10.93-15.69-20.39-20.14a71.38,71.38,0,0,0-8.09-3.23c-.32-.11-3.21-.7-3.31-1Z"/><path id="Tracé_3187" data-name="Tracé 3187" class="cls-8" d="M218.59,362.05c3.38,6.26,6.87,12.47,10.56,18.55,4.51,7.41,10,16.5,19.78,16.66,4.3.08,8.84-2.78,9.35-7.32.43-3.77-2.07-7.31-4.25-10.13-6.35-8.19-13.59-13.44-23.7-16.11a73.49,73.49,0,0,0-8.55-1.71c-.34-.05-3.28-.1-3.43-.38Z"/><path id="Tracé_3188" data-name="Tracé 3188" class="cls-8" d="M209.39,422.1c1.35,4.14,2.76,8.26,4.3,12.33,1.89,5,4.19,11,10.05,12.22,2.58.52,5.62-.7,6.44-3.37.67-2.22-.44-4.63-1.44-6.57a25.83,25.83,0,0,0-12.47-12.32,45.94,45.94,0,0,0-5-2,10.2,10.2,0,0,1-2-.61Z"/></g><g id="Groupe_725-2" data-name="Groupe 725"><path id="Tracé_3182-2" data-name="Tracé 3182" class="cls-8" d="M76.76,341.08c-.3,2.17-.58,4.34-.9,6.5s-.56,4.34-.85,6.5-.57,4.33-.84,6.5-.56,4.33-.78,6.51c-1,8.67-1.89,17.36-2.66,26.07-.18,2.17-.33,4.35-.53,6.53s-.28,4.36-.43,6.54l-.24,3.28c-.08,1.09-.09,2.19-.16,3.28-.11,2.19-.23,4.38-.39,6.57q-.3-3.27-.52-6.57c-.08-1.1-.16-2.19-.2-3.29l-.1-3.3c0-2.19-.12-4.39-.1-6.59s.08-4.4.12-6.6c.29-8.79.89-17.58,2-26.31.25-2.18.56-4.36.86-6.53s.57-4.36,1-6.53c.7-4.33,1.42-8.67,2.29-13a249.41,249.41,0,0,1,6.3-25.59C79.26,323.78,78,332.43,76.76,341.08Z"/><path id="Tracé_3183-2" data-name="Tracé 3183" class="cls-8" d="M57.32,373.84c-7.83,9.26-16.76,9-20.27,4.59s-4.35-12.11,9-23.14a48,48,0,0,1,28.83-10.7S65.15,364.58,57.32,373.84Z"/><path id="Tracé_3184-2" data-name="Tracé 3184" class="cls-8" d="M53.23,343.35c-10.23,6.5-18.67,3.56-20.71-1.68S32,328.82,48,322.28a47.87,47.87,0,0,1,30.7-1.6S63.47,336.84,53.23,343.35Z"/><path id="Tracé_3185-2" data-name="Tracé 3185" class="cls-8" d="M60.89,404.62c-4.07,4.83-8.72,4.68-10.55,2.39S48.08,400.71,55,395a25,25,0,0,1,15-5.56S65,399.8,60.89,404.62Z"/><path id="Tracé_3186-2" data-name="Tracé 3186" class="cls-8" d="M75,345.81c2.19,6.77,4.5,13.51,7,20.16,3.09,8.1,6.84,18,16.43,20,4.21.86,9.19-1.13,10.52-5.51,1.11-3.62-.7-7.56-2.34-10.73-4.76-9.2-10.93-15.68-20.39-20.14a73.45,73.45,0,0,0-8.1-3.23c-.32-.1-3.21-.69-3.3-1Z"/><path id="Tracé_3187-2" data-name="Tracé 3187" class="cls-8" d="M79.37,322.7c3.39,6.26,6.88,12.46,10.57,18.54,4.5,7.41,10,16.5,19.78,16.67,4.3.07,8.83-2.78,9.35-7.33.43-3.77-2.07-7.31-4.25-10.13-6.35-8.19-13.6-13.44-23.71-16.11a70.88,70.88,0,0,0-8.54-1.7c-.34-.05-3.29-.11-3.43-.38C79.21,322.4,79.3,322.55,79.37,322.7Z"/><path id="Tracé_3188-2" data-name="Tracé 3188" class="cls-8" d="M70.18,382.75c1.34,4.14,2.75,8.26,4.3,12.33,1.89,4.95,4.18,11,10,12.21,2.58.52,5.62-.69,6.43-3.37.68-2.22-.43-4.62-1.43-6.56A25.78,25.78,0,0,0,77.06,385a44,44,0,0,0-5-2,10.3,10.3,0,0,1-2-.61Z"/></g><g id="Groupe_725-3" data-name="Groupe 725"><path id="Tracé_3182-3" data-name="Tracé 3182" class="cls-8" d="M262.21,448.44c-.3,2.17-.58,4.34-.89,6.5s-.57,4.33-.86,6.5-.57,4.33-.84,6.5-.56,4.33-.77,6.5c-1.05,8.68-1.9,17.37-2.67,26.07-.17,2.18-.33,4.36-.52,6.54s-.28,4.36-.44,6.54l-.24,3.28c-.08,1.09-.09,2.18-.16,3.28-.11,2.18-.23,4.37-.38,6.57-.21-2.19-.37-4.38-.53-6.57-.07-1.1-.16-2.2-.19-3.29l-.1-3.3c0-2.2-.12-4.4-.11-6.6s.08-4.39.12-6.59c.3-8.8.89-17.58,2-26.31.24-2.18.55-4.36.85-6.54s.58-4.35.95-6.52c.71-4.34,1.43-8.67,2.3-13A252.47,252.47,0,0,1,266,422.44C264.71,431.13,263.43,439.79,262.21,448.44Z"/><path id="Tracé_3183-3" data-name="Tracé 3183" class="cls-8" d="M242.77,481.2c-7.82,9.26-16.76,9-20.27,4.58s-4.34-12.1,9-23.14A47.91,47.91,0,0,1,260.33,452S250.6,471.93,242.77,481.2Z"/><path id="Tracé_3184-3" data-name="Tracé 3184" class="cls-8" d="M238.68,450.7C228.45,457.21,220,454.27,218,449s-.53-12.85,15.51-19.4a47.94,47.94,0,0,1,30.7-1.6S248.92,444.2,238.68,450.7Z"/><path id="Tracé_3185-3" data-name="Tracé 3185" class="cls-8" d="M246.35,512c-4.08,4.82-8.73,4.67-10.55,2.39s-2.26-6.31,4.68-12.05a25,25,0,0,1,15-5.57S250.42,507.16,246.35,512Z"/><path id="Tracé_3186-3" data-name="Tracé 3186" class="cls-8" d="M260.48,453.17c2.2,6.77,4.5,13.51,7,20.15,3.09,8.11,6.84,18,16.43,20,4.22.85,9.2-1.14,10.53-5.51,1.1-3.62-.71-7.56-2.35-10.73-4.76-9.21-10.93-15.68-20.39-20.14a71.38,71.38,0,0,0-8.09-3.23c-.32-.11-3.21-.7-3.31-1Z"/><path id="Tracé_3187-3" data-name="Tracé 3187" class="cls-8" d="M264.83,430.05c3.38,6.26,6.87,12.47,10.57,18.55,4.5,7.41,10,16.5,19.77,16.66,4.3.08,8.84-2.78,9.35-7.32.43-3.77-2.07-7.31-4.25-10.13-6.35-8.19-13.59-13.44-23.7-16.11A73.49,73.49,0,0,0,268,430c-.33,0-3.28-.1-3.43-.38Z"/><path id="Tracé_3188-3" data-name="Tracé 3188" class="cls-8" d="M255.64,490.1c1.34,4.14,2.75,8.27,4.29,12.33,1.89,5,4.19,11,10.05,12.22,2.58.52,5.62-.7,6.44-3.37.67-2.22-.44-4.63-1.44-6.57a25.83,25.83,0,0,0-12.47-12.32,45.94,45.94,0,0,0-4.95-2,10.2,10.2,0,0,1-2-.61Z"/></g><g id="Groupe_725-4" data-name="Groupe 725"><path id="Tracé_3182-4" data-name="Tracé 3182" class="cls-8" d="M399.81,495.68c-.3,2.16-.58,4.33-.89,6.49s-.57,4.34-.86,6.5-.57,4.34-.84,6.5-.55,4.33-.77,6.51c-1.05,8.67-1.9,17.36-2.67,26.07-.17,2.17-.33,4.35-.52,6.53s-.28,4.36-.44,6.54l-.23,3.28c-.08,1.09-.1,2.19-.17,3.28-.11,2.19-.22,4.38-.38,6.58-.21-2.19-.37-4.38-.52-6.58-.08-1.1-.17-2.19-.2-3.29l-.1-3.29c0-2.2-.12-4.4-.1-6.6s.08-4.4.11-6.6c.3-8.79.89-17.57,2-26.3.25-2.19.55-4.37.86-6.54s.57-4.36.94-6.53c.71-4.33,1.43-8.67,2.3-13a253.31,253.31,0,0,1,6.29-25.59C402.31,478.37,401,487,399.81,495.68Z"/><path id="Tracé_3183-4" data-name="Tracé 3183" class="cls-8" d="M380.37,528.43c-7.82,9.26-16.75,9-20.27,4.59s-4.34-12.11,9-23.14a47.92,47.92,0,0,1,28.82-10.7S388.2,519.17,380.37,528.43Z"/><path id="Tracé_3184-4" data-name="Tracé 3184" class="cls-8" d="M376.29,497.94c-10.24,6.5-18.68,3.56-20.72-1.68s-.53-12.85,15.51-19.39a47.94,47.94,0,0,1,30.7-1.6S386.52,491.43,376.29,497.94Z"/><path id="Tracé_3185-4" data-name="Tracé 3185" class="cls-8" d="M384,559.22c-4.07,4.82-8.72,4.67-10.55,2.38s-2.26-6.3,4.68-12a24.94,24.94,0,0,1,15-5.57S388,554.39,384,559.22Z"/><path id="Tracé_3186-4" data-name="Tracé 3186" class="cls-8" d="M398.09,500.41c2.19,6.76,4.5,13.5,7,20.15,3.08,8.1,6.83,18,16.42,20,4.22.86,9.2-1.13,10.53-5.5,1.1-3.63-.71-7.57-2.35-10.74-4.75-9.2-10.93-15.68-20.39-20.14a73.3,73.3,0,0,0-8.09-3.23c-.32-.1-3.21-.69-3.31-1Z"/><path id="Tracé_3187-4" data-name="Tracé 3187" class="cls-8" d="M402.43,477.29c3.38,6.26,6.87,12.47,10.57,18.54,4.5,7.42,10,16.5,19.77,16.67,4.31.07,8.84-2.78,9.36-7.32.42-3.78-2.07-7.32-4.26-10.14-6.35-8.19-13.59-13.44-23.7-16.11a71,71,0,0,0-8.55-1.7c-.33-.05-3.28-.11-3.43-.38Z"/><path id="Tracé_3188-4" data-name="Tracé 3188" class="cls-8" d="M393.24,537.34c1.34,4.14,2.75,8.26,4.3,12.33,1.88,5,4.18,11,10,12.21,2.58.52,5.63-.69,6.44-3.37.67-2.22-.44-4.62-1.44-6.56a25.74,25.74,0,0,0-12.47-12.32,44,44,0,0,0-4.95-2,9.57,9.57,0,0,1-2-.61Z"/></g></g></svg>