<svg xmlns="http://www.w3.org/2000/svg" xmlns:xlink="http://www.w3.org/1999/xlink" viewBox="0 0 516.97 907.88"><defs><style>.cls-1{fill:url(#Dégradé_sans_nom_13);}.cls-2{fill:url(#Dégradé_sans_nom_13-2);}.cls-3{fill:url(#Dégradé_sans_nom_13-3);}.cls-4{fill:url(#Dégradé_sans_nom_5);}.cls-5{fill:#34464c;}.cls-6{fill:none;}.cls-7{fill:#327976;}.cls-8{fill:#0d1b1b;}.cls-9{fill:url(#Dégradé_sans_nom_44);}</style><linearGradient id="Dégradé_sans_nom_13" x1="58.01" y1="20.13" x2="58.01" y2="457.59" gradientUnits="userSpaceOnUse"><stop offset="0" stop-color="#5a6a70"/><stop offset="1" stop-color="#34464c"/></linearGradient><linearGradient id="Dégradé_sans_nom_13-2" x1="218.57" y1="20.13" x2="218.57" y2="457.59" xlink:href="#Dégradé_sans_nom_13"/><linearGradient id="Dégradé_sans_nom_13-3" x1="317.26" y1="-237.56" x2="317.26" y2="334.73" xlink:href="#Dégradé_sans_nom_13"/><linearGradient id="Dégradé_sans_nom_5" x1="218.57" y1="-568.34" x2="218.57" y2="3031.33" gradientUnits="userSpaceOnUse"><stop offset="0" stop-color="#dcf8e3"/><stop offset="0.11" stop-color="#d7f7e0"/><stop offset="0.25" stop-color="#c7f5d9"/><stop offset="0.41" stop-color="#aef2cc"/><stop offset="0.57" stop-color="#8bedbb"/><stop offset="0.75" stop-color="#5ee7a5"/><stop offset="0.92" stop-color="#27e08a"/><stop offset="1" stop-color="#0ddc7d"/></linearGradient><linearGradient id="Dégradé_sans_nom_44" x1="422.29" y1="845.51" x2="200.16" y2="426.48" gradientUnits="userSpaceOnUse"><stop offset="0" stop-color="#587372" stop-opacity="0"/><stop offset="0.28" stop-color="#4d6665" stop-opacity="0"/><stop offset="0.69" stop-color="#213232" stop-opacity="0.69"/><stop offset="1" stop-color="#0d1b1b"/></linearGradient></defs><title>fond2Plan de travail 22</title><g id="Calque_10" data-name="Calque 10"><path class="cls-1" d="M57.36,316.25A29.47,29.47,0,0,0,58.67,313C58.22,314.08,57.8,315.17,57.36,316.25Z"/><path class="cls-2" d="M55.14,334.42c-.84-4.45.47-11.82,3.53-21.42a29.47,29.47,0,0,1-1.31,3.25q-4.61,11.29-8.54,22.64l339.5-190.54Z"/><path class="cls-3" d="M362.42,15.48c-.18,0-.36-.1-.54-.13-50.79-8-89.78-1-89.78-1S312.84,8.38,362.42,15.48Z"/><path class="cls-4" d="M385.66,86.24c0-9.24-1.08-43.36-6.76-53.49-3.32-5.92-9.6-15.72-16.48-17.27-50.14-9.06-90.32-1.11-90.32-1.11-20,22-154,155.42-213.43,298.63a29.47,29.47,0,0,1-1.31,3.25q-4.61,11.29-8.54,22.64l339.5-190.54S385.66,94.56,385.66,86.24Z"/><path class="cls-5" d="M450.31,44.15c-23.44-13.52-49-21.55-73.27-26.22-4.94-1-9.82-1.76-14.62-2.45C369.3,17,375.58,26.83,378.9,32.75c5.68,10.13,6.76,44.25,6.76,53.49,0,7.65,2.26,53.78,2.62,61.1l0,0,116.23,59.54-34.66,19.87,34.66-18.83S527.8,88.8,450.31,44.15Z"/><path class="cls-6" d="M26.5,449.73l4-2.19c-1.09-26.17,2.55-53.13,9.65-80.19L24.61,376.3Z"/><path class="cls-7" d="M30.49,447.54,462.82,210,386.3,167.93,40.14,367.35C33,394.41,29.4,421.37,30.49,447.54Z"/><path class="cls-7" d="M388.32,147.31l0,0c0,.63,0,1,0,1L48.82,338.89Q45.06,349.77,42,360.67L386.25,162.34,472.93,210,30.77,453c.27,3.92.64,7.84,1.12,11.72l438-237.95,34.66-19.87Z"/><path class="cls-8" d="M386.25,162.34,42,360.67Q41,364,40.14,367.35L386.3,167.93,462.82,210,30.49,447.54c.07,1.81.16,3.61.28,5.41L472.93,210Z"/><polygon class="cls-9" points="499.5 647.6 30.29 899.88 34.37 466.03 504.55 206.85 499.5 647.6"/><g id="plante"><path id="Tracé_3169" data-name="Tracé 3169" class="cls-8" d="M374.48,348S393,357.06,391,426.64l4.32-.19s4.88-48.61-13.25-78.8Z"/><path id="Tracé_3170" data-name="Tracé 3170" class="cls-8" d="M387.58,359.9a133.8,133.8,0,0,0,14.41,17c7.12,6.68,24.41,13.59,24.41,13.59s-6.13-22.22-15.79-29.79-28.54-13.08-28.54-13.08Z"/><path id="Tracé_3171" data-name="Tracé 3171" class="cls-8" d="M378.57,352a42.46,42.46,0,0,1-6,18.43c-5.46,8.48-16.76,16.64-16.76,16.64s-.26-17.48,4.88-25.53,14.73-13.63,14.73-13.63Z"/><path id="Tracé_3172" data-name="Tracé 3172" class="cls-8" d="M395.32,426.45s8.77,14,11.78,25.69S409.45,489,409.45,489s-13.23-15.07-14.82-28.82-1.47-33.63-1.47-33.63Z"/><path id="Tracé_3173" data-name="Tracé 3173" class="cls-8" d="M407.1,452.14c2.64,10.29,2.46,31,2.37,35.84l-.21.81-.14-.17c-1-5.06-11.83-57.25-15-62.12l1.16-.05,1.57,2.64C399.56,433.69,404.89,443.54,407.1,452.14Z"/><path id="Tracé_3174" data-name="Tracé 3174" class="cls-8" d="M391,426.64c-15.07,17.25-21.25,43.44-21.25,43.44s11.14-4.14,18.92-13,4.49-30.55,4.49-30.55Z"/><g id="Groupe_724" data-name="Groupe 724"><path id="Tracé_3175" data-name="Tracé 3175" class="cls-8" d="M395,393.59s17.93,9.63,23.18,22,7.66,36.25,7.66,36.25-16.63-8.42-23-22.88-7.57-19.89-7.57-19.89Z"/><path id="Tracé_3176" data-name="Tracé 3176" class="cls-8" d="M418.22,415.62c5.25,12.41,7.66,36.25,7.66,36.25s-6.84-16.19-14.73-31.7C405.08,408.24,398,396.64,395,393.6,395,393.59,413,403.22,418.22,415.62Z"/></g><path id="Tracé_3177" data-name="Tracé 3177" class="cls-8" d="M392.05,426.59c-1.34,20.1-22.3,43.49-22.3,43.49s6.18-26.19,21.25-43.44Z"/><path id="Tracé_3178" data-name="Tracé 3178" class="cls-8" d="M426.4,390.52S394.57,353,382.07,347.65c0,0,18.89,5.51,28.54,13.08S426.4,390.52,426.4,390.52Z"/><path id="Tracé_3179" data-name="Tracé 3179" class="cls-8" d="M375.42,347.94l.82,1.06c-6.12,8.3-20.43,38.1-20.43,38.1s-.26-17.48,4.88-25.53S375.42,347.94,375.42,347.94Z"/><path id="Tracé_3180" data-name="Tracé 3180" class="cls-8" d="M391.65,401.93S386.42,415,378,419.35a57.22,57.22,0,0,1-14.26,5.41s6.52-14.9,10.16-17.31S391.57,400,391.57,400Z"/><path id="Tracé_3181" data-name="Tracé 3181" class="cls-8" d="M363.69,424.77s6.51-14.91,10.16-17.31S391.56,400,391.56,400l.05,1.16a108.56,108.56,0,0,0-14,10.52C371.37,417.32,365.89,424.41,363.69,424.77Z"/></g><g id="plante-2" data-name="plante"><path id="Tracé_3169-2" data-name="Tracé 3169" class="cls-8" d="M184.08,451.34s18.48,9.08,16.52,78.66l4.32-.19s4.88-48.61-13.25-78.8Z"/><path id="Tracé_3170-2" data-name="Tracé 3170" class="cls-8" d="M197.18,463.26a133.8,133.8,0,0,0,14.41,17C218.71,487,236,493.88,236,493.88s-6.13-22.22-15.79-29.79S191.67,451,191.67,451Z"/><path id="Tracé_3171-2" data-name="Tracé 3171" class="cls-8" d="M188.17,455.39a42.42,42.42,0,0,1-6,18.43c-5.46,8.48-16.76,16.64-16.76,16.64s-.27-17.48,4.88-25.53S185,451.3,185,451.3Z"/><path id="Tracé_3172-2" data-name="Tracé 3172" class="cls-8" d="M204.92,529.81s8.77,14,11.78,25.69,2.35,36.87,2.35,36.87-13.23-15.08-14.82-28.83-1.47-33.63-1.47-33.63Z"/><path id="Tracé_3173-2" data-name="Tracé 3173" class="cls-8" d="M216.7,555.5c2.64,10.29,2.46,31,2.37,35.84l-.21.81-.14-.17c-1-5.06-11.83-57.24-15-62.12l1.16-.05,1.57,2.64C209.16,537.05,214.48,546.9,216.7,555.5Z"/><path id="Tracé_3174-2" data-name="Tracé 3174" class="cls-8" d="M200.6,530c-15.07,17.25-21.25,43.44-21.25,43.44s11.14-4.14,18.91-13,4.5-30.55,4.5-30.55Z"/><g id="Groupe_724-2" data-name="Groupe 724"><path id="Tracé_3175-2" data-name="Tracé 3175" class="cls-8" d="M204.64,497s17.93,9.63,23.18,22,7.66,36.24,7.66,36.24-16.63-8.42-23-22.88-7.57-19.89-7.57-19.89Z"/><path id="Tracé_3176-2" data-name="Tracé 3176" class="cls-8" d="M227.82,519c5.25,12.4,7.66,36.24,7.66,36.24s-6.84-16.19-14.73-31.7C214.67,511.6,207.64,500,204.64,497,204.64,497,222.57,506.58,227.82,519Z"/></g><path id="Tracé_3177-2" data-name="Tracé 3177" class="cls-8" d="M201.65,530c-1.34,20.1-22.31,43.5-22.31,43.5s6.19-26.2,21.26-43.45Z"/><path id="Tracé_3178-2" data-name="Tracé 3178" class="cls-8" d="M236,493.88S204.17,456.35,191.67,451c0,0,18.89,5.51,28.54,13.08S236,493.88,236,493.88Z"/><path id="Tracé_3179-2" data-name="Tracé 3179" class="cls-8" d="M185,451.3l.82,1.06c-6.12,8.3-20.43,38.1-20.43,38.1s-.26-17.48,4.88-25.53S185,451.3,185,451.3Z"/><path id="Tracé_3180-2" data-name="Tracé 3180" class="cls-8" d="M201.25,505.3s-5.24,13.05-13.7,17.41a57.22,57.22,0,0,1-14.26,5.41s6.51-14.9,10.16-17.31,17.71-7.43,17.71-7.43Z"/><path id="Tracé_3181-2" data-name="Tracé 3181" class="cls-8" d="M173.29,528.13s6.51-14.9,10.16-17.31,17.71-7.43,17.71-7.43l.05,1.16a109.49,109.49,0,0,0-14,10.52C181,520.68,175.49,527.77,173.29,528.13Z"/></g><g id="plante-3" data-name="plante"><path id="Tracé_3169-3" data-name="Tracé 3169" class="cls-8" d="M56.23,489.42s18.49,9.08,16.53,78.66l4.32-.19s4.88-48.61-13.25-78.8Z"/><path id="Tracé_3170-3" data-name="Tracé 3170" class="cls-8" d="M69.34,501.34a133.8,133.8,0,0,0,14.41,17c7.12,6.68,24.41,13.59,24.41,13.59S102,509.74,92.37,502.17s-28.55-13.08-28.55-13.08Z"/><path id="Tracé_3171-3" data-name="Tracé 3171" class="cls-8" d="M60.33,493.48a42.64,42.64,0,0,1-6,18.43c-5.46,8.47-16.76,16.63-16.76,16.63S37.3,511.06,42.45,503s14.73-13.63,14.73-13.63Z"/><path id="Tracé_3172-3" data-name="Tracé 3172" class="cls-8" d="M77.08,567.89s8.77,14,11.78,25.69,2.35,36.87,2.35,36.87S78,615.37,76.38,601.62,74.92,568,74.92,568Z"/><path id="Tracé_3173-3" data-name="Tracé 3173" class="cls-8" d="M88.86,593.58c2.64,10.29,2.45,31,2.37,35.84l-.21.81-.14-.17c-1-5.06-11.83-57.24-15-62.11l1.16-.06,1.57,2.64C81.31,575.13,86.64,585,88.86,593.58Z"/><path id="Tracé_3174-3" data-name="Tracé 3174" class="cls-8" d="M72.76,568.08C57.69,585.33,51.5,611.53,51.5,611.53s11.15-4.15,18.92-13S74.92,568,74.92,568Z"/><g id="Groupe_724-3" data-name="Groupe 724"><path id="Tracé_3175-3" data-name="Tracé 3175" class="cls-8" d="M76.8,535s17.93,9.63,23.18,22,7.66,36.24,7.66,36.24-16.63-8.42-23-22.88S77,550.54,77,550.54Z"/><path id="Tracé_3176-3" data-name="Tracé 3176" class="cls-8" d="M100,557.07c5.25,12.4,7.66,36.24,7.66,36.24s-6.84-16.19-14.73-31.7C86.83,549.68,79.8,538.08,76.8,535,76.8,535,94.73,544.66,100,557.07Z"/></g><path id="Tracé_3177-3" data-name="Tracé 3177" class="cls-8" d="M73.81,568c-1.34,20.1-22.31,43.5-22.31,43.5s6.19-26.2,21.26-43.45Z"/><path id="Tracé_3178-3" data-name="Tracé 3178" class="cls-8" d="M108.16,532s-31.84-37.53-44.34-42.87c0,0,18.89,5.51,28.55,13.08S108.16,532,108.16,532Z"/><path id="Tracé_3179-3" data-name="Tracé 3179" class="cls-8" d="M57.18,489.38l.81,1.06c-6.11,8.3-20.42,38.1-20.42,38.1s-.26-17.48,4.88-25.53S57.18,489.38,57.18,489.38Z"/><path id="Tracé_3180-3" data-name="Tracé 3180" class="cls-8" d="M73.41,543.38s-5.24,13-13.71,17.41a57.15,57.15,0,0,1-14.25,5.41S52,551.3,55.61,548.89s17.71-7.43,17.71-7.43Z"/><path id="Tracé_3181-3" data-name="Tracé 3181" class="cls-8" d="M45.45,566.21S52,551.31,55.6,548.9s17.72-7.43,17.72-7.43l.05,1.16a109.49,109.49,0,0,0-14,10.52C53.13,558.76,47.65,565.85,45.45,566.21Z"/></g><g id="Groupe_725" data-name="Groupe 725"><path id="Tracé_3182" data-name="Tracé 3182" class="cls-8" d="M305,352.34a252,252,0,0,1,6.29,25.59c.87,4.3,1.59,8.63,2.3,13,.37,2.17.64,4.35.94,6.53s.61,4.35.86,6.53c1.08,8.73,1.67,17.52,2,26.31,0,2.2.1,4.4.11,6.6s-.06,4.4-.1,6.59l-.1,3.3c0,1.1-.12,2.19-.2,3.29-.15,2.2-.31,4.39-.52,6.57-.16-2.19-.27-4.38-.38-6.57-.07-1.1-.09-2.19-.17-3.28l-.23-3.28c-.16-2.18-.25-4.36-.44-6.54s-.35-4.36-.52-6.54c-.77-8.7-1.62-17.39-2.67-26.06-.22-2.18-.5-4.34-.77-6.51s-.55-4.33-.84-6.5-.54-4.34-.86-6.5-.59-4.33-.89-6.5C307.51,369.69,306.22,361,305,352.34Z"/><path id="Tracé_3183" data-name="Tracé 3183" class="cls-8" d="M310.61,381.85a47.86,47.86,0,0,1,28.82,10.7c13.35,11,12.51,18.75,9,23.14s-12.44,4.67-20.27-4.59S310.61,381.85,310.61,381.85Z"/><path id="Tracé_3184" data-name="Tracé 3184" class="cls-8" d="M306.76,357.94a47.94,47.94,0,0,1,30.7,1.59c16,6.55,17.55,14.16,15.51,19.4s-10.48,8.18-20.72,1.68S306.76,357.94,306.76,357.94Z"/><path id="Tracé_3185" data-name="Tracé 3185" class="cls-8" d="M315.45,426.66a24.88,24.88,0,0,1,15,5.56c6.95,5.75,6.52,9.76,4.69,12s-6.48,2.43-10.55-2.39S315.45,426.66,315.45,426.66Z"/><path id="Tracé_3186" data-name="Tracé 3186" class="cls-8" d="M310.61,382.59c-.1.31-3,.89-3.31,1a71.38,71.38,0,0,0-8.09,3.23c-9.46,4.46-15.64,10.94-20.39,20.14-1.64,3.17-3.45,7.11-2.35,10.73,1.33,4.38,6.31,6.36,10.53,5.51,9.59-1.94,13.34-11.87,16.42-20,2.53-6.65,4.84-13.39,7-20.16Z"/><path id="Tracé_3187" data-name="Tracé 3187" class="cls-8" d="M306.35,359.51c-.15.28-3.1.34-3.43.38a73.07,73.07,0,0,0-8.55,1.71c-10.11,2.67-17.35,7.92-23.7,16.11-2.19,2.82-4.68,6.36-4.26,10.13.52,4.54,5,7.4,9.36,7.33,9.78-.17,15.27-9.26,19.77-16.67,3.7-6.08,7.19-12.29,10.57-18.54Z"/><path id="Tracé_3188" data-name="Tracé 3188" class="cls-8" d="M315.4,419.71a10.2,10.2,0,0,1-2,.61,45.94,45.94,0,0,0-4.95,2A25.81,25.81,0,0,0,296,434.62c-1,1.94-2.12,4.34-1.44,6.56.81,2.68,3.86,3.89,6.44,3.37,5.86-1.19,8.16-7.26,10-12.22,1.55-4.06,3-8.18,4.3-12.32Z"/></g><g id="Groupe_725-2" data-name="Groupe 725"><path id="Tracé_3182-2" data-name="Tracé 3182" class="cls-8" d="M444.16,313a252.51,252.51,0,0,1,6.3,25.58c.86,4.31,1.59,8.64,2.29,13,.37,2.16.64,4.34.95,6.52s.61,4.35.85,6.54c1.08,8.73,1.67,17.51,2,26.31,0,2.2.1,4.39.12,6.59s-.07,4.4-.11,6.6l-.09,3.29c0,1.1-.13,2.2-.2,3.3-.16,2.19-.32,4.38-.52,6.57-.16-2.2-.28-4.39-.39-6.58-.07-1.09-.08-2.18-.16-3.28l-.24-3.27c-.15-2.19-.25-4.37-.44-6.55s-.34-4.35-.52-6.53c-.77-8.7-1.61-17.39-2.66-26.07-.22-2.17-.51-4.34-.78-6.51s-.55-4.33-.84-6.49-.54-4.34-.85-6.5-.6-4.34-.9-6.5C446.72,330.33,445.44,321.68,444.16,313Z"/><path id="Tracé_3183-2" data-name="Tracé 3183" class="cls-8" d="M449.82,342.5a47.91,47.91,0,0,1,28.82,10.69c13.35,11,12.52,18.75,9,23.14s-12.45,4.68-20.27-4.59S449.82,342.5,449.82,342.5Z"/><path id="Tracé_3184-2" data-name="Tracé 3184" class="cls-8" d="M446,318.58a47.94,47.94,0,0,1,30.7,1.6c16,6.54,17.54,14.16,15.5,19.39s-10.48,8.18-20.71,1.68S446,318.58,446,318.58Z"/><path id="Tracé_3185-2" data-name="Tracé 3185" class="cls-8" d="M454.67,387.3a24.94,24.94,0,0,1,15,5.57c6.95,5.74,6.51,9.76,4.68,12s-6.47,2.44-10.54-2.38S454.67,387.3,454.67,387.3Z"/><path id="Tracé_3186-2" data-name="Tracé 3186" class="cls-8" d="M449.82,343.24c-.1.3-3,.89-3.31,1a73.23,73.23,0,0,0-8.09,3.22C429,351.92,422.79,358.4,418,367.61c-1.64,3.17-3.45,7.1-2.34,10.73,1.33,4.37,6.3,6.36,10.52,5.51,9.59-1.94,13.34-11.87,16.43-20,2.53-6.65,4.83-13.39,7-20.15Z"/><path id="Tracé_3187-2" data-name="Tracé 3187" class="cls-8" d="M445.56,320.16c-.15.28-3.09.33-3.43.38a70.88,70.88,0,0,0-8.54,1.7c-10.11,2.67-17.36,7.92-23.71,16.11-2.18,2.82-4.68,6.37-4.25,10.14.51,4.54,5.05,7.4,9.35,7.32,9.78-.17,15.27-9.25,19.78-16.66,3.69-6.08,7.18-12.29,10.56-18.55Z"/><path id="Tracé_3188-2" data-name="Tracé 3188" class="cls-8" d="M454.62,380.35a9.67,9.67,0,0,1-2,.62,42.15,42.15,0,0,0-4.95,2,25.79,25.79,0,0,0-12.47,12.32c-1,1.94-2.11,4.35-1.44,6.57.82,2.67,3.86,3.89,6.44,3.37,5.87-1.19,8.16-7.26,10.05-12.22,1.54-4.07,2.95-8.19,4.3-12.33Z"/></g><g id="Groupe_725-3" data-name="Groupe 725"><path id="Tracé_3182-3" data-name="Tracé 3182" class="cls-8" d="M258.71,420.34A252,252,0,0,1,265,445.93c.87,4.3,1.59,8.63,2.3,13,.37,2.17.64,4.35.94,6.53s.61,4.35.86,6.53c1.08,8.73,1.67,17.52,2,26.31,0,2.2.1,4.4.11,6.6s-.06,4.4-.1,6.59l-.1,3.3c0,1.1-.12,2.19-.2,3.29-.15,2.2-.31,4.39-.52,6.57-.16-2.19-.27-4.38-.38-6.57-.07-1.1-.09-2.19-.17-3.28l-.24-3.28c-.15-2.18-.24-4.36-.43-6.54s-.35-4.36-.52-6.53c-.77-8.71-1.62-17.4-2.67-26.07-.22-2.18-.5-4.34-.77-6.51s-.55-4.33-.84-6.5-.54-4.34-.86-6.5-.59-4.33-.89-6.5C261.27,437.69,260,429,258.71,420.34Z"/><path id="Tracé_3183-3" data-name="Tracé 3183" class="cls-8" d="M264.37,449.85a47.86,47.86,0,0,1,28.82,10.7c13.35,11,12.51,18.75,9,23.14s-12.44,4.67-20.27-4.59S264.37,449.85,264.37,449.85Z"/><path id="Tracé_3184-3" data-name="Tracé 3184" class="cls-8" d="M260.52,425.94a47.87,47.87,0,0,1,30.7,1.6c16,6.54,17.55,14.15,15.51,19.39s-10.48,8.18-20.72,1.68S260.52,425.94,260.52,425.94Z"/><path id="Tracé_3185-3" data-name="Tracé 3185" class="cls-8" d="M269.21,494.66a24.88,24.88,0,0,1,15,5.56c7,5.75,6.52,9.77,4.69,12s-6.48,2.43-10.55-2.39S269.21,494.66,269.21,494.66Z"/><path id="Tracé_3186-3" data-name="Tracé 3186" class="cls-8" d="M264.37,450.6c-.1.3-3,.89-3.31,1a72.29,72.29,0,0,0-8.1,3.23c-9.45,4.46-15.63,10.94-20.38,20.14-1.64,3.17-3.45,7.11-2.35,10.73,1.33,4.38,6.31,6.36,10.53,5.51,9.59-1.94,13.34-11.87,16.42-20,2.53-6.65,4.84-13.39,7-20.16Z"/><path id="Tracé_3187-3" data-name="Tracé 3187" class="cls-8" d="M260.11,427.51c-.15.28-3.1.34-3.43.38a73.07,73.07,0,0,0-8.55,1.71c-10.11,2.67-17.35,7.92-23.7,16.11-2.19,2.82-4.68,6.36-4.26,10.13.52,4.54,5.05,7.4,9.35,7.33,9.79-.17,15.28-9.26,19.78-16.67,3.7-6.08,7.19-12.29,10.57-18.54Z"/><path id="Tracé_3188-3" data-name="Tracé 3188" class="cls-8" d="M269.16,487.71a10.2,10.2,0,0,1-2,.61,44,44,0,0,0-4.95,2,25.81,25.81,0,0,0-12.48,12.32c-1,1.94-2.11,4.34-1.43,6.56.81,2.68,3.86,3.89,6.43,3.37,5.87-1.19,8.17-7.26,10-12.22,1.55-4.06,3-8.18,4.3-12.32Z"/></g><g id="Groupe_725-4" data-name="Groupe 725"><path id="Tracé_3182-4" data-name="Tracé 3182" class="cls-8" d="M121.1,467.58a249.87,249.87,0,0,1,6.3,25.58c.87,4.31,1.59,8.64,2.3,13,.37,2.16.64,4.35.94,6.52s.61,4.35.86,6.54c1.07,8.73,1.67,17.51,2,26.31,0,2.2.1,4.39.12,6.59s-.06,4.4-.1,6.6l-.1,3.29c0,1.1-.12,2.2-.2,3.3q-.23,3.29-.52,6.57c-.16-2.2-.28-4.39-.39-6.58-.06-1.09-.08-2.18-.16-3.28l-.24-3.27c-.15-2.18-.24-4.37-.43-6.55s-.35-4.35-.53-6.53c-.76-8.7-1.61-17.39-2.66-26.07-.22-2.17-.5-4.34-.77-6.5s-.55-4.34-.84-6.5-.55-4.34-.86-6.5-.6-4.33-.89-6.5C123.67,484.93,122.38,476.27,121.1,467.58Z"/><path id="Tracé_3183-4" data-name="Tracé 3183" class="cls-8" d="M126.77,497.09a47.91,47.91,0,0,1,28.82,10.69c13.35,11,12.51,18.75,9,23.14s-12.44,4.68-20.27-4.58S126.77,497.09,126.77,497.09Z"/><path id="Tracé_3184-4" data-name="Tracé 3184" class="cls-8" d="M122.92,473.17a47.94,47.94,0,0,1,30.7,1.6c16,6.54,17.54,14.16,15.51,19.4s-10.48,8.18-20.72,1.67S122.92,473.17,122.92,473.17Z"/><path id="Tracé_3185-4" data-name="Tracé 3185" class="cls-8" d="M131.61,541.89a25,25,0,0,1,15,5.57c6.95,5.74,6.51,9.76,4.69,12s-6.48,2.43-10.55-2.39S131.61,541.89,131.61,541.89Z"/><path id="Tracé_3186-4" data-name="Tracé 3186" class="cls-8" d="M126.76,497.83c-.09.3-3,.89-3.3,1a73.39,73.39,0,0,0-8.1,3.22C105.91,506.51,99.73,513,95,522.2c-1.64,3.17-3.46,7.1-2.35,10.73,1.33,4.37,6.31,6.36,10.52,5.51,9.6-1.94,13.35-11.87,16.43-20,2.53-6.65,4.84-13.38,7-20.15Z"/><path id="Tracé_3187-4" data-name="Tracé 3187" class="cls-8" d="M122.51,474.75c-.15.28-3.1.33-3.43.38a75.16,75.16,0,0,0-8.55,1.7c-10.11,2.67-17.36,7.93-23.7,16.12-2.19,2.81-4.69,6.36-4.26,10.13.52,4.54,5.05,7.4,9.35,7.32,9.79-.17,15.28-9.25,19.78-16.66,3.7-6.08,7.19-12.29,10.57-18.55Z"/><path id="Tracé_3188-4" data-name="Tracé 3188" class="cls-8" d="M131.56,534.94a9.75,9.75,0,0,1-2,.62,44.12,44.12,0,0,0-5,2,25.91,25.91,0,0,0-12.47,12.32c-1,1.94-2.11,4.35-1.43,6.57.81,2.67,3.86,3.89,6.43,3.37,5.87-1.19,8.16-7.26,10-12.22,1.55-4.07,3-8.19,4.3-12.33Z"/></g></g></svg>