<svg xmlns="http://www.w3.org/2000/svg" viewBox="0 0 203.16 246.31"><defs><style>.cls-1{fill:#b4813b;}.cls-2{fill:#0a0a0a;}.cls-3{fill:#212121;}.cls-4{fill:#c39049;}.cls-5{fill:#4c4c4c;}.cls-6{fill:#cd9a51;}.cls-7{fill:#222526;}.cls-8{fill:#0c0101;}.cls-9{fill:#c48a3f;}.cls-10{fill:#4f361b;}.cls-11{fill:#dfac6a;}</style></defs><title>fond2Plan de travail 21</title><g id="Calque_9" data-name="Calque 9"><path class="cls-1" d="M131.37,131.92c2.22-6.33,27.48-17.36,33-17.91s25.39,7.07,26.49,9.45,2.93,10.85-2,11.21S169.08,133,169.08,133s-8.22,8.41-14.44,10.23-12.09,3.19-18.5.52C131.78,142,129.14,138.3,131.37,131.92Z"/><path class="cls-2" d="M149.21,112.45s16.16,23.22,19.08,25-20.55,13.71-27.56,11c-2.65-1-10.32-3.95-10.4-12.86C130.21,123.61,146.94,113.71,149.21,112.45Z"/><ellipse class="cls-3" cx="99.79" cy="197.61" rx="3.01" ry="9.32" transform="translate(-121.52 202.7) rotate(-64.52)"/><path class="cls-4" d="M126.93,188.93c1.37,9.31,0,22.06,6.82,27.27s25.13,4.39,29,.83,13.51-11.13,13-27.68c-.55-17,.55-28.95-14.25-43.57s-21-17.19-21-17.19l-11.06,4.31"/><path class="cls-2" d="M136.59,143.7c-1.37,4.39-9.41,21.32-9.55,30.74-.13,9.2-1,36.19,5.78,41.4s27.15,5.07,31,1.51,13.5-11.13,13-27.68c-.55-17,.55-28.95-14.25-43.57s-20.15-18.43-20.15-18.43Z"/><path class="cls-5" d="M126.93,184.43V170.76s5.17-28.86,6.92-31.51,8.53-11.58,8.53-11.58l-12.16,44.19-3.29,12.57"/><path class="cls-1" d="M142.83,188.48s-3.29,3.11-.55,12.24-1.36,8.77-5.93,8.59S123.27,218,123.27,218s3.47,18.63,0,20.09S116,243,112.49,241.7s-3.3-3.48-4.12-6S90,212.46,91.3,203.88s3.83-13.7,8.4-14.8,9.15-6.2,20.47-4.19S142.83,188.48,142.83,188.48Z"/><path class="cls-2" d="M91.52,193.39c12.31,2.3,14.52,2,17.79,10.48,1,2.55,25.68,3.7,30.05,3.06,6-.87,14,11.27,17-3.2s-19.87-23.61-19.87-23.61-12.69,4.08-19.69,4.08C99.71,184.2,91.52,193.39,91.52,193.39Z"/><ellipse class="cls-3" cx="114.95" cy="196.12" rx="3.01" ry="9.32" transform="translate(-111.54 215.54) rotate(-64.52)"/><path class="cls-6" d="M150.85,191.45s13.05,5.67,15.79,14.8-6.39,15.17-11,15-18.08-4.93-18.08-4.93,3.47,18.64,0,20.1-7.31,4.93-10.78,3.65-3.3-3.47-4.12-6-18.35-23.2-17.08-31.79,3.84-13.7,8.41-14.79,8.77-3.84,20.09-1.83S150.85,191.45,150.85,191.45Z"/><path class="cls-6" d="M71.51,137.48s-27.07-19.62-30.67-33.59c-3.9-15.1-2.19-20,0-27.51S48.79,60.63,51.3,56.91c2.19-3.25,11.2-12.66,19.23-14.85s15.09-5.6,31-4.14A58.09,58.09,0,0,1,129,48.15s15.34,13.14,18.5,28.47c.7,3.42,1.26,6.26,1.71,8.63a75.46,75.46,0,0,1,.89,21.89,64.75,64.75,0,0,1-1.38,8.67c-1.71,6.57-10,17-13.63,21.67s-17.53,14.36-22.4,16.3-25.8,7.31-28.72,5.36-3.89-9.25-5.84-12.9S71.51,137.48,71.51,137.48Z"/><path class="cls-7" d="M131.25,56.45c3.16,2.9,15.75,4,16.05,6.44s4.94,23.53,5.74,35.67c.51,7.84-6.16,22.08-6.16,22.08L127.52,96.58l-7.14,7.09L116.87,97l1.67-3.15-1.79.58s1.08-4.94-.09-6.88S106.12,80.83,104,80.92s6.1-4.66,6.1-4.66l-9.34-1.34,11-6.62-15.07-.89,6.44-2.74,32.29-10.19"/><path class="cls-8" d="M16.91,117.28c5.88-2.8,5.91-18.39,5.91-18.39l-8.57,2.57s5.66-6.67,4.32-6.78c-6.25-.54-11.12,7.57-10.92,6.7.87-3.77,7.75-14.06,7.75-14.06-1.53-4.59-10.15,2.64-10,2,1-5.59,13.76-14.4,11.57-15C14.56,73.69,8.44,63,9.85,64.5c3.68,3.92,12.21,6.86,12,5.75-.07-.35-6.93-6.12-5.37-5.66,3.1.92,10.92-5.55,10.25-5.61-4.9-.42-17-16.84-17-16.84s8.1,6.7,22.5,5.7c8.82-.62,8-2.7,8-2.7-11.23-.7-13.32-9-12.71-8.64,7.62,4.64,11.51,2.36,10.38,2.36-3.4,0-18.81-14.59-17.52-13.57,2.16,1.71,6.22,1.54,9.82,1.65s16.36-2.26,19.48-4.09,13.64-7.07,15.81-8.17S80.91,12,80.91,12,64.88,8.61,67,8.27c4.71-.76,11.16-2,16.08-2.62,5.28-.63,8.18.26,12.34,1.08s7.77,3.64,10.66,10.63c0,0,12.3-10.76,12.58-10.35,3.69,5.29.86,15.94,1.21,16,2.28.3,3.45-6.36,3.69-5.92,3,5.44-.94,10.72,1.47,8.08s14.37-5.7,13.13-3.6-.75,10.58-.75,10.58,3.87-5.3,3.23-3.65,3,14.2,4,12.64c.64-1,3.84-5.87,5.51-8.82.34,5.63,2.86,17.51,2.86,17.51s6.83,1.92,8,1c-1.31,1.85-7.36,6.11-5.93,5.71s11.8,6.65,9.52,5.34-11.7,1.73-12.13,2.83,8.73,5.94,7.39,5.44-15.55.47-15.55.47,7.64,3.71,6.47,3.85-16.19-3.26-16.19-3.26l-4.07,7.29-29.81-3.6s12.78-7.11,11-6.62c-3.6,1-26.17,6.68-26.17,6.68s-4.73,14.6-9.23,21.53-7.91,5.49-7.75,5.22c.51-.84,3.34-4.64.21-12.58-3.1,4.82-13,24.34-13.48,24.56l.14-9.44c-3.7,1.77-4.92,13.49-4.92,13.49-5.25-1.69-6.58-8.43-6.9-4.72-.12,1.41,1.55,2.63,2.79,6.32,2,6,9.2,13,9.2,13l-10-7.14-.4-.91a8.22,8.22,0,0,1-.45,1.18c-3.75,7.51-6.79,7.54-6.41,6.68,2.46-5.65-3.3-16.84-3.3-16.84l-2.31,10.22c-3.42-3.13-1.18-3.53-4-1.34s-8.81,1.61-7,.76,6-9.22,1.31-6.78-10.28,1-10.28,1S11,120.09,16.91,117.28Z"/><ellipse class="cls-6" cx="134.99" cy="98.56" rx="15.16" ry="9.15" transform="translate(28.59 227.47) rotate(-86.6)"/><path class="cls-8" d="M66.27,115.55a1,1,0,0,1-.58-1.77c.1-.08,10.11-7.5,14.84-14.77a1,1,0,0,1,1.36-.29,1,1,0,0,1,.29,1.36c-4.93,7.57-14.91,15-15.33,15.28A1,1,0,0,1,66.27,115.55Z"/><path class="cls-9" d="M77.9,121.61l.12-1-1-.27c.71-3,1.47-4.76,2.36-5.5l1.25,1.51c-.13.11-.85.86-1.67,4.33Z"/><path class="cls-2" d="M81.81,132.58a2.07,2.07,0,0,1-2.09-2c0-.49,0-3.3,3.09-10.39,1.67-3.84,5.82-7.47,6-7.62a2.08,2.08,0,0,1,3,.22,2.12,2.12,0,0,1-.22,3s-3.6,3.16-4.88,6.12c-2.69,6.18-2.75,8.52-2.75,8.55a2.13,2.13,0,0,1-2.05,2.12Z"/><path class="cls-10" d="M101,151.53a.89.89,0,0,1-.32-.05,1,1,0,0,1-.62-1.24c.06-.16,1.37-4,6-8.79a1,1,0,1,1,1.42,1.36c-4.29,4.48-5.53,8-5.54,8.06A1,1,0,0,1,101,151.53Z"/><ellipse class="cls-11" cx="106.4" cy="120.89" rx="8.79" ry="5.31" transform="translate(-54.32 110.64) rotate(-45)"/><path class="cls-6" d="M140.78,136.71c2.22-6.33,20.85-18.33,26.33-18.88s27.3,9.7,28.39,12.08,2.94,10.85-2,11.21-19.75-1.65-19.75-1.65-8.22,8.4-14.43,10.23-9.79.78-16.2-1.89C138.77,146,138.54,143.1,140.78,136.71Z"/><path class="cls-2" d="M156.42,117.83s16.15,23.22,19.08,25S155,156.6,147.93,153.93c-2.64-1-10.32-4-10.4-12.87C137.42,129,154.14,119.09,156.42,117.83Z"/><path class="cls-2" d="M106.54,192.11c12.31,2.3,27.79,15.71,31.06,24.19,1,2.55,14.76,5.51,19.13,4.87,6-.87,14.46-4.43,17.47-18.9s-19.86-23.6-19.86-23.6-20.41,5.76-27.41,5.76C109.81,184.43,106.54,192.11,106.54,192.11Z"/></g></svg>